<svg width="76" height="26" viewBox="0 0 76 26" fill="none" xmlns="http://www.w3.org/2000/svg">
    <g clip-path="url(#clip0_813_2386)">
        <path d="M26.6055 0.63614L22.639 17.8868C22.6016 18.1113 22.3771 18.2984 22.1526 18.2984H15.8286C15.5666 18.2984 15.3795 18.1113 15.3047 17.8868L13.7705 10.4028C13.6582 9.84146 12.8724 9.84146 12.7601 10.4028L11.2259 17.8868C11.1885 18.1113 10.964 18.2984 10.702 18.2984H4.4529C4.22838 18.2984 4.00386 18.1487 3.96644 17.8868L-8.12775e-05 0.63614C-0.0749213 0.29936 0.187019 0 0.523799 0H5.61292C5.87486 0 6.09938 0.1871 6.1368 0.44904L7.33424 8.68144C7.40908 9.24274 8.23232 9.28016 8.34458 8.71886L10.1033 0.41162C10.1407 0.1871 10.3653 0 10.5898 0H16.0157C16.2776 0 16.4647 0.1871 16.5396 0.41162L18.3357 8.68144C18.448 9.24274 19.2712 9.20532 19.3461 8.64402L20.5435 0.41162C20.5435 0.1871 20.768 0 20.9925 0H26.0817C26.4184 0 26.6804 0.29936 26.6055 0.63614Z" fill="white"/>
        <path d="M33.9775 4.11598C34.2394 4.26566 34.464 4.41534 34.6885 4.63986C35.0253 4.93922 35.5491 4.67728 35.5491 4.26566C35.5491 3.9663 35.7737 3.74178 36.073 3.74178H40.7505C41.0499 3.74178 41.2744 3.9663 41.2744 4.26566V17.8117C41.2744 18.1111 41.0499 18.3356 40.7505 18.3356H36.073C35.7737 18.3356 35.5491 18.1111 35.5491 17.8117C35.5491 17.3627 35.0253 17.1381 34.6885 17.4375C34.464 17.6246 34.2394 17.8117 33.9775 17.9614C33.3039 18.3356 32.4807 18.5601 31.5078 18.5601C30.3852 18.5601 29.3374 18.2607 28.4393 17.662C27.5413 17.0633 26.7929 16.2026 26.269 15.08C25.7451 13.9574 25.4832 12.6103 25.4832 11.0761C25.4832 9.54188 25.7451 8.19476 26.269 7.07216C26.7929 5.94956 27.5038 5.0889 28.4393 4.49018C29.3374 3.89146 30.3852 3.5921 31.5078 3.5921C32.4807 3.55468 33.3039 3.74178 33.9775 4.11598ZM31.9194 9.2051C31.5078 9.65414 31.3207 10.2529 31.3207 11.0013C31.3207 11.7871 31.5078 12.3858 31.9194 12.7974C32.331 13.2465 32.8175 13.4336 33.4536 13.4336C34.0898 13.4336 34.5762 13.209 34.9878 12.7974C35.3995 12.3858 35.5866 11.7497 35.5866 11.0013C35.5866 10.2154 35.3995 9.61672 34.9878 9.2051C34.5762 8.79348 34.0898 8.56896 33.4536 8.56896C32.8175 8.56896 32.331 8.75606 31.9194 9.2051Z" fill="white"/>
        <path d="M51.041 4.1163C51.3029 4.26598 51.5274 4.41566 51.752 4.64018C52.0887 4.93954 52.6126 4.6776 52.6126 4.26598C52.6126 3.96662 52.8371 3.7421 53.1365 3.7421H57.814C58.1134 3.7421 58.3379 3.96662 58.3379 4.26598C58.3379 5.2389 58.525 6.62344 57.2527 6.88538C56.6914 6.99764 56.1301 6.88538 55.5688 6.84796C55.3443 6.84796 55.1572 6.84796 54.9701 6.99764C54.5959 7.297 54.783 7.89572 55.0449 8.30734C55.6811 9.24284 56.4295 10.1035 57.103 11.039C58.6747 13.2468 58.3005 15.492 58.3005 18.0365C58.3005 19.3837 58.0385 20.6185 57.5521 21.7411C57.0656 22.8637 56.2424 23.7618 55.1198 24.4354C53.9972 25.1089 52.5752 25.4457 50.8539 25.4457C48.4964 25.4457 46.6628 24.8844 45.2783 23.7992C44.0434 22.8263 43.295 21.554 43.0331 19.945C42.9583 19.6456 43.2202 19.3462 43.557 19.3462H48.2345C48.459 19.3462 48.6087 19.4585 48.7209 19.6456C48.9829 20.2069 49.5442 20.4688 50.4797 20.4688C51.1532 20.4688 51.6771 20.2817 52.0513 19.945C52.4255 19.6082 52.6126 18.972 52.6126 17.9991V17.7372C52.6126 17.2881 52.0887 17.0636 51.752 17.363C51.5274 17.5501 51.3029 17.7372 51.041 17.8869C50.3674 18.2611 49.5442 18.4856 48.5713 18.4856C47.4487 18.4856 46.4009 18.1862 45.5028 17.5875C44.6047 16.9888 43.8563 16.1281 43.3325 15.0055C42.8086 13.8829 42.5466 12.5358 42.5466 11.0016C42.5466 9.46736 42.8086 8.12024 43.3325 6.99764C43.8563 5.87504 44.5673 5.01438 45.5028 4.41566C46.4009 3.81694 47.4487 3.51758 48.5713 3.51758C49.5442 3.555 50.3674 3.7421 51.041 4.1163ZM48.9829 9.20542C48.5713 9.65446 48.3842 10.2532 48.3842 11.0016C48.3842 11.7874 48.5713 12.3861 48.9829 12.7977C49.3945 13.2468 49.881 13.4339 50.5171 13.4339C51.1532 13.4339 51.6397 13.2094 52.0513 12.7977C52.4629 12.3861 52.65 11.75 52.65 11.0016C52.65 10.2158 52.4629 9.61704 52.0513 9.20542C51.6397 8.7938 51.1532 8.56928 50.5171 8.56928C49.881 8.56928 49.3571 8.75638 48.9829 9.20542Z" fill="white"/>
        <path d="M68.7033 4.11599C68.9652 4.26567 69.1897 4.41535 69.4142 4.63987C69.751 4.93923 70.2749 4.67729 70.2749 4.22825C70.2749 3.92889 70.5368 3.70437 70.7988 3.70437H75.4388C75.7382 3.70437 75.9627 3.92889 75.9627 4.22825V18.0362C75.9627 19.3833 75.7008 20.6182 75.2143 21.7408C74.7279 22.8634 73.9046 23.7615 72.782 24.435C71.6594 25.1086 70.2375 25.4454 68.5162 25.4454C66.1587 25.4454 64.3251 24.8841 62.9406 23.7989C61.7057 22.826 60.9573 21.5537 60.6954 19.9446C60.658 19.6453 60.8825 19.3459 61.2193 19.3459H63.5019C64.0258 19.3459 64.5496 19.3459 65.1109 19.3459C65.4477 19.3459 65.5226 19.6079 65.8219 19.7575C67.9174 20.8053 69.6013 20.6182 71.2478 18.9717C71.9214 18.2982 72.333 17.4749 72.3704 16.1278C72.3704 15.4168 71.8839 15.1923 71.5472 15.1549C71.1355 15.1175 70.7239 15.2297 70.3497 15.8284C70.1252 16.2401 70.0504 16.7265 69.7884 17.1007C68.9652 18.3356 67.4684 18.5227 66.271 18.5227C65.1484 18.5227 64.1006 18.2233 63.2025 17.6246C62.3044 17.0259 61.556 16.1652 61.0322 15.0426C60.5083 13.92 60.2463 12.5729 60.2463 11.0387C60.2463 9.50447 60.5083 8.15735 61.0322 7.03475C61.556 5.91215 62.267 5.05149 63.2025 4.45277C64.1006 3.85405 65.1484 3.55469 66.271 3.55469C67.2065 3.55469 68.0297 3.74179 68.7033 4.11599ZM66.6452 9.20511C66.2335 9.65415 66.0464 10.2529 66.0464 11.0013C66.0464 11.7871 66.2335 12.3858 66.6452 12.7974C67.0568 13.2465 67.5432 13.4336 68.1794 13.4336C68.8155 13.4336 69.302 13.209 69.7136 12.7974C70.1252 12.3858 70.3123 11.7497 70.3123 11.0013C70.3123 10.2154 70.1252 9.61673 69.7136 9.20511C69.302 8.79349 68.8155 8.56897 68.1794 8.56897C67.5432 8.56897 67.0568 8.75607 66.6452 9.20511Z" fill="white"/>
        <path d="M58.9743 8.23322C59.3051 8.23322 59.5733 7.96503 59.5733 7.63419C59.5733 7.30335 59.3051 7.03516 58.9743 7.03516C58.6434 7.03516 58.3752 7.30335 58.3752 7.63419C58.3752 7.96503 58.6434 8.23322 58.9743 8.23322Z" fill="white"/>
    </g>
    <defs>
        <clipPath id="clip0_813_2386">
            <rect width="76" height="25.4456" fill="white"/>
        </clipPath>
    </defs>
</svg>
