<svg width="24" height="24" viewBox="0 0 24 24" fill="none" xmlns="http://www.w3.org/2000/svg">
    <path fill-rule="evenodd" clip-rule="evenodd" d="M3.59961 18C3.59961 17.8011 3.67547 17.6103 3.81049 17.4697C3.94552 17.329 4.12865 17.25 4.31961 17.25H18.7196C18.9106 17.25 19.0937 17.329 19.2287 17.4697C19.3638 17.6103 19.4396 17.8011 19.4396 18C19.4396 18.1989 19.3638 18.3897 19.2287 18.5303C19.0937 18.671 18.9106 18.75 18.7196 18.75H4.31961C4.12865 18.75 3.94552 18.671 3.81049 18.5303C3.67547 18.3897 3.59961 18.1989 3.59961 18ZM3.59961 12C3.59961 11.8011 3.67547 11.6103 3.81049 11.4697C3.94552 11.329 4.12865 11.25 4.31961 11.25H18.7196C18.9106 11.25 19.0937 11.329 19.2287 11.4697C19.3638 11.6103 19.4396 11.8011 19.4396 12C19.4396 12.1989 19.3638 12.3897 19.2287 12.5303C19.0937 12.671 18.9106 12.75 18.7196 12.75H4.31961C4.12865 12.75 3.94552 12.671 3.81049 12.5303C3.67547 12.3897 3.59961 12.1989 3.59961 12ZM3.59961 6C3.59961 5.80109 3.67547 5.61032 3.81049 5.46967C3.94552 5.32902 4.12865 5.25 4.31961 5.25H18.7196C18.9106 5.25 19.0937 5.32902 19.2287 5.46967C19.3638 5.61032 19.4396 5.80109 19.4396 6C19.4396 6.19891 19.3638 6.38968 19.2287 6.53033C19.0937 6.67098 18.9106 6.75 18.7196 6.75H4.31961C4.12865 6.75 3.94552 6.67098 3.81049 6.53033C3.67547 6.38968 3.59961 6.19891 3.59961 6V6Z" fill="#463677"/>
</svg>
