<svg width="24" height="24" viewBox="0 0 24 24" fill="none" xmlns="http://www.w3.org/2000/svg">
    <path d="M3.09006 4.28097C3.02311 4.21124 2.97001 4.12846 2.93378 4.03735C2.89755 3.94624 2.87891 3.84859 2.87891 3.74997C2.87891 3.65135 2.89755 3.5537 2.93378 3.4626C2.97001 3.37149 3.02311 3.2887 3.09006 3.21897C3.157 3.14924 3.23647 3.09392 3.32394 3.05619C3.4114 3.01845 3.50514 2.99902 3.59982 2.99902C3.69449 2.99902 3.78823 3.01845 3.8757 3.05619C3.96316 3.09392 4.04263 3.14924 4.10958 3.21897L11.5198 10.9395L18.9301 3.21897C18.997 3.14924 19.0765 3.09392 19.1639 3.05619C19.2514 3.01845 19.3451 2.99902 19.4398 2.99902C19.5345 2.99902 19.6282 3.01845 19.7157 3.05619C19.8032 3.09392 19.8826 3.14924 19.9496 3.21897C20.0165 3.2887 20.0696 3.37149 20.1058 3.4626C20.1421 3.5537 20.1607 3.65135 20.1607 3.74997C20.1607 3.84859 20.1421 3.94624 20.1058 4.03735C20.0696 4.12846 20.0165 4.21124 19.9496 4.28097L12.5379 12L19.9496 19.719C20.0165 19.7887 20.0696 19.8715 20.1058 19.9626C20.1421 20.0537 20.1607 20.1514 20.1607 20.25C20.1607 20.3486 20.1421 20.4462 20.1058 20.5373C20.0696 20.6285 20.0165 20.7112 19.9496 20.781C19.8826 20.8507 19.8032 20.906 19.7157 20.9438C19.6282 20.9815 19.5345 21.0009 19.4398 21.0009C19.3451 21.0009 19.2514 20.9815 19.1639 20.9438C19.0765 20.906 18.997 20.8507 18.9301 20.781L11.5198 13.0605L4.10958 20.781C4.04263 20.8507 3.96316 20.906 3.8757 20.9438C3.78823 20.9815 3.69449 21.0009 3.59982 21.0009C3.50514 21.0009 3.4114 20.9815 3.32394 20.9438C3.23647 20.906 3.157 20.8507 3.09006 20.781C3.02311 20.7112 2.97001 20.6285 2.93378 20.5373C2.89755 20.4462 2.87891 20.3486 2.87891 20.25C2.87891 20.1514 2.89755 20.0537 2.93378 19.9626C2.97001 19.8715 3.02311 19.7887 3.09006 19.719L10.5017 12L3.09006 4.28097Z" fill="#463677"/>
</svg>
