<svg width="70" height="28" viewBox="0 0 70 28" fill="none" xmlns="http://www.w3.org/2000/svg">
    <rect width="70" height="28" rx="5" fill="#D3F8E2"/>
    <path d="M12.9993 12.5417V14.8751L14.4577 15.7501M12.9993 9.91675C10.2609 9.91675 8.04102 12.1367 8.04102 14.8751C8.04102 17.6135 10.2609 19.8334 12.9993 19.8334C15.7378 19.8334 17.9577 17.6135 17.9577 14.8751C17.9577 12.1367 15.7378 9.91675 12.9993 9.91675ZM12.9993 9.91675V8.16675M11.8327 8.16675H14.166M17.8579 10.2621L16.9829 9.38711L17.4204 9.82461M8.14078 10.2621L9.01578 9.38711L8.57828 9.82461" stroke="#27AE60" stroke-width="1.5" stroke-linecap="round" stroke-linejoin="round"/>
    <path d="M30.396 18L29.856 16.428H26.592L26.052 18H24.264L27.228 9.6H29.232L32.184 18H30.396ZM27.036 15.132H29.424L28.224 11.64L27.036 15.132ZM33.8049 17.16C33.1969 16.536 32.8929 15.708 32.8929 14.676C32.8929 13.644 33.1969 12.816 33.8049 12.192C34.4129 11.568 35.2009 11.256 36.1689 11.256C36.9769 11.256 37.6529 11.452 38.1969 11.844C38.7409 12.236 39.1049 12.792 39.2889 13.512H37.4649C37.2489 12.96 36.8169 12.684 36.1689 12.684C35.6809 12.684 35.2969 12.864 35.0169 13.224C34.7449 13.576 34.6089 14.06 34.6089 14.676C34.6089 15.292 34.7449 15.78 35.0169 16.14C35.2969 16.492 35.6809 16.668 36.1689 16.668C36.8089 16.668 37.2409 16.388 37.4649 15.828H39.2889C39.0969 16.524 38.7249 17.076 38.1729 17.484C37.6289 17.892 36.9609 18.096 36.1689 18.096C35.2009 18.096 34.4129 17.784 33.8049 17.16ZM43.1363 16.584H43.9403V18H42.8723C42.1923 18 41.6683 17.844 41.3003 17.532C40.9323 17.22 40.7483 16.704 40.7483 15.984V12.732H40.0403V11.352H40.7483V9.708H42.4403V11.352H43.9283V12.732H42.4403V15.984C42.4403 16.2 42.4923 16.356 42.5963 16.452C42.7003 16.54 42.8803 16.584 43.1363 16.584ZM47.1275 9.66C47.1275 9.948 47.0275 10.192 46.8275 10.392C46.6275 10.592 46.3835 10.692 46.0955 10.692C45.8155 10.692 45.5755 10.592 45.3755 10.392C45.1755 10.192 45.0755 9.948 45.0755 9.66C45.0755 9.372 45.1755 9.128 45.3755 8.928C45.5755 8.728 45.8155 8.628 46.0955 8.628C46.3835 8.628 46.6275 8.728 46.8275 8.928C47.0275 9.128 47.1275 9.372 47.1275 9.66ZM45.2555 18V11.352H46.9475V18H45.2555ZM47.9317 11.352H49.7317L51.4477 16.548L53.1517 11.352H54.9517L52.5037 18H50.3797L47.9317 11.352ZM60.1673 16.116C60.5193 15.764 60.6953 15.284 60.6953 14.676C60.6953 14.068 60.5193 13.592 60.1673 13.248C59.8153 12.896 59.4033 12.72 58.9313 12.72C58.4593 12.72 58.0473 12.892 57.6953 13.236C57.3513 13.58 57.1793 14.056 57.1793 14.664C57.1793 15.272 57.3553 15.752 57.7073 16.104C58.0593 16.456 58.4673 16.632 58.9313 16.632C59.4033 16.632 59.8153 16.46 60.1673 16.116ZM56.3513 17.136C55.7593 16.488 55.4633 15.664 55.4633 14.664C55.4633 13.664 55.7593 12.848 56.3513 12.216C56.9433 11.576 57.6953 11.256 58.6073 11.256C59.5193 11.256 60.2153 11.632 60.6953 12.384V11.352H62.3753V18H60.6953V16.884C60.1913 17.692 59.4913 18.096 58.5953 18.096C57.6993 18.096 56.9513 17.776 56.3513 17.136Z" fill="#27AE60"/>
</svg>
