<svg width="36" height="36" viewBox="0 0 36 36" fill="none" xmlns="http://www.w3.org/2000/svg">
    <mask id="mask0_475_763" style="mask-type:alpha" maskUnits="userSpaceOnUse" x="0" y="0" width="36" height="36">
        <rect width="36" height="36" rx="18" fill="#D9D9D9"/>
    </mask>
    <g mask="url(#mask0_475_763)">
        <rect y="-0.62085" width="37.8621" height="37.8621" fill="#E7EBF8"/>
        <path d="M14.8946 10.3619C14.8946 10.3619 13.9121 8.05197 13.1165 8.06894C12.7188 8.06894 12.5057 8.35318 12.2471 8.72226C10.7995 10.8286 10.0517 13.3103 9.32575 15.7454C6.86087 24.018 2.77883 31.6329 1.85939 40.194C1.46379 43.8721 -3.33119 47.1938 -5.61566 42.8284C-6.65248 40.843 -6.20688 38.461 -5.73521 36.2804C-5.26354 34.0999 -4.91793 32.3117 -5.10269 30.0548C-5.22224 28.606 -5.39613 27.1424 -5.94388 25.7913C-6.49163 24.4401 -7.46541 23.1992 -8.80435 22.5819C-10.1433 21.9647 -11.6713 22.0304 -13.1125 22.2744C-13.9819 22.4207 -14.8644 22.6413 -15.5838 23.1419C-16.3033 23.6425 -16.8337 24.4719 -16.7489 25.331C-16.6641 26.19 -15.8273 26.9706 -14.9578 26.8285C-14.0297 26.6779 -13.5211 25.6852 -12.6929 25.2482C-11.4953 24.6119 -9.91724 25.3734 -9.25212 26.5337C-8.58699 27.6939 -8.61307 29.1045 -8.74349 30.4281C-9.09344 33.9471 -10.0607 37.394 -10.265 40.9236C-10.3454 42.4191 -10.265 44.0099 -9.41731 45.2614C-8.83261 46.129 -7.93056 46.7462 -6.98504 47.2235C-5.20702 48.1144 -3.44857 48.1695 -1.45102 48.1695H30.7184C31.8987 48.1695 32.7464 47.6392 33.0638 46.6847C33.3811 45.7302 33.1768 44.6866 32.9681 43.7002C31.4872 36.7386 29.8468 29.8094 28.0471 22.9128C27.3537 20.2614 26.6342 17.6099 25.7039 15.0306C25.2323 13.7261 24.7062 12.4364 24.1063 11.1828C23.7303 10.4043 23.3977 9.58557 22.8652 8.89195C22.1544 7.96288 21.674 7.91834 21.0111 8.9365L20.0677 10.3831C18.2158 10.328 14.8837 10.3577 14.8837 10.3577" fill="#9188FD"/>
        <path d="M11.9453 16.2141C11.9453 16.7175 12.0983 17.2097 12.3849 17.6282C12.6715 18.0468 13.0789 18.3731 13.5555 18.5657C14.0321 18.7584 14.5565 18.8088 15.0625 18.7106C15.5685 18.6124 16.0332 18.3699 16.398 18.014C16.7628 17.658 17.0112 17.2044 17.1119 16.7107C17.2125 16.2169 17.1609 15.7051 16.9634 15.24C16.766 14.7749 16.4317 14.3774 16.0028 14.0977C15.5738 13.818 15.0695 13.6687 14.5536 13.6687C13.8619 13.6687 13.1984 13.9369 12.7093 14.4142C12.2201 14.8916 11.9453 15.539 11.9453 16.2141Z" fill="white"/>
        <path d="M14.3184 15.9787C14.3184 16.9247 14.7531 17.6883 15.2856 17.6883C15.8182 17.6883 16.2507 16.9247 16.2507 15.9787C16.2507 15.0326 15.816 14.2817 15.2856 14.2817C14.7553 14.2817 14.3184 15.0475 14.3184 15.9787Z" fill="#463677"/>
        <path d="M18.3672 16.2141C18.3672 16.7175 18.5202 17.2097 18.8068 17.6282C19.0934 18.0468 19.5007 18.3731 19.9774 18.5657C20.454 18.7584 20.9784 18.8088 21.4844 18.7106C21.9903 18.6124 22.4551 18.3699 22.8199 18.014C23.1847 17.658 23.4331 17.2044 23.5337 16.7107C23.6344 16.2169 23.5827 15.7051 23.3853 15.24C23.1879 14.7749 22.8536 14.3774 22.4246 14.0977C21.9957 13.818 21.4914 13.6687 20.9755 13.6687C20.2837 13.6687 19.6203 13.9369 19.1312 14.4142C18.642 14.8916 18.3672 15.539 18.3672 16.2141Z" fill="white"/>
        <path d="M20.7422 15.9787C20.7422 16.9247 21.1769 17.6883 21.7073 17.6883C22.2376 17.6883 22.6745 16.9247 22.6745 15.9787C22.6745 15.0326 22.2398 14.2817 21.7073 14.2817C21.1747 14.2817 20.7422 15.0475 20.7422 15.9787Z" fill="#463677"/>
        <path d="M29.0582 25.2569C28.9708 24.6639 28.7299 24.1025 28.3583 23.6257C28.318 23.5724 28.2651 23.5294 28.204 23.5006C28.1219 23.4737 28.0338 23.47 27.9497 23.49C25.0283 23.9142 21.9831 24.3172 18.9922 24.506C17.8855 24.576 16.7754 24.576 15.6687 24.506C12.6779 24.3172 9.63045 23.9121 6.71129 23.49C6.62646 23.4701 6.53761 23.4737 6.4548 23.5006C6.39485 23.5302 6.34277 23.5731 6.30265 23.6257C5.93126 24.1029 5.68973 24.664 5.60058 25.2569C5.57804 25.3438 5.58568 25.4356 5.62231 25.5178C5.65951 25.5725 5.71038 25.617 5.77012 25.6472C6.33308 25.9929 11.8128 27.1744 13.1343 27.3696C14.5192 27.5707 15.9148 27.6946 17.3142 27.7408H17.3468C18.7461 27.6945 20.1417 27.5706 21.5266 27.3696C22.846 27.1744 28.3257 25.9929 28.8908 25.6472C28.9506 25.617 29.0014 25.5725 29.0386 25.5178C29.0745 25.4353 29.0814 25.3436 29.0582 25.2569Z" fill="#FFA7FE"/>
        <path d="M18.61 19.4826C18.5882 19.4059 18.5459 19.3362 18.4874 19.2807C18.429 19.2252 18.3565 19.1858 18.2774 19.1665L18.16 19.1432C18.0886 19.1265 18.0141 19.1265 17.9427 19.1432C17.8591 19.1254 17.7739 19.1162 17.6884 19.1156C17.5297 19.0488 17.3555 19.0249 17.1841 19.0466C17.0128 19.0682 16.8505 19.1346 16.7146 19.2387C16.2799 19.5462 15.9799 20.2992 16.595 20.6153C16.7298 20.6832 16.8782 20.7215 17.0298 20.7277C17.2599 20.7954 17.5025 20.8135 17.7405 20.7807C17.818 20.7696 17.8944 20.7519 17.9688 20.7277C18.0155 20.7253 18.062 20.7197 18.1079 20.7107C18.2839 20.6772 18.4396 20.578 18.5419 20.4342C18.6442 20.2905 18.685 20.1134 18.6556 19.9408C18.6666 19.7866 18.6511 19.6318 18.61 19.4826Z" fill="#FFA7FE"/>
        <path d="M20.515 20.7026C19.6869 21.0187 18.9935 21.4387 18.0741 21.4535C17.2872 21.4641 15.9005 21.4238 15.3266 20.762C14.9419 20.3102 14.2681 20.9487 14.655 21.3984C15.0897 21.918 16.3048 22.2638 16.946 22.3147C17.5872 22.3656 18.311 22.4547 18.9153 22.2977C19.5673 22.128 20.1477 21.812 20.7672 21.5744C21.3301 21.3623 21.0802 20.4863 20.515 20.7026Z" fill="#FFA7FE"/>
        <path d="M17.5099 19.9984C17.1795 20.0769 17.0752 20.3951 17.0295 20.6645C16.9839 20.9339 16.8491 21.1672 16.86 21.4344C16.8861 22.0199 17.8359 22.022 17.8099 21.4344C17.8245 21.2988 17.8567 21.1656 17.9055 21.0378C17.9309 20.9517 17.9491 20.8637 17.9598 20.7748C18.0317 20.7028 18.0777 20.61 18.0909 20.5103C18.1042 20.4106 18.0839 20.3094 18.0332 20.2219C17.9825 20.1344 17.9041 20.0654 17.8097 20.0251C17.7154 19.9848 17.6102 19.9754 17.5099 19.9984Z" fill="#FFA7FE"/>
        <path d="M12.4001 18.785C10.3352 18.3608 8.28978 17.8531 6.26398 17.262C5.68435 17.0966 5.10979 16.9248 4.5403 16.7466C4.26643 16.6596 4.14688 17.0817 4.42075 17.1708C6.43352 17.7959 8.46729 18.3467 10.5221 18.8232C11.1068 18.959 11.6937 19.0862 12.2805 19.2093C12.5631 19.2708 12.6827 18.8465 12.4001 18.785Z" fill="#463677"/>
        <path d="M11.0946 19.8926C8.77349 19.7572 6.46554 19.4574 4.18902 18.9953C3.54708 18.8666 2.90876 18.7252 2.27407 18.5711C2.21642 18.5559 2.15495 18.5637 2.10318 18.5927C2.05141 18.6217 2.01358 18.6697 1.99802 18.7259C1.98245 18.7822 1.99043 18.8422 2.02018 18.8927C2.04994 18.9432 2.09905 18.9801 2.15669 18.9953C4.4432 19.5518 6.7677 19.9473 9.11225 20.1789C9.76434 20.2447 10.4338 20.2956 11.0946 20.3359C11.3837 20.3486 11.3837 19.9074 11.0946 19.8926Z" fill="#463677"/>
        <path d="M9.79824 20.9082C7.78263 21.2819 5.74219 21.5144 3.69257 21.6039C3.40565 21.6166 3.40348 22.0557 3.69257 22.043C5.78236 21.9501 7.86271 21.7119 9.91779 21.3303C10.2025 21.2772 10.083 20.8551 9.79824 20.9082Z" fill="#463677"/>
        <path d="M29.2498 15.6649L23.4028 18.8127C23.1485 18.9485 23.3745 19.3281 23.6201 19.1903L29.4671 16.0425C29.7301 15.9025 29.5041 15.5249 29.2498 15.6649Z" fill="#463677"/>
        <path d="M31.2222 17.6288C29.3486 18.1803 27.4583 18.6752 25.5513 19.1136C25.0101 19.2388 24.4645 19.3554 23.9254 19.47C23.645 19.5294 23.7646 19.9515 24.045 19.8942C25.9607 19.494 27.8597 19.0337 29.742 18.5133C30.2767 18.3719 30.81 18.2199 31.3418 18.0573C31.6157 17.9703 31.4983 17.5461 31.2222 17.6288Z" fill="#463677"/>
        <path d="M31.7339 20.5541L26.1434 20.3929L24.5567 20.3462C24.2676 20.3462 24.2676 20.7704 24.5567 20.7853L30.1494 20.9465L31.7361 20.991C31.7955 20.9907 31.8523 20.9675 31.8941 20.9263C31.9359 20.8851 31.9592 20.8294 31.9589 20.7715C31.9586 20.7135 31.9347 20.6581 31.8926 20.6173C31.8504 20.5765 31.7933 20.5538 31.7339 20.5541Z" fill="#463677"/>
    </g>
</svg>
