<svg width="36" height="36" viewBox="0 0 36 36" fill="none" xmlns="http://www.w3.org/2000/svg">
    <mask id="mask0_475_1360" style="mask-type:alpha" maskUnits="userSpaceOnUse" x="0" y="0" width="36" height="36">
        <rect width="36" height="36" rx="18" fill="#D9D9D9"/>
    </mask>
    <g mask="url(#mask0_475_1360)">
        <rect y="-0.62085" width="37.8621" height="37.8621" fill="#E7EBF8"/>
        <mask id="mask1_475_1360" style="mask-type:alpha" maskUnits="userSpaceOnUse" x="0" y="0" width="36" height="36">
            <rect width="36" height="36" rx="18" fill="#D9D9D9"/>
        </mask>
        <g mask="url(#mask1_475_1360)">
            <rect y="-0.62085" width="37.8621" height="37.8621" fill="#E7EBF8"/>
            <path d="M10.5433 13.922C9.98851 14.0524 9.45882 14.2688 8.97446 14.5632C8.93553 14.5853 8.90231 14.6158 8.87738 14.6524C8.85244 14.6891 8.83644 14.7308 8.8306 14.7744C8.82477 14.818 8.82926 14.8623 8.84373 14.9039C8.8582 14.9455 8.88226 14.9834 8.91406 15.0145C9.01041 15.124 9.13901 15.2018 9.28232 15.2373L10.0999 16.258C10.1411 16.2979 10.1934 16.3251 10.2504 16.3361C10.3074 16.3471 10.3665 16.3414 10.4201 16.3198C10.4738 16.2981 10.5197 16.2614 10.5521 16.2144C10.5845 16.1673 10.6019 16.112 10.6022 16.0553C10.5881 15.4488 10.6911 14.8451 10.9056 14.2757C10.9852 14.06 10.7392 13.8746 10.5433 13.922ZM10.1352 14.8162C10.1248 14.7625 10.0993 14.7127 10.0616 14.6724L10.1809 14.6293C10.1573 14.6897 10.1411 14.7529 10.1279 14.8162H10.1352Z" fill="#463677"/>
            <path d="M25.373 14.2757C25.5876 14.8451 25.6905 15.4488 25.6765 16.0553C25.6769 16.1116 25.6944 16.1666 25.7266 16.2134C25.7588 16.2602 25.8044 16.2967 25.8577 16.3184C25.9115 16.3407 25.9709 16.3469 26.0284 16.3361C26.0858 16.3254 26.1387 16.2982 26.1803 16.258L26.9978 15.2373C27.1408 15.2021 27.269 15.1242 27.3646 15.0145C27.3965 14.9835 27.4206 14.9457 27.4352 14.9042C27.4498 14.8626 27.4544 14.8183 27.4487 14.7747C27.443 14.7311 27.4272 14.6894 27.4024 14.6527C27.3776 14.6161 27.3445 14.5854 27.3057 14.5632C26.8208 14.2688 26.2906 14.0524 25.7354 13.922C25.5336 13.8746 25.2935 14.06 25.373 14.2757ZM26.0993 14.6278L26.2171 14.671C26.1799 14.7117 26.1545 14.7613 26.1434 14.8147C26.1302 14.7529 26.1155 14.6897 26.0993 14.6278Z" fill="#463677"/>
            <path d="M27.4169 41.2132C26.2149 38.9548 25.0261 36.6548 24.2616 34.2111C23.8734 33.0172 23.6263 31.784 23.5251 30.5354C23.4374 29.2602 23.5467 27.9795 23.8491 26.736C24.1526 25.4681 24.6019 24.2419 25.007 22.9985C25.4365 21.7334 25.7553 20.4349 25.96 19.1172C26.1575 17.778 26.2207 16.4232 26.1486 15.0721C26.0897 14.0256 25.9276 12.9029 25.3075 12.0188C24.5989 11.0054 23.4396 10.6474 22.2686 10.3916C20.9094 10.0956 19.5315 9.88863 18.144 9.77199C16.9125 9.66849 15.6398 9.58368 14.4201 9.79786C13.2608 10.002 12.2415 10.5583 11.5816 11.5229C10.9216 12.4874 10.6093 13.6791 10.4311 14.799C10.2571 15.9626 10.222 17.1421 10.3265 18.3137C10.521 20.7215 11.1176 23.0761 11.5447 25.4494C11.9719 27.8228 12.2091 30.2464 11.7024 32.6284C11.1765 35.1009 10.0334 37.3908 8.80191 39.5917C8.49552 40.1393 8.18176 40.6842 7.868 41.2275C7.84903 41.2585 7.8365 41.2928 7.83112 41.3285C7.82574 41.3642 7.82762 41.4005 7.83665 41.4355C7.84568 41.4705 7.86168 41.5034 7.88374 41.5323C7.9058 41.5613 7.93349 41.5857 7.96522 41.6042C7.96434 41.6394 7.97122 41.6744 7.9854 41.7067C7.99958 41.7391 8.02072 41.7682 8.0474 41.7919C8.07408 41.8156 8.10567 41.8335 8.14004 41.8442C8.1744 41.855 8.21073 41.8584 8.24657 41.8543L12.813 41.5467C14.3244 41.4446 15.8446 41.3483 17.3559 41.5035C20.1665 41.791 22.8637 42.862 25.7155 42.8304C26.3386 42.8304 27.249 42.8548 27.6437 42.2798C27.7518 42.1071 27.7886 41.9008 27.7464 41.7027C27.7043 41.5046 27.5865 41.3296 27.4169 41.2132Z" fill="#FFA7FE"/>
            <path d="M24.1717 21.5985C23.9375 20.2113 22.6677 19.4207 21.5452 18.7235C21.0194 18.3972 20.4817 18.0709 20.0471 17.6295C19.8124 17.4012 19.6297 17.1271 19.5109 16.8251C19.3921 16.5232 19.3399 16.2002 19.3577 15.8772C19.4211 14.7775 20.3123 13.9121 20.3594 12.8585C20.3894 12.5622 20.3583 12.2631 20.2681 11.9787C20.053 11.4281 19.455 11.1162 18.882 10.9379C17.898 10.6203 16.8108 10.5168 15.8239 10.8301C15.4925 10.9365 15.1551 11.1061 14.9872 11.4051C14.6337 12.0376 15.105 12.7521 15.354 13.3271C15.6406 13.9507 15.8021 14.6222 15.8298 15.3051C15.8489 16.2018 15.6166 17.0866 15.1581 17.8639C14.6941 18.6444 14.0548 19.3014 13.4729 19.9986C12.3828 21.3052 11.3738 23.1194 12.3342 24.7696C13.0899 26.0706 14.7147 26.6528 16.1642 26.8023C18.09 27.0033 20.0332 26.6326 21.7397 25.7385C23.2599 24.9134 24.4737 23.3781 24.1717 21.5985Z" fill="white"/>
            <path d="M14.269 17.4279C14.6538 17.4279 14.9658 17.0392 14.9658 16.5597C14.9658 16.0801 14.6538 15.6914 14.269 15.6914C13.8842 15.6914 13.5723 16.0801 13.5723 16.5597C13.5723 17.0392 13.8842 17.4279 14.269 17.4279Z" fill="#463677"/>
            <path d="M21.476 17.4279C21.8609 17.4279 22.1728 17.0392 22.1728 16.5597C22.1728 16.0801 21.8609 15.6914 21.476 15.6914C21.0912 15.6914 20.7793 16.0801 20.7793 16.5597C20.7793 17.0392 21.0912 17.4279 21.476 17.4279Z" fill="#463677"/>
            <path d="M23.9596 28.4422C23.9506 28.3205 23.9084 28.2034 23.8373 28.103C23.6458 27.8442 23.2835 27.7838 22.9535 27.745C21.5307 27.5879 20.1002 27.5068 18.6684 27.5021C17.4242 27.4877 16.1799 27.5117 14.9357 27.574C14.264 27.607 11.9454 27.4101 11.5992 28.0757C11.5358 28.2175 11.4999 28.3696 11.4932 28.5242C11.4563 28.872 11.4225 29.2429 11.5639 29.5592C11.8835 30.288 13.1179 30.0882 13.7631 30.1011C14.4687 30.1155 15.1758 30.1169 15.8829 30.1126L15.8313 30.1442C16.8138 30.1514 17.7949 30.1744 18.7774 30.1701C18.6465 30.1263 18.5126 30.0918 18.3767 30.0666C19.1624 30.0436 19.9509 30.0158 20.7425 29.9832C21.9459 29.9344 23.5074 30.3383 23.9051 28.9065C23.951 28.7561 23.9695 28.5989 23.9596 28.4422Z" fill="#463677"/>
            <path d="M14.3742 8.3261C13.8837 7.34141 12.555 7.49379 11.6284 7.53548C9.58972 7.62748 6.92644 7.57429 6.12215 9.76792C5.92791 10.298 5.76124 10.8372 5.62278 11.3837C5.34311 12.4799 5.17486 13.6003 5.12047 14.7288C5.09838 15.1859 5.07481 15.6746 5.25452 16.1088C5.33724 16.3259 5.48187 16.5155 5.67136 16.6551C5.86084 16.7946 6.08728 16.8784 6.32396 16.8965C6.82185 16.9339 7.32121 16.6981 7.72925 16.4451C8.18884 16.1576 8.62781 15.8356 9.055 15.5122C9.94778 14.8495 10.8025 14.1392 11.6152 13.3847C12.39 12.6659 13.1766 11.9127 13.8085 11.0674C14.3904 10.3056 14.8367 9.24323 14.3742 8.3261Z" fill="#463677"/>
            <path d="M22.0454 11.0672C22.6789 11.9124 23.4655 12.6642 24.2403 13.3844C25.0527 14.1393 25.9074 14.8495 26.8005 15.5119C27.2335 15.8354 27.6725 16.1588 28.1262 16.4449C28.5342 16.6979 29.0336 16.9336 29.5315 16.8963C29.7682 16.8781 29.9946 16.7944 30.1841 16.6548C30.3736 16.5152 30.5182 16.3257 30.6009 16.1085C30.7792 15.6772 30.7571 15.1856 30.735 14.7285C30.6799 13.6001 30.5116 12.4798 30.2327 11.3834C30.1016 10.8659 30.0014 10.2564 29.695 9.82228C29.3886 9.38815 28.8318 9.01727 28.4179 8.67227C28.1991 8.47245 27.9508 8.30577 27.6813 8.17777C26.5957 7.72208 25.3966 7.58695 24.2226 7.53377C23.2961 7.49208 21.9659 7.3397 21.4769 8.3244C21.0305 9.24296 21.4769 10.3053 22.0454 11.0672Z" fill="#463677"/>
            <path d="M19.066 22.5671C19.0545 22.4412 19.017 22.3188 18.9558 22.2073C18.8945 22.0959 18.8107 21.9978 18.7095 21.9188C18.5959 21.8589 18.4789 21.8057 18.3589 21.7592C18.3206 21.7377 18.3015 21.7032 18.3132 21.6802C18.3447 21.6248 18.3573 21.5611 18.349 21.4982C18.3408 21.4354 18.3123 21.3768 18.2676 21.3309C18.2215 21.2861 18.1616 21.2575 18.0971 21.2494C18.0326 21.2413 17.9672 21.2543 17.9111 21.2863C17.5696 21.5326 17.3041 21.8658 17.1436 22.2494C17.0686 22.2296 16.9886 22.2394 16.921 22.2768C16.8534 22.3143 16.8037 22.3762 16.7827 22.4493C16.684 22.9797 16.5927 23.5504 16.8564 24.0506C17.0847 24.4819 17.5826 24.791 18.0864 24.6788C18.5283 24.5796 18.7846 24.1901 18.9187 23.7991C19.0613 23.4043 19.1116 22.9834 19.066 22.5671ZM18.4767 23.1048C18.4767 23.1479 18.4635 23.1939 18.4561 23.2399C18.4676 23.0384 18.4607 22.8364 18.4355 22.6361V22.6246C18.4355 22.5988 18.4355 22.5729 18.4252 22.547C18.4182 22.4913 18.3904 22.4401 18.3471 22.4033L18.3294 22.363C18.5504 22.4794 18.4988 22.8891 18.4753 23.1091L18.4767 23.1048Z" fill="#FFA7FE"/>
            <path d="M22.3028 21.9116C22.2351 22.1143 21.9861 22.1905 21.7946 22.2379C21.5528 22.2919 21.3061 22.3227 21.0581 22.3299C20.5405 22.3756 20.0189 22.3093 19.5306 22.1359C19.2976 22.047 19.0886 21.9073 18.9196 21.7274C18.7505 21.5475 18.626 21.3322 18.5554 21.098C18.4081 20.5963 18.4331 20.0587 18.4817 19.5412C18.6074 19.5123 18.7302 19.4723 18.8485 19.4219C18.903 19.3989 18.9561 19.3744 19.0076 19.3471C19.0674 19.3143 19.1249 19.2778 19.18 19.2379L19.1962 19.2264C19.2188 19.2103 19.2404 19.1931 19.261 19.1746C19.4191 19.0561 19.556 18.9128 19.6661 18.7505C19.8797 18.4257 20.0019 17.9772 19.778 17.6278C19.5806 17.3188 19.1594 17.142 18.8102 17.0658C18.4079 16.9797 17.9892 17.0006 17.5979 17.1262C17.4271 17.1327 17.2587 17.1677 17.1 17.2297C16.9349 17.2889 16.7861 17.3846 16.6653 17.5093C16.5444 17.634 16.4547 17.7843 16.4033 17.9484C16.3818 18.0282 16.3704 18.1103 16.3694 18.1928C16.3265 18.3739 16.3392 18.5634 16.406 18.7375C16.4728 18.9116 16.5908 19.0626 16.745 19.1717C16.872 19.2682 17.0111 19.3484 17.1589 19.4104C17.3514 19.5089 17.5614 19.5709 17.7776 19.5929C18.0428 20.6294 17.3092 21.6399 16.3561 22.0453C15.803 22.2656 15.2045 22.3557 14.6091 22.3084C14.3071 22.2897 13.5161 22.2307 13.5573 21.7851C13.5573 21.7089 13.5263 21.6357 13.471 21.5818C13.4158 21.5279 13.3409 21.4976 13.2627 21.4976C13.1846 21.4976 13.1097 21.5279 13.0544 21.5818C12.9992 21.6357 12.9681 21.7089 12.9681 21.7851C12.921 22.2954 13.3924 22.6232 13.8343 22.7655C14.3734 22.91 14.9379 22.9403 15.49 22.8546C16.5211 22.7267 17.4992 22.2336 18.0295 21.3582C18.1508 21.7297 18.3801 22.0588 18.6894 22.3055C19.4761 22.9265 20.5691 22.9797 21.5324 22.8589C22.0775 22.7899 22.6814 22.6261 22.8714 22.0597C22.9893 21.7118 22.4207 21.5609 22.3028 21.9116Z" fill="#463677"/>
            <path d="M17.4546 31.4537C18.1836 31.4537 18.7745 30.877 18.7745 30.1657C18.7745 29.4543 18.1836 28.8777 17.4546 28.8777C16.7257 28.8777 16.1348 29.4543 16.1348 30.1657C16.1348 30.877 16.7257 31.4537 17.4546 31.4537Z" fill="white"/>
        </g>
    </g>
</svg>
