<svg width="154" height="28" viewBox="0 0 154 28" fill="none" xmlns="http://www.w3.org/2000/svg">
    <rect width="154" height="28" rx="5" fill="#DEF5FE"/>
    <path d="M33.9 9.624V18H32.22V12.156L30.072 18H28.608L26.46 12.18V18H24.768V9.624H26.82L29.364 15.924L31.86 9.624H33.9ZM38.0361 11.268C38.5961 11.268 39.0761 11.4 39.4761 11.664C39.8761 11.928 40.1601 12.284 40.3281 12.732V11.352H42.0081V18H40.3281V16.608C40.1601 17.056 39.8761 17.416 39.4761 17.688C39.0761 17.952 38.5961 18.084 38.0361 18.084C37.4761 18.084 36.9721 17.948 36.5241 17.676C36.0761 17.404 35.7241 17.012 35.4681 16.5C35.2201 15.98 35.0961 15.372 35.0961 14.676C35.0961 13.98 35.2201 13.376 35.4681 12.864C35.7241 12.344 36.0761 11.948 36.5241 11.676C36.9721 11.404 37.4761 11.268 38.0361 11.268ZM38.5641 12.744C38.0361 12.744 37.6121 12.916 37.2921 13.26C36.9721 13.604 36.8121 14.076 36.8121 14.676C36.8121 15.276 36.9721 15.748 37.2921 16.092C37.6121 16.428 38.0361 16.596 38.5641 16.596C39.0761 16.596 39.4961 16.424 39.8241 16.08C40.1601 15.728 40.3281 15.26 40.3281 14.676C40.3281 14.084 40.1601 13.616 39.8241 13.272C39.4961 12.92 39.0761 12.744 38.5641 12.744ZM45.8334 11.268C46.6414 11.268 47.2894 11.472 47.7774 11.88C48.2654 12.288 48.5694 12.832 48.6894 13.512H47.1054C47.0414 13.192 46.8974 12.936 46.6734 12.744C46.4494 12.552 46.1574 12.456 45.7974 12.456C45.5094 12.456 45.2854 12.524 45.1254 12.66C44.9654 12.796 44.8854 12.98 44.8854 13.212C44.8854 13.396 44.9494 13.544 45.0774 13.656C45.2054 13.768 45.3654 13.856 45.5574 13.92C45.7494 13.984 46.0254 14.06 46.3854 14.148C46.8894 14.26 47.2974 14.38 47.6094 14.508C47.9294 14.628 48.2014 14.824 48.4254 15.096C48.6574 15.36 48.7734 15.72 48.7734 16.176C48.7734 16.744 48.5494 17.204 48.1014 17.556C47.6614 17.908 47.0654 18.084 46.3134 18.084C45.4494 18.084 44.7574 17.892 44.2374 17.508C43.7174 17.116 43.4014 16.56 43.2894 15.84H44.9094C44.9494 16.168 45.0934 16.428 45.3414 16.62C45.5894 16.804 45.9134 16.896 46.3134 16.896C46.6014 16.896 46.8214 16.828 46.9734 16.692C47.1254 16.548 47.2014 16.364 47.2014 16.14C47.2014 15.948 47.1334 15.792 46.9974 15.672C46.8694 15.552 46.7054 15.46 46.5054 15.396C46.3134 15.332 46.0374 15.256 45.6774 15.168C45.1814 15.056 44.7774 14.944 44.4654 14.832C44.1614 14.712 43.8974 14.524 43.6734 14.268C43.4574 14.012 43.3494 13.66 43.3494 13.212C43.3494 12.636 43.5694 12.168 44.0094 11.808C44.4494 11.448 45.0574 11.268 45.8334 11.268ZM53.0216 11.268C53.8776 11.268 54.5896 11.5 55.1576 11.964C55.7336 12.428 56.0936 13.06 56.2376 13.86H54.4496C54.3776 13.508 54.2136 13.232 53.9576 13.032C53.7016 12.824 53.3776 12.72 52.9856 12.72C52.5376 12.72 52.1616 12.888 51.8576 13.224C51.5616 13.552 51.4136 14.036 51.4136 14.676C51.4136 15.316 51.5616 15.804 51.8576 16.14C52.1616 16.468 52.5376 16.632 52.9856 16.632C53.3776 16.632 53.7016 16.532 53.9576 16.332C54.2136 16.124 54.3776 15.844 54.4496 15.492H56.2376C56.0936 16.292 55.7336 16.924 55.1576 17.388C54.5896 17.852 53.8776 18.084 53.0216 18.084C52.3736 18.084 51.7976 17.948 51.2936 17.676C50.7896 17.396 50.3976 17 50.1176 16.488C49.8376 15.976 49.6976 15.372 49.6976 14.676C49.6976 13.98 49.8376 13.376 50.1176 12.864C50.3976 12.344 50.7896 11.948 51.2936 11.676C51.7976 11.404 52.3736 11.268 53.0216 11.268ZM60.5119 11.268C61.1599 11.268 61.7399 11.404 62.2519 11.676C62.7719 11.948 63.1799 12.344 63.4759 12.864C63.7719 13.376 63.9199 13.98 63.9199 14.676C63.9199 15.372 63.7719 15.976 63.4759 16.488C63.1799 17 62.7719 17.396 62.2519 17.676C61.7399 17.948 61.1599 18.084 60.5119 18.084C59.8639 18.084 59.2799 17.948 58.7599 17.676C58.2479 17.396 57.8439 17 57.5479 16.488C57.2519 15.976 57.1039 15.372 57.1039 14.676C57.1039 13.98 57.2519 13.376 57.5479 12.864C57.8439 12.344 58.2479 11.948 58.7599 11.676C59.2799 11.404 59.8639 11.268 60.5119 11.268ZM60.5119 12.732C60.0399 12.732 59.6399 12.9 59.3119 13.236C58.9839 13.564 58.8199 14.044 58.8199 14.676C58.8199 15.308 58.9839 15.792 59.3119 16.128C59.6399 16.456 60.0399 16.62 60.5119 16.62C60.9839 16.62 61.3839 16.456 61.7119 16.128C62.0399 15.792 62.2039 15.308 62.2039 14.676C62.2039 14.044 62.0399 13.564 61.7119 13.236C61.3839 12.9 60.9839 12.732 60.5119 12.732ZM68.6677 16.548V18H67.7797C67.0357 18 66.4637 17.82 66.0637 17.46C65.6717 17.1 65.4757 16.5 65.4757 15.66V12.78H64.5517V11.352H65.4757V9.708H67.1677V11.352H68.6557V12.78H67.1677V15.684C67.1677 16.004 67.2317 16.228 67.3597 16.356C67.4877 16.484 67.7037 16.548 68.0077 16.548H68.6677ZM72.4892 11.268C73.0492 11.268 73.5292 11.4 73.9292 11.664C74.3292 11.928 74.6132 12.284 74.7812 12.732V11.352H76.4612V18H74.7812V16.608C74.6132 17.056 74.3292 17.416 73.9292 17.688C73.5292 17.952 73.0492 18.084 72.4892 18.084C71.9292 18.084 71.4252 17.948 70.9772 17.676C70.5292 17.404 70.1772 17.012 69.9212 16.5C69.6732 15.98 69.5492 15.372 69.5492 14.676C69.5492 13.98 69.6732 13.376 69.9212 12.864C70.1772 12.344 70.5292 11.948 70.9772 11.676C71.4252 11.404 71.9292 11.268 72.4892 11.268ZM73.0172 12.744C72.4892 12.744 72.0652 12.916 71.7452 13.26C71.4252 13.604 71.2652 14.076 71.2652 14.676C71.2652 15.276 71.4252 15.748 71.7452 16.092C72.0652 16.428 72.4892 16.596 73.0172 16.596C73.5292 16.596 73.9492 16.424 74.2772 16.08C74.6132 15.728 74.7812 15.26 74.7812 14.676C74.7812 14.084 74.6132 13.616 74.2772 13.272C73.9492 12.92 73.5292 12.744 73.0172 12.744ZM83.2118 11.268C83.7718 11.268 84.2518 11.4 84.6518 11.664C85.0518 11.928 85.3358 12.284 85.5038 12.732V11.352H87.1838V18H85.5038V16.608C85.3358 17.056 85.0518 17.416 84.6518 17.688C84.2518 17.952 83.7718 18.084 83.2118 18.084C82.6518 18.084 82.1478 17.948 81.6998 17.676C81.2518 17.404 80.8998 17.012 80.6438 16.5C80.3958 15.98 80.2718 15.372 80.2718 14.676C80.2718 13.98 80.3958 13.376 80.6438 12.864C80.8998 12.344 81.2518 11.948 81.6998 11.676C82.1478 11.404 82.6518 11.268 83.2118 11.268ZM83.7398 12.744C83.2118 12.744 82.7878 12.916 82.4678 13.26C82.1478 13.604 81.9878 14.076 81.9878 14.676C81.9878 15.276 82.1478 15.748 82.4678 16.092C82.7878 16.428 83.2118 16.596 83.7398 16.596C84.2518 16.596 84.6718 16.424 84.9998 16.08C85.3358 15.728 85.5038 15.26 85.5038 14.676C85.5038 14.084 85.3358 13.616 84.9998 13.272C84.6718 12.92 84.2518 12.744 83.7398 12.744ZM91.0092 11.268C91.8172 11.268 92.4652 11.472 92.9532 11.88C93.4412 12.288 93.7452 12.832 93.8652 13.512H92.2812C92.2172 13.192 92.0732 12.936 91.8492 12.744C91.6252 12.552 91.3332 12.456 90.9732 12.456C90.6852 12.456 90.4612 12.524 90.3012 12.66C90.1412 12.796 90.0612 12.98 90.0612 13.212C90.0612 13.396 90.1252 13.544 90.2532 13.656C90.3812 13.768 90.5412 13.856 90.7332 13.92C90.9252 13.984 91.2012 14.06 91.5612 14.148C92.0652 14.26 92.4732 14.38 92.7852 14.508C93.1052 14.628 93.3772 14.824 93.6012 15.096C93.8332 15.36 93.9492 15.72 93.9492 16.176C93.9492 16.744 93.7252 17.204 93.2772 17.556C92.8372 17.908 92.2412 18.084 91.4892 18.084C90.6252 18.084 89.9332 17.892 89.4132 17.508C88.8932 17.116 88.5772 16.56 88.4652 15.84H90.0852C90.1252 16.168 90.2692 16.428 90.5172 16.62C90.7652 16.804 91.0892 16.896 91.4892 16.896C91.7772 16.896 91.9972 16.828 92.1492 16.692C92.3012 16.548 92.3772 16.364 92.3772 16.14C92.3772 15.948 92.3092 15.792 92.1732 15.672C92.0452 15.552 91.8812 15.46 91.6812 15.396C91.4892 15.332 91.2132 15.256 90.8532 15.168C90.3572 15.056 89.9532 14.944 89.6412 14.832C89.3372 14.712 89.0732 14.524 88.8492 14.268C88.6332 14.012 88.5252 13.66 88.5252 13.212C88.5252 12.636 88.7452 12.168 89.1852 11.808C89.6252 11.448 90.2332 11.268 91.0092 11.268ZM101.461 14.424C101.461 14.592 101.441 14.784 101.401 15H96.5294C96.5534 15.592 96.7134 16.028 97.0094 16.308C97.3054 16.588 97.6734 16.728 98.1134 16.728C98.5054 16.728 98.8294 16.632 99.0854 16.44C99.3494 16.248 99.5174 15.988 99.5894 15.66H101.377C101.289 16.124 101.101 16.54 100.813 16.908C100.525 17.276 100.153 17.564 99.6974 17.772C99.2494 17.98 98.7494 18.084 98.1974 18.084C97.5494 18.084 96.9734 17.948 96.4694 17.676C95.9654 17.396 95.5734 17 95.2934 16.488C95.0134 15.976 94.8734 15.372 94.8734 14.676C94.8734 13.98 95.0134 13.376 95.2934 12.864C95.5734 12.344 95.9654 11.948 96.4694 11.676C96.9734 11.404 97.5494 11.268 98.1974 11.268C98.8534 11.268 99.4254 11.404 99.9134 11.676C100.409 11.948 100.789 12.324 101.053 12.804C101.325 13.276 101.461 13.816 101.461 14.424ZM99.7574 14.256C99.7814 13.712 99.6374 13.3 99.3254 13.02C99.0214 12.74 98.6454 12.6 98.1974 12.6C97.7414 12.6 97.3574 12.74 97.0454 13.02C96.7334 13.3 96.5614 13.712 96.5294 14.256H99.7574ZM105.267 11.268C105.827 11.268 106.307 11.4 106.707 11.664C107.107 11.928 107.391 12.284 107.559 12.732V11.352H109.239V18.024C109.239 18.64 109.115 19.192 108.867 19.68C108.627 20.176 108.263 20.564 107.775 20.844C107.295 21.124 106.711 21.264 106.023 21.264C105.063 21.264 104.287 21.036 103.695 20.58C103.103 20.124 102.743 19.504 102.615 18.72H104.283C104.379 19.056 104.563 19.316 104.835 19.5C105.115 19.692 105.471 19.788 105.903 19.788C106.399 19.788 106.799 19.64 107.103 19.344C107.407 19.056 107.559 18.616 107.559 18.024V16.608C107.391 17.056 107.107 17.416 106.707 17.688C106.307 17.952 105.827 18.084 105.267 18.084C104.707 18.084 104.203 17.948 103.755 17.676C103.307 17.404 102.955 17.012 102.699 16.5C102.451 15.98 102.327 15.372 102.327 14.676C102.327 13.98 102.451 13.376 102.699 12.864C102.955 12.344 103.307 11.948 103.755 11.676C104.203 11.404 104.707 11.268 105.267 11.268ZM105.795 12.744C105.267 12.744 104.843 12.916 104.523 13.26C104.203 13.604 104.043 14.076 104.043 14.676C104.043 15.276 104.203 15.748 104.523 16.092C104.843 16.428 105.267 16.596 105.795 16.596C106.307 16.596 106.727 16.424 107.055 16.08C107.391 15.728 107.559 15.26 107.559 14.676C107.559 14.084 107.391 13.616 107.055 13.272C106.727 12.92 106.307 12.744 105.795 12.744ZM117.132 11.352V18H115.44V16.656C115.264 17.104 114.972 17.456 114.564 17.712C114.164 17.96 113.7 18.084 113.172 18.084C112.404 18.084 111.792 17.832 111.336 17.328C110.88 16.824 110.652 16.12 110.652 15.216V11.352H112.332V15.024C112.332 15.552 112.468 15.964 112.74 16.26C113.012 16.548 113.38 16.692 113.844 16.692C114.332 16.692 114.72 16.536 115.008 16.224C115.296 15.912 115.44 15.464 115.44 14.88V11.352H117.132ZM120.362 12.624C120.61 12.2 120.938 11.868 121.346 11.628C121.754 11.38 122.21 11.256 122.714 11.256V13.068H122.222C120.982 13.068 120.362 13.644 120.362 14.796V18H118.67V11.352H120.362V12.624ZM126.255 11.268C126.815 11.268 127.295 11.4 127.695 11.664C128.095 11.928 128.379 12.284 128.547 12.732V11.352H130.227V18H128.547V16.608C128.379 17.056 128.095 17.416 127.695 17.688C127.295 17.952 126.815 18.084 126.255 18.084C125.695 18.084 125.191 17.948 124.743 17.676C124.295 17.404 123.943 17.012 123.687 16.5C123.439 15.98 123.315 15.372 123.315 14.676C123.315 13.98 123.439 13.376 123.687 12.864C123.943 12.344 124.295 11.948 124.743 11.676C125.191 11.404 125.695 11.268 126.255 11.268ZM126.783 12.744C126.255 12.744 125.831 12.916 125.511 13.26C125.191 13.604 125.031 14.076 125.031 14.676C125.031 15.276 125.191 15.748 125.511 16.092C125.831 16.428 126.255 16.596 126.783 16.596C127.295 16.596 127.715 16.424 128.043 16.08C128.379 15.728 128.547 15.26 128.547 14.676C128.547 14.084 128.379 13.616 128.043 13.272C127.715 12.92 127.295 12.744 126.783 12.744ZM134.364 11.268C134.924 11.268 135.4 11.4 135.792 11.664C136.192 11.928 136.48 12.284 136.656 12.732V9.12H138.336V18H136.656V16.608C136.48 17.056 136.192 17.416 135.792 17.688C135.4 17.952 134.924 18.084 134.364 18.084C133.804 18.084 133.3 17.948 132.852 17.676C132.404 17.404 132.052 17.012 131.796 16.5C131.548 15.98 131.424 15.372 131.424 14.676C131.424 13.98 131.548 13.376 131.796 12.864C132.052 12.344 132.404 11.948 132.852 11.676C133.3 11.404 133.804 11.268 134.364 11.268ZM134.892 12.744C134.364 12.744 133.94 12.916 133.62 13.26C133.3 13.604 133.14 14.076 133.14 14.676C133.14 15.276 133.3 15.748 133.62 16.092C133.94 16.428 134.364 16.596 134.892 16.596C135.404 16.596 135.824 16.424 136.152 16.08C136.488 15.728 136.656 15.26 136.656 14.676C136.656 14.084 136.488 13.616 136.152 13.272C135.824 12.92 135.404 12.744 134.892 12.744ZM142.474 11.268C143.034 11.268 143.514 11.4 143.914 11.664C144.314 11.928 144.598 12.284 144.766 12.732V11.352H146.446V18H144.766V16.608C144.598 17.056 144.314 17.416 143.914 17.688C143.514 17.952 143.034 18.084 142.474 18.084C141.914 18.084 141.41 17.948 140.962 17.676C140.514 17.404 140.162 17.012 139.906 16.5C139.658 15.98 139.534 15.372 139.534 14.676C139.534 13.98 139.658 13.376 139.906 12.864C140.162 12.344 140.514 11.948 140.962 11.676C141.41 11.404 141.914 11.268 142.474 11.268ZM143.002 12.744C142.474 12.744 142.05 12.916 141.73 13.26C141.41 13.604 141.25 14.076 141.25 14.676C141.25 15.276 141.41 15.748 141.73 16.092C142.05 16.428 142.474 16.596 143.002 16.596C143.514 16.596 143.934 16.424 144.262 16.08C144.598 15.728 144.766 15.26 144.766 14.676C144.766 14.084 144.598 13.616 144.262 13.272C143.934 12.92 143.514 12.744 143.002 12.744Z" fill="#00B6FF"/>
    <path d="M12.9997 15.4583V11.9583M11.2497 13.7083H14.7497M17.6663 14C17.6663 16.8632 14.5432 18.9457 13.4068 19.6086C13.2777 19.684 13.2131 19.7217 13.122 19.7412C13.0513 19.7564 12.9481 19.7564 12.8774 19.7412C12.7862 19.7217 12.7217 19.684 12.5925 19.6086C11.4562 18.9457 8.33301 16.8632 8.33301 14V11.2102C8.33301 10.7439 8.33301 10.5107 8.40928 10.3102C8.47667 10.1331 8.58616 9.97513 8.72831 9.84986C8.88921 9.70805 9.10756 9.62618 9.54424 9.46242L12.672 8.28953C12.7932 8.24405 12.8539 8.22131 12.9162 8.2123C12.9716 8.2043 13.0278 8.2043 13.0831 8.2123C13.1455 8.22131 13.2061 8.24405 13.3274 8.28953L16.4551 9.46242C16.8918 9.62618 17.1101 9.70805 17.271 9.84986C17.4132 9.97513 17.5227 10.1331 17.5901 10.3102C17.6663 10.5107 17.6663 10.7439 17.6663 11.2102V14Z" stroke="#00B6FF" stroke-width="1.5" stroke-linecap="round" stroke-linejoin="round"/>
</svg>
