<svg width="15" height="14" viewBox="0 0 15 14" fill="none" xmlns="http://www.w3.org/2000/svg">
    <path d="M7.49998 12.8334H13.5M1.5 12.8334H2.61636C2.94248 12.8334 3.10554 12.8334 3.25899 12.7966C3.39504 12.7639 3.5251 12.71 3.6444 12.6369C3.77895 12.5545 3.89425 12.4392 4.12486 12.2086L12.5 3.8334C13.0523 3.28112 13.0523 2.38569 12.5 1.8334C11.9477 1.28112 11.0523 1.28112 10.5 1.8334L2.12484 10.2086C1.89424 10.4392 1.77894 10.5545 1.69648 10.689C1.62338 10.8083 1.5695 10.9384 1.53684 11.0744C1.5 11.2279 1.5 11.3909 1.5 11.7171V12.8334Z" stroke="#463677" stroke-width="1.5" stroke-linecap="round" stroke-linejoin="round"/>
</svg>
