<svg width="153" height="141" viewBox="0 0 153 141" fill="none" xmlns="http://www.w3.org/2000/svg">
    <path d="M54.9721 57.2895C55.1726 59.5957 55.5737 61.9018 56.1753 64.1077C62.5925 63.4059 68.9093 62.8043 75.3265 62.1024C75.527 62.1024 75.6273 62.1024 75.8278 61.9019C75.9281 61.8016 75.9281 61.5008 75.9281 61.3002C75.7276 58.1919 75.3265 55.1839 74.8252 52.1759C70.8144 51.5742 66.8037 50.9726 62.793 50.2708C60.7876 49.97 58.4815 49.6691 56.8772 50.9726C54.9721 52.4767 54.7716 55.0836 54.9721 57.2895Z" fill="#FED849"/>
    <path d="M82.5459 21.1931C87.9604 13.3722 79.5379 3.94701 69.2103 7.85746C65.6006 3.6462 60.1861 1.23977 54.6714 0.938966H54.5711C50.5604 0.73843 46.5497 1.54057 43.0403 3.6462C37.325 7.05532 33.8156 13.5727 33.3143 20.0902C32.9132 22.9979 33.214 26.1062 34.0162 28.9138C33.8156 28.9138 33.6151 29.014 33.4146 29.014C24.8918 30.6183 18.4746 38.1384 18.4746 47.0623C18.4746 57.1893 26.6966 65.5116 36.9239 65.5116C43.5416 65.5116 50.7609 62.0022 53.9695 56.7883C55.1727 54.9835 54.8719 54.3818 55.8746 53.0784C56.4762 52.2762 57.1781 51.4741 58.0805 51.073C59.5845 50.3711 61.1888 52.1759 62.7931 51.6746C72.8199 48.7668 78.0338 57.4902 85.6542 55.5851C87.8601 55.0837 89.9657 54.2816 91.8708 53.0784C101.797 46.962 104.805 18.9872 82.5459 21.1931Z" fill="#87E149"/>
    <path d="M66.7034 14.5754C66.0015 14.4751 65.2996 14.6757 64.5977 14.9765C58.2808 17.4832 55.7741 25.2038 50.1591 28.9137C47.7527 30.518 44.6444 31.621 43.742 34.3282C41.7366 32.7239 39.0294 31.8215 36.6229 32.7239C34.2165 33.6263 32.6122 36.6344 33.8154 38.8403C34.7178 40.4446 36.6229 41.1464 38.528 41.0462C40.3328 40.9459 42.0374 40.244 43.742 39.4419C44.4438 45.9593 48.7554 52.0756 54.6712 54.9834C60.587 57.8912 68.0068 57.4901 73.6218 53.9807C75.1259 53.0783 76.5296 51.8751 77.432 50.3711C78.2342 49.0676 78.7355 47.6639 79.0363 46.2601C79.8385 43.0515 80.4401 39.8429 80.7409 36.5341C82.3452 38.1384 85.0524 38.4392 87.0578 37.4365C89.0631 36.4338 90.4669 34.3282 90.7677 32.022C90.868 30.9191 90.7677 29.8161 90.1661 28.8135C88.6621 26.407 84.7516 26.6076 82.5457 28.4124C81.9441 28.9137 81.3425 29.5153 80.6406 29.4151C80.3398 29.4151 80.039 29.2145 79.7382 29.014C75.928 26.6076 72.8197 23.1985 70.9146 19.1877C70.0122 17.1824 68.9092 14.7759 66.7034 14.5754Z" fill="#FED849"/>
    <path d="M69.9123 36.9351C69.1102 36.4338 68.0072 36.5341 67.1048 36.9351C66.2024 37.3362 65.4002 37.8376 64.4978 38.2386C62.2919 39.2413 59.7852 39.2413 57.3788 38.9405C56.0753 38.8402 54.3708 38.74 53.6689 39.9432C53.1675 40.7453 53.4683 41.9486 54.1702 42.6504C54.8721 43.3523 55.8748 43.7534 56.7772 43.9539C60.5874 44.9566 64.8989 44.9566 68.308 42.9512C69.411 42.3496 70.4136 41.4472 70.8147 40.244C71.2158 39.0408 70.915 37.5368 69.9123 36.9351Z" fill="#FFA7FE"/>
    <path d="M87.5593 31.721C87.3588 30.6181 86.6569 29.8159 85.6542 29.4149C85.2532 29.2143 84.5513 29.3146 84.05 29.4149C83.3481 29.6154 83.0473 30.0165 82.4457 30.217C81.9443 30.4175 82.1449 31.1194 82.6462 30.9189C83.3481 30.6181 83.7492 30.1167 84.6516 30.0165C84.451 30.9189 84.1502 31.721 84.1502 32.6234C84.1502 33.1248 84.8521 33.1248 84.9524 32.6234C84.9524 31.721 85.2532 30.9189 85.4537 30.1167C86.2559 30.3173 86.7572 31.0191 86.8575 31.9216C86.9577 32.4229 87.6596 32.2224 87.5593 31.721Z" fill="#463677"/>
    <path d="M40.3343 33.7266C38.73 33.7266 37.0254 33.6263 36.2233 35.4311C35.8222 36.4338 35.9225 38.1384 37.3262 38.2387C37.8276 38.2387 37.8276 37.5368 37.3262 37.4365C36.9252 37.4365 36.8249 36.7346 36.8249 36.4338C36.8249 36.2333 36.8249 35.9325 37.0254 35.732C37.1257 35.8322 37.226 35.9325 37.3262 36.0328C37.7273 36.2333 38.0281 36.5341 38.4292 36.7346C38.8303 36.9352 39.2313 36.3336 38.8303 36.133C38.5295 36.0328 38.2287 35.8322 38.0281 35.6317C37.9278 35.5314 37.8276 35.5314 37.7273 35.4311L37.627 35.3309C37.627 35.2306 37.627 35.1303 37.627 35.0301C38.3289 34.3282 39.5321 34.5287 40.5348 34.5287C40.8356 34.5287 40.8356 33.7266 40.3343 33.7266Z" fill="#463677"/>
    <path d="M57.8794 29.6156C57.7791 30.1169 57.6789 30.7185 57.5786 31.2199C57.4783 32.022 56.3754 32.7239 55.6735 32.9244C54.8714 33.2252 53.969 32.9244 53.2671 32.5234C52.4649 32.022 52.0639 31.7212 52.0639 30.8188C52.0639 30.3175 51.2617 30.3175 51.2617 30.8188C51.2617 31.621 51.4623 32.2226 52.1641 32.7239C53.0665 33.4258 53.969 33.9271 55.1722 33.8269C56.1749 33.8269 56.977 33.0247 57.7791 32.4231C58.481 31.8215 58.481 30.6183 58.5813 29.8161C58.6816 29.3148 57.9797 29.1143 57.8794 29.6156Z" fill="#463677"/>
    <path d="M69.2094 27.8106C69.2094 27.7103 69.0089 27.61 68.9086 27.5098H68.8083C68.307 27.4095 68.1065 28.1114 68.6078 28.2117C68.6078 28.2117 68.307 29.1141 68.2067 29.3146C68.0062 29.8159 67.9059 30.1167 67.5049 30.5178C66.9033 31.1194 65.9006 31.1194 65.0984 31.0192C64.3965 30.9189 63.7949 30.4175 63.3939 29.9162C63.2936 29.8159 62.7923 28.9135 62.692 28.9135C63.1933 28.713 62.9928 28.0111 62.4915 28.2117C61.7896 28.4122 62.0904 29.2143 62.2909 29.7157C62.7923 30.6181 63.5944 31.2197 64.5971 31.6208C67.2041 32.5232 69.6105 30.3173 69.2094 27.8106Z" fill="#463677"/>
    <path d="M48.8557 35.2306C47.853 35.732 46.0482 37.1357 47.5522 38.2387C47.853 38.4392 48.0535 38.4392 48.3543 38.4392C49.6578 39.3416 50.861 37.8376 51.1618 36.6344C51.6632 35.2306 49.7581 34.7293 48.8557 35.2306Z" fill="#FFA7FE"/>
    <path d="M73.9222 32.2224C73.12 31.8214 71.8165 31.7211 71.2149 32.5232C71.1146 32.6235 71.0144 32.824 71.0144 32.9243C70.513 33.4257 70.3125 34.1275 70.8138 34.7291C71.5157 35.5313 72.9195 35.5313 73.7216 34.8294C74.5238 34.2278 75.0251 32.7238 73.9222 32.2224ZM72.1173 33.7265C72.0171 33.5259 72.1173 33.2251 72.3179 33.0246C72.2176 33.3254 72.1173 33.5259 72.1173 33.7265Z" fill="#FFA7FE"/>
    <path d="M148.721 120.759C148.22 110.432 147.618 100.104 144.911 90.1774C144.209 87.5704 143.307 84.8631 141.703 82.6572C139.697 79.8497 136.79 77.9447 133.882 76.2401C123.454 70.3243 111.522 66.9152 99.4898 66.4138C95.9804 66.3136 92.3708 66.4138 89.1622 67.7173C85.8533 69.1211 82.9456 71.728 79.4362 71.728C77.9322 68.4192 77.0297 64.8095 76.6287 61.0996C71.0137 61.9018 53.8678 63.7066 52.7649 65.1103C52.1632 65.8122 53.0657 70.9259 53.1659 70.8256C43.6109 73.7912 36.1823 76.3522 26.1041 80.661C-4.47737 93.7357 -4.47736 116.561 10.2512 164.777C17.1697 169.59 27.3971 172.999 44.5429 174.904C45.6458 175.004 46.6485 175.104 47.7515 175.104H149.824C149.925 157.156 149.524 138.607 148.721 120.759Z" fill="#FFA7FE"/>
    <path d="M112.726 86.9689C112.324 87.0692 112.826 87.8713 112.926 87.4703H113.528C113.327 87.0692 113.127 86.8686 112.726 86.9689Z" fill="#463677"/>
    <path d="M142.506 153.246C141.303 150.138 139.498 147.33 137.793 144.523C135.988 141.615 134.184 138.807 132.379 135.9C131.878 135.097 131.376 134.295 131.476 133.393C131.476 132.591 131.978 131.789 132.279 130.986C133.682 127.577 131.376 123.767 129.271 120.759C126.463 116.748 123.555 112.738 120.748 108.827C122.753 108.025 122.152 105.017 121.249 103.012C118.742 97.7977 113.428 86.9688 113.629 87.2696H118.241C121.55 87.2696 123.956 84.061 122.954 80.8524C121.149 74.8363 117.038 69.4219 111.222 67.4165C110.52 59.7961 104.404 54.2814 96.6834 52.7774C95.8813 52.6771 95.1794 52.5768 94.3773 52.4766C91.2689 52.276 87.8598 52.276 85.1526 53.9806C82.3451 55.6851 80.7408 58.7934 80.0389 62.002C79.337 65.2106 79.337 68.5195 78.936 71.728C78.5349 75.9393 78.5349 79.3484 76.5295 83.0583C74.4239 86.8685 72.3183 90.779 70.4132 94.6894C66.7033 102.21 64.6979 110.732 65.6003 119.155C65.6003 119.556 66.3022 138.908 62.6925 154.148C61.4893 159.663 60.2861 165.88 58.7821 171.595C58.2808 173.4 59.6845 175.305 61.5896 175.305H137.192C139.398 175.305 141.303 174.001 142.105 171.896C144.612 166.08 144.712 159.162 142.506 153.246Z" fill="#00B6FF"/>
    <path d="M91.8716 54.3817C91.5708 53.6798 91.0695 53.0782 90.3676 52.8777C89.8663 52.7774 89.4652 52.7774 88.9639 52.8777C83.1483 53.7801 77.7338 56.7881 73.9237 61.1999C70.1135 65.6117 67.8073 71.327 67.707 77.2428C67.707 79.549 68.0078 82.0557 69.2111 83.9608C71.5172 87.6707 77.1322 88.6734 80.6416 86.0664C83.048 84.2616 84.2513 81.2536 84.9531 78.3458C85.655 75.438 85.9558 72.43 87.0588 69.6225C88.0615 67.1158 89.8663 64.8096 91.0695 62.4032C92.2727 59.9967 93.0749 56.8884 91.8716 54.3817Z" fill="#463677"/>
    <path d="M113.729 74.0344C116.553 74.0344 118.843 72.4632 118.843 70.525C118.843 68.5868 116.553 67.0156 113.729 67.0156C110.905 67.0156 108.615 68.5868 108.615 70.525C108.615 72.4632 110.905 74.0344 113.729 74.0344Z" fill="#463677"/>
    <path d="M98.0867 68.2186C99.1389 68.2186 99.9918 67.3657 99.9918 66.3135C99.9918 65.2614 99.1389 64.4084 98.0867 64.4084C97.0346 64.4084 96.1816 65.2614 96.1816 66.3135C96.1816 67.3657 97.0346 68.2186 98.0867 68.2186Z" fill="#463677"/>
    <path d="M113.128 92.985L101.296 89.0745C100.394 88.7737 100.594 87.4702 101.597 87.4702H113.629L115.233 90.7791C115.735 91.9823 114.531 93.386 113.128 92.985Z" fill="#463677"/>
    <path d="M120.647 108.927L118.341 109.028C117.138 109.128 116.837 110.833 118.04 111.234L123.756 113.239L120.647 108.927Z" fill="#463677"/>
    <path d="M77.6311 91.6813C80.8397 93.2856 84.0483 94.8899 87.2569 96.3939C87.8585 96.6947 88.4601 96.9955 88.6606 97.5971C89.0617 98.3993 88.4601 99.4019 87.9588 100.104C81.4413 109.73 78.0322 121.16 72.3169 131.287C71.9159 131.989 71.4145 132.791 70.6124 132.691C70.3116 132.691 70.0108 132.49 69.71 132.29C65.599 129.783 61.488 127.276 57.9786 124.068C55.4719 121.862 53.1657 119.054 52.9652 115.746C52.7647 112.437 55.5722 108.827 58.881 109.429C55.9732 108.125 54.4692 104.415 55.6724 101.508C56.7754 98.5998 60.4853 96.8952 63.3931 97.8979C61.488 96.1934 61.7888 92.8845 63.4933 91.0797C65.1979 89.2749 68.0054 88.6733 70.5121 89.0743C73.0188 89.4754 75.4252 90.5783 77.6311 91.6813Z" fill="#FED849"/>
    <path d="M134.182 123.266C136.99 128.48 137.19 132.791 138.293 138.607C138.494 139.91 143.106 143.219 142.504 144.422C141.602 146.127 143.206 150.338 141.301 150.539C134.182 151.441 115.933 149.035 108.915 147.531C97.7849 145.124 88.1592 137.805 75.5254 136C73.6203 135.699 71.4144 134.797 71.1136 132.992C70.9131 131.989 71.4144 130.986 71.9158 130.084C77.7313 119.456 82.3437 107.724 88.1592 96.9956C97.3839 101.207 107.812 106.521 117.137 110.732C119.242 111.735 128.467 114.643 130.272 116.047C132.879 118.152 132.578 120.358 134.182 123.266Z" fill="#FFA7FE"/>
    <path d="M62.8906 91.9821C65.1968 91.2803 69.3078 90.9795 72.1153 91.3805L74.3212 87.2695C71.2129 86.7682 65.6981 87.4701 62.8906 91.9821Z" fill="#FED849"/>
</svg>
