<svg width="47" height="69" viewBox="0 0 47 69" fill="none" xmlns="http://www.w3.org/2000/svg">
    <path d="M35.3955 22.4205L35.3956 22.4205L35.3947 22.4112C35.1896 20.3472 34.8714 18.2961 34.4416 16.267C35.3074 16.4869 36.1285 16.8582 36.8662 17.3646C37.7099 17.9439 38.427 18.6878 38.9741 19.5515L38.9738 19.5517L38.9815 19.5626C41.0361 22.4522 42.4092 25.7678 42.9983 29.2614C43.5873 32.755 43.377 36.3363 42.3831 39.7374C39.6447 49.087 32.9505 54.5906 23.819 57.3502C19.0858 58.61 14.21 59.2581 9.31122 59.2785C9.31091 59.2785 9.3106 59.2785 9.3103 59.2785L9.30288 59.2785L9.29442 59.2785L9.28596 59.2785L9.2775 59.2785L9.26904 59.2785L9.26058 59.2785L9.25212 59.2785L9.24366 59.2785L9.2352 59.2785L9.22674 59.2785L9.21828 59.2785L9.20982 59.2785L9.20136 59.2785L9.1929 59.2785L9.18444 59.2785L9.17598 59.2785L9.16752 59.2785L9.15906 59.2785L9.15059 59.2785L9.14213 59.2785L9.13367 59.2785L9.12521 59.2785L9.11675 59.2785L9.10829 59.2785L9.09983 59.2785L9.09137 59.2785L9.08291 59.2785L9.07445 59.2785L9.06598 59.2785L9.05752 59.2785L9.04906 59.2785L9.0406 59.2785L9.03214 59.2785L9.02368 59.2785L9.01521 59.2785L9.00675 59.2785L8.99829 59.2785L8.98983 59.2785L8.98137 59.2785L8.9729 59.2785L8.96444 59.2785L8.95598 59.2785L8.94752 59.2785L8.93905 59.2785L8.93059 59.2785L8.92213 59.2785L8.91366 59.2785L8.9052 59.2785L8.89674 59.2785L8.88827 59.2785L8.87981 59.2785L8.87134 59.2785L8.86288 59.2785L8.85442 59.2785L8.84595 59.2785L8.83749 59.2785L8.82902 59.2785L8.82056 59.2785L8.81209 59.2785L8.80363 59.2785L8.79516 59.2785L8.78669 59.2785L8.77823 59.2785L8.76976 59.2785L8.76129 59.2785L8.75283 59.2785L8.74436 59.2785L8.73589 59.2785L8.72743 59.2785L8.71896 59.2785L8.71049 59.2785L8.70202 59.2785L8.69356 59.2785L8.68509 59.2785L8.67662 59.2785L8.66815 59.2785L8.65968 59.2785L8.65121 59.2785L8.64274 59.2785L8.63427 59.2785L8.6258 59.2785L8.61733 59.2785L8.60886 59.2785L8.60039 59.2785L8.59192 59.2785L8.58345 59.2785L8.57498 59.2785L8.5665 59.2785L8.55803 59.2785L8.54956 59.2785L8.54109 59.2785L8.53261 59.2785L8.52414 59.2785L8.51567 59.2785L8.50719 59.2785L8.49872 59.2785L8.49025 59.2785L8.48177 59.2785L8.4733 59.2785L8.46482 59.2785L8.45635 59.2785L8.44787 59.2785L8.43939 59.2785L8.43092 59.2785L8.42244 59.2785L8.41396 59.2785L8.40549 59.2785L8.39701 59.2785L8.38853 59.2785L8.38005 59.2785L8.37157 59.2785L8.36309 59.2785L8.35461 59.2785L8.34613 59.2785L8.33765 59.2785L8.32917 59.2785L8.32069 59.2785L8.31221 59.2785L8.30373 59.2785L8.29525 59.2785L8.28676 59.2785L8.27828 59.2785L8.2698 59.2785L8.26131 59.2785L8.25283 59.2785L8.24435 59.2785L8.23586 59.2785L8.22738 59.2785L8.21889 59.2785L8.21041 59.2785L8.20192 59.2785L8.19343 59.2785L8.18495 59.2785L8.17646 59.2785L8.16797 59.2785L8.15948 59.2785L8.15099 59.2785L8.1425 59.2785L8.13402 59.2785L8.12552 59.2785L8.11703 59.2785L8.10854 59.2785L8.10005 59.2785L8.09156 59.2785L8.08307 59.2785L8.07458 59.2785L8.06608 59.2785L8.05759 59.2785L8.0491 59.2785L8.0406 59.2785L8.03211 59.2785L8.02361 59.2785L8.01512 59.2785L8.00662 59.2785L7.99812 59.2785L7.98962 59.2785L7.98113 59.2785L7.97263 59.2785L7.96413 59.2785L7.95563 59.2785L7.94713 59.2785L7.93863 59.2785L7.93013 59.2785L7.92163 59.2785L7.91313 59.2785L7.90463 59.2785L7.89612 59.2785L7.88762 59.2785L7.87912 59.2785L7.87061 59.2785L7.86211 59.2785L7.8536 59.2785L7.8451 59.2785L7.83659 59.2785L7.82808 59.2785L7.81958 59.2785L7.81107 59.2785L7.80256 59.2785L7.79405 59.2785L7.78554 59.2785L7.77703 59.2785L7.76852 59.2785L7.76001 59.2785L7.7515 59.2785L7.74298 59.2785L7.73447 59.2785L7.72596 59.2785L7.71744 59.2785L7.70893 59.2785L7.70041 59.2785L7.6919 59.2785L7.68338 59.2785L7.67486 59.2785L7.66635 59.2785L7.65783 59.2785L7.64931 59.2785L7.64079 59.2785L7.63227 59.2785L7.62375 59.2785L7.61523 59.2785L7.60671 59.2785L7.59818 59.2785L7.58966 59.2785L7.58114 59.2785L7.57261 59.2785L7.56409 59.2785L7.55556 59.2785L7.54704 59.2785L7.53851 59.2785L7.52998 59.2785L7.52145 59.2785L7.51293 59.2785L7.5044 59.2785L7.49587 59.2785L7.48734 59.2785L7.4788 59.2785L7.47027 59.2785L7.46174 59.2785L7.45321 59.2785L7.44467 59.2785L7.43614 59.2785L7.4276 59.2785L7.41906 59.2785L7.41053 59.2785L7.40199 59.2785L7.39345 59.2785L7.38491 59.2785L7.37637 59.2785L7.36783 59.2785L7.35929 59.2785L7.35075 59.2785L7.34221 59.2785L7.33367 59.2785L7.32512 59.2785L7.31658 59.2785L7.30803 59.2785L7.29949 59.2785L7.29094 59.2785L7.28239 59.2785L7.27384 59.2785L7.26529 59.2785L7.25674 59.2785L7.24819 59.2785L7.23964 59.2785L7.23109 59.2785L7.22254 59.2785L7.21398 59.2785L7.20543 59.2785L7.19688 59.2785L7.18832 59.2785L7.17976 59.2785L7.17121 59.2785L7.16265 59.2785L7.15409 59.2785L7.14553 59.2785L7.13697 59.2785L7.12841 59.2785L7.11985 59.2785L7.11128 59.2785L7.10272 59.2785L7.09416 59.2785L7.08559 59.2785L7.07702 59.2785L7.06846 59.2785L7.05989 59.2785L7.05132 59.2785L7.04275 59.2785L7.03418 59.2785L7.02561 59.2785L7.01704 59.2785L7.00847 59.2785L6.99989 59.2785L6.99132 59.2785L6.98274 59.2785L6.97417 59.2785L6.96559 59.2785L6.95701 59.2785L6.94844 59.2785L6.93986 59.2785L6.93128 59.2785L6.9227 59.2785L6.91411 59.2785L6.90553 59.2785L6.89695 59.2785L6.88836 59.2785L6.87978 59.2785L6.87119 59.2785L6.8626 59.2785L6.85402 59.2785L6.84543 59.2785L6.83684 59.2785L6.82825 59.2785L6.81966 59.2785L6.81106 59.2785L6.80247 59.2785L6.79388 59.2785L6.78528 59.2785L6.77668 59.2785L6.76809 59.2785L6.75949 59.2785L6.75089 59.2785L6.74229 59.2785L6.73369 59.2785L6.72509 59.2785L6.71649 59.2785L6.70788 59.2785L6.69928 59.2785L6.69067 59.2785L6.68207 59.2785L6.67346 59.2785L6.66485 59.2785L6.65624 59.2785L6.64763 59.2785L6.63902 59.2785L6.63041 59.2785L6.6218 59.2785L6.61318 59.2785L6.60457 59.2785L6.59595 59.2785L6.58733 59.2785L6.57872 59.2785L6.5701 59.2785L6.56148 59.2785L6.55286 59.2785L6.54423 59.2785L6.53561 59.2785L6.52699 59.2785L6.51836 59.2785L6.50974 59.2785L6.50111 59.2785L6.49248 59.2785L6.48385 59.2785L6.47522 59.2785L6.46659 59.2785L6.45796 59.2785L6.44933 59.2785L6.44069 59.2785L6.43206 59.2785L6.42342 59.2785L6.41478 59.2785L6.40615 59.2785L6.39751 59.2785L6.38887 59.2785L6.38023 59.2785L6.37158 59.2785L6.36294 59.2785L6.35429 59.2785L6.34565 59.2785L6.337 59.2785L6.32835 59.2785L6.31971 59.2785L6.31106 59.2785L6.3024 59.2785L6.29375 59.2785L6.2851 59.2785L6.27645 59.2785L6.26779 59.2785L6.25913 59.2785L6.25048 59.2785L6.24182 59.2785L6.23316 59.2785L6.2245 59.2785L6.21583 59.2785L6.20717 59.2785L6.19851 59.2785L6.18984 59.2785L6.18118 59.2785L6.17251 59.2785L6.16384 59.2785L6.15517 59.2785L6.1465 59.2785L6.13783 59.2785L6.12915 59.2785L6.12048 59.2785L6.1118 59.2785L6.10313 59.2785L6.09445 59.2785L6.08577 59.2785L6.07709 59.2785L6.06841 59.2785L6.05972 59.2785L6.05104 59.2785L6.04236 59.2785L6.03367 59.2785L6.02498 59.2785L6.01629 59.2785L6.0076 59.2785L5.99891 59.2785L5.99022 59.2785L5.98153 59.2785L5.97283 59.2785L5.96414 59.2785L5.95544 59.2785L5.94674 59.2785L5.93804 59.2785L5.92934 59.2785L5.92064 59.2785L5.91194 59.2785L5.90324 59.2785L5.89453 59.2785L5.88582 59.2785L5.87712 59.2785L5.86841 59.2785L5.8597 59.2785L5.85098 59.2785L5.84227 59.2785L5.83356 59.2785L5.82484 59.2785L5.81613 59.2785L5.80741 59.2785L5.79869 59.2785L5.78997 59.2785L5.78125 59.2785L5.77252 59.2785L5.7638 59.2785L5.75508 59.2785L5.74635 59.2785L5.73762 59.2785L5.72889 59.2785L5.72016 59.2785L5.71143 59.2785L5.7027 59.2785L5.69396 59.2785L5.68523 59.2785L5.67649 59.2785L5.66775 59.2785L5.65901 59.2785L5.65027 59.2785L5.64153 59.2785L5.63278 59.2785L5.62404 59.2785L5.61529 59.2785L5.60655 59.2785L5.5978 59.2785L5.58905 59.2785L5.5803 59.2785L5.57154 59.2785L5.56279 59.2785L5.55403 59.2785L5.54528 59.2785L5.53652 59.2785L5.52776 59.2785L5.519 59.2785L5.51023 59.2785L5.50147 59.2785L5.49271 59.2785L5.48394 59.2785L5.47517 59.2785L5.4664 59.2785L5.45763 59.2785L5.44886 59.2785L5.44009 59.2785L5.43131 59.2785L5.42254 59.2785L5.41376 59.2785L5.40498 59.2785L5.3962 59.2785L5.38742 59.2785L5.37863 59.2785L5.37838 59.2785C5.57806 58.9868 5.78217 58.7036 5.98612 58.4208L5.99747 58.4051C6.28246 58.0099 6.5674 57.6149 6.83221 57.2066C6.95308 57.057 7.03916 56.8824 7.08409 56.6953C7.13022 56.5032 7.13176 56.3032 7.0886 56.1104C7.04544 55.9177 6.95873 55.7374 6.83512 55.5832C6.71151 55.4291 6.55428 55.3052 6.37545 55.221L6.36398 55.2156L6.35201 55.2114C6.07201 55.1127 5.77233 55.0828 5.47833 55.1242C5.18433 55.1657 4.90461 55.2771 4.66288 55.4493L4.63887 55.4664L4.61949 55.4886C3.46203 56.8157 2.40962 58.2442 1.38033 59.6646C1.00512 60.0999 0.784765 60.647 0.753962 61.2207C0.722955 61.7981 0.885792 62.3693 1.21663 62.844L1.22187 62.8515L1.22764 62.8586C2.62359 64.578 4.12209 66.2964 5.67078 68.0131L5.69846 68.0438L5.73454 68.0639C5.99239 68.2079 6.28291 68.2835 6.57834 68.2835C6.87376 68.2835 7.16428 68.2079 7.42214 68.0639L7.467 68.0389L7.49834 67.9982C7.67663 67.7666 7.80099 67.4983 7.86233 67.2128C7.92367 66.9272 7.92044 66.6315 7.85288 66.3474L7.84707 66.3229L7.83653 66.3002C7.57972 65.7454 7.21938 65.2446 6.77483 64.8244C6.21678 64.1996 5.65027 63.5813 5.03239 62.9069C4.83692 62.6935 4.63631 62.4745 4.4292 62.248L5.32356 62.248L5.32356 62.2483L5.3365 62.2476C6.37566 62.1938 7.41603 62.1457 8.45691 62.0977C11.385 61.9625 14.3171 61.8272 17.2378 61.5612C24.6347 61.0734 31.6586 58.1436 37.2025 53.2335L37.2028 53.2332C48.0301 43.6082 48.5284 29.2906 41.8928 18.6214C41.0686 17.1592 39.9226 15.9027 38.5412 14.9465C37.1583 13.9892 35.5755 13.3578 33.9123 13.1L33.9002 13.0982L33.8881 13.0975C33.5946 13.0809 33.3115 12.9834 33.0703 12.816C32.8291 12.6486 32.6392 12.4178 32.5216 12.1493L32.5219 12.1492L32.5164 12.1382C31.1687 9.43001 29.2428 7.0492 26.8743 5.163C24.5061 3.27699 21.7526 1.93122 18.8075 1.22021C17.8691 0.986462 16.9132 0.829482 15.9493 0.750828L15.9392 0.75L15.929 0.75C15.5618 0.75 15.1582 0.797769 14.8296 0.981019C14.4828 1.17447 14.2427 1.50663 14.2016 2.00853C14.161 2.50438 14.3273 2.86563 14.6302 3.11234C14.9144 3.34387 15.2968 3.45591 15.6578 3.52617L15.6706 3.52867L15.6836 3.52981C15.7971 3.53981 15.9112 3.5406 16.0249 3.53218C18.9633 3.94392 21.7577 5.06185 24.1672 6.78989C26.5047 8.46619 28.4119 10.6677 29.7357 13.2147L28.9983 13.4477C28.6347 13.5222 28.275 13.615 27.9208 13.7258L27.9208 13.7257L27.9119 13.7288C23.4749 15.3023 19.7666 17.8464 18.2023 22.6112C17.8073 23.6907 17.6377 24.8394 17.704 25.9867C17.7703 27.1355 18.0716 28.2586 18.5894 29.2868C19.1071 30.3149 19.8304 31.2264 20.7145 31.9651C21.5966 32.7021 22.6202 33.2515 23.7225 33.5798C24.8269 33.9864 26.0042 34.1587 27.1792 34.0857C28.3568 34.0126 29.5062 33.6946 30.5535 33.1522C31.6009 32.6098 32.523 31.8549 33.2608 30.936C33.9982 30.0174 34.5352 28.9552 34.8372 27.8175C35.3191 26.0613 35.5077 24.2379 35.3955 22.4205ZM28.5616 16.6745L28.5617 16.6747L28.5717 16.6714C29.385 16.4051 30.2101 16.1764 31.0444 15.9859C32.4385 19.2984 32.8645 22.9383 32.271 26.4845C31.7624 28.5945 30.4024 30.153 28.6579 30.8039C26.9179 31.4531 24.758 31.2128 22.6193 29.6504C21.7573 28.8613 21.1571 27.8286 20.899 26.6902C20.6399 25.5475 20.7378 24.3531 21.1796 23.2675L21.1797 23.2674C21.8251 21.68 22.8257 20.2607 24.1051 19.118C25.3845 17.9754 26.9088 17.1395 28.5616 16.6745Z" fill="#FED849" stroke="#FED849" stroke-width="0.5"/>
</svg>
