<svg width="594" height="290" viewBox="0 0 594 290" fill="none" xmlns="http://www.w3.org/2000/svg">
    <path d="M9.15008 99.3687C9.60094 101.302 10.0165 103.246 10.5136 105.167C11.381 108.526 12.2935 111.875 13.2031 115.222C13.3731 115.846 13.634 116.445 13.8229 117.062C14.0762 117.874 13.8068 118.575 13.1235 118.97C12.8247 119.158 12.4663 119.228 12.1186 119.167C11.7708 119.105 11.4586 118.915 11.243 118.636C10.8389 118.133 10.5268 117.563 10.3211 116.952C8.70504 112.223 7.34129 107.411 6.23563 102.537C5.21995 98.072 4.1468 93.6187 3.2172 89.1344C2.50878 85.6936 1.86972 82.2216 2.20877 78.6726C2.42573 76.3948 2.9969 74.1961 4.06306 72.1744C4.51131 71.3153 5.09787 70.5359 5.79921 69.8672C6.9718 68.7603 8.35835 68.6949 9.7824 69.4636C10.9588 70.0914 11.8074 71.0626 12.4737 72.1977C13.4784 73.9224 14.1585 75.8166 14.4804 77.7865C15.377 83.0608 14.9135 88.2072 12.9229 93.1936C12.5123 94.2178 12.1155 95.253 11.7 96.3098C11.9736 96.5865 12.1767 96.8331 12.4211 97.0346C14.7078 98.9268 16.7431 101.104 18.4774 103.512C20.4241 106.215 22.3172 108.956 24.1567 111.736C24.8442 112.77 25.3479 113.929 25.9057 115.044C26.0681 115.376 26.1762 115.732 26.2261 116.099C26.3465 117.001 25.9446 117.68 25.163 117.994C24.4311 118.289 23.6276 118.03 23.1082 117.28C22.8741 116.942 22.7285 116.542 22.532 116.176C19.371 110.266 15.6032 104.799 10.6783 100.195C10.2873 99.8285 9.84608 99.5155 9.42874 99.1775L9.15008 99.3687ZM7.93654 72.5509C7.56893 73.1982 7.20084 73.7251 6.95152 74.3021C6.00354 76.4971 5.53705 78.7964 5.65731 81.19C5.90071 85.7335 6.97735 90.1417 8.06863 94.5301C8.13419 94.7009 8.2153 94.8654 8.31094 95.0214C10.0748 91.3218 11.2164 87.6506 11.3682 83.705C11.4867 80.6627 11.1519 77.7117 9.89722 74.9097C9.50607 74.0273 9.07544 73.1422 7.93654 72.5509Z" fill="#FFA7FE"/>
    <path d="M49.2915 87.304C49.0094 87.6047 48.7664 87.8662 48.5189 88.1253C46.5557 90.1844 44.0995 90.1029 42.2838 87.9062C41.3846 86.8173 40.8391 85.5445 40.4648 84.186C39.7846 81.7259 39.6909 79.2426 40.3595 76.7814C41.0613 74.227 42.5606 72.315 45.1432 71.4102C46.3821 70.9775 47.6093 71.1323 48.8033 71.6126C49.5673 71.9214 50.1805 72.4522 50.4302 73.231C50.7913 74.3206 51.0747 75.4345 51.2781 76.5642C51.9824 80.7134 52.6359 84.8723 53.3031 89.0283C53.8926 92.7003 54.2273 96.3719 53.4989 100.072C52.785 103.7 51.0102 106.719 48.3765 109.265C47.3963 110.211 46.3267 110.27 45.567 109.448C44.8563 108.677 44.9024 107.35 45.8383 106.589C49.4535 103.649 50.4503 99.6509 50.3472 95.2909C50.2843 92.7553 49.8236 90.2293 49.5307 87.7019C49.5184 87.5885 49.4037 87.4863 49.2915 87.304ZM45.4494 86.3405C45.9891 85.564 46.4408 85.1623 46.5812 84.6783C46.9548 83.4036 47.3017 82.1023 47.4597 80.7881C47.6511 79.1889 47.6608 77.5661 47.7007 75.9512C47.7114 75.5219 47.5467 75.0878 47.4685 74.6905C46.4204 74.4449 45.7033 74.7607 45.0804 75.4021C44.3607 76.1329 43.8769 77.0629 43.6915 78.0717C43.2879 80.2033 43.3984 82.3013 44.2559 84.3196C44.5122 84.9144 44.9277 85.4667 45.4494 86.3405Z" fill="#FFA7FE"/>
    <path d="M127.274 75.9042L122.686 77.2691C122.763 77.9827 122.812 78.5301 122.882 79.0752C123.256 81.8708 123.63 84.6665 124.027 87.4582C124.102 87.8617 124.236 88.2521 124.424 88.6169C124.874 89.5629 124.749 90.3153 124.032 90.813C123.315 91.3107 122.197 91.2223 121.657 90.4765C121.292 89.948 121.045 89.3466 120.934 88.7137C120.415 85.8475 119.935 82.9748 119.493 80.0955C119.136 77.764 118.803 75.4285 118.552 73.084C118.203 69.8743 118.449 66.7133 119.655 63.6732C120.172 62.3716 120.814 61.146 121.826 60.1559C123.909 58.1188 126.219 58.4975 127.343 61.1794C128.003 62.8067 128.523 64.4873 128.898 66.203C130.223 71.9624 131.477 77.7407 132.745 83.5133C132.851 83.9665 132.901 84.4309 132.895 84.8962C132.868 85.9346 132.114 86.7149 131.188 86.7469C130.262 86.779 129.47 86.0801 129.272 85.0802C128.715 82.2751 128.141 79.4662 127.568 76.6684C127.486 76.4079 127.387 76.1527 127.274 75.9042ZM124.31 62.9881C122.234 64.3624 121.358 71.0705 122.383 73.9074L126.639 72.5591C126.08 69.3198 125.301 66.1221 124.31 62.9881Z" fill="#FFA7FE"/>
    <path d="M158.445 67.0479C158.374 69.5477 158.543 71.9416 159.478 74.2117C159.775 74.9364 160.201 75.6013 160.736 76.1739C161.894 77.3913 163.279 77.494 164.587 76.4548C165.414 75.7853 166.168 75.0323 166.84 74.2077C168.047 72.7429 169.172 71.2047 170.331 69.7074C170.6 69.3319 170.908 68.986 171.25 68.6756C171.545 68.4266 171.916 68.2852 172.302 68.2745C172.688 68.2637 173.066 68.3842 173.374 68.6163C173.682 68.8484 173.903 69.1783 173.999 69.552C174.096 69.9257 174.062 70.3211 173.905 70.6734C173.82 70.8872 173.705 71.088 173.564 71.2702C171.967 73.3159 170.401 75.3808 168.753 77.3817C168.124 78.123 167.408 78.7854 166.62 79.3543C163.941 81.3357 160.672 81.0768 158.279 78.7511C156.763 77.2788 155.91 75.4321 155.516 73.4054C155.199 71.7762 155.107 70.1029 154.891 68.4514C154.79 67.6802 154.625 66.9188 154.501 66.1501C154.459 65.8832 154.374 65.5594 154.479 65.3437C155.05 64.1622 154.897 62.893 155.028 61.6628C155.301 59.0318 156.042 56.5768 157.762 54.5092C158.255 53.8969 158.827 53.3532 159.464 52.8928C161.984 51.1511 165.348 52.5807 165.893 55.597C166.173 57.1505 165.892 58.646 165.268 60.0712C164.057 62.8306 162.117 64.9487 159.518 66.4653C159.207 66.6517 158.876 66.8163 158.445 67.0479ZM158.665 62.8821C160.507 61.3639 162.012 59.6597 162.404 57.2384C162.485 56.702 162.66 55.9847 161.979 55.8195C161.636 55.7365 161.056 56.1396 160.749 56.4765C159.105 58.277 158.602 60.4879 158.665 62.8821Z" fill="#FFA7FE"/>
    <path d="M106.492 72.5159C109.16 74.3667 110.972 77.0326 112.547 79.8978C113.171 81.0305 113.791 82.1664 114.369 83.3238C114.553 83.6936 114.655 84.0986 114.669 84.5114C114.68 84.885 114.569 85.2519 114.353 85.557C114.137 85.8621 113.828 86.0889 113.472 86.2031C113.12 86.3327 112.735 86.34 112.378 86.2239C112.022 86.1079 111.714 85.8751 111.506 85.5632C111.2 85.1032 110.935 84.6169 110.714 84.11C109.656 81.8939 108.526 79.7164 106.964 77.8013C106.03 76.6561 105.02 75.5807 103.422 74.9583C103.48 75.4935 103.473 75.9322 103.582 76.3401C104.583 80.0905 105.622 83.8311 106.599 87.5867C106.731 88.0901 106.673 88.6883 106.546 89.2031C106.388 89.8373 105.862 90.1842 105.206 90.2428C104.904 90.2796 104.598 90.2243 104.327 90.0842C104.057 89.944 103.835 89.7256 103.691 89.4575C103.519 89.1316 103.387 88.786 103.299 88.4282C102.366 85.1841 101.42 81.9426 100.522 78.689C99.6915 75.6024 99.193 72.4359 99.0351 69.2434C98.8995 66.8248 99.4535 64.558 100.823 62.5229C101.426 61.5817 102.271 60.8207 103.27 60.3203C105.255 59.3574 107.228 60.0539 108.103 62.0828C108.88 63.8832 109.055 65.7895 108.475 67.6506C107.967 69.2506 107.206 70.7857 106.492 72.5159ZM102.69 71.0066C105.018 68.4825 105.762 65.6451 104.695 63.5306C102.406 65.5509 102.421 68.1099 102.691 71.0064L102.69 71.0066Z" fill="#FFA7FE"/>
    <path d="M89.1043 54.167C90.2253 53.7443 91.3887 53.2988 92.5577 52.8667C92.9908 52.7063 93.4308 52.5577 93.8773 52.4434C94.7094 52.22 95.4517 52.3814 95.9906 53.091C96.5637 53.8445 96.4576 54.6578 96.0752 55.4522C95.7064 56.2171 95.0691 56.8684 94.2472 56.6569C93.0368 56.3477 92.0922 56.8618 91.0681 57.2362C90.25 57.5364 89.4274 57.8217 88.5626 58.1298C88.5897 58.8558 88.5937 59.4977 88.6409 60.1376C88.9426 64.5222 89.175 68.913 89.5889 73.2869C89.8673 76.0991 90.4924 78.8661 91.4498 81.5249C92.1907 83.6034 93.3703 85.4187 94.6426 87.1862C94.8519 87.4769 95.1826 87.6872 95.4576 87.926C96.0953 88.4891 96.3477 89.2145 96.2975 90.0399C96.2883 90.3907 96.1772 90.7313 95.9777 91.0201C95.7783 91.3088 95.4992 91.5333 95.1743 91.6662C94.4479 91.9984 93.8215 91.7587 93.2503 91.2919C93.1098 91.1709 92.9841 91.0338 92.8756 90.8834C90.0552 87.1028 87.7808 83.0809 86.8568 78.3651C86.0174 74.0795 85.6413 69.7575 85.4193 65.4103C85.3153 63.3857 85.2308 61.359 85.1308 59.2038C84.4853 59.3537 83.9178 59.4756 83.3568 59.6177C82.8117 59.7525 82.2893 59.9283 81.7474 60.0403C80.6293 60.271 79.8507 59.9177 79.5758 59.0884C79.301 58.2592 79.7914 57.4027 80.9032 56.9852C82.0748 56.5514 83.2804 56.2119 84.4467 55.7675C84.8186 55.6298 85.1349 55.3736 85.3469 55.0385C86.3939 53.0847 87.249 52.8546 89.1043 54.167Z" fill="#FFA7FE"/>
    <path d="M140.269 62.5098C139.581 62.6154 139.033 62.7184 138.494 62.777C137.989 62.8319 137.474 62.9075 136.976 62.8567C136.16 62.7718 135.548 62.1303 135.494 61.4295C135.439 60.6953 135.904 60.0487 136.742 59.8177C137.41 59.6331 138.1 59.5301 138.779 59.3752C139.22 59.2783 139.66 59.1661 140.201 59.0359C140.118 57.3309 140.034 55.721 139.964 54.1097C139.94 53.5527 139.879 52.9995 139.956 52.4525C140.105 51.4078 140.84 50.8438 141.768 50.9598C142.206 51.0254 142.608 51.2398 142.906 51.5669C143.205 51.894 143.382 52.3139 143.407 52.756C143.462 54.5481 143.517 56.3415 143.577 58.3192C144.27 58.262 144.848 58.2118 145.427 58.1671C145.982 58.1249 146.531 58.0288 147.086 58.0636C148.072 58.1271 148.666 58.7315 148.746 59.6154C148.822 60.4551 148.411 61.1155 147.504 61.382C146.844 61.5755 146.14 61.6296 145.454 61.728C144.962 61.7982 144.465 61.8354 143.781 61.9099C144.087 65.0137 144.274 67.9668 144.698 70.8844C145.203 74.3738 146.134 77.7706 147.636 80.9796C148.144 82.0633 148.695 83.155 149.408 84.1088C149.943 84.8244 150.726 85.3858 151.485 85.8868C151.802 86.0957 152.369 86.0845 152.772 85.9791C153.816 85.7076 154.432 85.7988 154.995 86.5043C155.588 87.257 155.728 88.094 155.329 88.9866C154.993 89.7522 154.214 90.1909 153.265 90.0632C150.696 89.7183 148.469 88.7039 146.824 86.6158C145.201 84.5535 144.217 82.153 143.299 79.7229C141.462 74.8559 140.91 69.7527 140.496 64.6218C140.445 63.981 140.36 63.3465 140.269 62.5098Z" fill="#FFA7FE"/>
    <path d="M30.147 80.9965C30.3289 83.417 29.8838 85.707 28.5636 87.7605C27.8617 88.8478 27.0793 89.8809 26.2228 90.8512C25.7547 91.3848 25.6325 91.8571 25.8856 92.4732C26.1802 93.201 26.4271 93.9535 26.78 94.6512C27.9019 96.8758 29.5684 97.6475 32.0453 97.1474C33.0735 96.9391 33.7246 97.2265 34.1161 98.0613C34.4588 98.7937 34.2657 99.8235 33.5609 100.303C33.1109 100.619 32.5828 100.806 32.0341 100.843C28.0765 100.927 25.3132 99.9515 23.3637 95.7389C22.812 94.5256 22.2144 93.3144 21.8205 92.0461C21.5685 91.234 21.681 90.3122 21.5716 89.4468C21.3022 87.3296 21.1105 85.2054 21.4403 83.0903C21.6766 81.7711 21.987 80.4662 22.37 79.1819C22.5438 78.6059 22.7963 78.0568 23.1203 77.5499C24.4727 75.3558 27.0272 75.1831 28.6763 77.1727C29.5943 78.2804 30.0411 79.5724 30.147 80.9965ZM26.0472 79.8638C25.0056 81.5455 24.5078 85.2167 25.1248 86.6581C26.7124 84.5167 27.1215 81.5087 26.0472 79.8638Z" fill="#FFA7FE"/>
    <path d="M74.1907 68.6206C73.1964 70.6597 73.2151 72.6851 73.8479 74.6579C74.3108 76.0978 75.0279 77.468 75.7418 78.8093C77.0322 81.2324 78.1559 83.7045 78.623 86.4313C78.9392 88.2719 79.0706 90.1116 78.5639 91.9382C78.0402 93.8141 77.1186 95.4535 75.4736 96.5782C74.2188 97.431 72.8063 96.9101 72.3724 95.5062C72.0493 94.4639 72.5233 93.3154 73.5759 93.061C74.3532 92.8744 74.6468 92.3961 74.882 91.7927C75.4905 90.2335 75.4791 88.6354 75.149 87.0146C74.6923 84.7694 73.839 82.6863 72.7201 80.6951C71.5884 78.6772 70.4608 76.645 70.121 74.3046C69.842 72.4067 69.8307 70.5008 70.5371 68.6959C70.8934 67.7971 71.4001 66.9655 72.0356 66.2369C72.9695 65.1741 74.3131 65.0098 75.6011 65.5694C76.4054 65.927 76.8306 66.5818 76.7189 67.2922C76.6053 68.0237 76.0327 68.5099 75.1499 68.6017C74.878 68.6355 74.603 68.6164 74.1907 68.6206Z" fill="#FFA7FE"/>
    <path d="M60.3478 82.6642C60.06 80.6987 59.7527 78.734 59.4995 76.7648C59.4304 76.2629 59.459 75.7523 59.5837 75.2612C59.6913 74.903 59.9221 74.5943 60.2353 74.3897C60.5485 74.1851 60.9239 74.0978 61.2952 74.1433C62.0765 74.2249 62.6179 74.7901 62.737 75.5901C62.9949 77.3195 63.2644 79.0477 63.5454 80.7746C63.9417 83.2362 64.3505 85.6965 64.7509 88.1576C64.7807 88.3408 64.8007 88.5254 64.811 88.7108C64.875 89.9044 64.3093 90.7242 63.3252 90.862C62.3606 90.999 61.4693 90.3809 61.2398 89.2487C61.0104 88.1164 60.9439 86.9637 60.8137 85.8178C60.6921 84.7634 60.5844 83.7075 60.4697 82.6523L60.3478 82.6642Z" fill="#FFA7FE"/>
    <path d="M59.7849 69.0141C58.7189 69.1062 57.8464 68.4678 57.7805 67.5529C57.7146 66.6379 58.4607 65.8936 59.5493 65.8032C60.6379 65.7129 61.5146 66.3508 61.5716 67.2485C61.6286 68.1462 60.8261 68.9247 59.7849 69.0141Z" fill="#FFA7FE"/>
    <path d="M575.395 182.42L575.396 182.42L575.395 182.411C575.19 180.347 574.871 178.296 574.442 176.267C575.307 176.487 576.128 176.858 576.866 177.365C577.71 177.944 578.427 178.688 578.974 179.551L578.974 179.552L578.982 179.563C581.036 182.452 582.409 185.768 582.998 189.261C583.587 192.755 583.377 196.336 582.383 199.737C579.645 209.087 572.95 214.591 563.819 217.35C559.086 218.61 554.21 219.258 549.311 219.279C549.311 219.279 549.311 219.279 549.31 219.279L549.303 219.279L549.294 219.279L549.286 219.279L549.277 219.279L549.269 219.279L549.261 219.279L549.252 219.279L549.244 219.279L549.235 219.279L549.227 219.279L549.218 219.279L549.21 219.279L549.201 219.279L549.193 219.279L549.184 219.279L549.176 219.279L549.168 219.279L549.159 219.279L549.151 219.279L549.142 219.279L549.134 219.279L549.125 219.279L549.117 219.279L549.108 219.279L549.1 219.279L549.091 219.279L549.083 219.279L549.074 219.279L549.066 219.279L549.058 219.279L549.049 219.279L549.041 219.279L549.032 219.279L549.024 219.279L549.015 219.279L549.007 219.279L548.998 219.279L548.99 219.279L548.981 219.279L548.973 219.279L548.964 219.279L548.956 219.279L548.948 219.279L548.939 219.279L548.931 219.279L548.922 219.279L548.914 219.279L548.905 219.279L548.897 219.279L548.888 219.279L548.88 219.279L548.871 219.279L548.863 219.279L548.854 219.279L548.846 219.279L548.837 219.279L548.829 219.279L548.821 219.279L548.812 219.279L548.804 219.279L548.795 219.279L548.787 219.279L548.778 219.279L548.77 219.279L548.761 219.279L548.753 219.279L548.744 219.279L548.736 219.279L548.727 219.279L548.719 219.279L548.71 219.279L548.702 219.279L548.694 219.279L548.685 219.279L548.677 219.279L548.668 219.279L548.66 219.279L548.651 219.279L548.643 219.279L548.634 219.279L548.626 219.279L548.617 219.279L548.609 219.279L548.6 219.279L548.592 219.279L548.583 219.279L548.575 219.279L548.567 219.279L548.558 219.279L548.55 219.279L548.541 219.279L548.533 219.279L548.524 219.279L548.516 219.279L548.507 219.279L548.499 219.279L548.49 219.279L548.482 219.279L548.473 219.279L548.465 219.279L548.456 219.279L548.448 219.279L548.439 219.279L548.431 219.279L548.422 219.279L548.414 219.279L548.405 219.279L548.397 219.279L548.389 219.279L548.38 219.279L548.372 219.279L548.363 219.279L548.355 219.279L548.346 219.279L548.338 219.279L548.329 219.279L548.321 219.279L548.312 219.279L548.304 219.279L548.295 219.279L548.287 219.279L548.278 219.279L548.27 219.279L548.261 219.279L548.253 219.279L548.244 219.279L548.236 219.279L548.227 219.279L548.219 219.279L548.21 219.279L548.202 219.279L548.193 219.279L548.185 219.279L548.176 219.279L548.168 219.279L548.159 219.279L548.151 219.279L548.143 219.279L548.134 219.279L548.126 219.279L548.117 219.279L548.109 219.279L548.1 219.279L548.092 219.279L548.083 219.279L548.075 219.279L548.066 219.279L548.058 219.279L548.049 219.279L548.041 219.279L548.032 219.279L548.024 219.279L548.015 219.279L548.007 219.279L547.998 219.279L547.99 219.279L547.981 219.279L547.973 219.279L547.964 219.279L547.956 219.279L547.947 219.279L547.939 219.279L547.93 219.279L547.922 219.279L547.913 219.279L547.905 219.279L547.896 219.279L547.888 219.279L547.879 219.279L547.871 219.279L547.862 219.279L547.854 219.279L547.845 219.279L547.837 219.279L547.828 219.279L547.82 219.279L547.811 219.279L547.803 219.279L547.794 219.279L547.786 219.279L547.777 219.279L547.769 219.279L547.76 219.279L547.751 219.279L547.743 219.279L547.734 219.279L547.726 219.279L547.717 219.279L547.709 219.279L547.7 219.279L547.692 219.279L547.683 219.279L547.675 219.279L547.666 219.279L547.658 219.279L547.649 219.279L547.641 219.279L547.632 219.279L547.624 219.279L547.615 219.279L547.607 219.279L547.598 219.279L547.59 219.279L547.581 219.279L547.573 219.279L547.564 219.279L547.556 219.279L547.547 219.279L547.539 219.279L547.53 219.279L547.521 219.279L547.513 219.279L547.504 219.279L547.496 219.279L547.487 219.279L547.479 219.279L547.47 219.279L547.462 219.279L547.453 219.279L547.445 219.279L547.436 219.279L547.428 219.279L547.419 219.279L547.411 219.279L547.402 219.279L547.393 219.279L547.385 219.279L547.376 219.279L547.368 219.279L547.359 219.279L547.351 219.279L547.342 219.279L547.334 219.279L547.325 219.279L547.317 219.279L547.308 219.279L547.299 219.279L547.291 219.279L547.282 219.279L547.274 219.279L547.265 219.279L547.257 219.279L547.248 219.279L547.24 219.279L547.231 219.279L547.223 219.279L547.214 219.279L547.205 219.279L547.197 219.279L547.188 219.279L547.18 219.279L547.171 219.279L547.163 219.279L547.154 219.279L547.146 219.279L547.137 219.279L547.128 219.279L547.12 219.279L547.111 219.279L547.103 219.279L547.094 219.279L547.086 219.279L547.077 219.279L547.068 219.279L547.06 219.279L547.051 219.279L547.043 219.279L547.034 219.279L547.026 219.279L547.017 219.279L547.008 219.279L547 219.279L546.991 219.279L546.983 219.279L546.974 219.279L546.966 219.279L546.957 219.279L546.948 219.279L546.94 219.279L546.931 219.279L546.923 219.279L546.914 219.279L546.906 219.279L546.897 219.279L546.888 219.279L546.88 219.279L546.871 219.279L546.863 219.279L546.854 219.279L546.845 219.279L546.837 219.279L546.828 219.279L546.82 219.279L546.811 219.279L546.802 219.279L546.794 219.279L546.785 219.279L546.777 219.279L546.768 219.279L546.759 219.279L546.751 219.279L546.742 219.279L546.734 219.279L546.725 219.279L546.716 219.279L546.708 219.279L546.699 219.279L546.691 219.279L546.682 219.279L546.673 219.279L546.665 219.279L546.656 219.279L546.648 219.279L546.639 219.279L546.63 219.279L546.622 219.279L546.613 219.279L546.605 219.279L546.596 219.279L546.587 219.279L546.579 219.279L546.57 219.279L546.561 219.279L546.553 219.279L546.544 219.279L546.536 219.279L546.527 219.279L546.518 219.279L546.51 219.279L546.501 219.279L546.492 219.279L546.484 219.279L546.475 219.279L546.467 219.279L546.458 219.279L546.449 219.279L546.441 219.279L546.432 219.279L546.423 219.279L546.415 219.279L546.406 219.279L546.398 219.279L546.389 219.279L546.38 219.279L546.372 219.279L546.363 219.279L546.354 219.279L546.346 219.279L546.337 219.279L546.328 219.279L546.32 219.279L546.311 219.279L546.302 219.279L546.294 219.279L546.285 219.279L546.276 219.279L546.268 219.279L546.259 219.279L546.25 219.279L546.242 219.279L546.233 219.279L546.224 219.279L546.216 219.279L546.207 219.279L546.199 219.279L546.19 219.279L546.181 219.279L546.173 219.279L546.164 219.279L546.155 219.279L546.146 219.279L546.138 219.279L546.129 219.279L546.12 219.279L546.112 219.279L546.103 219.279L546.094 219.279L546.086 219.279L546.077 219.279L546.068 219.279L546.06 219.279L546.051 219.279L546.042 219.279L546.034 219.279L546.025 219.279L546.016 219.279L546.008 219.279L545.999 219.279L545.99 219.279L545.982 219.279L545.973 219.279L545.964 219.279L545.955 219.279L545.947 219.279L545.938 219.279L545.929 219.279L545.921 219.279L545.912 219.279L545.903 219.279L545.895 219.279L545.886 219.279L545.877 219.279L545.868 219.279L545.86 219.279L545.851 219.279L545.842 219.279L545.834 219.279L545.825 219.279L545.816 219.279L545.807 219.279L545.799 219.279L545.79 219.279L545.781 219.279L545.773 219.279L545.764 219.279L545.755 219.279L545.746 219.279L545.738 219.279L545.729 219.279L545.72 219.279L545.711 219.279L545.703 219.279L545.694 219.279L545.685 219.279L545.676 219.279L545.668 219.279L545.659 219.279L545.65 219.279L545.642 219.279L545.633 219.279L545.624 219.279L545.615 219.279L545.607 219.279L545.598 219.279L545.589 219.279L545.58 219.279L545.572 219.279L545.563 219.279L545.554 219.279L545.545 219.279L545.537 219.279L545.528 219.279L545.519 219.279L545.51 219.279L545.501 219.279L545.493 219.279L545.484 219.279L545.475 219.279L545.466 219.279L545.458 219.279L545.449 219.279L545.44 219.279L545.431 219.279L545.423 219.279L545.414 219.279L545.405 219.279L545.396 219.279L545.387 219.279L545.379 219.279L545.378 219.279C545.578 218.987 545.782 218.704 545.986 218.421L545.997 218.405C546.282 218.01 546.567 217.615 546.832 217.207C546.953 217.057 547.039 216.882 547.084 216.695C547.13 216.503 547.132 216.303 547.089 216.11C547.045 215.918 546.959 215.737 546.835 215.583C546.712 215.429 546.554 215.305 546.375 215.221L546.364 215.216L546.352 215.211C546.072 215.113 545.772 215.083 545.478 215.124C545.184 215.166 544.905 215.277 544.663 215.449L544.639 215.466L544.619 215.489C543.462 216.816 542.41 218.244 541.38 219.665C541.005 220.1 540.785 220.647 540.754 221.221C540.723 221.798 540.886 222.369 541.217 222.844L541.222 222.852L541.228 222.859C542.624 224.578 544.122 226.296 545.671 228.013L545.698 228.044L545.735 228.064C545.992 228.208 546.283 228.284 546.578 228.284C546.874 228.284 547.164 228.208 547.422 228.064L547.467 228.039L547.498 227.998C547.677 227.767 547.801 227.498 547.862 227.213C547.924 226.927 547.92 226.632 547.853 226.347L547.847 226.323L547.837 226.3C547.58 225.745 547.219 225.245 546.775 224.824C546.217 224.2 545.65 223.581 545.032 222.907C544.837 222.693 544.636 222.475 544.429 222.248L545.324 222.248L545.324 222.248L545.337 222.248C546.376 222.194 547.416 222.146 548.457 222.098C551.385 221.963 554.317 221.827 557.238 221.561C564.635 221.073 571.659 218.144 577.202 213.233L577.203 213.233C588.03 203.608 588.528 189.291 581.893 178.621C581.069 177.159 579.923 175.903 578.541 174.946C577.158 173.989 575.575 173.358 573.912 173.1L573.9 173.098L573.888 173.097C573.595 173.081 573.312 172.983 573.07 172.816C572.829 172.649 572.639 172.418 572.522 172.149L572.522 172.149L572.516 172.138C571.169 169.43 569.243 167.049 566.874 165.163C564.506 163.277 561.753 161.931 558.807 161.22C557.869 160.986 556.913 160.829 555.949 160.751L555.939 160.75L555.929 160.75C555.562 160.75 555.158 160.798 554.83 160.981C554.483 161.174 554.243 161.507 554.202 162.009C554.161 162.504 554.327 162.866 554.63 163.112C554.914 163.344 555.297 163.456 555.658 163.526L555.671 163.529L555.684 163.53C555.797 163.54 555.911 163.541 556.025 163.532C558.963 163.944 561.758 165.062 564.167 166.79C566.505 168.466 568.412 170.668 569.736 173.215L568.998 173.448C568.635 173.522 568.275 173.615 567.921 173.726L567.921 173.726L567.912 173.729C563.475 175.302 559.767 177.846 558.202 182.611C557.807 183.691 557.638 184.839 557.704 185.987C557.77 187.136 558.072 188.259 558.589 189.287C559.107 190.315 559.83 191.226 560.715 191.965C561.597 192.702 562.62 193.252 563.722 193.58C564.827 193.986 566.004 194.159 567.179 194.086C568.357 194.013 569.506 193.695 570.554 193.152C571.601 192.61 572.523 191.855 573.261 190.936C573.998 190.017 574.535 188.955 574.837 187.817C575.319 186.061 575.508 184.238 575.395 182.42ZM568.562 176.674L568.562 176.675L568.572 176.671C569.385 176.405 570.21 176.176 571.044 175.986C572.438 179.298 572.864 182.938 572.271 186.484C571.762 188.594 570.402 190.153 568.658 190.804C566.918 191.453 564.758 191.213 562.619 189.65C561.757 188.861 561.157 187.829 560.899 186.69C560.64 185.548 560.738 184.353 561.18 183.268L561.18 183.267C561.825 181.68 562.826 180.261 564.105 179.118C565.385 177.975 566.909 177.14 568.562 176.674Z" fill="#FED849" stroke="#FED849" stroke-width="0.5"/>
</svg>
