<svg width="28" height="26" viewBox="0 0 28 26" fill="none" xmlns="http://www.w3.org/2000/svg">
    <path d="M13.0429 2.1041C13.3502 1.48151 13.5039 1.17022 13.7125 1.07076C13.8939 0.984226 14.1048 0.984226 14.2863 1.07076C14.4949 1.17022 14.6485 1.48151 14.9559 2.1041L17.8714 8.01072C17.9622 8.19452 18.0075 8.28642 18.0738 8.35777C18.1325 8.42095 18.2029 8.47214 18.2811 8.5085C18.3694 8.54957 18.4708 8.56439 18.6736 8.59404L25.1953 9.54728C25.8821 9.64766 26.2255 9.69785 26.3844 9.86559C26.5227 10.0115 26.5877 10.2121 26.5614 10.4114C26.5311 10.6404 26.2825 10.8826 25.7853 11.3668L21.0679 15.9616C20.9209 16.1048 20.8474 16.1764 20.7999 16.2616C20.7579 16.3371 20.731 16.42 20.7206 16.5057C20.7088 16.6025 20.7262 16.7037 20.7609 16.906L21.874 23.3958C21.9914 24.0803 22.0501 24.4226 21.9397 24.6257C21.8438 24.8024 21.6732 24.9263 21.4754 24.963C21.2482 25.0051 20.9408 24.8435 20.3262 24.5202L14.4959 21.4541C14.3142 21.3586 14.2234 21.3108 14.1277 21.2921C14.0429 21.2754 13.9558 21.2754 13.8711 21.2921C13.7754 21.3108 13.6846 21.3586 13.5029 21.4541L7.67258 24.5202C7.0579 24.8435 6.75056 25.0051 6.52331 24.963C6.32559 24.9263 6.15498 24.8024 6.059 24.6257C5.94868 24.4226 6.00738 24.0803 6.12478 23.3958L7.23786 16.906C7.27256 16.7037 7.28992 16.6025 7.27818 16.5057C7.26778 16.42 7.24083 16.3371 7.19882 16.2616C7.15138 16.1764 7.07785 16.1048 6.9308 15.9616L2.21343 11.3668C1.71623 10.8826 1.46764 10.6404 1.43738 10.4114C1.41106 10.2121 1.47609 10.0115 1.61435 9.86559C1.77326 9.69785 2.11664 9.64766 2.80341 9.54728L9.3251 8.59404C9.52791 8.56439 9.62932 8.54957 9.71764 8.5085C9.79583 8.47214 9.86623 8.42095 9.92493 8.35777C9.99122 8.28642 10.0366 8.19452 10.1273 8.01072L13.0429 2.1041Z" fill="#F3F4F8" stroke="#B3B5BD" stroke-width="1.5" stroke-linecap="round" stroke-linejoin="round"/>
</svg>
