<svg width="16" height="15" viewBox="0 0 16 15" fill="none" xmlns="http://www.w3.org/2000/svg">
    <path d="M7.99998 14.0002H14.75M1.25 14.0002H2.50591C2.87279 14.0002 3.05624 14.0002 3.22887 13.9587C3.38192 13.922 3.52824 13.8614 3.66245 13.7791C3.81382 13.6864 3.94354 13.5567 4.20296 13.2972L13.625 3.87517C14.2463 3.25385 14.2463 2.24649 13.625 1.62517C13.0037 1.00385 11.9963 1.00385 11.375 1.62517L1.95295 11.0472C1.69352 11.3067 1.5638 11.4364 1.47104 11.5877C1.3888 11.722 1.32819 11.8683 1.29145 12.0213C1.25 12.194 1.25 12.3774 1.25 12.7443V14.0002Z" stroke="#404252" stroke-width="1.5" stroke-linecap="round" stroke-linejoin="round"/>
</svg>
