<svg width="168" height="48" viewBox="0 0 168 48" fill="none" xmlns="http://www.w3.org/2000/svg">
    <path d="M62.4063 14.9518C65.6528 13.8398 68.6947 12.6737 71.81 11.7547C78.2836 9.80942 84.9754 8.68347 91.729 8.40323C95.929 8.24879 100.137 8.08275 104.333 8.19473C112.961 8.41482 121.411 9.93226 129.737 12.1602C140.315 14.9453 150.257 19.742 159.021 26.2882C162.126 28.5338 164.908 31.1945 167.29 34.1959C168.093 35.2462 168.205 35.8447 167.676 36.6285C167.526 36.9011 167.3 37.1246 167.027 37.2725C166.753 37.4204 166.442 37.4864 166.132 37.4625C165.495 37.4007 165.175 36.9876 164.951 36.3968C164.762 35.9236 164.501 35.4822 164.179 35.0879C162.344 32.861 160.24 30.8713 157.913 29.1648C148.209 21.6896 137.276 16.8863 125.394 14.1062C116.295 11.9277 106.956 10.908 97.6005 11.0713C87.7259 11.2953 78.025 12.5617 68.6484 15.8322C67.2857 16.3109 65.9462 16.8824 64.4948 17.4538C64.9271 18.0794 65.2398 18.5427 65.5563 18.9983C67.6833 22.0332 69.4629 25.2341 70.3778 28.8636C71.7752 34.4199 70.2543 39.2464 66.6333 43.4744C64.0547 46.4861 60.5495 47.49 56.7047 47.4282C54.5241 47.393 52.3796 46.865 50.4318 45.8837C46.807 44.0806 44.8035 41.1461 44.1974 37.1652C43.7496 34.223 44.4136 31.5433 45.8226 28.9911C47.7887 25.4632 50.5287 22.4269 53.8365 20.1103C55.6393 18.8284 57.5578 17.7087 59.5034 16.4615C59.3065 15.8592 58.7313 15.5078 58.272 15.0715C52.7518 9.80098 46.2626 6.34522 38.8741 4.43394C32.9756 2.92807 27.023 2.75046 21.0203 3.23697C16.4081 3.62932 11.8663 4.61965 7.50933 6.18305C5.83011 6.77767 4.22809 7.60397 2.59133 8.32987C2.34292 8.46903 2.08492 8.59032 1.81928 8.69282C1.50177 8.79942 1.15605 8.78463 0.848803 8.65129C0.54156 8.51795 0.294575 8.27553 0.155499 7.97078C0.0735334 7.82522 0.0226299 7.66424 0.00600233 7.498C-0.0106252 7.33177 0.00738448 7.1639 0.0588943 7.00498C0.110404 6.84606 0.194295 6.69954 0.305272 6.57469C0.416248 6.44984 0.551898 6.34935 0.703659 6.27958C1.91656 5.54885 3.1678 4.88377 4.45199 4.28721C8.76898 2.35406 13.3592 1.10107 18.0595 0.572751C21.5259 0.134085 25.0196 -0.0530279 28.5131 0.0128788C40.1673 0.456915 50.6093 4.17524 59.3683 12.0945C60.4183 13.0405 61.4297 14.029 62.4063 14.9518ZM61.7655 18.8246C56.2685 21.5699 51.5281 24.96 48.5016 30.3193C48.0821 31.0539 47.7405 31.8304 47.4825 32.636C46.3514 36.2964 47.2895 41.8488 52.9371 43.706C53.7809 44.0085 54.6543 44.2207 55.5428 44.3393C58.3878 44.652 61.1942 44.3972 63.4332 42.4357C66.6411 39.6325 68.2199 36.0068 67.8455 31.7248C67.3861 26.7825 64.7457 22.8055 61.7655 18.8246Z" fill="#FED849"/>
</svg>
