<svg width="119" height="101" viewBox="0 0 119 101" fill="none" xmlns="http://www.w3.org/2000/svg">
    <g clip-path="url(#clip0_1257_1136)">
        <path d="M111.594 46.3809L108.325 42.7003C107.774 42.1345 107.268 41.5264 106.811 40.8815C106.67 40.7056 106.572 40.4986 106.525 40.2774C106.478 40.0561 106.484 39.8267 106.542 39.6077C106.6 39.3887 106.708 39.1862 106.858 39.0165C107.008 38.8468 107.195 38.7147 107.405 38.6308C107.583 38.522 107.782 38.4548 107.989 38.4343C108.196 38.4137 108.404 38.4404 108.599 38.5122C108.794 38.584 108.969 38.6992 109.113 38.8491C109.257 38.9989 109.365 39.1796 109.429 39.3775C109.77 39.9571 110.177 40.4951 110.641 40.9811C111.973 42.3852 113.187 43.8975 114.271 45.5025C114.764 46.7027 115.026 47.9865 115.042 49.286C115.036 49.4715 114.992 49.654 114.912 49.8218C114.833 49.9896 114.719 50.1391 114.579 50.2606C112.743 51.9212 110.868 53.5632 109.013 55.2146L108.567 55.5522C107.446 56.3098 106.483 56.2344 105.928 55.3495C105.812 55.1232 105.742 54.8758 105.722 54.6216C105.702 54.3675 105.733 54.1117 105.813 53.8693C105.893 53.6269 106.02 53.4027 106.187 53.2098C106.354 53.0169 106.557 52.8592 106.785 52.7458C108.01 51.8703 109.195 50.9281 110.449 50.0422L110.354 49.591C107.997 49.0445 105.669 48.4395 103.295 47.9802C92.5688 45.5354 81.2989 47.4459 71.9416 53.2951C69.1647 55.0341 69.2322 55.0423 70.2106 58.0881C71.2258 60.6245 71.6989 63.348 71.5993 66.0831C71.4997 68.8181 70.8297 71.5039 69.6324 73.9673C68.4025 76.4253 66.2986 78.3336 63.7375 79.3143C63.115 79.6345 62.429 79.8099 61.7306 79.8276C61.0322 79.8453 60.3394 79.7048 59.7038 79.4164C59.0682 79.1281 58.5061 78.6995 58.0595 78.1624C57.6128 77.6253 57.2931 76.9936 57.1241 76.3144C55.8888 72.3099 56.2445 67.976 58.117 64.2168C59.7462 60.6354 62.0832 57.4209 64.986 54.7686C60.3773 45.0986 50.1194 42.6607 40.6317 46.1089C42.1612 49.2282 42.8411 52.7003 42.6027 56.1741C42.5394 59.0178 41.7336 61.7978 40.2656 64.2367C38.7977 66.6755 36.7189 68.6877 34.237 70.0726C29.4662 72.7039 25.3606 70.6331 24.4364 65.2712C24.126 62.9775 24.2726 60.6431 24.8676 58.4033C25.4626 56.1634 26.4943 54.0626 27.903 52.2225C30.0184 49.1137 32.8099 46.5261 36.0659 44.6557C34.5388 42.4387 32.4833 40.6404 30.0853 39.4237C25.5042 37.0498 20.2182 36.4121 15.1938 37.6271C14.3591 37.6903 13.5569 37.9827 12.8753 38.4723C12.1937 38.9619 11.659 39.6297 11.3298 40.4026C11.1798 40.6092 10.978 40.7725 10.7451 40.8759C10.5122 40.9792 10.2563 41.019 10.0036 40.9911C9.57673 40.7882 8.9017 40.1567 8.97233 39.8079C9.08632 38.8159 9.47586 37.8749 10.0965 37.0923C11.7305 35.4723 13.885 34.4881 16.1726 34.3167C25.0359 33.0331 32.7467 35.0251 38.4411 42.5108C39.0614 43.3074 39.6052 43.0641 40.3143 42.9232C43.4937 41.7805 46.8746 41.3204 50.2377 41.5726C53.6007 41.8248 56.8708 42.7837 59.8355 44.387C62.3996 45.9437 64.5911 48.0456 66.256 50.5451L67.6866 52.5394C73.9392 47.9183 81.2924 45.0324 89.0014 44.174C96.6257 43.5572 104.292 44.418 111.581 46.7091L111.594 46.3809ZM37.5053 47.1321C35.8288 48.5576 34.1387 49.7617 32.7228 51.2394C30.9986 52.8254 29.6257 54.7568 28.6935 56.9078C27.7614 59.0587 27.2909 61.3809 27.3129 63.7229C27.5669 68.1928 29.9348 69.366 33.6321 66.9414C39.4487 63.1105 41.4769 53.4883 37.5053 47.1321ZM66.6683 57.3843C63.831 59.9657 61.6642 63.2019 60.3567 66.8107C59.3695 69.3745 59.2083 72.1815 59.896 74.836C60.458 76.6563 61.5158 77.183 63.1124 76.1257C64.484 75.2941 65.6585 74.1721 66.5537 72.8386C69.5318 67.8737 68.5547 62.7734 66.6683 57.3843Z" fill="#FED849"/>
    </g>
    <defs>
        <clipPath id="clip0_1257_1136">
            <rect width="100.255" height="63.7987" fill="white" transform="translate(27.583) rotate(25.4208)"/>
        </clipPath>
    </defs>
</svg>
