<svg width="76" height="78" viewBox="0 0 76 78" fill="none" xmlns="http://www.w3.org/2000/svg">
    <g clip-path="url(#clip0_807_992)">
        <path d="M66.8153 72.6373L66.6818 73.0327L66.3962 72.7284C65.5996 71.8797 64.8047 71.0401 64.0136 70.2046C62.6052 68.717 61.2093 67.2426 59.8387 65.7537L59.8378 65.7526C59.4174 65.2906 59.0555 65.0383 58.7409 64.9573C58.4482 64.8818 58.1619 64.946 57.8492 65.2128C57.5402 65.4766 57.4179 65.7792 57.4431 66.1051C57.4692 66.4438 57.6577 66.8437 58.0481 67.2751C58.6413 67.9186 59.2347 68.561 59.8281 69.2034C61.6092 71.1317 63.3911 73.0609 65.1728 75.0224C65.2147 75.0679 65.2644 75.115 65.3226 75.1697L65.3308 75.1774C65.3847 75.228 65.4454 75.285 65.5013 75.344C65.6099 75.4587 65.7475 75.6273 65.7672 75.8424C65.8216 76.253 65.9492 76.5412 66.1155 76.7522C66.283 76.9648 66.5021 77.1146 66.7623 77.2288C67.0251 77.344 67.3223 77.4198 67.6411 77.4881C67.7291 77.5069 67.8198 77.5254 67.9117 77.5441C68.1394 77.5905 68.3745 77.6384 68.5951 77.6975C69.0675 77.7774 69.5533 77.7172 69.9909 77.5246C70.4319 77.3305 70.8034 77.0109 71.0582 76.6075L71.07 76.5889L71.0849 76.5726C72.4946 75.0269 73.846 73.4421 75.2005 71.8536C75.4792 71.5216 75.684 71.1902 75.7253 70.889C75.745 70.7455 75.7274 70.6101 75.6619 70.4787C75.5952 70.3452 75.471 70.2 75.2522 70.0532C74.8083 69.7553 74.4925 69.7363 74.237 69.8251C73.9577 69.9222 73.6957 70.1648 73.4038 70.5105L73.403 70.5114L69.7522 74.792L69.7406 74.8056L69.7273 74.8173C69.5392 74.9832 69.3415 75.1379 69.135 75.2808L68.6366 75.6259L68.7469 75.0298C68.8943 74.2331 69.0437 73.4714 69.189 72.7302C69.452 71.3888 69.7019 70.1143 69.9038 68.8193L69.9037 68.8192L69.9051 68.8116C72.1872 56.6667 69.7544 44.1189 63.0898 33.6626L63.0897 33.6626L63.0876 33.6591C59.6568 28.0743 54.2237 23.9652 47.8653 22.1477C47.4087 22.0263 47.132 21.8065 46.9531 21.5143C46.8154 21.2893 46.7403 21.023 46.6719 20.7803C46.6587 20.7334 46.6457 20.6874 46.6326 20.6427C43.5137 10.6223 37.233 3.68531 26.7515 1.07552L26.7514 1.07549C18.2991 -1.03369 10.5208 1.06907 3.40122 5.64809C2.36202 6.42996 1.46172 7.37665 0.737099 8.4494L0.730873 8.45861L0.723862 8.46723C0.455696 8.79688 0.323097 9.21326 0.351517 9.634C0.379654 10.0505 0.563614 10.4422 0.86837 10.7332C1.0582 10.8754 1.27626 10.9771 1.50865 11.0315C1.7453 11.087 1.99123 11.0922 2.23009 11.0467L2.23753 11.0453C2.24191 11.0402 2.24759 11.0329 2.25456 11.0228C2.29117 10.9698 2.3316 10.8839 2.37691 10.765C2.40971 10.679 2.44077 10.5877 2.4734 10.4918C2.48524 10.4569 2.4973 10.4215 2.50972 10.3855C2.55161 10.2641 2.59764 10.1362 2.64935 10.025C2.80302 9.44281 3.05954 8.89207 3.40707 8.39805L3.42551 8.37184L3.44996 8.35113C6.06846 6.1332 9.19198 4.57424 12.5534 3.8072C15.7713 2.73471 19.1797 2.33238 22.5631 2.62561C25.9507 2.9192 29.2398 3.90364 32.2221 5.51676C35.2044 7.12988 37.8151 9.3366 39.8887 11.9974C41.9624 14.6581 43.4538 17.715 44.2683 20.9745L44.3532 21.3142L44.0044 21.2841C42.1012 21.1205 40.1872 21.1202 38.284 21.2835C35.6684 21.6685 33.1184 22.4042 30.7046 23.4703C27.9413 24.7925 26.5002 26.9986 26.3499 29.2978C26.1994 31.5997 27.3396 34.0433 29.8398 35.8408C31.1871 36.7411 32.7203 37.3353 34.3289 37.5804C35.9388 37.8257 37.5839 37.715 39.1452 37.2564C40.7064 36.7978 42.1447 36.0028 43.3563 34.9291C44.5655 33.8574 45.5187 32.5347 46.1475 31.0564C46.8439 29.0179 47.3778 26.9288 47.7443 24.8082L47.7924 24.5301L48.0627 24.6114C51.4122 25.6192 54.4604 27.4225 56.9398 29.8636L56.9411 29.8649C61.607 34.5272 64.9233 40.3374 66.5451 46.6924C68.862 54.8568 69.0518 63.4664 67.0969 71.7226C67.0309 72.0153 66.9503 72.2472 66.8722 72.4721C66.853 72.5273 66.834 72.5821 66.8153 72.6373ZM2.22677 11.0562C2.2268 11.0563 2.22753 11.0558 2.22901 11.0544C2.22748 11.0555 2.22674 11.0562 2.22677 11.0562ZM40.9267 23.3999L40.934 23.4L40.9413 23.4005L43.8185 23.5936C44.1919 23.595 44.5272 23.685 44.756 23.9176C44.9901 24.1555 45.0634 24.491 45.0209 24.8714C44.939 26.4497 44.6931 28.0155 44.287 29.5442L44.2847 29.553L44.2818 29.5615C43.8768 30.7373 43.2203 31.8131 42.3571 32.7161C41.4939 33.619 40.4441 34.328 39.2792 34.795C38.1143 35.262 36.8614 35.4762 35.6054 35.4231C34.3508 35.3702 33.1224 35.0518 32.0031 34.4896C30.9887 34.0221 30.1319 33.2757 29.5356 32.3393C28.9389 31.4021 28.6286 30.3145 28.6425 29.2072C28.643 28.0956 29.0792 27.2874 29.7279 26.6654C30.3668 26.0528 31.2109 25.6217 32.026 25.2438L32.026 25.2438L32.0299 25.2421C34.8264 24.0024 37.8613 23.3741 40.9267 23.3999Z" fill="#FED849" stroke="#FED849" stroke-width="0.5"/>
    </g>
    <defs>
        <clipPath id="clip0_807_992">
            <rect width="76" height="78" fill="white" transform="matrix(-1 0 0 1 76 0)"/>
        </clipPath>
    </defs>
</svg>
