<svg width="18" height="18" viewBox="0 0 18 18" fill="none" xmlns="http://www.w3.org/2000/svg">
    <path d="M1.49823 4.87323C1.59683 4.77449 1.71392 4.69614 1.84281 4.64266C1.97189 4.58909 2.11028 4.56152 2.25003 4.56152C2.38978 4.56152 2.52816 4.58909 2.65725 4.64266C2.78624 4.69618 2.90341 4.77461 3.00206 4.87345L3.00186 4.87326L2.64828 5.22678L3.00228 4.87367L9.00003 10.8725L14.9982 4.87326L14.9982 4.87323C15.097 4.7745 15.2142 4.69618 15.3432 4.64275C15.4721 4.58932 15.6104 4.56182 15.75 4.56182C15.8897 4.56182 16.0279 4.58932 16.1569 4.64275C16.2859 4.69618 16.4031 4.7745 16.5018 4.87323C16.6006 4.97195 16.6789 5.08916 16.7323 5.21816C16.7857 5.34715 16.8132 5.48541 16.8132 5.62503C16.8132 5.76465 16.7857 5.90291 16.7323 6.0319C16.6789 6.1609 16.6006 6.2781 16.5018 6.37683L9.75228 13.1264C9.65358 13.2253 9.53633 13.3038 9.40725 13.3574C9.27817 13.411 9.13978 13.4385 9.00003 13.4385C8.86027 13.4385 8.72189 13.411 8.59281 13.3574C8.46392 13.3039 8.34683 13.2256 8.24822 13.1268L1.49823 4.87323ZM1.49823 4.87323C1.39949 4.97183 1.32114 5.08892 1.26766 5.21781C1.2141 5.34689 1.18652 5.48527 1.18652 5.62503C1.18652 5.76478 1.2141 5.90317 1.26766 6.03225C1.32117 6.16121 1.39957 6.27835 1.49838 6.37699C1.49848 6.37708 1.49858 6.37718 1.49867 6.37728L8.24778 13.1264L1.49823 4.87323Z" fill="#282A3A" stroke="#282A3A"/>
</svg>
