<svg width="24" height="24" viewBox="0 0 24 24" fill="none" xmlns="http://www.w3.org/2000/svg">
    <path fill-rule="evenodd" clip-rule="evenodd" d="M22.5001 12C22.5001 11.8011 22.4211 11.6103 22.2805 11.4696C22.1398 11.329 21.949 11.25 21.7501 11.25H4.06062L8.78112 6.53097C8.85085 6.46124 8.90617 6.37846 8.9439 6.28735C8.98164 6.19624 9.00107 6.09859 9.00107 5.99997C9.00107 5.90135 8.98164 5.8037 8.9439 5.7126C8.90617 5.62149 8.85085 5.5387 8.78112 5.46897C8.71139 5.39924 8.6286 5.34392 8.5375 5.30619C8.44639 5.26845 8.34874 5.24902 8.25012 5.24902C8.1515 5.24902 8.05385 5.26845 7.96274 5.30619C7.87163 5.34392 7.78885 5.39924 7.71912 5.46897L1.71912 11.469C1.64928 11.5386 1.59386 11.6214 1.55605 11.7125C1.51824 11.8036 1.49878 11.9013 1.49878 12C1.49878 12.0986 1.51824 12.1963 1.55605 12.2874C1.59386 12.3785 1.64928 12.4613 1.71912 12.531L7.71912 18.531C7.78885 18.6007 7.87163 18.656 7.96274 18.6938C8.05385 18.7315 8.1515 18.7509 8.25012 18.7509C8.34874 18.7509 8.44639 18.7315 8.5375 18.6938C8.6286 18.656 8.71139 18.6007 8.78112 18.531C8.85085 18.4612 8.90617 18.3785 8.9439 18.2873C8.98164 18.1962 9.00107 18.0986 9.00107 18C9.00107 17.9014 8.98164 17.8037 8.9439 17.7126C8.90617 17.6215 8.85085 17.5387 8.78112 17.469L4.06062 12.75H21.7501C21.949 12.75 22.1398 12.671 22.2805 12.5303C22.4211 12.3896 22.5001 12.1989 22.5001 12Z" fill="#EBEBE4"/>
</svg>
