<svg width="58" height="85" viewBox="0 0 58 85" fill="none" xmlns="http://www.w3.org/2000/svg">
    <path d="M43.7524 27.5394L43.7522 27.5394C43.8915 29.7843 43.6575 32.0366 43.0595 34.2059C42.6858 35.6077 42.0213 36.9163 41.1087 38.0479C40.1958 39.1798 39.0549 40.1095 37.7592 40.7775C36.4635 41.4455 35.0415 41.8371 33.5846 41.9272C32.1304 42.0171 30.6733 41.8047 29.3065 41.3035C27.9421 40.8993 26.675 40.2224 25.5832 39.3143C24.4893 38.4045 23.5944 37.2818 22.9538 36.0154C22.3131 34.7489 21.9402 33.3655 21.8581 31.9503C21.7761 30.5367 21.9861 29.1213 22.4752 27.7913C24.4136 21.9125 29.0088 18.7707 34.5211 16.8247L34.5299 16.8215L34.53 16.8217C34.9698 16.6848 35.4164 16.5701 35.8679 16.4781L36.8569 16.1671C35.204 12.9771 32.8121 10.2202 29.8763 8.12435C26.8679 5.97661 23.3787 4.58756 19.7096 4.07685C19.5693 4.08756 19.4285 4.08677 19.2883 4.07449L19.2754 4.07335L19.2626 4.07088C18.8156 3.98426 18.3525 3.84773 18.011 3.57084C17.6508 3.27873 17.4505 2.85081 17.4995 2.25416C17.5491 1.65144 17.8369 1.25795 18.2503 1.02839C18.6454 0.80901 19.1351 0.75 19.5883 0.75H19.5984L19.6085 0.750821C20.8048 0.84799 21.9911 1.04193 23.1556 1.33072C26.8119 2.2094 30.2303 3.87257 33.1706 6.20351C36.1111 8.53463 38.5021 11.4771 40.1755 14.8242L40.181 14.8352L40.1807 14.8354C40.3314 15.178 40.5749 15.4727 40.8844 15.6865C41.1939 15.9003 41.5571 16.0248 41.9339 16.046L41.946 16.0467L41.9579 16.0485C44.0184 16.3665 45.9793 17.1451 47.6927 18.3258C49.4046 19.5054 50.8247 21.0556 51.8459 22.8596C60.0912 36.0559 59.4709 53.7607 46.0213 65.6625L46.021 65.6628C39.1318 71.7369 30.4035 75.3609 21.2119 75.9641C17.5786 76.2935 13.9316 76.4611 10.288 76.6285C8.9924 76.688 7.69724 76.7475 6.40328 76.8143L6.3904 76.815V76.8146H5.14052C5.43092 77.131 5.71091 77.4353 5.98285 77.7308C6.75229 78.5668 7.45742 79.333 8.15223 80.1074C8.70069 80.623 9.14525 81.2377 9.46201 81.9189L9.47263 81.9417L9.47848 81.9662C9.56053 82.3098 9.56445 82.6672 9.48996 83.0125C9.41547 83.3577 9.26446 83.682 9.04804 83.9618L9.01663 84.0024L8.97175 84.0273C8.66003 84.2006 8.3089 84.2915 7.9519 84.2915C7.59489 84.2915 7.24377 84.2006 6.93205 84.0273L6.89597 84.0073L6.86825 83.9767C4.94141 81.8504 3.07735 79.7225 1.34105 77.5936L1.33526 77.5865L1.33 77.579C0.925902 77.0019 0.72693 76.3072 0.764815 75.6049C0.802496 74.9063 1.07233 74.2402 1.53157 73.7107C2.81294 71.9504 4.12167 70.1821 5.56065 68.5396L5.58007 68.5175L5.6041 68.5004C5.89693 68.2928 6.23569 68.1584 6.59168 68.1085C6.94767 68.0586 7.31054 68.0946 7.64961 68.2135L7.66154 68.2177L7.67299 68.2231C7.88704 68.3234 8.07534 68.4711 8.22342 68.6549C8.37152 68.8388 8.47546 69.0539 8.52721 69.2839C8.57896 69.514 8.57711 69.7527 8.5218 69.9819C8.46769 70.2062 8.36382 70.4155 8.21799 70.5944C7.88872 71.0999 7.53419 71.5892 7.17857 72.0801L7.16504 72.0987C6.88966 72.4788 6.61351 72.8603 6.34425 73.2555H6.34954H6.36049H6.37143H6.38238H6.39332H6.40426H6.4152H6.42613H6.43707H6.448H6.45894H6.46987H6.48079H6.49172H6.50265H6.51357H6.52449H6.53541H6.54633H6.55724H6.56816H6.57907H6.58998H6.60089H6.6118H6.6227H6.63361H6.64451H6.65541H6.66631H6.67721H6.68811H6.699H6.70989H6.72078H6.73167H6.74256H6.75344H6.76433H6.77521H6.78609H6.79697H6.80785H6.81873H6.8296H6.84047H6.85134H6.86221H6.87308H6.88395H6.89481H6.90567H6.91654H6.9274H6.93825H6.94911H6.95997H6.97082H6.98167H6.99252H7.00337H7.01422H7.02506H7.03591H7.04675H7.05759H7.06843H7.07927H7.0901H7.10094H7.11177H7.1226H7.13343H7.14426H7.15509H7.16592H7.17674H7.18756H7.19838H7.2092H7.22002H7.23084H7.24165H7.25247H7.26328H7.27409H7.2849H7.29571H7.30651H7.31732H7.32812H7.33893H7.34973H7.36053H7.37132H7.38212H7.39291H7.40371H7.4145H7.42529H7.43608H7.44687H7.45765H7.46844H7.47922H7.49H7.50078H7.51156H7.52234H7.53312H7.54389H7.55467H7.56544H7.57621H7.58698H7.59775H7.60852H7.61928H7.63005H7.64081H7.65157H7.66233H7.67309H7.68385H7.6946H7.70536H7.71611H7.72687H7.73762H7.74837H7.75912H7.76986H7.78061H7.79135H7.8021H7.81284H7.82358H7.83432H7.84506H7.85579H7.86653H7.87726H7.888H7.89873H7.90946H7.92019H7.93092H7.94164H7.95237H7.9631H7.97382H7.98454H7.99526H8.00598H8.0167H8.02742H8.03813H8.04885H8.05956H8.07027H8.08099H8.09169H8.1024H8.11311H8.12382H8.13452H8.14523H8.15593H8.16663H8.17733H8.18803H8.19873H8.20943H8.22013H8.23082H8.24151H8.25221H8.2629H8.27359H8.28428H8.29497H8.30565H8.31634H8.32703H8.33771H8.34839H8.35907H8.36975H8.38043H8.39111H8.40179H8.41247H8.42314H8.43382H8.44449H8.45516H8.46583H8.4765H8.48717H8.49784H8.50851H8.51917H8.52984H8.5405H8.55116H8.56183H8.57249H8.58315H8.59381H8.60446H8.61512H8.62578H8.63643H8.64709H8.65774H8.66839H8.67904H8.68969H8.70034H8.71099H8.72164H8.73228H8.74293H8.75357H8.76421H8.77486H8.7855H8.79614H8.80678H8.81742H8.82806H8.83869H8.84933H8.85996H8.8706H8.88123H8.89186H8.90249H8.91313H8.92375H8.93438H8.94501H8.95564H8.96626H8.97689H8.98751H8.99814H9.00876H9.01938H9.03H9.04062H9.05124H9.06186H9.07248H9.0831H9.09371H9.10433H9.11494H9.12556H9.13617H9.14678H9.15739H9.168H9.17861H9.18922H9.19983H9.21044H9.22104H9.23165H9.24225H9.25286H9.26346H9.27406H9.28467H9.29527H9.30587H9.31647H9.32707H9.33766H9.34826H9.35886H9.36945H9.38005H9.39064H9.40124H9.41183H9.42242H9.43301H9.44361H9.4542H9.46479H9.47538H9.48596H9.49655H9.50714H9.51772H9.52831H9.5389H9.54948H9.56006H9.57065H9.58123H9.59181H9.60239H9.61297H9.62355H9.63413H9.64471H9.65529H9.66586H9.67644H9.68702H9.69759H9.70817H9.71874H9.72932H9.73989H9.75046H9.76103H9.77161H9.78218H9.79275H9.80332H9.81388H9.82445H9.83502H9.84559H9.85616H9.86672H9.87729H9.88785H9.89842H9.90898H9.91955H9.93011H9.94067H9.95123H9.9618H9.97236H9.98292H9.99348H10.004H10.0146H10.0252H10.0357H10.0463H10.0568H10.0674H10.0779H10.0885H10.0991H10.1096H10.1202H10.1307H10.1413H10.1518H10.1624H10.1729H10.1835H10.194H10.2046H10.2151H10.2257H10.2362H10.2468H10.2573H10.2679H10.2784H10.289H10.2995H10.3101H10.3206H10.3312H10.3417H10.3523H10.3628H10.3733H10.3839H10.3944H10.405H10.4155H10.4261H10.4366H10.4471H10.4577H10.4682H10.4788H10.4893H10.4999H10.5104H10.5209H10.5315H10.542H10.5526H10.5631H10.5736H10.5842H10.5947H10.6052H10.6158H10.6263H10.6369H10.6474H10.6579H10.6685H10.679H10.6895H10.7001H10.7106H10.7211H10.7317H10.7422H10.7527H10.7633H10.7738H10.7844H10.7949H10.8054H10.816H10.8265H10.837H10.8475H10.8581H10.8686H10.8791H10.8897H10.9002H10.9107H10.9213H10.9318H10.9423H10.9529H10.9634H10.9739H10.9845H10.995H11.0055H11.016H11.0266H11.0371H11.0476H11.0582H11.0687H11.0792H11.0898H11.1003H11.1108H11.1213H11.1319H11.1424H11.1529H11.1635H11.174H11.1845H11.195H11.2056H11.2161H11.2266H11.2372H11.2477H11.2582H11.2687H11.2793H11.2898H11.3003H11.3109H11.3214H11.3319H11.3424L11.3519 73.2555L11.353 73.2555M43.7524 27.5394L29.492 71.1049C23.5741 72.6734 17.4779 73.4801 11.353 73.5055V73.2555M43.7524 27.5394L43.7515 27.5301C43.4932 24.9437 43.0909 22.3736 42.5463 19.8316C43.666 20.1024 44.7275 20.5738 45.6784 21.2237C46.7352 21.9459 47.6333 22.8735 48.3185 23.9502L48.3182 23.9504L48.326 23.9613C50.888 27.5483 52.6003 31.664 53.3348 36.0006C54.0693 40.3373 53.807 44.7827 52.5676 49.0046C49.1531 60.6103 40.8037 67.4411 29.424 70.8643M43.7524 27.5394L29.424 70.8643M11.353 73.2555C17.4549 73.2301 23.5283 72.4265 29.424 70.8643M11.353 73.2555L29.424 70.8643M35.2921 20.3603L35.2921 20.3605L35.3021 20.3572C36.3324 20.0214 37.3779 19.7337 38.4352 19.4951C40.1904 23.6219 40.7286 28.1608 39.9849 32.5821C39.3484 35.2138 37.6432 37.1626 35.4504 37.977C33.262 38.7898 30.5513 38.4858 27.8747 36.5382C26.7916 35.5521 26.0376 34.2612 25.7135 32.8382C25.3884 31.4109 25.5113 29.9189 26.0657 28.563L26.0657 28.5629C26.8723 26.5881 28.1228 24.8223 29.7219 23.4006C31.3209 21.9789 33.2262 20.9389 35.2921 20.3603Z" fill="#FED849" stroke="#FED849" stroke-width="0.5"/>
</svg>
