<svg width="184" height="63" viewBox="0 0 184 63" fill="none" xmlns="http://www.w3.org/2000/svg">
    <path d="M9.41548 0H175.79C180.215 0 183.804 2.39695 183.804 5.45514V47.6085C183.804 50.6667 180.215 52.733 175.79 52.733H67.3057C67.3057 52.733 67.1861 53.4769 66.9468 53.8075L60.1292 61.7422C59.0527 62.8994 56.541 62.8994 55.5841 61.6596L49.4841 53.2289C49.3645 53.1463 49.3645 52.733 49.3645 52.733H9.41548C4.98999 52.733 0.803711 50.7493 0.803711 47.6085V5.45514C0.803711 2.39695 4.87038 0 9.41548 0Z" fill="#FED849"/>
    <path d="M27.3977 26.664C27.3977 25.416 27.6677 24.306 28.2077 23.334C28.7477 22.35 29.4977 21.588 30.4577 21.048C31.4297 20.496 32.5277 20.22 33.7517 20.22C35.2517 20.22 36.5357 20.616 37.6037 21.408C38.6717 22.2 39.3857 23.28 39.7457 24.648H36.3617C36.1097 24.12 35.7497 23.718 35.2817 23.442C34.8257 23.166 34.3037 23.028 33.7157 23.028C32.7677 23.028 31.9997 23.358 31.4117 24.018C30.8237 24.678 30.5297 25.56 30.5297 26.664C30.5297 27.768 30.8237 28.65 31.4117 29.31C31.9997 29.97 32.7677 30.3 33.7157 30.3C34.3037 30.3 34.8257 30.162 35.2817 29.886C35.7497 29.61 36.1097 29.208 36.3617 28.68H39.7457C39.3857 30.048 38.6717 31.128 37.6037 31.92C36.5357 32.7 35.2517 33.09 33.7517 33.09C32.5277 33.09 31.4297 32.82 30.4577 32.28C29.4977 31.728 28.7477 30.966 28.2077 29.994C27.6677 29.022 27.3977 27.912 27.3977 26.664ZM46.2026 33.144C45.2186 33.144 44.3306 32.934 43.5386 32.514C42.7586 32.094 42.1406 31.494 41.6846 30.714C41.2406 29.934 41.0186 29.022 41.0186 27.978C41.0186 26.946 41.2466 26.04 41.7026 25.26C42.1586 24.468 42.7826 23.862 43.5746 23.442C44.3666 23.022 45.2546 22.812 46.2386 22.812C47.2226 22.812 48.1106 23.022 48.9026 23.442C49.6946 23.862 50.3186 24.468 50.7746 25.26C51.2306 26.04 51.4586 26.946 51.4586 27.978C51.4586 29.01 51.2246 29.922 50.7566 30.714C50.3006 31.494 49.6706 32.094 48.8666 32.514C48.0746 32.934 47.1866 33.144 46.2026 33.144ZM46.2026 30.48C46.7906 30.48 47.2886 30.264 47.6966 29.832C48.1166 29.4 48.3266 28.782 48.3266 27.978C48.3266 27.174 48.1226 26.556 47.7146 26.124C47.3186 25.692 46.8266 25.476 46.2386 25.476C45.6386 25.476 45.1406 25.692 44.7446 26.124C44.3486 26.544 44.1506 27.162 44.1506 27.978C44.1506 28.782 44.3426 29.4 44.7266 29.832C45.1226 30.264 45.6146 30.48 46.2026 30.48ZM59.2116 22.848C60.3876 22.848 61.3236 23.232 62.0196 24C62.7276 24.756 63.0816 25.8 63.0816 27.132V33H60.0216V27.546C60.0216 26.874 59.8476 26.352 59.4996 25.98C59.1516 25.608 58.6836 25.422 58.0956 25.422C57.5076 25.422 57.0396 25.608 56.6916 25.98C56.3436 26.352 56.1696 26.874 56.1696 27.546V33H53.0916V22.956H56.1696V24.288C56.4816 23.844 56.9016 23.496 57.4296 23.244C57.9576 22.98 58.5516 22.848 59.2116 22.848ZM69.3065 33.144C68.4305 33.144 67.6505 32.994 66.9665 32.694C66.2825 32.394 65.7425 31.986 65.3465 31.47C64.9505 30.942 64.7285 30.354 64.6805 29.706H67.7225C67.7585 30.054 67.9205 30.336 68.2085 30.552C68.4965 30.768 68.8505 30.876 69.2705 30.876C69.6545 30.876 69.9485 30.804 70.1525 30.66C70.3685 30.504 70.4765 30.306 70.4765 30.066C70.4765 29.778 70.3265 29.568 70.0265 29.436C69.7265 29.292 69.2405 29.136 68.5685 28.968C67.8485 28.8 67.2485 28.626 66.7685 28.446C66.2885 28.254 65.8745 27.96 65.5265 27.564C65.1785 27.156 65.0045 26.61 65.0045 25.926C65.0045 25.35 65.1605 24.828 65.4725 24.36C65.7965 23.88 66.2645 23.502 66.8765 23.226C67.5005 22.95 68.2385 22.812 69.0905 22.812C70.3505 22.812 71.3405 23.124 72.0605 23.748C72.7925 24.372 73.2125 25.2 73.3205 26.232H70.4765C70.4285 25.884 70.2725 25.608 70.0085 25.404C69.7565 25.2 69.4205 25.098 69.0005 25.098C68.6405 25.098 68.3645 25.17 68.1725 25.314C67.9805 25.446 67.8845 25.632 67.8845 25.872C67.8845 26.16 68.0345 26.376 68.3345 26.52C68.6465 26.664 69.1265 26.808 69.7745 26.952C70.5185 27.144 71.1245 27.336 71.5925 27.528C72.0605 27.708 72.4685 28.008 72.8165 28.428C73.1765 28.836 73.3625 29.388 73.3745 30.084C73.3745 30.672 73.2065 31.2 72.8705 31.668C72.5465 32.124 72.0725 32.484 71.4485 32.748C70.8365 33.012 70.1225 33.144 69.3065 33.144ZM85.1756 22.956V33H82.0976V31.632C81.7856 32.076 81.3596 32.436 80.8196 32.712C80.2916 32.976 79.7036 33.108 79.0556 33.108C78.2876 33.108 77.6096 32.94 77.0216 32.604C76.4336 32.256 75.9776 31.758 75.6536 31.11C75.3296 30.462 75.1676 29.7 75.1676 28.824V22.956H78.2276V28.41C78.2276 29.082 78.4016 29.604 78.7496 29.976C79.0976 30.348 79.5656 30.534 80.1536 30.534C80.7536 30.534 81.2276 30.348 81.5756 29.976C81.9236 29.604 82.0976 29.082 82.0976 28.41V22.956H85.1756ZM90.4645 19.68V33H87.3865V19.68H90.4645ZM98.2931 30.39V33H96.7271C95.6111 33 94.7411 32.73 94.1171 32.19C93.4931 31.638 93.1811 30.744 93.1811 29.508V25.512H91.9571V22.956H93.1811V20.508H96.2591V22.956H98.2751V25.512H96.2591V29.544C96.2591 29.844 96.3311 30.06 96.4751 30.192C96.6191 30.324 96.8591 30.39 97.1951 30.39H98.2931ZM99.3956 27.96C99.3956 26.928 99.5876 26.022 99.9716 25.242C100.368 24.462 100.902 23.862 101.574 23.442C102.246 23.022 102.996 22.812 103.824 22.812C104.532 22.812 105.15 22.956 105.678 23.244C106.218 23.532 106.632 23.91 106.92 24.378V22.956H109.998V33H106.92V31.578C106.62 32.046 106.2 32.424 105.66 32.712C105.132 33 104.514 33.144 103.806 33.144C102.99 33.144 102.246 32.934 101.574 32.514C100.902 32.082 100.368 31.476 99.9716 30.696C99.5876 29.904 99.3956 28.992 99.3956 27.96ZM106.92 27.978C106.92 27.21 106.704 26.604 106.272 26.16C105.852 25.716 105.336 25.494 104.724 25.494C104.112 25.494 103.59 25.716 103.158 26.16C102.738 26.592 102.528 27.192 102.528 27.96C102.528 28.728 102.738 29.34 103.158 29.796C103.59 30.24 104.112 30.462 104.724 30.462C105.336 30.462 105.852 30.24 106.272 29.796C106.704 29.352 106.92 28.746 106.92 27.978ZM125.04 22.848C126.288 22.848 127.278 23.226 128.01 23.982C128.754 24.738 129.126 25.788 129.126 27.132V33H126.066V27.546C126.066 26.898 125.892 26.4 125.544 26.052C125.208 25.692 124.74 25.512 124.14 25.512C123.54 25.512 123.066 25.692 122.718 26.052C122.382 26.4 122.214 26.898 122.214 27.546V33H119.154V27.546C119.154 26.898 118.98 26.4 118.632 26.052C118.296 25.692 117.828 25.512 117.228 25.512C116.628 25.512 116.154 25.692 115.806 26.052C115.47 26.4 115.302 26.898 115.302 27.546V33H112.224V22.956H115.302V24.216C115.614 23.796 116.022 23.466 116.526 23.226C117.03 22.974 117.6 22.848 118.236 22.848C118.992 22.848 119.664 23.01 120.252 23.334C120.852 23.658 121.32 24.12 121.656 24.72C122.004 24.168 122.478 23.718 123.078 23.37C123.678 23.022 124.332 22.848 125.04 22.848ZM135.851 33.144C134.867 33.144 133.979 32.934 133.187 32.514C132.407 32.094 131.789 31.494 131.333 30.714C130.889 29.934 130.667 29.022 130.667 27.978C130.667 26.946 130.895 26.04 131.351 25.26C131.807 24.468 132.431 23.862 133.223 23.442C134.015 23.022 134.903 22.812 135.887 22.812C136.871 22.812 137.759 23.022 138.551 23.442C139.343 23.862 139.967 24.468 140.423 25.26C140.879 26.04 141.107 26.946 141.107 27.978C141.107 29.01 140.873 29.922 140.405 30.714C139.949 31.494 139.319 32.094 138.515 32.514C137.723 32.934 136.835 33.144 135.851 33.144ZM135.851 30.48C136.439 30.48 136.937 30.264 137.345 29.832C137.765 29.4 137.975 28.782 137.975 27.978C137.975 27.174 137.771 26.556 137.363 26.124C136.967 25.692 136.475 25.476 135.887 25.476C135.287 25.476 134.789 25.692 134.393 26.124C133.997 26.544 133.799 27.162 133.799 27.978C133.799 28.782 133.991 29.4 134.375 29.832C134.771 30.264 135.263 30.48 135.851 30.48ZM146.826 33.144C145.95 33.144 145.17 32.994 144.486 32.694C143.802 32.394 143.262 31.986 142.866 31.47C142.47 30.942 142.248 30.354 142.2 29.706H145.242C145.278 30.054 145.44 30.336 145.728 30.552C146.016 30.768 146.37 30.876 146.79 30.876C147.174 30.876 147.468 30.804 147.672 30.66C147.888 30.504 147.996 30.306 147.996 30.066C147.996 29.778 147.846 29.568 147.546 29.436C147.246 29.292 146.76 29.136 146.088 28.968C145.368 28.8 144.768 28.626 144.288 28.446C143.808 28.254 143.394 27.96 143.046 27.564C142.698 27.156 142.524 26.61 142.524 25.926C142.524 25.35 142.68 24.828 142.992 24.36C143.316 23.88 143.784 23.502 144.396 23.226C145.02 22.95 145.758 22.812 146.61 22.812C147.87 22.812 148.86 23.124 149.58 23.748C150.312 24.372 150.732 25.2 150.84 26.232H147.996C147.948 25.884 147.792 25.608 147.528 25.404C147.276 25.2 146.94 25.098 146.52 25.098C146.16 25.098 145.884 25.17 145.692 25.314C145.5 25.446 145.404 25.632 145.404 25.872C145.404 26.16 145.554 26.376 145.854 26.52C146.166 26.664 146.646 26.808 147.294 26.952C148.038 27.144 148.644 27.336 149.112 27.528C149.58 27.708 149.988 28.008 150.336 28.428C150.696 28.836 150.882 29.388 150.894 30.084C150.894 30.672 150.726 31.2 150.39 31.668C150.066 32.124 149.592 32.484 148.968 32.748C148.356 33.012 147.642 33.144 146.826 33.144ZM156.827 19.914L156.467 28.536H153.857L153.497 19.914H156.827ZM155.207 33.144C154.667 33.144 154.223 32.988 153.875 32.676C153.539 32.352 153.371 31.956 153.371 31.488C153.371 31.008 153.539 30.606 153.875 30.282C154.223 29.958 154.667 29.796 155.207 29.796C155.735 29.796 156.167 29.958 156.503 30.282C156.851 30.606 157.025 31.008 157.025 31.488C157.025 31.956 156.851 32.352 156.503 32.676C156.167 32.988 155.735 33.144 155.207 33.144Z" fill="#463677"/>
</svg>
