<svg width="196" height="106" viewBox="0 0 196 106" fill="none" xmlns="http://www.w3.org/2000/svg">
    <g clip-path="url(#clip0_1004_1039)">
        <path d="M15.7117 47.7599C19.3717 47.3304 21.4213 49.233 22.9316 51.9747C24.992 55.7251 25.2039 59.7409 24.4934 63.8629C24.0742 66.1732 23.1085 68.3494 21.6774 70.2083C19.6049 72.9824 17.2184 75.429 14.3066 77.3268C13.9758 77.5677 13.6172 77.7674 13.2385 77.9213C12.1782 78.2791 11.123 77.6647 11.0256 76.553C11.0026 76.0141 10.7895 75.5013 10.4244 75.106C10.2128 74.8091 10.0853 74.4602 10.0555 74.0962C8.89772 66.721 7.7788 59.342 6.59991 51.9711C5.93381 47.8943 5.57885 43.8015 5.95417 39.6711C6.11361 37.4699 6.72257 35.3246 7.74316 33.3688C8.71944 31.5662 10.1423 30.2637 12.1628 29.7086C14.3594 29.1054 16.1318 29.716 17.4207 31.6076C18.8764 33.7439 19.2752 36.154 19.0749 38.6895C18.9077 40.7388 18.0801 42.5836 17.253 44.4258C16.7893 45.4591 16.3003 46.4908 15.7117 47.7599ZM10.3875 53.4878C11.4173 60.348 12.3993 66.8906 13.4138 73.6407C13.8551 73.3402 14.2785 73.0141 14.6818 72.6638C15.7211 71.6344 16.7471 70.5927 17.7416 69.5253C20.5001 66.5784 21.5619 63.0409 21.3319 59.058C21.1873 56.574 20.5421 54.2672 18.9464 52.3181C17.9573 51.1076 16.9344 50.8748 15.5472 51.5814C14.8135 51.9505 14.1416 52.4322 13.5557 53.0091C12.6897 53.8823 11.8001 54.2883 10.3875 53.4878ZM9.9814 51.2788L10.2847 51.264C11.7728 47.9751 13.3035 44.7058 14.7249 41.3881C15.1596 40.3325 15.4521 39.2236 15.5947 38.0908C15.7952 36.6241 15.4986 35.133 14.7526 33.8573C14.2376 32.962 13.7732 32.8226 12.8231 33.1777C12.3893 33.3303 11.9918 33.572 11.6561 33.8873C11.3203 34.2026 11.0537 34.5847 10.8731 35.009C10.3694 36.1321 9.9792 37.3031 9.70856 38.5042C9.18158 41.1198 9.21093 43.7797 9.44095 46.4286C9.5727 48.0503 9.80002 49.6644 9.99134 51.2804L9.9814 51.2788Z" fill="#9188FD"/>
        <path d="M53.0947 38.1515C53.4457 37.1844 53.7144 36.2525 54.1178 35.3861C54.432 34.6755 54.852 34.0168 55.3634 33.4326C56.4914 32.2026 58.0417 32.1242 59.2565 33.2638C59.9332 33.8786 60.4924 34.6124 60.9063 35.4291C61.7376 37.1101 62.4435 38.8508 63.0181 40.637C64.9644 47.0981 66.6452 53.6083 67.7331 60.268C67.8035 60.7637 67.7563 61.2692 67.5954 61.7434C67.3545 62.457 66.7494 62.8068 66.0055 62.8498C65.657 62.8587 65.3146 62.7578 65.0264 62.5612C64.7382 62.3647 64.5187 62.0824 64.3986 61.754C64.2834 61.4094 64.2053 61.0534 64.1658 60.692C63.1312 53.5469 61.228 46.6165 59.0345 39.7618C58.7438 38.8517 58.2704 37.999 57.866 37.1294C57.7495 36.9566 57.6135 36.7979 57.4609 36.6564C56.8914 37.4933 56.7028 38.3716 56.5076 39.2437C55.3784 44.2783 55.4582 49.3429 56.1066 54.4231C56.235 55.422 56.4076 56.4153 56.5621 57.4108C56.6717 58.1327 56.8246 58.7772 57.4067 59.3531C58.2106 60.1494 57.8803 62.4334 56.9925 63.1264C56.8155 63.275 56.6081 63.3827 56.3851 63.4419C56.1621 63.5011 55.929 63.5105 55.7021 63.4692C55.4753 63.428 55.2603 63.3371 55.0724 63.2032C54.8845 63.0692 54.7283 62.8954 54.6148 62.694C54.3402 62.2196 54.1322 61.7094 53.9968 61.1777C52.7139 56.6779 52.0973 52.0124 52.1668 47.3308C52.172 46.671 52.1411 46.0925 51.6736 45.548C51.4037 45.1781 51.2326 44.7448 51.1769 44.2895C50.9613 43.0741 50.7754 41.8482 50.6487 40.6191C50.4662 38.7921 51.1636 38.0784 53.0947 38.1515Z" fill="#9188FD"/>
        <path d="M32.5677 46.4532C33.2834 43.1156 34.1163 40.0607 35.9886 37.4358C36.7128 36.3825 37.5908 35.4445 38.5929 34.6533C40.2922 33.3753 42.1602 33.8375 43.2754 35.6523C44.1821 37.1182 44.3222 38.7514 44.1777 40.4255C43.946 43.107 42.8677 45.4589 41.3448 47.6284C40.1168 49.4029 38.6107 50.9663 36.8851 52.2576C36.1718 52.7869 36.0349 53.3151 36.255 54.1267C36.6163 55.4656 37.0002 56.7749 37.8317 57.9034C38.8137 59.2356 39.4597 59.3713 40.8156 58.4651C41.4569 58.0341 42.0348 57.5059 42.6353 57.012C42.8449 56.8361 43.0208 56.6163 43.2363 56.4516C43.9912 55.8702 44.8623 55.8606 45.4948 56.4089C46.1273 56.9572 46.3509 58.0612 45.728 58.7716C44.2057 60.5137 42.4773 62.0175 40.1197 62.4972C38.5664 62.8133 37.2481 62.2483 36.1062 61.2101C35.0062 60.1668 34.1633 58.8807 33.6439 57.4534C32.674 54.9232 32.2349 52.2187 32.3542 49.5089C32.3997 48.4128 32.5094 47.3143 32.5677 46.4532ZM40.2769 37.6282C37.4264 40.7495 36.3997 44.4003 35.869 48.4516C39.0854 46.4369 41.435 40.7019 40.2769 37.6282Z" fill="#9188FD"/>
        <path d="M160.397 46.3484C160.908 43.5713 161.916 40.9097 163.374 38.4929C164.172 37.1863 165.01 35.9244 166.692 35.6626C168.463 34.1811 170.221 34.9276 171.95 35.6797C173.814 36.4947 174.813 38.0013 175.147 39.9963C175.463 41.8808 175.264 43.7637 174.949 45.5968C174.44 48.5713 173.822 51.5587 172.503 54.2939C171.854 55.6526 171.058 56.9349 170.127 58.1172C169.451 58.9175 168.615 59.5667 167.673 60.0228C165.644 61.0374 163.604 60.5215 162.119 58.8003C161.278 57.7699 160.689 56.5552 160.4 55.254C159.71 52.5993 159.783 49.9178 160.397 46.3484ZM171.604 44.8537C171.636 43.9525 171.722 42.4457 171.73 40.9389C171.734 39.8155 171.171 39.0787 170.088 38.6647C169.387 38.3946 168.822 38.605 168.157 38.7145C166.895 38.9191 166.39 39.7204 165.965 40.6858C165.451 41.8568 164.957 43.044 164.561 44.2598C163.632 47.1174 163.089 50.04 163.54 53.0552C163.676 54.0048 163.94 54.9314 164.324 55.8096C164.961 57.2215 165.929 57.435 166.997 56.3386C167.816 55.4815 168.506 54.5096 169.047 53.4533C170.326 50.9446 170.876 48.1869 171.599 44.8529L171.604 44.8537Z" fill="#9188FD"/>
        <path d="M105.039 27.3504C101.851 31.3873 100.074 36.0478 98.0615 40.6956C99.1165 41.0923 100.053 40.7913 100.982 40.7707C101.386 40.7261 101.795 40.7339 102.197 40.794C102.578 40.8901 102.915 41.1113 103.156 41.4222C103.397 41.7332 103.528 42.1163 103.527 42.5105C103.523 42.9048 103.382 43.2856 103.128 43.5873C102.875 43.8891 102.525 44.0931 102.139 44.1643C101.689 44.2412 101.232 44.2759 100.776 44.2679C99.5516 44.2995 98.3247 44.3178 96.9384 44.3435C96.6682 45.8025 96.2868 47.1769 96.1798 48.5729C95.8756 52.5483 95.6719 56.5325 95.4637 60.5133C95.4836 61.0611 95.5664 61.6047 95.7105 62.1332C95.8993 63.1368 95.2936 64.1496 94.3677 64.3551C93.4419 64.5605 92.5826 64.0113 92.3831 62.9317C92.2584 62.0729 92.1913 61.2066 92.1823 60.3386C92.0001 55.7571 92.2438 51.168 92.9102 46.6308C92.9609 46.174 93.053 45.7228 93.1853 45.2827C93.2895 45.0351 93.3228 44.7634 93.2817 44.498C93.2406 44.2327 93.1266 43.9841 92.9526 43.7803C92.2991 42.906 92.5574 41.9751 93.5735 41.5282C94.1859 41.259 94.3434 40.8391 94.5353 40.3172C96.0045 36.2627 97.818 32.3419 99.9557 28.5983C100.522 27.5505 101.205 26.5706 101.991 25.6773C102.613 24.9872 103.48 24.4854 104.303 24.0046C104.76 23.7922 105.262 23.6979 105.765 23.7302C106.183 23.7213 106.593 23.8456 106.935 24.0853C107.278 24.325 107.536 24.6677 107.672 25.0642C107.977 25.828 108.031 26.605 107.409 27.2515C106.786 27.8979 106.023 27.8097 105.039 27.3504Z" fill="#9188FD"/>
        <path d="M72.7749 44.2731C71.8558 43.7935 70.9217 43.2807 71.133 42.0272C71.3126 40.9221 71.9864 40.2276 73.1331 40.0913C73.5414 38.5984 73.9052 37.1443 74.3389 35.6991C74.8405 33.9268 75.7163 32.2833 76.9068 30.8803C77.4954 30.1798 78.1847 29.5713 78.952 29.0747C80.9767 27.8342 83.2282 28.6352 84.1308 30.8481C84.7768 32.4279 84.5885 33.995 83.9192 35.5249C82.6082 38.5559 80.3719 40.7529 77.5708 42.3461C76.5655 42.915 76.1991 43.6005 76.2771 44.6425C76.3815 46.0088 76.4698 47.3801 76.6602 48.7348C76.8129 49.6539 77.2956 50.4847 78.0173 51.0701C79.0528 51.963 80.0749 51.8244 80.6932 50.6088C80.7968 50.3784 80.949 50.1733 81.1392 50.0077C81.3294 49.842 81.5532 49.7197 81.7949 49.6492C82.0367 49.5787 82.2907 49.5617 82.5395 49.5993C82.7884 49.6369 83.026 49.7284 83.2361 49.8672C84.1484 50.42 84.3975 51.5077 83.8567 52.5131C82.519 54.9867 79.1945 55.8778 76.7019 54.4102C75.8982 53.9611 75.1949 53.3513 74.6356 52.6183C74.0762 51.8854 73.6726 51.0449 73.4496 50.1488C73.0703 48.6072 72.9795 46.9999 72.7821 45.406C72.758 45.0289 72.7556 44.6506 72.7749 44.2731V44.2731ZM77.1987 38.3119C78.6851 37.3417 79.872 35.9736 80.6249 34.3623C80.9483 33.6903 81.2996 32.9562 80.7126 32.0492C78.7394 33.6156 77.9191 35.7456 77.1987 38.3119V38.3119Z" fill="#9188FD"/>
        <path d="M192.646 33.5709C191.192 35.6157 190.244 37.9777 189.879 40.4619C189.564 42.8208 189.379 45.195 189.323 47.5739C189.168 51.7402 189.12 55.9159 188.32 60.0234C187.999 61.5912 187.544 63.1286 186.961 64.6187C186.601 65.566 186.052 66.4299 185.349 67.1577C184.645 67.8855 183.802 68.462 182.869 68.8519C181.914 69.2891 180.936 69.6729 179.939 70.0015C178.916 70.3296 178.035 69.8843 177.696 68.9919C177.38 68.1725 177.719 67.2777 178.567 66.7652C178.927 66.569 179.314 66.4266 179.715 66.3422C182.232 65.7424 183.692 64.1465 184.406 61.6713C185.188 58.9564 185.426 56.176 185.596 53.3898C185.784 50.33 185.749 47.2543 185.927 44.193C186.146 40.4622 186.739 36.7948 188.682 33.5157C189.293 32.4967 190.014 31.5483 190.832 30.6876C191.358 30.1833 191.991 29.8047 192.682 29.58C193.138 29.4107 193.639 29.4053 194.098 29.5649C194.557 29.7245 194.946 30.0391 195.2 30.455C195.466 30.8858 195.598 31.3865 195.579 31.8933C195.56 32.4001 195.392 32.89 195.094 33.3004C194.564 33.9926 193.956 34.0756 192.646 33.5709Z" fill="#9188FD"/>
        <path d="M135.656 38.8744C134.87 39.4892 134.214 39.9048 133.676 40.4346C132.103 41.9713 131.137 43.8856 130.412 45.9442C129.493 48.5575 128.765 51.2172 128.961 54.0117C129.04 55.056 129.298 56.0785 129.724 57.0341C130.195 58.0913 130.755 58.1592 131.939 57.906C132.474 57.8096 133.023 57.8367 133.545 57.9852C133.903 58.081 134.22 58.291 134.448 58.5834C134.677 58.8759 134.804 59.2351 134.812 59.6069C134.882 60.4478 134.416 61.0071 133.721 61.3577C132.313 62.0711 130.875 61.9399 129.479 61.3367C127.637 60.5407 126.546 59.0678 125.943 57.1775C125.326 55.2595 125.286 53.2789 125.523 51.3177C125.92 47.7516 127.018 44.2992 128.754 41.1608C129.593 39.6295 130.728 38.2819 132.093 37.1971C135.421 34.5911 138.278 35.4957 139.527 39.534C139.838 40.5396 139.519 41.3994 138.714 41.7293C137.908 42.0592 137.207 41.7406 136.681 40.8229C136.362 40.2744 136.09 39.7028 135.656 38.8744Z" fill="#9188FD"/>
        <path d="M146.07 61.3544C146.005 61.9941 145.972 62.6365 145.864 63.2693C145.657 64.544 144.891 65.2261 143.886 65.1141C142.882 65.0021 142.277 64.1409 142.402 62.8682C142.584 60.9979 142.801 59.1307 143.057 57.27C143.473 54.365 143.936 51.4677 144.397 48.5699C144.455 48.1165 144.581 47.6744 144.77 47.2583C144.908 46.9633 145.138 46.7214 145.425 46.5694C145.712 46.4173 146.041 46.3634 146.361 46.4157C147.002 46.4866 147.572 47.1245 147.641 47.8425C147.655 48.1621 147.635 48.4825 147.58 48.7978C147.08 52.9839 146.578 57.1696 146.073 61.3548L146.07 61.3544Z" fill="#9188FD"/>
        <path d="M112.794 41.7707C112.985 41.2102 113.103 40.6098 113.389 40.1032C113.642 39.6759 113.996 39.3182 114.42 39.0623C114.694 38.8867 115.019 38.812 115.341 38.8507C115.663 38.8895 115.962 39.0395 116.186 39.2749C116.705 39.7689 116.886 40.4128 116.529 41.0206C116.037 41.87 116.067 42.7659 116.039 43.678C115.972 46.0072 115.894 48.3365 115.806 50.6658C115.79 51.0315 115.731 51.394 115.631 51.746C115.362 52.7264 114.619 53.2638 113.727 53.165C112.836 53.0662 112.211 52.3604 112.177 51.3639C112.177 50.8155 112.208 50.2674 112.267 49.7221C112.464 47.0793 112.664 44.4362 112.867 41.7928L112.794 41.7707Z" fill="#9188FD"/>
        <path d="M148.657 38.7031C148.591 39.1134 148.366 39.4813 148.032 39.7266C147.698 39.9719 147.28 40.0749 146.871 40.0131C145.744 39.8685 144.799 38.765 144.944 37.7465C145.089 36.728 146.109 36.0103 147.156 36.1727C148.417 36.3674 148.666 37.4729 148.657 38.7031Z" fill="#9188FD"/>
        <path d="M117.783 33.9477C116.74 33.7781 115.974 32.8292 116.143 31.9248C116.303 31.0828 117.248 30.4759 118.136 30.6483C118.583 30.75 118.978 31.0123 119.246 31.3859C119.514 31.7595 119.637 32.2186 119.591 32.677C119.558 32.881 119.485 33.0763 119.376 33.2514C119.267 33.4265 119.123 33.5778 118.955 33.6963C118.786 33.8148 118.596 33.8981 118.394 33.9413C118.193 33.9845 117.985 33.9867 117.783 33.9477Z" fill="#9188FD"/>
    </g>
    <defs>
        <clipPath id="clip0_1004_1039">
            <rect width="186" height="77" fill="white" transform="translate(12.3496) rotate(9.22889)"/>
        </clipPath>
    </defs>
</svg>
