<svg width="254" height="105" viewBox="0 0 254 105" fill="none" xmlns="http://www.w3.org/2000/svg">
    <g clip-path="url(#clip0_813_1303)">
        <path d="M14.9926 63.5486C19.832 62.1701 23.0113 64.2827 25.6475 67.6428C29.2461 72.2401 30.4113 77.599 30.3563 83.3025C30.2973 86.5039 29.4722 89.6442 27.9503 92.4591C25.7644 96.6463 23.0834 100.461 19.5742 103.653C19.1811 104.049 18.7414 104.396 18.2647 104.686C16.9139 105.4 15.3569 104.804 14.9822 103.329C14.8332 102.608 14.4336 101.965 13.8549 101.512C13.5046 101.159 13.2564 100.717 13.1365 100.234C9.96067 90.5603 6.83637 80.8729 3.63301 71.2096C1.8423 65.868 0.467465 60.4367 0.0687644 54.7952C-0.198416 51.7976 0.152573 48.7769 1.09989 45.9211C2.02102 43.2813 3.65364 41.217 6.2555 40.0281C9.08422 38.7357 11.607 39.17 13.7586 41.4341C16.1887 43.9912 17.2542 47.148 17.5394 50.6046C17.7628 53.3995 17.0514 56.0634 16.3399 58.7239C15.9412 60.2161 15.5081 61.7118 14.9926 63.5486ZM9.07047 72.4227C11.9611 81.4312 14.7176 90.0227 17.5635 98.8864C18.0925 98.3854 18.5917 97.8538 19.0586 97.2942C20.2341 95.6814 21.389 94.0547 22.4957 92.4006C25.5684 87.8308 26.2249 82.8372 25.0426 77.5266C24.3036 74.2148 22.9288 71.251 20.351 68.9765C18.7527 67.5635 17.3229 67.4739 15.6078 68.7283C14.6998 69.3856 13.8996 70.1809 13.2362 71.0856C12.2601 72.4503 11.1499 73.1912 9.07047 72.4227ZM8.03935 69.5382L8.44492 69.4521C9.73039 64.6997 11.0777 59.9646 12.267 55.1881C12.6218 53.6723 12.7732 52.1158 12.7172 50.5598C12.6663 48.5418 11.94 46.5997 10.655 45.0458C9.76476 43.9533 9.10828 43.8672 7.9053 44.553C7.35401 44.8532 6.8712 45.2654 6.48772 45.7633C6.10423 46.2611 5.82848 46.8337 5.67807 47.4444C5.24498 49.0662 4.97553 50.7276 4.8738 52.4035C4.73632 56.0393 5.35843 59.613 6.24863 63.1282C6.78138 65.2821 7.44129 67.405 8.05309 69.5382H8.03935Z" fill="#9188FD"/>
        <path d="M63.2765 42.4404C63.5377 41.0619 63.6958 39.7489 64.0498 38.4945C64.3178 37.4693 64.7396 36.4908 65.3009 35.5928C66.552 33.6904 68.6246 33.2459 70.5115 34.5141C71.5584 35.1936 72.4728 36.059 73.2097 37.0677C74.6983 39.1485 76.031 41.3371 77.1967 43.6156C81.2352 51.8866 84.9267 60.2816 87.8516 69.0075C88.055 69.6593 88.1021 70.35 87.9891 71.0235C87.8207 72.0367 87.0817 72.6398 86.0884 72.8604C85.6206 72.9485 85.137 72.8876 84.7054 72.6861C84.2739 72.4846 83.9162 72.1527 83.6824 71.7369C83.4516 71.2983 83.2684 70.8362 83.1359 70.3584C80.1766 60.9674 76.0934 52.0554 71.6355 43.3089C71.0443 42.1475 70.2194 41.1033 69.4839 40.0212C69.289 39.8141 69.071 39.6303 68.8343 39.4732C68.25 40.7242 68.1881 41.9476 68.1159 43.1641C67.6966 50.1876 68.9133 56.987 70.8999 63.683C71.2918 64.9995 71.742 66.2987 72.1682 67.6049C72.4741 68.5526 72.8213 69.3866 73.7321 70.0345C74.9901 70.9305 75.0451 74.0769 74.0002 75.2038C73.7941 75.4425 73.5382 75.6328 73.2506 75.7613C72.963 75.8898 72.6507 75.9534 72.3359 75.9475C72.0211 75.9415 71.7114 75.8663 71.4288 75.7271C71.1462 75.5878 70.8976 75.388 70.7006 75.1418C70.2265 74.5634 69.8344 73.922 69.5354 73.236C66.8207 67.46 64.9677 61.3151 64.0361 54.9985C63.8986 54.1094 63.7302 53.3374 62.9809 52.7068C62.536 52.268 62.2106 51.7222 62.0357 51.1215C61.4789 49.5328 60.9599 47.9234 60.52 46.2968C59.8738 43.8775 60.6575 42.7644 63.2765 42.4404Z" fill="#9188FD"/>
        <path d="M37.4263 58.1036C37.66 53.4546 38.1137 49.1606 40.0625 45.2181C40.808 43.642 41.7859 42.1875 42.9634 40.9034C44.9741 38.8116 47.5931 39.0252 49.4938 41.2239C51.0371 42.9987 51.5836 45.1664 51.7554 47.4513C52.0304 51.1112 51.0921 54.5126 49.5145 57.7659C48.2479 60.4229 46.5602 62.8565 44.517 64.972C43.6714 65.8404 43.6027 66.5813 44.077 67.6256C44.8572 69.3487 45.6615 71.027 47.0295 72.3641C48.6449 73.9425 49.5454 73.9839 51.1746 72.4675C51.9445 71.7473 52.6078 70.9098 53.309 70.1137C53.553 69.8312 53.7421 69.4969 53.9964 69.2281C54.8866 68.2803 56.0587 68.077 57.0314 68.6767C58.004 69.2763 58.5471 70.7134 57.8631 71.8058C56.1927 74.4836 54.1923 76.8856 51.1196 78.047C49.0951 78.8121 47.1944 78.3399 45.4278 77.1923C43.7167 76.0285 42.2988 74.4818 41.2861 72.6743C39.4246 69.4809 38.2405 65.9366 37.8078 62.2632C37.6291 60.7779 37.5363 59.2753 37.4263 58.1036ZM45.8849 44.5392C42.7262 49.3639 42.1419 54.5023 42.3138 60.0714C46.208 56.6562 48.119 48.4231 45.8849 44.5392Z" fill="#9188FD"/>
        <path d="M209.706 30.0064C209.787 26.1567 210.564 22.3536 211.999 18.782C212.789 16.8487 213.642 14.967 215.852 14.2468C217.914 11.8654 220.447 12.4857 222.943 13.1198C225.634 13.8091 227.311 15.6184 228.198 18.2306C229.037 20.6981 229.181 23.2759 229.157 25.8123C229.122 29.9271 228.944 34.0833 227.765 38.0534C227.188 40.0239 226.395 41.9242 225.4 43.719C224.663 44.9442 223.679 46.0008 222.51 46.8206C219.997 48.6299 217.134 48.3818 214.755 46.3898C213.395 45.1869 212.336 43.6807 211.662 41.9924C210.15 38.5703 209.662 34.9449 209.706 30.0064ZM224.486 25.5435C224.331 24.3236 224.118 22.2765 223.798 20.2467C223.558 18.7338 222.637 17.8653 221.087 17.5448C220.083 17.3346 219.368 17.7412 218.495 18.0342C216.838 18.5856 216.333 19.7745 215.972 21.1668C215.536 22.8555 215.13 24.5613 214.862 26.2845C214.236 30.3338 214.144 34.3866 215.412 38.3463C215.804 39.5947 216.362 40.7841 217.072 41.8821C218.241 43.6432 219.591 43.719 220.791 42.0097C221.707 40.677 222.425 39.2177 222.922 37.6777C224.097 34.0213 224.235 30.1891 224.479 25.5435H224.486Z" fill="#9188FD"/>
        <path d="M130.928 16.5419C127.515 22.6728 126.141 29.3344 124.446 36.0304C125.955 36.3337 127.151 35.7237 128.399 35.4928C128.934 35.3443 129.486 35.2656 130.042 35.2585C130.576 35.3046 131.079 35.5284 131.472 35.8943C131.865 36.2601 132.125 36.7472 132.21 37.278C132.291 37.8097 132.184 38.3529 131.909 38.8145C131.634 39.276 131.207 39.6271 130.702 39.8075C130.111 40.0095 129.504 40.156 128.887 40.2452C127.244 40.5553 125.594 40.8483 123.731 41.186C123.686 43.2089 123.473 45.1423 123.635 47.0446C124.095 52.4621 124.694 57.8692 125.285 63.2729C125.431 64.0059 125.662 64.7194 125.972 65.3993C126.446 66.7088 125.852 68.2045 124.649 68.6835C123.446 69.1626 122.167 68.6112 121.662 67.2017C121.306 66.073 121.026 64.9217 120.823 63.7554C119.574 57.6286 118.898 51.3984 118.802 45.1457C118.771 44.5198 118.796 43.8923 118.878 43.271C118.964 42.915 118.95 42.5419 118.836 42.1938C118.723 41.8456 118.514 41.536 118.235 41.2997C117.163 40.2659 117.307 38.9563 118.579 38.1326C119.345 37.6364 119.466 37.0367 119.61 36.2923C120.702 30.5136 122.288 24.8398 124.35 19.3334C124.883 17.7993 125.589 16.331 126.453 14.9567C127.141 13.8918 128.199 13.0268 129.203 12.1997C129.773 11.8138 130.43 11.5769 131.114 11.5104C131.675 11.4071 132.255 11.4848 132.769 11.7325C133.284 11.9802 133.707 12.3851 133.977 12.8889C134.554 13.8504 134.799 14.8843 134.101 15.8906C133.403 16.8969 132.355 16.9452 130.928 16.5419Z" fill="#9188FD"/>
        <path d="M91.1445 46.376C89.8006 45.9315 88.4292 45.4456 88.4395 43.7121C88.4395 42.1854 89.1957 41.1033 90.7114 40.6691C90.9348 38.5703 91.1067 36.5336 91.3748 34.4934C91.6627 31.9982 92.4833 29.5946 93.7807 27.4459C94.4208 26.3743 95.2166 25.4044 96.142 24.5682C98.5995 22.4557 101.81 23.0416 103.511 25.8227C104.728 27.8077 104.817 29.9582 104.25 32.1638C103.147 36.5301 100.614 39.9764 97.1869 42.7334C95.9564 43.719 95.6127 44.7218 95.9461 46.1072C96.386 47.9234 96.8054 49.7499 97.3587 51.5316C97.7658 52.7354 98.5984 53.748 99.6994 54.3782C101.291 55.3535 102.638 54.9434 103.205 53.172C103.294 52.8393 103.455 52.53 103.675 52.2654C103.895 52.0008 104.17 51.7872 104.48 51.6394C104.791 51.4917 105.129 51.4132 105.473 51.4095C105.817 51.4057 106.157 51.4768 106.47 51.6178C107.821 52.1623 108.395 53.5718 107.886 55.0433C106.625 58.6653 102.339 60.5918 98.6579 59.1616C97.4762 58.7329 96.3947 58.0658 95.4802 57.2016C94.5657 56.3374 93.8375 55.2944 93.3408 54.137C92.4918 52.145 92.0175 50.0015 91.4023 47.8993C91.2872 47.3969 91.2011 46.8883 91.1445 46.376V46.376ZM95.8017 37.3848C97.5929 35.7539 98.8931 33.6528 99.555 31.3194C99.8437 30.3441 100.157 29.2793 99.1666 28.1868C96.85 30.7267 96.2107 33.7731 95.8017 37.3848V37.3848Z" fill="#9188FD"/>
        <path d="M250.377 5.75522C248.866 8.8254 248.105 12.2121 248.157 15.6356C248.25 18.8794 248.519 22.1156 248.965 25.3299C249.669 30.9714 250.518 36.6025 250.339 42.306C250.25 44.4865 249.974 46.6553 249.515 48.7884C249.237 50.1422 248.686 51.425 247.897 52.5585C247.108 53.6919 246.097 54.6524 244.926 55.3811C243.735 56.1784 242.5 56.909 241.228 57.5694C239.922 58.2346 238.636 57.8279 237.983 56.701C237.378 55.6671 237.639 54.3885 238.671 53.5132C239.113 53.1705 239.603 52.8942 240.124 52.693C243.386 51.3352 245.005 48.8677 245.424 45.3801C245.885 41.5548 245.596 37.7604 245.215 33.973C244.799 29.8134 244.077 25.6814 243.647 21.5218C243.125 16.4523 243.122 11.3864 245.022 6.54786C245.623 5.04262 246.387 3.60836 247.301 2.27108C247.9 1.47725 248.669 0.829298 249.552 0.375645C250.13 0.047952 250.803 -0.0686494 251.457 0.0457334C252.111 0.160116 252.704 0.498396 253.137 1.00286C253.59 1.52448 253.878 2.16955 253.963 2.85578C254.049 3.542 253.929 4.23827 253.618 4.85576C253.055 5.90341 252.254 6.1481 250.377 5.75522Z" fill="#9188FD"/>
        <path d="M174.72 25.3574C173.796 26.3568 173.002 27.0599 172.394 27.8904C170.61 30.3028 169.726 33.0908 169.2 36.0201C168.534 39.7386 168.135 43.4778 169.011 47.1962C169.347 48.5845 169.919 49.9043 170.702 51.0974C171.569 52.4173 172.339 52.3863 173.878 51.7866C174.578 51.5399 175.324 51.4562 176.061 51.5419C176.564 51.5926 177.037 51.8059 177.409 52.1496C177.781 52.4933 178.032 52.9489 178.123 53.4477C178.402 54.5643 177.896 55.419 177.037 56.0427C175.294 57.311 173.328 57.4488 171.314 56.9422C168.657 56.2736 166.863 54.5298 165.636 52.1175C164.385 49.6706 163.897 47.0136 163.787 44.3221C163.541 39.4353 164.265 34.5482 165.918 29.9444C166.713 27.6998 167.949 25.6376 169.551 23.879C173.466 19.6436 177.515 20.2363 180.082 25.3988C180.722 26.6842 180.481 27.9111 179.467 28.5314C178.453 29.1517 177.439 28.876 176.528 27.756C175.978 27.0874 175.487 26.3775 174.72 25.3574Z" fill="#9188FD"/>
        <path d="M193.683 53.3374C193.734 54.2128 193.831 55.0847 193.824 55.96C193.824 57.7211 192.94 58.8066 191.562 58.8755C190.184 58.9445 189.18 57.9175 189.07 56.1771C188.905 53.62 188.788 51.0595 188.726 48.4989C188.651 44.4978 188.641 40.4968 188.627 36.4957C188.607 35.8726 188.68 35.2499 188.843 34.6485C188.965 34.2213 189.221 33.8455 189.575 33.5781C189.929 33.3106 190.36 33.1662 190.802 33.1666C191.682 33.1218 192.59 33.8559 192.841 34.807C192.93 35.2342 192.972 35.6698 192.968 36.1062C193.211 41.85 193.45 47.5937 193.686 53.3374H193.683Z" fill="#9188FD"/>
        <path d="M144.54 34.2556C144.674 33.4595 144.701 32.6256 144.976 31.8812C145.223 31.2508 145.622 30.6918 146.138 30.2545C146.468 29.9585 146.891 29.7866 147.333 29.7684C147.776 29.7501 148.211 29.8867 148.564 30.1546C149.372 30.706 149.757 31.5331 149.41 32.4291C148.932 33.6801 149.169 34.8794 149.331 36.1131C149.75 39.263 150.156 42.4152 150.548 45.5696C150.606 46.0653 150.606 46.5662 150.548 47.0618C150.4 48.4403 149.516 49.326 148.293 49.3881C147.069 49.4501 146.072 48.6368 145.808 47.3031C145.689 46.5646 145.61 45.8203 145.571 45.0734C145.257 41.4732 144.947 37.8719 144.643 34.2694L144.54 34.2556Z" fill="#9188FD"/>
        <path d="M192.208 22.2834C192.209 22.8502 191.987 23.3944 191.59 23.7977C191.193 24.2011 190.653 24.4309 190.087 24.4373C188.537 24.489 187.022 23.2104 186.994 21.8078C186.967 20.4052 188.183 19.2162 189.63 19.2059C191.373 19.1921 191.95 20.6257 192.208 22.2834Z" fill="#9188FD"/>
        <path d="M149.55 22.6349C148.107 22.6349 146.866 21.5252 146.897 20.2708C146.928 19.1025 148.069 18.079 149.303 18.1169C149.928 18.156 150.518 18.4227 150.961 18.8669C151.404 19.3111 151.67 19.9023 151.709 20.5292C151.71 20.8109 151.654 21.0898 151.545 21.3494C151.436 21.609 151.276 21.8439 151.074 22.0403C150.873 22.2368 150.634 22.3906 150.373 22.4927C150.111 22.5949 149.831 22.6432 149.55 22.6349Z" fill="#9188FD"/>
    </g>
    <defs>
        <clipPath id="clip0_813_1303">
            <rect width="254" height="105" fill="white"/>
        </clipPath>
    </defs>
</svg>
