<svg width="302" height="57" viewBox="0 0 302 57" fill="none" xmlns="http://www.w3.org/2000/svg">
    <g clip-path="url(#clip0_763_1211)">
        <path d="M219.834 38.2044C220.311 37.5252 220.838 36.8801 221.256 36.1668C223.273 32.7283 224.841 29.0439 225.923 25.2041C226.814 22.0424 227.62 18.8595 228.469 15.685C228.515 15.4982 228.575 15.3153 228.649 15.1378C229.046 14.2202 229.839 13.7709 230.771 13.9178C231.215 13.9851 231.619 14.211 231.911 14.5541C232.202 14.8972 232.36 15.3344 232.355 15.7851C232.331 16.5565 232.221 17.3228 232.026 18.0696C231.199 21.5698 230.329 25.0658 229.973 28.6511C229.748 30.8782 229.68 33.1222 229.593 35.362C229.593 36.0211 229.743 36.6714 230.032 37.2633C230.285 36.8567 230.55 36.4585 230.785 36.0412C232.907 32.2578 234.564 28.2594 236.074 24.195C237.642 19.9772 238.508 15.57 239.579 11.2182C239.681 10.8051 239.734 10.3772 239.874 9.97902C240.014 9.53072 240.31 9.14765 240.707 8.89923C241.104 8.65081 241.577 8.55349 242.04 8.62492C242.498 8.7154 242.911 8.96228 243.208 9.32361C243.506 9.68494 243.669 10.1385 243.671 10.6071C243.667 10.9146 243.622 11.2201 243.54 11.5162C242.978 13.8859 242.42 16.2577 241.843 18.621C240.194 25.2638 237.64 31.5531 234.417 37.5699C233.944 38.4535 233.384 39.2945 232.835 40.1248C232.56 40.5456 232.249 40.9423 231.908 41.3107C230.162 43.1864 227.97 42.9011 226.867 40.5783C226.409 39.616 226.216 38.528 225.91 37.4933C225.827 37.208 225.781 36.9141 225.673 36.4287C225.373 36.9163 225.193 37.242 224.983 37.5465C224.241 38.6281 223.549 39.7501 222.719 40.7593C222.193 41.3763 221.564 41.8972 220.861 42.2986C218.922 43.4355 217.006 42.7244 216.158 40.6294C215.642 39.3519 215.536 37.9829 215.574 36.6374C215.648 33.9739 215.786 31.3146 216.02 28.6511C216.363 24.7592 216.822 20.8693 217.861 17.0966C218.517 14.7205 219.433 12.4126 220.265 10.0855C220.426 9.65037 220.664 9.24794 220.967 8.89744C221.478 8.30556 222.138 8.02239 222.936 8.25872C223.733 8.49505 224.296 9.0039 224.501 9.81721C224.675 10.5049 224.54 11.1798 223.927 11.578C223.417 11.908 223.246 12.37 223.078 12.8916C221.557 17.5239 220.561 22.3133 220.108 27.1693C219.824 30.4013 219.684 33.646 219.471 36.8865C219.471 37.2921 219.495 37.6973 219.544 38.1L219.834 38.2044Z" fill="#FFA7FE"/>
        <path d="M149.434 17.4926C149.7 17.0668 149.882 16.7346 150.096 16.428C150.911 15.2549 151.675 14.0392 152.583 12.9427C153.181 12.2365 153.888 11.6306 154.677 11.1479C156.244 10.1728 157.908 10.6369 158.824 12.2486C159.163 12.8116 159.4 13.4299 159.524 14.0754C159.802 15.8276 160.095 17.5905 160.161 19.3577C160.266 22.8388 160.155 26.3231 159.828 29.7902C159.637 32.0598 159.55 34.3401 159.346 36.6033C159.117 39.1816 158.743 41.7472 158.565 44.3298C158.48 45.537 158.376 46.6994 157.821 47.7832C157.667 48.1209 157.416 48.4053 157.101 48.6004C156.787 48.7956 156.421 48.8927 156.051 48.8796C155.296 48.8796 154.662 48.522 154.392 47.8151C154.204 47.3127 154.15 46.7693 154.237 46.2396C155.19 41.019 155.599 35.7432 155.879 30.4545C156.011 27.9847 156.249 25.5171 156.283 23.0474C156.312 20.848 156.134 18.6466 156.028 16.4472C155.976 16.0596 155.896 15.6761 155.79 15.2996C155.539 15.5145 155.305 15.7479 155.088 15.998C154.616 16.6124 154.177 17.2521 153.773 17.9142C151.259 22.2021 149.222 26.7094 148.123 31.5701C147.519 34.24 147.239 36.9844 146.812 39.6926C146.729 40.227 146.691 40.7721 146.566 41.2979C146.47 41.7574 146.212 42.1667 145.839 42.4507C145.467 42.7346 145.005 42.8742 144.538 42.8437C144.071 42.8089 143.632 42.6092 143.299 42.2802C142.965 41.9512 142.758 41.5142 142.716 41.0467C142.685 40.5459 142.702 40.0433 142.766 39.5457C143.085 35.8773 143.935 32.3068 144.608 28.6873C145.032 26.4497 145.283 24.1822 145.597 21.9232C145.621 21.4935 145.621 21.0627 145.597 20.633C145.295 21.0588 145.113 21.2504 145.022 21.4719C144.313 23.1858 143.494 24.8656 142.949 26.6285C141.755 30.5056 140.7 34.4252 139.584 38.3236C139.422 38.7961 139.422 39.3095 139.584 39.782C139.992 40.9509 139.268 42.0516 138.05 42.2752C136.833 42.4988 135.776 41.7578 135.776 40.4655C135.781 39.1922 135.912 37.9226 136.169 36.6757C137.137 31.7417 138.557 26.908 140.412 22.2362C141.118 20.4904 142.062 18.8297 143.019 17.2052C143.524 16.3812 144.159 15.6449 144.899 15.025C146.384 13.7582 148.193 14.2542 148.944 16.0533C149.125 16.4749 149.243 16.9199 149.434 17.4926Z" fill="#FFA7FE"/>
        <path d="M4.63757 20.0794L14.3838 19.7367C14.4308 19.4377 14.4613 19.1363 14.475 18.8339C14.4805 14.5796 14.7071 10.3284 15.1539 6.09771C15.2069 5.56118 15.1539 5.01187 15.1963 4.47322C15.2918 3.33415 16.0449 2.58045 17.0314 2.62091C18.0179 2.66136 18.7286 3.44486 18.7095 4.59457C18.648 7.87763 18.5504 11.1671 18.457 14.4523C18.4104 16.0768 18.3319 17.6991 18.264 19.3236C18.2063 19.8242 18.3439 20.3278 18.648 20.7288C18.9052 21.027 19.0476 21.4077 19.0496 21.802C19.0515 22.1964 18.9128 22.5785 18.6586 22.8792C18.2894 23.3561 18.247 23.8479 18.2343 24.393C18.1664 28.5319 18.0957 32.6716 18.0221 36.812C18.0221 37.1207 18.037 37.4337 18.003 37.7402C17.9583 38.1667 17.7759 38.5668 17.4837 38.8796C17.1915 39.1925 16.8055 39.401 16.3843 39.4733C15.9636 39.5519 15.5287 39.4799 15.1553 39.2698C14.782 39.0597 14.494 38.7249 14.3413 38.3236C14.1668 37.8146 14.0877 37.2775 14.108 36.7396C14.1546 33.2968 14.2395 29.852 14.3053 26.4092C14.3201 25.5576 14.3053 24.7209 14.3053 23.7457H4.36178C4.29389 25.0338 4.17508 26.4135 4.14963 27.791C4.09871 31.5829 4.09022 35.377 4.06264 39.1689C4.06264 40.6081 3.49196 41.4363 2.42484 41.5896C1.28984 41.7515 0.451848 41.0765 0.0911929 39.6735C0.00506844 39.3011 -0.0256727 38.9179 -3.16541e-05 38.5365C0.0402769 37.8105 0.188782 37.0887 0.212119 36.3627C0.303343 31.5105 0.296979 26.6775 0.46882 21.8445C0.704307 15.2762 1.12436 8.71649 2.25725 2.22702C2.32244 1.73118 2.48235 1.25261 2.72822 0.817567C2.88369 0.556023 3.1062 0.341099 3.37256 0.195178C3.63893 0.0492579 3.9394 -0.0223207 4.2427 -0.0121023C4.54599 -0.00188388 4.84101 0.0897578 5.09702 0.253278C5.35303 0.416798 5.56068 0.646215 5.69832 0.917634C6.09504 1.63514 6.29234 2.39309 5.95715 3.25963C5.73486 3.8763 5.60058 4.52141 5.5583 5.17581C5.23583 8.71649 4.92185 12.2593 4.66091 15.8064C4.55271 17.1967 4.63757 18.621 4.63757 20.0794Z" fill="#FFA7FE"/>
        <path d="M73.7072 31.5105L68.3844 30.9016C68.3059 31.7319 68.1722 32.5602 68.1573 33.3905C68.0781 36.0973 68.0237 38.8041 67.994 41.5109C67.994 42.2411 68.0916 42.9735 68.134 43.7059C68.1521 43.976 68.1521 44.247 68.134 44.5171C68.0619 45.5582 67.4233 46.2523 66.5089 46.2992C65.5946 46.346 64.8457 45.7115 64.7078 44.696C64.5402 43.4717 64.3874 42.2433 64.3068 41.0105C63.7955 33.2819 64.6463 25.7194 67.2769 18.4102C67.8438 16.8925 68.5453 15.4289 69.373 14.0371C69.8692 13.2165 70.5173 12.4989 71.2823 11.9229C73.041 10.5794 74.908 11.05 75.8711 13.0449C76.2702 13.8387 76.547 14.6887 76.6922 15.5658C77.0104 17.8098 77.2607 20.0773 77.4495 22.3554C77.5811 23.9331 77.5514 25.5235 77.6383 27.1054C77.673 27.4349 77.8052 27.7464 78.0181 27.9996C78.8794 29.0429 78.9473 29.8818 78.0711 30.876C77.9317 31.0314 77.8265 31.2144 77.7621 31.4132C77.6978 31.612 77.6759 31.8221 77.6977 32.03C77.7847 34.4252 77.8823 36.8183 77.9608 39.2136C78.0308 41.3001 78.1093 43.3866 78.1305 45.4731C78.1422 45.7358 78.102 45.9983 78.0122 46.2453C77.9224 46.4924 77.7848 46.7192 77.6074 46.9128C77.4299 47.1063 77.2161 47.2627 76.9782 47.3729C76.7403 47.4832 76.483 47.5452 76.2212 47.5553C75.171 47.5809 74.3118 46.725 74.2312 45.5519C74.1909 44.9344 74.1888 44.3149 74.1718 43.6953C74.0848 40.5272 74.0085 37.357 73.9066 34.191C73.8854 33.2968 73.7793 32.4154 73.7072 31.5105ZM72.6783 15.998C70.6034 19.5876 69.7973 23.3561 68.9296 27.2843L73.616 27.6143C73.9215 24.9891 73.3762 17.9333 72.6783 16.0022V15.998Z" fill="#FFA7FE"/>
        <path d="M256.256 32.096C254.374 31.7852 252.639 31.6191 250.834 32.3537C250.645 33.4672 250.428 34.5999 250.267 35.7432C250.138 36.6587 250.08 37.587 249.985 38.511C249.911 39.2115 249.943 39.8459 250.367 40.4889C250.823 41.1809 250.543 41.909 250.051 42.5243C249.484 43.2312 248.778 43.6698 247.84 43.4547C247.472 43.3921 247.136 43.2059 246.888 42.9266C246.639 42.6473 246.492 42.2915 246.472 41.9175C246.355 40.457 246.26 38.9879 246.281 37.5252C246.317 34.3316 246.989 31.2338 247.883 28.1849C249.036 24.1302 250.58 20.1978 252.493 16.443C253.118 15.2465 253.853 14.1111 254.688 13.0513C255.252 12.3684 255.932 11.7916 256.697 11.3481C258.429 10.3027 260.213 10.9222 260.917 12.8384C261.237 13.7482 261.43 14.6984 261.488 15.6616C261.733 19.4854 261.556 23.3248 260.962 27.1097C260.826 28.0231 260.701 28.8769 261.206 29.7902C261.615 30.5376 261.384 31.4041 260.682 31.9917C260.521 32.1249 260.389 32.2891 260.293 32.4746C260.197 32.66 260.14 32.8629 260.124 33.0712C259.638 36.3968 259.116 39.7182 258.639 43.046C258.505 43.9615 258.494 44.8961 258.354 45.8138C258.178 46.9805 257.474 47.6256 256.47 47.6427C255.467 47.6597 254.678 47.0039 254.47 45.9075C254.292 44.9707 254.096 44.0445 254.616 43.0864C254.892 42.5776 254.828 41.8835 254.917 41.2746C255.342 38.6033 255.76 35.9312 256.171 33.2585C256.216 32.8966 256.22 32.5495 256.256 32.096ZM257.569 15.932C256.097 17.2094 252.28 25.8919 252.13 28.2041H256.865C257.389 24.0992 258.081 20.0859 257.569 15.932V15.932Z" fill="#FFA7FE"/>
        <path d="M43.9257 19.8559C43.9257 25.4788 42.6952 30.8292 40.5313 35.9838C39.8196 37.7459 38.7758 39.3536 37.4572 40.7189C34.8223 43.3994 31.2561 43.1993 28.9373 40.2377C27.3355 38.1916 26.6312 35.7836 26.366 33.2564C25.922 29.3688 26.1437 25.4336 27.0215 21.6209C27.698 18.7055 29.045 15.9895 30.9548 13.6901C32.0742 12.352 33.4843 11.2894 35.0769 10.5837C36.3843 9.99742 37.8287 9.78875 39.2478 9.9812C40.4188 10.1175 41.2356 10.72 41.8657 11.8101C42.7143 13.2643 43.512 14.6929 43.6711 16.3919C43.7856 17.5437 43.845 18.7019 43.9257 19.8559ZM37.8221 13.5432C37.2769 13.7987 36.702 14.0116 36.1843 14.3203C34.9917 15.0395 33.9764 16.0199 33.2142 17.1882C32.0219 18.9745 31.1203 20.9034 30.7342 23.0176C30.431 24.6896 30.2186 26.3769 30.0977 28.0721C29.928 30.4354 30.0192 32.805 30.7342 35.0789C31.0644 36.1046 31.5511 37.0728 32.1768 37.9489C32.8663 38.9219 33.6618 38.907 34.5295 38.098C34.9094 37.769 35.2383 37.3851 35.5054 36.9589C36.1758 35.7474 36.8802 34.5381 37.3936 33.2564C38.7768 29.7924 39.6848 26.1942 39.8842 22.4577C39.9882 20.4946 40.1855 18.5188 39.7505 16.558C39.5872 15.8298 39.4217 15.1613 38.7089 14.7184C38.3801 14.514 38.2019 14.0627 37.8221 13.5432Z" fill="#FFA7FE"/>
        <path d="M182.212 15.8702C181.925 20.7352 180.727 25.3958 179.121 29.9669C178.149 32.7347 177.186 35.5153 175.741 38.0809C175.078 39.2573 174.343 40.3908 173.539 41.4747C173.068 42.0857 172.506 42.6194 171.871 43.0566C170.497 44.0317 168.954 43.9806 167.563 43.0204C166.619 42.3667 165.959 41.4683 165.405 40.4868C164.113 38.198 163.655 35.6921 163.769 33.1137C163.889 29.6365 164.41 26.1849 165.322 22.8281C166.122 19.9687 167.363 17.3244 169.26 15.0292C171.057 12.8533 173.291 11.4566 176.182 11.3608C177.415 11.3053 178.646 11.5181 179.789 11.9846C181.579 12.7298 182.328 13.9455 182.212 15.8702ZM169.814 39.814C170.285 39.2412 170.766 38.7856 171.086 38.2363C171.899 36.8375 172.765 35.4472 173.386 33.9611C175.646 28.5724 177.546 23.0708 178.187 17.2094C178.257 16.5707 178.261 15.932 178.297 15.2932C177.473 15.0525 176.601 15.032 175.766 15.2336C174.199 15.6254 173.009 16.5622 172.041 17.8183C170.776 19.4811 169.828 21.3644 169.245 23.3731C168.522 25.8983 168.046 28.4881 167.824 31.106C167.671 32.6879 167.55 34.2656 167.866 35.8368C168.157 37.2804 168.609 38.6515 169.814 39.814Z" fill="#FFA7FE"/>
        <path d="M134.079 16.1662C134.026 21.8191 133.102 27.4298 131.338 32.7986C130.684 34.7531 129.887 36.631 128.671 38.3066C128.117 39.0969 127.464 39.8124 126.728 40.4357C124.791 42.0133 122.423 41.8664 120.694 40.0695C120.092 39.4203 119.584 38.6892 119.186 37.8978C118.289 36.1307 117.796 34.185 117.743 32.2025C117.575 28.0596 118.105 23.918 119.309 19.9517C120.039 17.5118 121.174 15.2847 123.019 13.4857C124.42 12.1188 126.004 11.0436 127.952 10.6199C128.285 10.5267 128.631 10.4872 128.977 10.5028C129.846 10.6007 130.674 10.7008 131.578 10.4836C132.481 10.2665 133.167 10.8286 133.527 11.6227C133.809 12.2583 133.988 12.9344 134.06 13.6262C134.151 14.4586 134.079 15.3167 134.079 16.1662ZM130.296 14.7801C129.25 13.9945 128.898 13.9413 127.776 14.6311C125.552 15.998 124.076 17.9844 123.259 20.4499C122.116 23.9434 121.553 27.6017 121.592 31.2785C121.585 32.9869 121.969 34.6741 122.716 36.2094C122.985 36.7587 123.274 37.3102 124.063 37.6146C124.542 37.1518 124.994 36.662 125.417 36.1477C126.397 34.7567 127.143 33.213 127.623 31.5787C128.667 28.2977 129.532 24.9785 129.853 21.5357C130.059 19.2704 130.154 16.9965 130.298 14.7801H130.296Z" fill="#FFA7FE"/>
        <path d="M278.625 27.0139C277.427 26.9053 276.34 26.9202 275.309 26.6881C273.283 26.2304 272.127 24.772 272.191 22.662C272.288 19.4535 273.226 16.4877 275.25 13.9583C276.02 12.9569 277.017 12.1551 278.159 11.6202C279.301 11.0853 280.555 10.8328 281.814 10.8839C282.784 10.8796 283.733 11.1673 284.538 11.71C285.599 12.4445 286.157 13.4473 286.089 14.7652C286.033 15.8042 285.452 16.5473 284.578 16.6814C283.704 16.8155 282.972 16.3173 282.622 15.272C282.575 15.1293 282.556 14.9739 282.495 14.6779C282.058 14.6779 281.595 14.5949 281.177 14.6928C279.862 15.0016 278.74 15.6552 277.97 16.807C276.875 18.4486 276.33 20.2881 276.096 22.2319C276.095 22.4187 276.114 22.6051 276.154 22.7876C276.5 22.9783 276.896 23.0599 277.289 23.022C277.683 22.984 278.056 22.8282 278.36 22.5747C279.192 21.8998 279.945 21.1248 280.711 20.3733C280.955 20.1327 281.105 19.7963 281.347 19.5536C281.63 19.2586 281.999 19.0623 282.401 18.9933C282.803 18.9244 283.217 18.9864 283.581 19.1703C283.937 19.3367 284.231 19.6116 284.421 19.9558C284.612 20.2999 284.689 20.6957 284.642 21.0865C284.599 21.47 284.51 21.8468 284.377 22.2085C283.006 26.4667 281.65 30.7441 280.246 35.0001C278.842 39.2562 276.939 43.3312 274.348 47.0273C273.68 47.925 272.959 48.7817 272.189 49.5929C271.922 49.8709 271.604 50.0949 271.253 50.2529C270.886 50.4302 270.471 50.484 270.071 50.4062C269.671 50.3283 269.307 50.1231 269.032 49.8209C268.757 49.5187 268.587 49.1357 268.547 48.7287C268.506 48.3218 268.597 47.9125 268.807 47.5617C268.899 47.3917 269.016 47.236 269.153 47.0997C271.457 44.8961 272.957 42.1432 274.261 39.2966C275.254 37.1249 276.062 34.8638 276.862 32.6091C277.526 30.759 278.05 28.8619 278.625 27.0139Z" fill="#FFA7FE"/>
        <path d="M295.988 30.3949C294.715 30.9293 293.489 31.074 292.209 30.6738C290.328 30.084 289.373 28.5 289.479 26.9692C289.833 21.8593 291.501 17.3883 295.699 14.1563C296.333 13.6549 297.044 13.2595 297.804 12.9853C298.317 12.8074 298.868 12.7697 299.401 12.8762C299.933 12.9827 300.428 13.2295 300.834 13.5912C301.24 13.953 301.542 14.4166 301.711 14.9346C301.879 15.4526 301.907 16.0063 301.792 16.5387C301.743 16.8358 301.617 17.1145 301.425 17.3464C301.234 17.5784 300.985 17.7553 300.703 17.8592C300.422 17.963 300.118 17.9901 299.822 17.9377C299.527 17.8853 299.251 17.7552 299.021 17.5607C298.795 17.3397 298.582 17.1043 298.385 16.856C295.135 19.4428 293.777 22.8749 293.372 26.8435C294.087 27.099 294.515 26.7222 294.931 26.4177C296.158 25.4727 297.21 24.3198 298.041 23.0112C298.237 22.6794 298.466 22.3684 298.724 22.0829C299.031 21.7835 299.427 21.5949 299.852 21.5467C300.277 21.4985 300.706 21.5935 301.071 21.8168C301.446 22.0291 301.733 22.3679 301.882 22.773C302.031 23.178 302.033 23.623 301.886 24.0289C300.719 27.0096 300.288 30.1564 299.552 33.2329C298.4 38.0106 296.251 42.2965 293.281 46.1799C292.164 47.6687 290.819 48.9695 289.294 50.0336C289.103 50.1635 288.917 50.304 288.715 50.4147C287.686 50.9747 286.517 50.7298 285.947 49.842C285.344 48.9073 285.588 47.8491 286.583 47.1082C292.08 43.0225 294.645 37.2186 296.06 30.7547C296.077 30.6908 296.034 30.612 295.988 30.3949Z" fill="#FFA7FE"/>
        <path d="M49.486 39.1753C49.6409 33.4991 49.9464 27.8208 50.8756 22.2171C51.7242 17.1072 52.8911 12.0677 53.9157 6.99619C53.9921 6.61934 54.0494 6.23611 54.1449 5.86139C54.3952 4.86497 55.1653 4.29863 56.0775 4.41999C56.5039 4.47684 56.8928 4.69399 57.1657 5.02756C57.4386 5.36112 57.5752 5.78622 57.5478 6.21694C57.4903 7.14153 57.3712 8.06122 57.1913 8.96986C56.3724 13.6091 55.4941 18.2357 54.724 22.8856C54.3379 25.2425 54.0876 27.6313 53.9157 30.0159C53.6612 33.4033 53.4914 36.7992 53.3557 40.1951C53.3424 41.2766 53.4226 42.3573 53.5954 43.4249C53.7948 44.8983 54.1555 45.1772 55.6087 45.2623C56.2997 45.2807 56.9884 45.3519 57.6687 45.4752C58.9649 45.7563 59.6332 46.7697 59.3659 47.9237C59.1113 49.018 58.1418 49.5269 56.8498 49.3161C56.0182 49.1799 55.1695 49.1394 54.3294 49.0436C52.1952 48.7987 50.7589 47.6235 50.1331 45.5923C49.8066 44.4422 49.5935 43.2627 49.4967 42.0708C49.4076 41.1085 49.486 40.1334 49.486 39.1753Z" fill="#FFA7FE"/>
        <path d="M109.894 22.8366C110.059 25.1786 110.218 27.5419 110.39 29.8924C110.66 33.5566 110.851 37.2186 110.566 40.8955C110.259 44.8535 108.069 47.5213 104.9 49.5588C104.479 49.8322 104.031 50.0613 103.563 50.2422C103.118 50.414 102.626 50.4159 102.179 50.2476C101.733 50.0793 101.364 49.7525 101.141 49.3291C100.919 48.9058 100.859 48.4153 100.973 47.9506C101.087 47.4859 101.367 47.0794 101.76 46.808C101.988 46.6617 102.224 46.5301 102.469 46.4141C105.091 44.9749 106.758 42.882 106.758 39.7692C106.758 36.9099 106.684 34.0505 106.574 31.1933C106.446 27.9102 106.162 24.6335 106.111 21.3505C106.084 19.6485 106.257 17.9492 106.625 16.2875C107.473 12.4551 109.904 10.077 113.725 9.2019C114.406 9.07399 115.102 9.04602 115.792 9.11887C116.178 9.15256 116.553 9.27109 116.889 9.46607C117.225 9.66105 117.515 9.92774 117.737 10.2473C118.221 10.886 118.267 11.5631 117.89 12.1933C117.512 12.8235 116.81 13.2408 116.12 12.9704C114.979 12.5254 113.999 12.7298 113.07 13.3962C111.884 14.2372 110.857 15.2613 110.524 16.7346C110.278 17.9456 110.107 19.1708 110.013 20.403C109.936 21.2078 109.998 22.0254 109.998 22.8387L109.894 22.8366Z" fill="#FFA7FE"/>
        <path d="M195.855 9.02307C196.715 9.05555 197.552 9.30764 198.288 9.75548C199.099 10.2303 199.394 11.0329 199.114 11.8292C198.834 12.6255 197.957 13.2216 197.088 12.9087C195.933 12.4977 195.178 13.0002 194.385 13.6836C193.033 14.8589 192.59 16.4515 192.41 18.1313C192.24 19.7047 192.174 21.2909 192.127 22.8749C192.047 25.6577 192.108 28.4468 191.939 31.2231C191.68 35.4259 190.524 39.3605 187.984 42.8011C186.825 44.4007 185.395 45.783 183.758 46.8847C183.149 47.2892 182.562 47.7257 181.965 48.1515C180.905 48.9031 179.67 48.7689 178.995 47.83C178.321 46.8911 178.535 45.7797 179.551 44.9834C179.919 44.7013 180.303 44.4425 180.703 44.2084C184.827 41.7216 187.002 37.9446 187.747 33.2883C188.016 31.4153 188.172 29.5276 188.213 27.6356C188.3 25.317 188.226 22.992 188.285 20.6713C188.336 18.6593 188.54 16.658 189.176 14.729C190.048 12.0783 191.934 10.4049 194.423 9.36585C194.858 9.1785 195.369 9.13378 195.855 9.02307Z" fill="#FFA7FE"/>
        <path d="M87.4292 53.8852C87.565 51.2323 87.6838 48.5795 87.8408 45.9266C87.9278 44.4852 89.05 43.6506 90.3696 43.987C91.4304 44.2553 92.0223 45.2858 91.6001 46.3013C91.3879 46.8379 91.4091 47.3254 91.4473 47.8705C91.6149 50.3807 91.3794 52.8781 91.0718 55.3628C91.0081 55.8484 90.7586 56.2902 90.3761 56.5946C89.9937 56.8989 89.5082 57.0421 89.0225 56.9936C88.5564 56.9532 88.1214 56.7424 87.7999 56.4014C87.4785 56.0603 87.293 55.6127 87.2786 55.1435C87.2745 54.7168 87.2951 54.2903 87.3401 53.866L87.4292 53.8852Z" fill="#FFA7FE"/>
    </g>
    <defs>
        <clipPath id="clip0_763_1211">
            <rect width="302" height="57" fill="white"/>
        </clipPath>
    </defs>
</svg>
