<svg width="278" height="108" viewBox="0 0 278 108" fill="none" xmlns="http://www.w3.org/2000/svg">
    <path d="M167.261 53.1788C167.631 52.5992 167.834 52.1939 168.115 51.8527C168.938 50.8555 169.674 49.7484 170.665 48.9321C172.252 47.619 174.234 48.0682 175.224 49.8915C175.686 50.7428 175.969 51.7087 176.193 52.6514C176.932 55.7593 176.975 58.9194 176.846 62.0666C176.72 65.1185 176.437 68.1609 176.196 71.2051C176.164 71.758 176.047 72.3015 175.85 72.818C175.422 73.8508 174.436 74.2935 173.437 74.0072C172.471 73.7274 172.072 72.9831 172.162 71.8164C172.459 67.803 172.836 63.7922 172.964 59.7698C173.033 57.5781 172.931 55.3369 172.144 52.8817C171.654 53.6929 171.247 54.2814 170.926 54.917C169.731 57.3019 169.152 59.8754 168.728 62.4837C168.427 64.3527 168.231 66.241 168.008 68.1239C167.858 69.3904 167.035 70.2128 165.938 70.1388C164.771 70.0629 163.964 69.0641 164.042 67.7709C164.306 63.084 163.966 58.4079 163.4 53.7469C163.329 53.1622 163.133 52.5886 162.919 51.6901C162.453 52.3812 162.095 52.8342 161.819 53.3317C160.453 55.7833 159.635 58.4342 159.139 61.1779C158.522 64.5894 157.954 68.011 158.182 71.5174C158.204 72.0735 158.122 72.6271 157.939 73.1511C157.84 73.4891 157.632 73.7849 157.344 73.9947C157.057 74.2044 156.706 74.3168 156.344 74.3151C155.55 74.3446 154.93 73.9732 154.628 73.2725C154.404 72.7603 154.282 72.2127 154.269 71.6592C154.24 66.4879 154.729 61.3903 156.256 56.4398C156.927 54.2668 157.795 52.1612 159.084 50.273C159.623 49.4635 160.248 48.7131 160.951 48.0344C162.824 46.289 165.065 46.7435 166.139 49.0908C166.545 49.9745 166.733 50.9512 167.002 51.8899C167.105 52.2338 167.146 52.5881 167.261 53.1788Z" fill="#FED849"/>
    <path d="M9.66294 87.3431C9.99864 90.0743 10.2597 92.5928 10.6323 95.1037C10.9649 97.3387 11.4169 99.5574 11.8287 101.782C11.8945 102.14 11.9234 102.55 12.1212 102.834C12.945 104.014 12.6402 105.238 12.3615 106.435C12.2822 106.824 12.0678 107.172 11.7553 107.417C11.4428 107.663 11.0518 107.792 10.6493 107.782C10.2476 107.77 9.85891 107.626 9.54438 107.374C9.22985 107.121 9.00735 106.773 8.91191 106.385C8.69404 105.584 8.58906 104.754 8.41786 103.939C7.39075 99.0515 6.48044 94.1502 6.10009 89.1707C5.82349 85.534 5.3726 81.9111 5.15357 78.2753C4.99841 75.7093 5.04283 73.1112 5.66512 70.5895C6.27472 68.1046 7.44448 65.9681 9.66655 64.5377C12.0106 63.0309 14.3159 63.4991 15.7805 65.9075C17.5232 68.7759 17.9697 71.8846 17.2839 75.1203C16.6968 77.8903 15.4944 80.4179 14.1569 82.8835C13.61 83.8871 12.9759 84.8496 12.4136 85.8541C11.8513 86.8585 11.1625 87.5558 9.66294 87.3431ZM12.2191 67.3944C11.6009 67.9473 10.9989 68.2839 10.703 68.7953C10.1611 69.7332 9.64363 70.7366 9.39476 71.7875C8.7973 74.3037 8.87538 76.8893 9.04832 79.4683C9.12605 80.6304 9.2387 81.7905 9.33599 82.9515L9.63408 82.9808C11.3868 80.0431 13.0286 77.0475 13.6435 73.6128C14.0211 71.4982 13.5157 69.523 12.2191 67.3944Z" fill="#FED849"/>
    <path d="M271.024 53.0879C269.162 52.7815 267.696 53.2801 266.156 54.0751C266.077 54.9146 265.98 55.8248 265.93 56.7323C265.915 57.038 265.945 57.4275 266.125 57.6528C266.846 58.5442 266.685 59.4788 266.422 60.4273C266.264 61.0521 266.069 61.6669 265.84 62.269C265.541 63.0164 264.95 63.4443 264.11 63.4434C263.317 63.4413 262.627 62.9142 262.357 62.0522C262.166 61.4791 262.056 60.8842 262.03 60.2843C261.904 53.9926 262.726 47.8573 265.05 42.0037C265.498 40.8949 266.07 39.8401 266.755 38.8582C267.264 38.1459 267.904 37.5336 268.641 37.0517C270.044 36.1209 271.675 36.4957 272.527 37.9506C272.99 38.7585 273.312 39.6348 273.48 40.5427C273.822 42.3165 274.07 44.1052 274.221 45.9013C274.585 50.5109 274.889 55.1253 275.165 59.7397C275.291 61.8208 275.311 63.8937 275.348 65.9699C275.367 67.1409 274.776 67.9726 273.849 68.2005C273.051 68.3977 272.054 68.006 271.702 67.2153C271.425 66.5889 271.103 65.8397 271.211 65.2212C271.535 63.3743 271.317 61.5378 271.268 59.6975C271.214 57.5415 271.111 55.3771 271.024 53.0879ZM270.738 49.2605C270.437 46.7242 270.145 44.2473 269.851 41.7705L269.509 41.7184C268.123 44.1613 267.451 46.8669 266.82 49.7469L270.738 49.2605Z" fill="#FED849"/>
    <path d="M70.3086 78.202C71.5639 79.5785 72.8713 80.9299 74.0899 82.3669C75.2799 83.7637 76.4167 85.2095 77.4908 86.6921C77.9179 87.3056 78.2206 87.9925 78.382 88.7145C78.5918 89.616 78.155 90.2966 77.3884 90.6385C76.6797 90.9563 75.9409 90.8157 75.2988 90.2181C75.0936 90.0239 74.9142 89.8051 74.7649 89.5673C72.9399 86.6999 70.6742 84.1788 68.3144 81.7297C67.5972 80.9858 66.9014 80.2225 66.1731 79.4443C66.5422 83.3996 67.0724 87.3405 68.0975 91.2053C68.1851 91.4708 68.2557 91.7411 68.309 92.0147C68.4386 93.0224 67.8267 93.9301 66.9029 94.1286C66.0053 94.3174 65.0228 93.7149 64.7535 92.7024C64.1878 90.5449 63.5966 88.3889 63.1641 86.2061C62.4826 82.8814 62.1294 79.5057 62.1096 76.1258C62.1095 74.1324 62.3034 72.1479 62.9816 70.2664C63.2779 69.3961 63.7021 68.5746 64.241 67.8274C65.4727 66.1956 67.2902 65.9255 69.1507 66.9133C71.3224 68.0679 73.3159 71.5505 72.1586 74.4969C71.6718 75.7253 70.9746 76.8788 70.3086 78.202ZM66.3129 77.0404C66.9804 75.908 67.7218 74.812 68.2963 73.6346C68.9127 72.3712 68.5235 71.3151 67.1784 70.3352C66.151 72.4715 65.9628 74.6857 66.3129 77.0404Z" fill="#FED849"/>
    <path d="M56.2334 83.7135C56.2686 87.065 55.246 90.979 53.1925 94.6226C52.8096 95.3024 52.3855 95.9622 51.9924 96.6385C51.2941 97.8384 50.1491 97.6913 49.0078 97.5551C48.0268 97.4393 47.4878 96.8284 47.28 95.9444C45.9944 90.4865 44.1956 85.1418 43.6285 79.5496C43.5066 78.3559 43.2519 77.1667 43.2194 75.975C43.1903 75.1473 43.3211 74.3245 43.605 73.55C44.5178 71.1795 47.2462 70.1921 49.5317 71.4504C50.5144 72.0095 51.4002 72.7208 52.1541 73.5563C54.5872 76.2004 55.9194 79.3258 56.2334 83.7135ZM49.9837 91.6327L50.3726 91.6391C51.3932 89.4799 52.0766 87.207 52.2718 84.8148C52.5466 81.3822 51.4568 78.352 49.0371 75.792C48.6029 75.3313 48.1801 74.7753 47.2394 74.8578C47.1933 75.3784 47.0603 75.9122 47.116 76.43C47.2773 77.9418 47.4404 79.4592 47.7376 80.951C48.4425 84.5191 49.229 88.0799 49.9837 91.6327Z" fill="#FED849"/>
    <path d="M191.74 60.0655C190.464 60.1357 189.483 60.1715 188.499 60.2437C187.338 60.3355 187.087 60.5444 187.052 61.6716C187.006 62.9541 187.044 64.2417 187.115 65.5234C187.17 66.5312 186.604 67.3863 185.639 67.5733C185.406 67.6187 185.165 67.6179 184.931 67.571C184.696 67.524 184.473 67.4318 184.274 67.2999C184.075 67.1679 183.905 66.9988 183.772 66.8025C183.64 66.6062 183.549 66.3867 183.504 66.1569C183.31 65.2011 183.223 64.229 183.247 63.2583C183.322 59.1912 183.501 55.1281 184.33 51.1394C184.613 49.8333 184.973 48.5454 185.407 47.2821C185.63 46.6268 185.957 46.0117 186.377 45.4595C187.452 44.0479 189.23 44.0059 190.359 45.4107C190.936 46.1304 191.363 46.9952 191.727 47.8452C193.519 52.0174 194.715 56.366 195.806 60.7427C196.052 61.7344 196.289 62.7281 196.523 63.7219C196.589 63.9953 196.638 64.272 196.671 64.5504C196.827 65.8608 196.103 66.846 194.933 66.9256C193.789 67.0039 192.68 65.9647 192.522 64.7869C192.311 63.2424 192.016 61.7124 191.74 60.0655ZM190.713 56.6125C190.044 54.5941 189.404 52.6633 188.762 50.7326L188.43 50.7662C187.983 52.6856 187.609 54.6164 187.569 56.6223L190.713 56.6125Z" fill="#FED849"/>
    <path d="M116.602 77.7844C116.444 77.9507 116.276 78.1074 116.099 78.2536C114.888 79.1323 113.418 78.6925 112.916 77.2731C112.765 76.8816 112.711 76.4621 112.758 76.0493C113.297 72.6616 112.91 69.2359 113.064 65.8333C113.146 63.9987 113.246 62.1659 113.342 60.247C113.142 59.6536 112.78 58.9451 112.68 58.2069C112.51 56.9516 113.024 56.2074 114.178 55.6884C116.175 54.79 118.309 55.1515 119.941 56.6827C121.185 57.8494 121.89 59.3119 122.282 60.917C123.621 66.4142 122.816 71.6549 120.533 76.6958C119.638 78.6811 118.567 78.9296 116.602 77.7844ZM115.815 59.8293C116.623 60.4672 116.76 61.2855 116.763 62.2088C116.771 65.2431 116.84 68.2797 116.888 71.316C116.904 72.304 116.927 73.293 116.946 74.2822C117.31 74.0855 117.584 73.7616 117.714 73.3735C118.495 71.1536 118.983 68.8607 119.015 66.501C119.042 64.4745 118.913 62.444 118.07 60.5239C117.729 59.7517 117.352 59.0148 116.306 58.8106L115.815 59.8293Z" fill="#FED849"/>
    <path d="M240.042 49.7569C240.202 53.4782 239.607 57.0344 237.608 60.227C237.007 61.2101 236.253 62.0938 235.372 62.8467C232.812 64.9653 229.569 64.1559 228.338 61.0654C227.846 59.8092 227.573 58.4844 227.529 57.1469C227.437 54.245 227.404 51.3245 227.958 48.461C228.174 47.3332 228.458 46.2017 228.927 45.166C229.72 43.4248 231.135 42.8337 233.083 43.2122C233.965 43.3827 234.869 43.4865 235.724 43.7478C238.349 44.5521 239.717 46.2541 239.979 48.9263C240.007 49.2023 240.022 49.4805 240.042 49.7569ZM232.292 60.0866C233.341 59.6105 233.67 59.2702 234.414 57.9795C235.876 55.4595 236.211 52.6722 236.225 49.8342C236.23 48.213 235.63 47.6029 234.004 47.2222C233.423 47.0852 232.819 46.9999 232.125 46.8734C231.983 47.4699 231.803 47.9931 231.743 48.5306C231.612 49.7221 231.475 50.9167 231.461 52.1157C231.438 54.1452 231.491 56.1774 231.552 58.2092C231.574 58.8916 231.732 59.5734 232.29 60.0811L232.292 60.0866Z" fill="#FED849"/>
    <path d="M123.266 20.3788C123.468 24.0457 122.843 27.4721 120.304 30.3087C119.838 30.8257 119.308 31.2836 118.726 31.6721C116.297 33.279 113.615 32.7411 111.9 30.3488C110.97 29.0534 110.516 27.5714 110.33 26.0579C109.885 22.4545 110.277 18.9558 111.787 15.6371C111.883 15.4267 112.002 15.2276 112.091 15.0148C113.919 10.6601 119.591 11.73 121.463 14.5881C122.41 16.0333 122.926 17.604 123.178 19.2701C123.233 19.6369 123.238 20.0091 123.266 20.3788ZM115.573 16.2775C114.22 19.6574 113.539 23.1622 114.523 26.8685C114.642 27.3175 114.831 27.7468 115.084 28.141C115.543 28.8414 116.002 28.9683 116.59 28.3945C117.311 27.6978 118.048 26.9192 118.456 26.0289C119.614 23.5866 119.785 20.7933 118.936 18.1998C118.31 16.2194 117.957 16.0364 115.573 16.2775Z" fill="#FED849"/>
    <path d="M144.08 16.366C144.643 15.6023 145.297 14.888 145.75 14.0622C146.341 12.9754 146.778 11.8064 147.264 10.6641C147.443 10.2364 147.537 9.77998 147.734 9.36938C148.166 8.4835 149.048 8.06442 149.929 8.27345C150.84 8.49064 151.494 9.37938 151.421 10.3833C151.381 10.7964 151.291 11.2025 151.153 11.5931C148.828 18.6264 146.496 25.6564 144.157 32.6831C144.051 33.036 143.897 33.3725 143.698 33.6833C143.151 34.4836 142.199 34.7409 141.351 34.3768C140.934 34.2002 140.59 33.8872 140.379 33.492C140.168 33.0967 140.104 32.644 140.196 32.212C140.291 31.8567 140.409 31.5082 140.551 31.1689C141.723 27.7784 142.895 24.388 144.047 21.0487C143.934 20.899 143.885 20.7791 143.827 20.7656C141.789 20.4852 140.709 19.1813 140.032 17.4095C139.355 15.6376 139.248 13.7954 139.184 11.9466C139.138 11.0706 139.145 10.1936 139.204 9.32019C139.248 8.78576 139.368 8.19696 139.646 7.76381C140.304 6.7011 141.798 6.69118 142.646 7.71821C143.439 8.67862 143.773 9.83571 143.389 10.9794C142.779 12.8027 143.236 14.5059 143.7 16.2393L144.08 16.366Z" fill="#FED849"/>
    <path d="M31.1233 86.4707C29.7554 87.1305 28.6309 87.6889 27.4897 88.2148C26.951 88.4649 26.7587 88.8661 26.7349 89.4227C26.7331 90.0222 26.6734 90.6193 26.5565 91.2059C26.3233 92.1647 25.6121 92.6809 24.7493 92.6418C23.8276 92.5975 23.1279 91.9383 22.9544 90.9377C22.9228 90.8009 22.9076 90.6613 22.9089 90.5216C23.1529 86.9349 23.3003 83.3354 23.6925 79.7658C23.8712 78.1388 24.4484 76.5403 25.0033 74.9862C25.4134 73.8391 26.1348 72.8311 27.5918 72.7511C29.0488 72.6711 29.9251 73.5732 30.4948 74.6846C31.4549 76.5517 32.2539 78.4947 33.1356 80.3997C33.4455 81.0705 33.8051 81.7191 34.1315 82.382C34.2542 82.6292 34.4292 82.8903 34.4386 83.1479C34.5279 85.5526 35.6371 87.7144 36.2363 89.9976C36.3526 90.4447 36.5272 90.8899 36.5597 91.3416C36.5953 91.7387 36.4961 92.134 36.2774 92.4661C36.0587 92.7982 35.7328 93.0487 35.3502 93.1786C34.5951 93.4531 33.6454 93.2639 33.1918 92.5395C32.5869 91.5682 31.8632 90.6466 31.7949 89.3946C31.7456 88.4918 31.3965 87.6026 31.1233 86.4707ZM29.9047 82.91C29.3094 81.3618 28.9173 79.8625 28.1114 78.5311L27.7922 78.5904L27.0286 84.3906L29.9047 82.91Z" fill="#FED849"/>
    <path d="M248.352 41.9058C247.397 42.0533 246.617 42.1548 245.846 42.2962C244.696 42.5072 243.832 42.1373 243.504 41.2574C243.176 40.3775 243.661 39.3818 244.799 39.0057C245.677 38.715 246.62 38.5933 247.542 38.4436C248.042 38.3617 248.562 38.3775 249.076 38.3491C249.456 37.2576 249.666 36.0751 251.095 36.1494C252.232 36.2133 252.633 37.0808 252.869 38.0005C253.631 38.1743 254.388 38.2661 255.081 38.5272C255.467 38.6573 255.802 38.9059 256.036 39.2357C256.27 39.5656 256.39 39.959 256.379 40.3573C256.39 41.1196 256.035 41.7254 255.325 41.9957C254.92 42.1489 254.421 42.118 253.966 42.0971C253.459 42.0722 252.954 41.965 252.371 41.8831C252.254 42.2455 252.156 42.6138 252.077 42.9867C251.32 47.9012 250.59 52.8142 250.43 57.8086C250.377 58.9181 250.586 60.0289 251.039 61.0551C251.257 61.5359 251.536 61.8434 252.198 61.8696C253.578 61.9229 254.195 62.6365 254.157 63.8902C254.115 65.2331 253.142 66.2475 251.864 66.1496C251.304 66.0957 250.762 65.916 250.28 65.6244C248.147 64.3416 247.057 62.4151 246.774 60.0166C246.393 56.8174 246.705 53.651 247.107 50.4963C247.433 47.9403 247.893 45.402 248.287 42.8547C248.323 42.6286 248.32 42.3991 248.352 41.9058Z" fill="#FED849"/>
    <path d="M204.543 45.4283C204.488 46.1935 204.324 46.9229 204.403 47.6319C204.682 50.1531 204.933 52.6854 205.4 55.1794C206.032 58.5515 206.546 61.9301 206.599 65.3482C206.658 69.1331 205.428 72.489 202.714 75.2124C202.151 75.7776 201.548 76.2672 200.702 76.3392C199.816 76.4162 198.937 75.9351 198.613 75.2036C198.43 74.8207 198.391 74.3882 198.502 73.9843C198.614 73.5804 198.869 73.2319 199.221 73.0017C201.583 71.3632 202.389 68.932 202.722 66.2574C203.011 63.9411 202.573 61.6583 202.219 59.3806C201.85 57.0091 201.349 54.6561 200.961 52.2857C200.609 50.1358 200.443 47.97 200.761 45.8121C200.867 45.0874 201.08 44.3837 201.392 43.723C202.399 41.6284 204.408 41.4446 206.126 42.1266C206.995 42.4733 207.388 43.1594 207.285 43.9897C207.187 44.7865 206.621 45.2671 205.64 45.3716C205.359 45.3941 205.08 45.3985 204.543 45.4283Z" fill="#FED849"/>
    <path d="M129.344 63.9028C129.253 63.781 129.15 63.668 129.037 63.5651C127.345 62.3568 126.875 60.6525 127.139 58.7697C127.522 56.0248 128.891 53.7665 130.935 51.9102C131.211 51.6643 131.525 51.4634 131.865 51.3148C132.831 50.8898 133.777 50.9306 134.632 51.6302C135.367 52.2322 135.716 53.5176 135.419 54.4326C135.312 54.7879 135.087 55.0956 134.78 55.3066C134.473 55.5175 134.101 55.6195 133.724 55.5963C133.374 55.557 133.028 55.4949 132.686 55.4104C131.708 56.5655 131.111 57.9909 130.973 59.5003C130.897 60.3711 131.204 60.585 132.043 60.3202C132.18 60.2778 132.292 60.1937 132.425 60.1529C133.34 59.8713 134.278 60.1893 134.766 60.9482C135.253 61.7071 135.221 62.5728 134.546 63.2403C132.597 65.1706 131.97 67.6368 131.641 70.2256C131.582 70.8221 131.594 71.4246 131.676 72.0209C131.82 73.3455 132.175 73.5581 133.347 72.9813C134.117 72.6034 134.8 72.6866 135.423 73.2307C136.047 73.7748 136.196 74.4704 135.931 75.2501C135.552 76.3644 134.736 76.9856 133.601 77.1778C131.863 77.462 130.345 76.9577 129.149 75.6357C128.193 74.5759 127.804 73.294 127.746 71.9285C127.644 69.6154 128.023 67.3143 128.86 65.1676C129.009 64.7448 129.175 64.3239 129.344 63.9028Z" fill="#FED849"/>
    <path d="M94.138 15.471C93.7656 16.672 94.0018 17.7585 94.2664 18.8309C95.067 22.0632 95.9145 25.2844 96.6763 28.523C97.239 30.912 97.627 33.3261 97.3452 35.7872C97.0388 38.4457 95.7504 40.3247 93.0957 41.1591C91.725 41.5885 90.5263 41.0643 90.1568 39.8448C89.7874 38.6253 90.5985 37.3457 92.0268 37.2022C92.9178 37.1137 93.3252 36.6504 93.3725 35.9262C93.4618 34.5574 93.6152 33.1462 93.3746 31.811C92.8991 29.1808 92.1829 26.5945 91.5507 23.9882C90.9948 21.6919 90.3127 19.4151 90.3122 17.0435C90.3123 16.137 90.3837 15.1891 90.6556 14.3357C91.2591 12.4489 92.9943 11.5641 94.953 12.0112C96.1324 12.2751 96.8628 13.0658 96.769 13.9761C96.6676 14.9549 95.9476 15.4579 94.6537 15.4464C94.5173 15.4415 94.3824 15.4574 94.138 15.471Z" fill="#FED849"/>
    <path d="M84.9184 75.6355C84.5332 75.4646 84.1276 75.3227 83.761 75.116C81.7193 73.9617 81.0683 72.1667 81.4757 69.7355C81.9177 67.1047 83.349 64.961 85.4139 63.2626C85.882 62.8855 86.4198 62.5998 86.9991 62.4204C87.9319 62.1309 88.9788 62.6885 89.326 63.5451C89.6943 64.4562 89.3008 65.3481 88.3221 65.8185C86.7001 66.6041 85.0444 69.3256 85.1974 70.9949C85.2516 71.6059 85.6388 71.9173 86.2284 71.9251C86.597 71.9312 86.9634 71.8135 87.3315 71.7556C89.2178 71.4566 90.3734 72.7851 89.663 74.5341C89.1064 75.9153 88.6279 77.2993 88.7277 78.8058C88.7649 79.7179 88.8968 80.6255 89.1213 81.5144C89.4512 82.6894 89.7149 82.8071 91.0308 82.8709C92.658 82.951 93.6475 84.3305 92.9447 85.6126C92.7198 86.0085 92.3674 86.3185 91.9416 86.495C89.9413 87.2208 87.9612 86.6241 86.6276 84.9225C85.6246 83.6668 85.0408 82.1413 84.9578 80.5593C84.8749 78.9572 84.9276 77.3503 84.9184 75.6355Z" fill="#FED849"/>
    <path d="M219.89 60.7723C220.016 60.8022 220.142 60.8258 220.27 60.8431C221.689 60.9275 222.358 61.4402 222.459 62.5048C222.566 63.6581 221.673 64.7748 220.484 64.9645C219.594 65.1111 218.82 64.8227 218.1 64.3225C216.802 63.4201 216.05 62.1341 215.595 60.6967C215.106 59.192 214.914 57.6139 215.028 56.048C215.201 53.8048 215.266 51.5468 215.539 49.3176C215.76 47.5283 216.345 45.8246 217.538 44.3976C218.433 43.3281 219.574 42.8043 220.996 43.0235C222.485 43.2515 223.182 44.7841 222.26 45.7995C221.975 46.0955 221.599 46.2919 221.188 46.3597C220.476 46.4618 220.096 46.8655 219.914 47.467C219.653 48.3442 219.339 49.2314 219.265 50.1358C219.072 52.4705 218.953 54.815 218.892 57.1591C218.862 58.4077 219.114 59.6365 219.89 60.7723Z" fill="#FED849"/>
</svg>