<svg width="148" height="285" viewBox="0 0 148 285" fill="none" xmlns="http://www.w3.org/2000/svg">
    <path d="M5.44046 44.6512C4.21189 42.7003 3.16534 40.7754 3.16534 38.5188C3.16534 37.358 3.16534 36.0736 3.61386 35.0558C6.17825 29.3656 10.3125 25.4215 16.6146 24.1533C18.8367 23.7285 21.1365 24.0271 23.1767 25.0052C24.5919 25.6363 25.7078 26.7912 26.2903 28.2276C27.0931 30.1102 26.6706 31.128 24.7465 31.9896C24.7075 32.1002 24.623 32.2172 24.636 32.3148C25.0195 35.1306 24.025 37.5661 22.4259 39.7609C21.3408 41.3028 20.1239 42.7476 18.7889 44.0789C16.166 46.6119 13.0751 48.0329 9.21066 47.2135C8.44687 48.293 7.73508 49.366 6.95829 50.387C6.10568 51.591 5.17408 52.737 4.16964 53.8174C3.91822 54.0903 3.60392 54.2975 3.25412 54.421C2.90433 54.5445 2.52965 54.5806 2.16272 54.5261C1.7958 54.4716 1.44776 54.3282 1.14892 54.1083C0.85009 53.8884 0.609526 53.5988 0.448188 53.2646C-0.0685898 52.2534 0.123171 51.1869 1.17298 50.2472C2.96383 48.6507 4.07214 46.5729 5.44046 44.6512ZM8.29086 40.4242C8.83039 39.5203 9.19766 38.8797 9.59094 38.2586C10.2995 37.1531 11.2713 36.7564 12.2626 37.1466C13.2539 37.5368 13.7707 38.5708 13.4716 39.7934C13.2311 40.7689 12.7729 41.7151 12.3698 42.7783C12.8438 42.6454 13.3041 42.468 13.7447 42.2483C16.6113 40.5022 18.5907 37.979 19.92 34.9453C20.1623 34.3455 20.2277 33.6887 20.1085 33.0529C19.8127 31.5019 19.3675 29.9834 18.9904 28.4714C14.4727 28.5722 9.16516 32.4546 7.81634 36.5711C7.40682 37.8229 7.61808 38.9577 8.29737 40.4372L8.29086 40.4242Z" fill="#FED849"/>
    <path d="M8.26474 0.348589C13.0555 0.455891 17.9113 1.56468 22.728 3.05389C34.7829 6.81271 46.2626 11.8104 56.8549 18.6874C60.1051 20.801 63.1797 23.2169 66.3194 25.5157C66.7025 25.7904 67.0441 26.119 67.3335 26.4912C67.6308 26.8628 67.7979 27.3218 67.809 27.7976C67.8202 28.2735 67.6748 28.7398 67.3952 29.125C67.1264 29.5198 66.734 29.8139 66.2797 29.9611C65.8255 30.1083 65.3352 30.1001 64.8861 29.9379C64.1845 29.6396 63.5281 29.2444 62.936 28.764C61.1289 27.3529 59.4518 25.7563 57.5569 24.4752C44.7415 15.8065 30.7397 9.72611 15.7954 5.79171C12.9482 5.0165 10.0157 4.59818 7.06542 4.54636C5.54434 4.54636 4.40353 3.50911 4.46528 2.27027C4.52704 1.03142 5.57034 0.238036 7.12068 0.264049C7.41319 0.264049 7.70896 0.306319 8.26474 0.348589Z" fill="#FED849"/>
    <path d="M113.603 147.781C110.983 148.448 110.473 149.426 111.448 151.745C112.02 153.254 113.167 154.476 114.636 155.143C115.233 155.397 115.799 155.715 116.326 156.092C116.732 156.395 117.019 156.83 117.138 157.322C117.257 157.815 117.2 158.333 116.976 158.788C116.749 159.21 116.396 159.551 115.966 159.765C115.537 159.979 115.052 160.054 114.578 159.981C110.323 159.331 105.942 153.501 106.478 149.205C106.755 147.001 107.84 145.287 109.839 144.328C110.94 143.763 112.127 143.386 113.352 143.213C117.873 142.679 122.323 143.053 126.529 144.923C127.759 145.491 128.914 146.21 129.967 147.063C130.693 147.666 131.293 148.406 131.732 149.241C132.938 151.462 132.119 153.634 129.782 154.6C127.744 155.439 125.602 155.4 123.509 154.974C119.456 154.151 116.183 152.096 114.038 148.47C113.928 148.243 113.772 148.058 113.603 147.781ZM119.056 147.745C121.114 149.992 124.907 151.195 126.737 150.278C124.845 148.77 121.991 147.807 119.04 147.745H119.056Z" fill="#FED849"/>
    <path d="M60.9793 64.7427C58.4409 66.0434 57.8981 68.5406 59.6792 70.5956C59.9425 70.8947 60.4787 70.9988 60.9078 71.1028C62.0551 71.3824 62.6986 71.9515 62.8319 72.8879C62.9651 73.8244 62.4126 74.7901 61.3758 75.2811C59.962 75.9542 58.2719 75.6225 56.9686 74.4194C52.6296 70.42 53.3934 63.6177 58.5936 60.8279C59.8422 60.1649 61.1704 59.6644 62.5459 59.3386C66.2478 58.4412 69.9953 58.1551 73.7492 59.0883C75.2554 59.425 76.637 60.1775 77.7372 61.2603C79.7165 63.2568 79.528 65.6792 77.2302 67.2887C74.3992 69.2722 71.2726 69.2754 68.0679 68.5016C65.9715 67.9976 64.1319 66.9473 62.3736 65.7312C61.8958 65.4028 61.4213 65.0614 60.9793 64.7427ZM66.8003 63.2535C69.2965 64.6647 72.0006 64.8468 73.5737 63.803C71.4513 63.0194 69.368 62.8536 66.8003 63.2535Z" fill="#FED849"/>
    <path d="M118.107 271.484C117.408 271.109 116.686 270.777 115.946 270.489C114.646 270.066 113.547 270.59 113.167 271.9C112.939 272.686 112.895 273.513 113.037 274.319C113.3 275.701 113.778 277.044 114.165 278.4C114.315 278.846 114.439 279.301 114.535 279.762C114.639 280.288 114.552 280.833 114.289 281.3C114.026 281.767 113.605 282.125 113.102 282.308C112.046 282.669 110.876 282.308 110.414 281.196C108.75 277.216 107.535 273.158 109.68 268.954C110.707 266.938 112.527 265.982 114.704 265.865C115.76 265.862 116.808 266.036 117.805 266.382C118.751 266.675 119.563 267.032 120.639 266.639C121.715 266.245 122.992 267.205 122.95 268.437C122.908 269.669 123.6 270.235 124.283 270.954C126.317 273.136 128.115 275.483 128.531 278.533C128.699 279.69 128.624 280.87 128.31 281.996C127.738 283.901 125.833 284.724 123.906 284.155C122.657 283.755 121.574 282.955 120.825 281.879C119.148 279.649 118.202 276.955 118.114 274.166C118.072 273.305 118.107 272.42 118.107 271.484Z" fill="#FED849"/>
    <path d="M84.1854 104.012C83.1681 103.836 81.7315 103.745 80.4022 103.326C76.6645 102.145 75.4782 98.2044 77.9093 95.1252C78.5384 94.3488 79.2865 93.6771 80.1259 93.1352C83.6654 90.8201 87.6014 89.7536 91.8103 89.6365C93.1949 89.5975 94.4885 89.8804 95.5935 90.8169C95.921 91.0396 96.2983 91.1781 96.6921 91.2201C97.2711 91.324 97.8209 91.5511 98.3045 91.8862C98.788 92.2212 99.1939 92.6563 99.4947 93.162C99.7956 93.6677 99.9842 94.2321 100.048 94.8171C100.112 95.4021 100.049 95.994 99.8643 96.5526C99.4255 97.8955 98.5219 98.8872 97.4299 99.7294C94.4105 102.054 90.962 103.306 87.2113 103.755C86.3338 103.865 85.453 103.908 84.1854 104.012ZM95.2555 95.3951C94.2805 94.9008 93.4549 94.4391 92.5904 94.0619C92.2137 93.9045 91.8033 93.8453 91.3976 93.8896C88.1961 94.27 85.1702 95.1902 82.4726 96.9948C81.933 97.3558 81.5593 97.954 81.0782 98.4775C84.5137 100.617 92.7204 98.6922 95.2555 95.3951Z" fill="#FED849"/>
    <path d="M124.185 225.422C124.722 224.216 125.216 223.113 125.729 221.962C124.431 221.149 122.972 220.626 121.452 220.431C119.973 220.262 119.193 219.553 119.219 218.447C119.245 217.342 120.22 216.461 121.667 216.402C122.254 216.356 122.845 216.402 123.418 216.539C128.762 218.077 133.647 220.47 137.615 224.456C138.409 225.242 139.068 226.152 139.565 227.152C140.739 229.571 139.335 231.958 136.64 232.029C134.699 232.084 132.758 231.935 130.848 231.584C127.205 230.898 123.594 230.026 119.986 229.168C118.127 228.729 117.344 227.126 118.189 225.728C118.709 224.873 119.635 224.505 120.789 224.73C121.907 224.947 122.989 225.175 124.185 225.422ZM128.378 226.547L133.754 227.477L133.949 227.012L129.529 223.793L128.378 226.547Z" fill="#FED849"/>
    <path d="M131.154 210.936C128.81 210.631 126.344 209.766 123.701 210.075C123.409 210.117 123.111 210.099 122.825 210.023C122.539 209.947 122.272 209.814 122.039 209.632C121.807 209.449 121.613 209.222 121.471 208.962C121.329 208.703 121.241 208.418 121.212 208.124C121.091 206.969 121.862 206.02 123.129 205.779C123.477 205.71 123.831 205.683 124.185 205.701C128.307 205.968 132.405 206.4 136.387 207.571C138.993 208.337 141.438 209.572 143.602 211.216C145.218 212.438 146.399 214.148 146.969 216.093C147.687 218.395 146.989 220.301 144.844 221.966C142.848 223.517 141.307 223.634 139.149 222.343C136.963 221.025 135.18 219.132 133.994 216.87C133 214.994 132.168 213.047 131.154 210.936ZM137.261 212.936C138.021 215.15 139.253 216.981 141.2 218.262C141.341 218.337 141.499 218.377 141.658 218.377C141.818 218.377 141.976 218.337 142.117 218.262C142.388 217.992 142.542 217.627 142.546 217.244C142.494 216.837 142.335 216.451 142.084 216.126C140.937 214.432 139.175 213.606 137.271 212.936H137.261Z" fill="#FED849"/>
    <path d="M127.747 171.706C128.768 172.389 129.824 173.033 130.809 173.765C132.548 175.065 133.906 176.672 134.553 178.779C134.743 179.394 134.821 180.038 134.784 180.681C134.75 181.127 134.568 181.549 134.267 181.88C133.966 182.211 133.564 182.432 133.123 182.508C132.692 182.607 132.241 182.569 131.833 182.398C131.425 182.228 131.081 181.935 130.848 181.559C130.709 181.367 130.606 181.153 130.543 180.925C130.035 178.727 128.466 177.429 126.642 176.356C123.493 174.499 120.028 173.618 116.437 173.144C115.738 173.049 115.026 173.017 114.334 172.887C113.07 172.646 112.384 171.875 112.384 170.747C112.384 169.619 113.034 168.796 114.279 168.546C115.722 168.273 117.188 168.104 118.65 167.951C121.988 167.603 125.326 167.252 128.674 166.998C129.91 166.952 131.147 167.002 132.376 167.148C133.848 167.265 134.752 168.123 134.713 169.287C134.67 170.529 133.412 171.459 131.927 171.417C130.536 171.378 129.145 171.417 127.751 171.417L127.747 171.706Z" fill="#FED849"/>
    <path d="M30.7623 49.6879C31.5489 49.34 32.3874 49.0961 33.1089 48.6279C35.8066 46.833 38.462 44.9731 41.1271 43.1295C41.6808 42.6903 42.2592 42.2831 42.8595 41.9101C43.3259 41.643 43.8743 41.557 44.4 41.6686C44.9257 41.7801 45.392 42.0814 45.7099 42.5149C46.3827 43.4189 46.3014 44.4984 45.4304 45.3991C45.0147 45.8179 44.5598 46.1957 44.0718 46.5274C41.1694 48.5466 38.3125 50.6438 35.3191 52.5168C33.9526 53.3277 32.4628 53.9098 30.9086 54.2401C30.3335 54.392 29.7315 54.4116 29.1477 54.2975C28.5639 54.1834 28.0136 53.9385 27.5379 53.5812C27.0622 53.2239 26.6736 52.7635 26.4012 52.2345C26.1288 51.7055 25.9797 51.1217 25.9651 50.5268C25.8885 49.177 26.1185 47.8275 26.6378 46.5794C27.6477 44.452 28.7874 42.3888 30.0505 40.4014C30.7786 39.1951 31.6756 38.0928 32.5109 36.945C33.3462 35.7972 34.3538 35.4363 35.3711 35.9988C36.4664 36.6003 36.7816 37.7481 36.1446 39.0455C35.8878 39.5723 35.4946 40.021 35.1923 40.5315C33.8272 42.8076 32.4492 45.0837 31.1361 47.3598C30.8111 47.9483 30.6713 48.6604 30.4471 49.3107L30.7623 49.6879Z" fill="#FED849"/>
    <path d="M106.173 136.241C103.419 136.126 100.733 135.345 98.3465 133.965C98.0901 133.821 97.8513 133.647 97.6347 133.448C96.7279 132.57 96.6011 131.348 97.2934 130.408C97.9434 129.517 99.0258 129.283 100.141 129.797C101.047 130.216 101.928 130.701 102.854 131.062C105.565 132.105 108.188 131.803 110.674 130.369C111.896 129.66 113.06 128.854 114.233 128.064C115.729 127.004 117.424 126.257 119.216 125.869C120.372 125.615 121.568 125.602 122.729 125.829C123.891 126.056 124.994 126.519 125.97 127.189C127.254 128.057 128.06 129.267 128.004 130.892C127.965 132.148 127.237 133.045 126.207 133.185C125.177 133.325 124.458 132.879 124.055 131.559C123.808 130.762 123.34 130.447 122.609 130.216C121.985 130.029 121.329 129.971 120.682 130.046C120.035 130.121 119.41 130.327 118.845 130.652C117.503 131.38 116.201 132.18 114.945 133.048C112.507 134.674 109.933 135.913 106.963 136.15C106.66 136.179 106.368 136.225 106.173 136.241Z" fill="#FED849"/>
    <path d="M132.405 257.174C132.723 256.582 133.073 256.008 133.452 255.454C133.729 255.065 134.134 254.787 134.596 254.668C135.058 254.549 135.547 254.597 135.977 254.803C136.829 255.226 137.222 256.156 136.952 257.213C136.793 257.719 136.601 258.214 136.377 258.695C136.243 258.952 136.173 259.237 136.173 259.526C136.173 259.815 136.243 260.1 136.377 260.357C137.219 262.08 136.838 262.874 135.028 263.586C134.869 263.651 134.703 263.726 134.514 263.813C134.15 264.922 133.838 266.063 133.403 267.149C132.889 268.418 131.869 268.957 130.76 268.684C129.415 268.359 128.771 267.127 129.2 265.631C129.412 264.896 129.694 264.181 129.951 263.459C130.185 262.809 130.429 262.135 130.689 261.42C130.475 261.204 130.238 261.011 129.984 260.845C126.64 259.236 123.293 257.635 119.941 256.042C118.829 255.48 117.572 255.275 116.339 255.454C114.929 255.665 114.025 255.015 113.798 253.864C113.557 252.638 114.181 251.587 115.475 251.116C117.184 250.495 118.881 250.765 120.483 251.441C123.139 252.56 125.758 253.776 128.372 255.018C129.434 255.519 130.429 256.166 131.459 256.738C131.739 256.891 132.061 257.014 132.405 257.174Z" fill="#FED849"/>
    <path d="M78.5822 79.4496C79.9245 79.9894 81.0328 80.3568 82.0696 80.8673C83.2915 81.4476 84.4719 82.1114 85.6026 82.854C86.9546 83.7644 87.2731 85.1301 86.5354 86.1934C85.7976 87.2566 84.6275 87.3314 83.2104 86.6323C81.3156 85.6959 79.4337 84.7171 77.4674 83.9563C74.6267 82.8573 71.682 83.1304 68.7439 83.6311C68.1133 83.7412 67.4679 83.7357 66.8393 83.6149C66.4271 83.5417 66.0494 83.3378 65.762 83.0333C65.4746 82.7288 65.2928 82.3399 65.2434 81.924C65.1431 81.5186 65.1673 81.0922 65.3128 80.7007C65.4584 80.3092 65.7185 79.9706 66.0592 79.7292C66.5879 79.3574 67.1626 79.0558 67.7688 78.8318C71.5195 77.4271 75.2832 76.0647 79.0372 74.6698C79.8627 74.3642 80.6623 74 81.4716 73.6456C82.5149 73.1903 83.3827 73.3497 84.0035 74.1365C84.3199 74.5333 84.4785 75.0332 84.4485 75.5399C84.4184 76.0466 84.202 76.5243 83.841 76.8809C83.3608 77.3098 82.8113 77.654 82.2159 77.8986C81.1011 78.4221 79.9602 78.8708 78.5822 79.4496Z" fill="#FED849"/>
    <path d="M136.182 242.639C136.578 244.444 136.978 246.157 137.323 247.881C137.411 248.341 137.411 248.815 137.323 249.276C137.239 249.713 137.02 250.113 136.696 250.418C136.372 250.724 135.96 250.919 135.518 250.977C135.077 251.034 134.629 250.951 134.237 250.739C133.846 250.527 133.531 250.197 133.338 249.796C133.144 249.307 133.001 248.799 132.912 248.281C132.565 246.853 132.337 245.387 131.859 244.008C131.578 243.079 131.043 242.248 130.316 241.606C129.589 240.964 128.697 240.537 127.741 240.373C124.979 239.797 122.255 239.053 119.515 238.373C118.981 238.24 118.513 237.917 118.198 237.465C117.884 237.012 117.744 236.461 117.804 235.914C117.865 235.366 118.122 234.859 118.528 234.487C118.934 234.114 119.462 233.902 120.012 233.889C120.893 233.935 121.766 234.083 122.612 234.331C126.584 235.424 130.549 236.549 134.511 237.68C135.079 237.837 135.625 238.064 136.136 238.357C137.898 239.41 138.005 240.981 136.461 242.343C136.361 242.435 136.268 242.534 136.182 242.639Z" fill="#FED849"/>
    <path d="M40.8154 60.4181C40.9486 59.7027 41.2336 59.0242 41.6514 58.4285C42.0691 57.8327 42.6097 57.3337 43.2368 56.9649C44.9334 55.9341 46.2497 54.536 47.6343 53.1931C49.0676 51.7981 50.4327 50.3317 51.8303 48.8977C52.0633 48.6337 52.3141 48.386 52.5811 48.1564C53.5074 47.4443 54.5539 47.4475 55.321 48.1564C56.088 48.8652 56.2375 49.8309 55.5062 50.8519C54.8866 51.7029 54.2078 52.5092 53.4749 53.2646C50.8292 56.0241 48.163 58.7652 45.4762 61.4878C44.9916 61.9975 44.4119 62.4073 43.7698 62.6942C42.3528 63.2924 40.8479 62.2129 40.8154 60.4181Z" fill="#FED849"/>
    <path d="M59.3251 45.3892C58.09 45.3405 56.7867 44.0138 56.8322 42.853C56.8454 42.5884 56.9123 42.3292 57.0289 42.0913C57.1454 41.8534 57.3092 41.6417 57.5102 41.4692C57.7113 41.2967 57.9453 41.1669 58.1981 41.0879C58.4509 41.0088 58.7171 40.9821 58.9806 41.0094C60.2416 41.0972 61.467 42.4368 61.3727 43.6106C61.3287 44.1149 61.0906 44.5824 60.7085 44.9143C60.3264 45.2462 59.8304 45.4165 59.3251 45.3892Z" fill="#FED849"/>
</svg>
