<svg width="292" height="94" viewBox="0 0 292 94" fill="none" xmlns="http://www.w3.org/2000/svg">
    <g clip-path="url(#clip0_813_1234)">
        <path d="M125.785 25.2773C123.29 26.9773 121.806 28.6711 120.895 30.6616C118.856 35.1434 116.635 39.6128 115.282 44.3171C113.292 51.1974 111.995 58.2756 110.386 65.2671C110.06 67.0289 109.618 68.7676 109.063 70.4722C108.756 71.4487 108.103 72.2829 107.226 72.822C106.349 73.3612 105.305 73.5694 104.286 73.4085C103.253 73.3065 102.3 72.8102 101.629 72.0245C100.959 71.2388 100.623 70.2254 100.693 69.1987C100.693 64.6057 100.849 60.0065 101.105 55.4196C101.566 47.136 102.146 38.8648 102.658 30.5874C102.714 29.6972 102.658 28.8071 102.658 27.0947C101.973 27.8631 101.334 28.6702 100.743 29.5118C97.1254 35.6626 94.8613 42.3637 92.7282 49.108C91.2749 53.7072 89.884 58.3312 88.6117 62.9799C88.1922 64.6975 87.9621 66.4552 87.9256 68.222C87.8133 70.6947 85.6615 73.3034 83.2352 73.6929C82.6442 73.7642 82.0446 73.7096 81.4766 73.5329C80.9085 73.3562 80.3851 73.0614 79.9411 72.6682C79.4972 72.2751 79.143 71.7925 78.9022 71.2528C78.6614 70.7132 78.5396 70.1288 78.5448 69.5387C78.5652 69.0908 78.6385 68.6468 78.7631 68.2158C81.626 56.3283 84.3766 44.3789 89.3664 33.1528C91.4085 28.7868 93.7834 24.5813 96.4705 20.5729C97.7608 18.7298 99.4108 17.1617 101.323 15.9613C104.984 13.5257 108.945 14.8733 110.23 19.0522C110.972 21.4693 110.922 24.1275 111.215 26.6743C111.284 27.2925 111.278 27.9416 111.34 29.382C112.357 27.8365 112.962 26.9649 113.517 26.0685C115.388 23.0766 117.546 20.3566 120.477 18.3351C125.542 14.8548 130.794 16.2828 133.339 21.8649C134.904 25.2896 135.285 28.9801 135.459 32.6954C136.033 45.3371 134.018 57.7316 131.829 70.1075C131.517 71.8755 131.205 73.6373 130.856 75.4053C130.775 75.8442 130.756 76.3016 130.644 76.7343C129.958 79.4296 127.837 81.0616 125.579 80.6907C123.134 80.2703 121.575 77.915 122.024 75.0343C122.461 72.2711 123.128 69.5387 123.615 66.7817C125.617 55.5061 127.357 44.1997 126.733 32.6892C126.615 30.4267 126.153 28.158 125.785 25.2773Z" fill="#FFA7FE"/>
        <path d="M163.015 62.7388H155.112C154.246 67.0227 153.241 71.1398 152.618 75.3249C151.925 80.1899 151.582 85.1044 151.152 90.0004C150.965 92.164 149.992 93.524 148.114 93.9134C147.218 94.1156 146.278 93.9785 145.478 93.5291C144.678 93.0796 144.077 92.3502 143.792 91.484C143.283 90.1255 143.029 88.6862 143.044 87.2371C143.175 78.9165 144.509 70.738 146.293 62.6213C148.127 54.2883 150.266 46.0418 153.778 38.2219C155.054 35.4772 156.487 32.8065 158.069 30.2227C158.783 29.0827 159.676 28.0623 160.713 27.1998C163.963 24.3994 168.267 25.0238 170.107 28.8627C171.304 31.2734 171.979 33.9053 172.09 36.5899C172.177 45.4298 172.003 54.2821 171.635 63.1159C171.379 69.2605 170.662 75.3929 170.113 81.5314C170.023 82.5355 169.828 83.5278 169.533 84.4924C168.678 87.2742 166.296 88.7393 163.919 88.0284C163.289 87.845 162.702 87.5376 162.195 87.1245C161.687 86.7114 161.268 86.2012 160.964 85.6242C160.659 85.0472 160.475 84.4153 160.422 83.7663C160.37 83.1173 160.45 82.4644 160.657 81.8466C162.734 75.6958 162.167 69.2729 163.015 62.7388ZM163.676 39.248L163.003 38.9451C160.452 43.7731 158.774 48.9163 157.246 54.6283L163.676 54.0101V39.248Z" fill="#FFA7FE"/>
        <path d="M28.1298 8.33282C23.4769 11.4237 21.1067 15.5469 21.3063 20.6964C21.506 25.1684 22.1178 29.6131 23.1338 33.9748C24.8054 41.3249 26.0653 48.6936 25.5726 56.2539C25.2965 61.0822 24.092 65.8137 22.0236 70.1938C20.7331 73.091 18.6284 75.559 15.9611 77.3028C12.9048 79.2192 9.75507 81.0119 6.56163 82.6933C4.25387 83.9297 2.08333 83.4042 0.792238 81.6486C-0.498859 79.893 -0.180763 77.2905 1.62178 75.5472C2.0371 75.1681 2.48589 74.8268 2.96278 74.5272C3.24671 74.3431 3.55535 74.1995 3.87964 74.1007C13.329 71.1891 16.591 64.0986 17.0463 55.067C17.2405 49.7925 16.6969 44.5167 15.4309 39.39C13.9652 33.0537 12.1751 26.7483 12.5181 20.1585C12.9735 11.5041 17.1212 5.03175 24.899 1.04451C26.5248 0.292412 28.3078 -0.06568 30.1008 -0.000208747C32.4709 0.0368819 34.024 1.59469 34.7787 3.80158C35.0814 4.53744 35.1564 5.34591 34.9943 6.12416C34.8321 6.90242 34.4401 7.61528 33.868 8.17209C32.6206 9.40845 31.1736 9.75463 29.5332 8.90154C29.1402 8.69754 28.6912 8.56773 28.1298 8.33282Z" fill="#FFA7FE"/>
        <path d="M202.284 28.3002C201.567 33.3321 200.781 38.191 200.22 43.0499C199.79 46.8269 199.596 50.6349 199.372 54.4367C199.06 59.7901 200.201 64.9024 202.172 69.8911C202.62 70.9184 202.973 71.984 203.226 73.0747C203.397 73.9636 203.267 74.8833 202.858 75.6921C202.449 76.5009 201.783 77.1539 200.962 77.5503C200.152 77.9751 199.218 78.1056 198.322 77.9193C197.425 77.733 196.623 77.2416 196.053 76.5303C195.422 75.7436 194.911 74.8687 194.538 73.934C190.92 65.8359 189.966 57.3298 190.889 48.5888C191.513 42.6852 192.417 36.8125 193.166 30.9213C193.217 30.0483 193.217 29.1731 193.166 28.3002C191.444 28.6711 189.941 29.042 188.419 29.314C185.987 29.7591 184.203 28.8256 183.498 26.8413C182.831 24.9249 183.729 22.9406 186.124 22.106C188.881 21.1355 191.775 20.5606 195.118 19.6828C195.349 18.5763 195.673 17.0803 195.985 15.5781C196.129 14.585 196.337 13.6021 196.609 12.6356C197.351 10.5152 199.147 9.34069 200.975 9.6436C202.989 9.98978 204.393 11.7269 204.311 14.0759C204.255 15.7388 203.937 17.3955 203.688 19.281C206.557 20.3566 210.262 21.0119 209.339 25.302C208.578 28.9864 205.334 28.4733 202.284 28.3002Z" fill="#FFA7FE"/>
        <path d="M225.393 53.0149C220.341 47.711 219.642 42.8706 222.998 36.3983C225.838 30.829 230.601 26.4551 236.42 24.0719C237.66 23.5276 238.981 23.1872 240.331 23.0642C241.357 22.9444 242.393 23.2007 243.242 23.7848C244.091 24.3689 244.695 25.2405 244.94 26.2355C245.352 28.2198 244.204 29.9446 241.709 30.6369C236.651 31.9969 233.314 35.3103 230.919 39.7179C230.395 40.7124 230.011 41.7731 229.778 42.8706C229.322 44.923 230.189 46.147 232.273 46.3881C233.27 46.4993 234.306 46.283 235.323 46.3015C237.817 46.3015 239.614 47.6986 240.044 49.8437C240.238 50.8489 240.047 51.8895 239.508 52.7627C238.97 53.6358 238.122 54.2789 237.131 54.5665C233.015 55.8894 231.948 59.2585 231.075 62.8007C230.595 64.7479 231.736 66.009 233.364 66.8559C236.248 68.4611 239.56 69.1474 242.851 68.8217C243.632 68.6894 244.422 68.615 245.215 68.5992C246.244 68.6224 247.233 68.9967 248.016 69.6589C248.799 70.321 249.327 71.2306 249.512 72.234C249.65 73.1861 249.456 74.1562 248.963 74.9845C248.47 75.8128 247.707 76.4496 246.799 76.79C245.968 77.1449 245.086 77.3682 244.186 77.4515C238.96 77.9406 233.707 76.8524 229.117 74.3297C223.428 71.2388 221.158 66.0214 222.879 59.8272C223.503 57.5771 224.489 55.4258 225.393 53.0149Z" fill="#FFA7FE"/>
        <path d="M54.3508 50.7586C55.2676 49.1451 56.0785 48.0633 56.5338 46.8517C58.6357 41.2881 60.6441 35.7245 62.6774 30.1609C62.9358 29.191 63.2694 28.2424 63.6753 27.3235C64.101 26.5222 64.7843 25.8845 65.617 25.5117C66.4497 25.1388 67.3841 25.052 68.2722 25.265C69.1626 25.4695 69.9615 25.9561 70.5479 26.651C71.1343 27.346 71.4762 28.2114 71.5217 29.1162C71.5819 29.896 71.506 30.6802 71.2972 31.4344C69.2327 38.5125 67.0621 45.603 63.4945 52.1495C62.5052 54.0382 61.2906 55.8023 59.8769 57.404C56.3841 61.2305 51.8621 61.1131 48.4254 57.2556C44.7767 53.1447 43.6041 48.1128 43.9846 42.8521C44.365 37.7212 45.232 32.6274 46.0553 27.5399C46.548 24.449 48.3194 22.7675 50.5149 22.9901C52.9474 23.2312 54.2572 25.3391 53.9329 28.5537C53.5212 32.3431 52.9224 36.1078 52.6168 39.9034C52.3486 43.3714 52.2301 46.8641 54.3508 50.7586Z" fill="#FFA7FE"/>
        <path d="M292 5.44003C291.671 6.97193 291.422 8.51936 291.251 10.0764C290.74 17.8839 290.31 25.7039 289.848 33.5176C289.68 36.4231 289.586 39.3347 289.293 42.2277C289.168 43.4447 288.797 44.6243 288.201 45.6957C287.771 46.4283 287.097 46.9895 286.294 47.2829C285.492 47.5762 284.611 47.5833 283.804 47.303C282.974 47.0872 282.248 46.5869 281.755 45.8909C281.262 45.195 281.033 44.3483 281.11 43.5012C281.316 34.7787 281.422 26.0501 281.808 17.3399C281.995 13.1054 282.725 8.88946 283.224 4.67349C283.286 4.34452 283.378 4.02175 283.499 3.70914C284.297 1.11898 286.249 -0.302831 288.426 0.111348C290.603 0.525526 292.062 2.47278 292 5.44003Z" fill="#FFA7FE"/>
        <path d="M285.177 65.4402C283.987 65.4101 282.854 64.9261 282.015 64.0888C281.176 63.2516 280.696 62.1258 280.673 60.946C280.645 59.9888 280.992 59.0578 281.641 58.3481C282.289 57.6383 283.19 57.2047 284.154 57.1381C286.487 56.9897 288.9 59.413 288.844 61.8548C288.828 62.8092 288.435 63.7192 287.749 64.3896C287.063 65.0599 286.14 65.4371 285.177 65.4402Z" fill="#FFA7FE"/>
    </g>
    <defs>
        <clipPath id="clip0_813_1234">
            <rect width="292" height="94" fill="white"/>
        </clipPath>
    </defs>
</svg>
