<svg width="221" height="27" viewBox="0 0 221 27" fill="none" xmlns="http://www.w3.org/2000/svg">
    <g clip-path="url(#clip0_763_1228)">
        <path d="M6.93402 17.2176C5.47448 17.1548 4.01395 17.1152 2.55601 17.0152C2.08604 16.9856 1.62566 16.8703 1.19846 16.6751C0.803843 16.4947 0.482655 16.1887 0.287013 15.8068C0.0913702 15.4249 0.0327521 14.9895 0.120669 14.5712C0.178057 14.1704 0.369393 13.7998 0.664641 13.5176C0.959889 13.2354 1.34233 13.0577 1.75194 13.0123C2.73542 12.927 3.72354 12.9035 4.71027 12.9418C6.6042 12.9885 8.49273 13.1605 10.3685 13.1342C16.0382 13.0595 21.7105 12.9243 27.3804 12.7891C33.0927 12.6603 38.8063 12.5036 44.5184 12.3795C49.3717 12.2766 54.2278 12.218 59.0834 12.1175C64.7953 11.998 70.5088 11.8414 76.2206 11.7242C81.1615 11.6227 86.1034 11.5539 91.0437 11.4663C95.856 11.3803 100.667 11.2778 105.478 11.2034C109.387 11.1389 113.303 11.119 117.208 11.066C122.278 10.998 127.347 10.9021 132.419 10.8458C136.757 10.7999 141.097 10.7889 145.438 10.7593C149.563 10.7321 153.689 10.6793 157.812 10.6776C161.51 10.6739 165.207 10.7214 168.902 10.7594C173.89 10.8097 178.875 10.8692 183.858 10.9379C187.385 10.985 190.908 11.0761 194.434 11.0906C198.86 11.1089 203.286 11.0761 207.707 11.0476C209.167 11.0384 210.627 10.9779 212.088 10.9523C212.8 10.9387 213.417 10.928 213.737 10.0923C213.854 9.80951 214.063 9.57241 214.33 9.41744C214.598 9.26247 214.911 9.19821 215.22 9.23451C216.372 9.3005 217.518 9.46427 218.642 9.72399C219.154 9.84064 219.61 10.1269 219.932 10.5347C220.255 10.9424 220.425 11.4466 220.413 11.9624C220.441 13.1273 219.835 13.9903 218.77 14.2843C217.338 14.7181 215.855 14.9764 214.358 15.0532C208.173 15.2059 201.987 15.2878 195.798 15.2991C189.349 15.3031 182.901 15.1837 176.453 15.1109C172.154 15.0608 167.856 14.9736 163.556 14.949C158.58 14.9303 153.584 14.9712 148.599 15.0033C144.688 15.0211 140.777 15.0366 136.865 15.073C132.87 15.1104 128.871 15.178 124.876 15.2294C119.719 15.2913 114.562 15.3416 109.407 15.4152C105.71 15.4679 102.016 15.5625 98.3185 15.6151C93.5066 15.6942 88.6933 15.7477 83.8807 15.8407C79.1987 15.9301 74.5148 16.0612 69.832 16.1668C63.902 16.2886 57.973 16.3847 52.0429 16.5088C47.3605 16.6051 42.6769 16.7293 37.9941 16.8349C32.2377 16.9595 26.4809 17.0778 20.7234 17.1899C17.1651 17.2694 13.5903 17.3482 10.0234 17.4065C8.99423 17.4204 7.96299 17.3178 6.93162 17.2734L6.93402 17.2176Z" fill="#FED849"/>
    </g>
    <defs>
        <clipPath id="clip0_763_1228">
            <rect width="220" height="17" fill="white" transform="translate(0.731445) rotate(2.46528)"/>
        </clipPath>
    </defs>
</svg>
