<svg width="108" height="36" viewBox="0 0 108 36" fill="none" xmlns="http://www.w3.org/2000/svg">
    <g clip-path="url(#clip0_1010_824)">
        <path d="M37.6411 0.9L32.0293 25.3059C31.9764 25.6235 31.6587 25.8882 31.3411 25.8882H22.394C22.0234 25.8882 21.7587 25.6235 21.6528 25.3059L19.4822 14.7176C19.3234 13.9235 18.2116 13.9235 18.0528 14.7176L15.8822 25.3059C15.8293 25.6235 15.5116 25.8882 15.1411 25.8882H6.29988C5.98223 25.8882 5.66459 25.6765 5.61165 25.3059L-0.000119016 0.9C-0.106001 0.423529 0.264587 0 0.741057 0H7.94106C8.31165 0 8.62929 0.264706 8.68223 0.635294L10.3764 12.2824C10.4822 13.0765 11.6469 13.1294 11.8058 12.3353L14.294 0.582353C14.3469 0.264706 14.6646 0 14.9822 0H22.6587C23.0293 0 23.294 0.264706 23.3999 0.582353L25.9411 12.2824C26.0999 13.0765 27.2646 13.0235 27.3705 12.2294L29.0646 0.582353C29.0646 0.264706 29.3822 0 29.6999 0H36.8999C37.3764 0 37.7469 0.423529 37.6411 0.9Z" fill="#463677"/>
        <path d="M48.0706 5.82351C48.4412 6.03527 48.7589 6.24704 49.0765 6.56468C49.553 6.98821 50.2942 6.61763 50.2942 6.03527C50.2942 5.61174 50.6118 5.2941 51.0353 5.2941H57.653C58.0765 5.2941 58.3942 5.61174 58.3942 6.03527V25.2C58.3942 25.6235 58.0765 25.9412 57.653 25.9412H51.0353C50.6118 25.9412 50.2942 25.6235 50.2942 25.2C50.2942 24.5647 49.553 24.247 49.0765 24.6706C48.7589 24.9353 48.4412 25.2 48.0706 25.4117C47.1177 25.9412 45.953 26.2588 44.5765 26.2588C42.9883 26.2588 41.5059 25.8353 40.2353 24.9882C38.9647 24.1412 37.9059 22.9235 37.1647 21.3353C36.4236 19.747 36.053 17.8412 36.053 15.6706C36.053 13.5 36.4236 11.5941 37.1647 10.0059C37.9059 8.41763 38.9118 7.19998 40.2353 6.35292C41.5059 5.50586 42.9883 5.08233 44.5765 5.08233C45.953 5.02939 47.1177 5.2941 48.0706 5.82351ZM45.1589 13.0235C44.5765 13.6588 44.3118 14.5059 44.3118 15.5647C44.3118 16.6764 44.5765 17.5235 45.1589 18.1059C45.7412 18.7412 46.4295 19.0059 47.3295 19.0059C48.2295 19.0059 48.9177 18.6882 49.5 18.1059C50.0824 17.5235 50.3471 16.6235 50.3471 15.5647C50.3471 14.4529 50.0824 13.6059 49.5 13.0235C48.9177 12.4412 48.2295 12.1235 47.3295 12.1235C46.4295 12.1235 45.7412 12.3882 45.1589 13.0235Z" fill="#463677"/>
        <path d="M72.2117 5.82356C72.5823 6.03533 72.9 6.24709 73.2176 6.56474C73.6941 6.98827 74.4353 6.61768 74.4353 6.03533C74.4353 5.6118 74.7529 5.29415 75.1765 5.29415H81.7941C82.2176 5.29415 82.5353 5.6118 82.5353 6.03533C82.5353 7.4118 82.8 9.37062 81 9.74121C80.2059 9.90003 79.4117 9.74121 78.6176 9.68827C78.3 9.68827 78.0353 9.68827 77.7706 9.90003C77.2412 10.3236 77.5059 11.1706 77.8765 11.753C78.7765 13.0765 79.8353 14.2941 80.7882 15.6177C83.0118 18.7412 82.4823 21.9177 82.4823 25.5177C82.4823 27.4236 82.1118 29.1706 81.4235 30.7589C80.7353 32.3471 79.5706 33.6177 77.9823 34.5706C76.3941 35.5236 74.3823 36 71.947 36C68.6117 36 66.0176 35.2059 64.0588 33.6706C62.3117 32.2941 61.2529 30.4942 60.8823 28.2177C60.7764 27.7942 61.147 27.3706 61.6235 27.3706H68.2412C68.5588 27.3706 68.7706 27.5294 68.9294 27.7941C69.3 28.5883 70.0941 28.9589 71.4176 28.9589C72.3706 28.9589 73.1117 28.6942 73.6412 28.2177C74.1706 27.7412 74.4353 26.8412 74.4353 25.4647V25.0942C74.4353 24.4589 73.6941 24.1412 73.2176 24.5647C72.9 24.8294 72.5823 25.0942 72.2117 25.3059C71.2588 25.8353 70.0941 26.153 68.7176 26.153C67.1294 26.153 65.647 25.7294 64.3764 24.8824C63.1059 24.0353 62.047 22.8177 61.3059 21.2294C60.5647 19.6412 60.1941 17.7353 60.1941 15.5647C60.1941 13.3941 60.5647 11.4883 61.3059 9.90003C62.047 8.3118 63.0529 7.09415 64.3764 6.24709C65.647 5.40003 67.1294 4.9765 68.7176 4.9765C70.0941 5.02944 71.2588 5.29415 72.2117 5.82356ZM69.3 13.0236C68.7176 13.6589 68.4529 14.5059 68.4529 15.5647C68.4529 16.6765 68.7176 17.5236 69.3 18.1059C69.8823 18.7412 70.5706 19.0059 71.4706 19.0059C72.3706 19.0059 73.0588 18.6883 73.6412 18.1059C74.2235 17.5236 74.4882 16.6236 74.4882 15.5647C74.4882 14.453 74.2235 13.6059 73.6412 13.0236C73.0588 12.4412 72.3706 12.1236 71.4706 12.1236C70.5706 12.1236 69.8294 12.3883 69.3 13.0236Z" fill="#463677"/>
        <path d="M97.2001 5.82348C97.5706 6.03524 97.8883 6.247 98.2059 6.56465C98.6824 6.98818 99.4236 6.61759 99.4236 5.9823C99.4236 5.55877 99.7942 5.24112 100.165 5.24112H106.729C107.153 5.24112 107.471 5.55877 107.471 5.9823V25.5176C107.471 27.4235 107.1 29.1705 106.412 30.7588C105.724 32.347 104.559 33.6176 102.971 34.5705C101.382 35.5235 99.3706 36 96.9354 36C93.6001 36 91.0059 35.2058 89.0471 33.6705C87.3001 32.2941 86.2412 30.4941 85.8706 28.2176C85.8177 27.7941 86.1354 27.3705 86.6118 27.3705H89.8412C90.5824 27.3705 91.3236 27.3705 92.1177 27.3705C92.5942 27.3705 92.7001 27.7411 93.1236 27.9529C96.0883 29.4352 98.4706 29.1705 100.8 26.8411C101.753 25.8882 102.335 24.7235 102.388 22.8176C102.388 21.8117 101.7 21.4941 101.224 21.4411C100.641 21.3882 100.059 21.547 99.5295 22.3941C99.2118 22.9764 99.1059 23.6647 98.7353 24.1941C97.5706 25.9411 95.453 26.2058 93.7589 26.2058C92.1706 26.2058 90.6883 25.7823 89.4177 24.9352C88.1471 24.0882 87.0883 22.8705 86.3471 21.2823C85.6059 19.6941 85.2354 17.7882 85.2354 15.6176C85.2354 13.447 85.6059 11.5411 86.3471 9.95289C87.0883 8.36465 88.0942 7.14701 89.4177 6.29995C90.6883 5.45289 92.1706 5.02936 93.7589 5.02936C95.0824 5.02936 96.2471 5.29406 97.2001 5.82348ZM94.2883 13.0235C93.7059 13.6588 93.4412 14.5058 93.4412 15.5647C93.4412 16.6764 93.7059 17.5235 94.2883 18.1058C94.8706 18.7411 95.5589 19.0058 96.4589 19.0058C97.3589 19.0058 98.0471 18.6882 98.6295 18.1058C99.2118 17.5235 99.4765 16.6235 99.4765 15.5647C99.4765 14.4529 99.2118 13.6058 98.6295 13.0235C98.0471 12.4411 97.3589 12.1235 96.4589 12.1235C95.5589 12.1235 94.8706 12.3882 94.2883 13.0235Z" fill="#463677"/>
        <path d="M83.4352 11.6471C83.903 11.6471 84.2823 11.2678 84.2823 10.8C84.2823 10.3322 83.903 9.95294 83.4352 9.95294C82.9674 9.95294 82.5881 10.3322 82.5881 10.8C82.5881 11.2678 82.9674 11.6471 83.4352 11.6471Z" fill="#463677"/>
    </g>
    <defs>
        <clipPath id="clip0_1010_824">
            <rect width="107.524" height="36" fill="white"/>
        </clipPath>
    </defs>
</svg>
