<svg width="77" height="46" viewBox="0 0 77 46" fill="none" xmlns="http://www.w3.org/2000/svg">
    <path d="M74.1337 1.70904L74.1093 1.70971L74.0854 1.71509C73.7736 1.78552 73.4504 1.7875 73.138 1.72102C71.9337 1.1431 70.6262 0.815017 69.2932 0.756462C67.9524 0.697564 66.6137 0.91259 65.3577 1.38853C56.1163 4.39187 48.0799 10.3113 42.4366 18.2713C41.2798 19.862 40.2304 21.5451 39.1264 23.3158C38.8445 23.768 38.559 24.2259 38.2672 24.6895C38.3116 24.3112 38.3572 23.9468 38.4021 23.5917C38.411 23.5217 38.4198 23.4521 38.4286 23.3828C38.5049 22.7822 38.5781 22.205 38.638 21.6322L38.6382 21.6322L38.6389 21.621C38.7939 19.0009 38.7942 16.374 38.6396 13.754C38.6674 13.0554 38.5107 12.3618 38.1852 11.7439C37.8577 11.1222 37.3712 10.5997 36.7757 10.2306C36.1802 9.8614 35.4975 9.65909 34.7982 9.6447C34.1044 9.63043 33.4195 9.80164 32.8131 10.1406C30.6457 11.0159 28.5733 12.113 26.6284 13.4146L26.6283 13.4146L26.6226 13.4186C20.0793 18.0677 14.3521 23.7841 9.67671 30.3322C8.32758 32.0541 7.05083 33.8499 5.76819 35.6541C5.46946 36.0742 5.17041 36.4949 4.87005 36.9151C4.60949 37.2761 4.34656 37.6375 4.08301 37.9999C3.09964 39.3518 2.10772 40.7155 1.19859 42.1059C1.02847 42.3034 0.90122 42.5345 0.824955 42.7843C0.746898 43.04 0.724027 43.3096 0.75785 43.5749C0.791674 43.8402 0.881425 44.0952 1.02117 44.3229L1.02117 44.3229C1.16026 44.5494 1.34569 44.7437 1.56525 44.8928C1.79021 45.0543 2.0474 45.1648 2.3191 45.2166C2.59203 45.2686 2.87294 45.2601 3.14225 45.1917C3.41157 45.1232 3.66271 44.9965 3.87825 44.8205L3.72012 44.6269L3.87826 44.8205C4.08795 44.6493 4.25903 44.4354 4.38041 44.193C4.91985 43.4481 5.42692 42.6706 5.92874 41.9011C6.20713 41.4743 6.4839 41.0499 6.76368 40.635L6.76371 40.635L6.76603 40.6314C11.5248 33.3071 17.138 26.5841 23.4855 20.6062L23.4872 20.6045C26.3025 17.9005 29.5217 15.6585 33.0272 13.9605C33.5326 13.7337 33.9221 13.5842 34.2238 13.5152C34.5302 13.4452 34.6982 13.4698 34.7982 13.5285C34.8941 13.5849 34.9893 13.7097 35.0562 14.0002C35.1229 14.2893 35.1508 14.6963 35.1508 15.2504H35.1508L35.1509 15.2561C35.1909 17.0104 35.132 18.7657 34.9748 20.5133L34.9747 20.5141C34.8358 22.1134 34.6735 23.7185 34.5108 25.3272C34.313 27.2842 34.1146 29.2466 33.957 31.2107C33.8736 31.7474 33.9814 32.2968 34.2617 32.7614C34.5439 33.229 34.9824 33.5804 35.4991 33.7522L35.499 33.7524L35.51 33.7555C36.057 33.9101 36.6411 33.8581 37.1527 33.6097C37.658 33.3642 38.0579 32.9439 38.2798 32.4264C39.0332 31.2189 39.698 29.9465 40.3575 28.6841L40.3597 28.6799L40.3599 28.68L40.3645 28.6703C43.2554 22.5054 47.4141 17.0302 52.5649 12.6078L52.5669 12.6061C56.8062 8.88735 61.8074 6.15643 67.2141 4.6078L67.2142 4.60808L67.2256 4.60419C68.1768 4.28116 69.1981 4.22967 70.1765 4.45538C71.1548 4.6811 72.0523 5.17528 72.7695 5.88342L72.7775 5.8913L72.7861 5.89844C73.078 6.13901 73.4209 6.30897 73.7885 6.39509C74.1561 6.48121 74.5384 6.48116 74.906 6.39495L74.906 6.39503L74.9123 6.39339C75.5614 6.22336 75.9328 5.77762 76.1123 5.24774C76.2866 4.7333 76.2836 4.13595 76.2046 3.60497C76.1695 3.08367 75.9364 2.59545 75.5529 2.24206C75.1665 1.8861 74.6578 1.69482 74.1337 1.70904Z" fill="#FED849" stroke="#FED849" stroke-width="0.5"/>
</svg>
