<svg width="282" height="128" viewBox="0 0 282 128" fill="none" xmlns="http://www.w3.org/2000/svg">
    <g clip-path="url(#clip0_813_1245)">
        <path d="M85.4869 81.116C84.8371 82.2448 84.2491 83.4081 83.7257 84.6008C81.6941 89.933 81.3121 95.5078 81.7407 101.115C82.1554 106.513 82.8963 111.887 83.4554 117.275C83.6325 118.954 83.7163 120.648 83.7676 122.341C83.8328 124.338 82.6354 125.798 80.9346 125.919C79.2339 126.041 77.8967 124.8 77.673 122.742C76.8343 115.521 75.8605 108.281 75.2548 101.059C74.6628 94.7073 75.4888 88.3032 77.673 82.3103C78.5071 80.0757 79.5368 77.9531 81.3121 76.2457C85.0396 72.6863 89.4149 73.386 91.7166 77.9858C93.5804 81.7178 93.9951 85.5898 92.5926 89.5645C91.8611 91.6358 91.041 93.6837 90.1464 95.6897C89.899 96.1296 89.7877 96.6332 89.8267 97.1365C89.8657 97.6399 90.0532 98.1203 90.3654 98.5167C95.584 105.794 98.9481 114.061 102.825 122.047C103.237 122.877 103.504 123.772 103.612 124.692C103.682 125.331 103.541 125.974 103.213 126.526C102.884 127.077 102.385 127.506 101.79 127.748C101.201 127.997 100.547 128.051 99.9245 127.902C99.3019 127.754 98.7429 127.411 98.3284 126.922C97.7955 126.267 97.3492 125.546 97.0005 124.776C95.6585 122.043 94.3306 119.3 93.0632 116.529C90.6822 111.374 88.0636 106.363 84.7228 101.736C82.859 99.1278 82.5841 96.5247 83.9866 93.6371C84.8719 91.813 85.5615 89.905 86.2884 87.997C86.7628 86.8791 86.9383 85.6567 86.7978 84.4503C86.6573 83.2438 86.2055 82.0947 85.4869 81.116V81.116Z" fill="#9188FD"/>
        <path d="M188.331 64.8441C185.227 67.8997 182.609 71.0813 182.362 75.5737L182.86 75.9376C183.425 75.2832 183.946 74.5929 184.421 73.871C185.386 72.1869 186.285 70.4608 187.175 68.7394C187.744 67.6431 188.489 66.7614 189.724 66.4302C191.695 65.8984 193.601 67.1579 193.871 69.4205C194.055 71.1869 194.055 72.9676 193.871 74.734C193.069 83.2664 191.457 91.6309 188.559 99.7201C187.064 103.959 184.781 107.877 181.831 111.266C180.498 112.792 179.305 114.438 178.019 116.006C177.635 116.52 177.105 116.907 176.499 117.117C175.893 117.328 175.238 117.352 174.618 117.186C174.023 117.087 173.479 116.793 173.07 116.349C172.662 115.906 172.413 115.338 172.363 114.737C172.346 113.663 172.65 112.609 173.234 111.709C174.268 110.162 175.424 108.701 176.691 107.338C179.508 104.272 181.588 100.602 182.772 96.6085C184.021 92.312 185.055 87.9501 186.15 83.6116C186.209 83.1079 186.209 82.5991 186.15 82.0955C185.869 82.1601 185.594 82.2506 185.33 82.366C181.136 84.8385 176.887 82.1608 176.109 77.2345C175.682 74.5375 176.075 71.7745 177.236 69.3039C179.066 65.3676 181.906 61.9872 185.465 59.5072C187.86 57.7998 190.059 57.9818 191.909 59.7825C193.414 61.2566 193.773 62.964 192.878 64.3402C192.049 65.5905 190.823 65.7771 188.331 64.8441Z" fill="#9188FD"/>
        <path d="M108.598 97.8775C109.646 102.188 111.221 102.967 114.776 101.143C116.321 100.444 117.62 99.2968 118.504 97.8495C119.566 96.0068 121.467 95.5449 123.056 96.4499C124.505 97.285 124.985 99.0997 124.193 100.919C123.993 101.387 123.736 101.829 123.429 102.235C122.159 103.938 120.56 105.368 118.727 106.44C116.894 107.512 114.864 108.205 112.759 108.476C108.724 109.018 105.625 107.226 103.78 103.643C102.893 102.006 102.334 100.21 102.135 98.358C101.613 91.7009 102.858 85.3658 106.459 79.6417C107.918 77.3092 109.721 75.2939 112.409 74.3375C113.223 74.0322 114.096 73.9223 114.96 74.0167C115.823 74.111 116.653 74.407 117.381 74.8808C118.109 75.3546 118.716 75.9929 119.154 76.7445C119.591 77.496 119.845 78.3398 119.897 79.2079C119.999 80.303 119.912 81.4076 119.641 82.4734C118.033 87.9735 115.145 92.6712 110.634 96.2913C109.963 96.8185 109.316 97.3223 108.598 97.8775ZM110.056 86.6813L110.676 86.9939L112.656 82.9353L112.102 82.66C111.422 83.9911 110.74 85.3253 110.056 86.6626V86.6813Z" fill="#9188FD"/>
        <path d="M138.209 79.8192C139.141 79.5953 140.026 79.3247 140.93 79.1708C141.722 78.9975 142.549 79.1294 143.248 79.5401C143.947 79.9508 144.465 80.6102 144.7 81.3867C145.166 83.1641 144.276 84.6102 142.309 85.1887C141.107 85.5386 139.891 85.8465 138.582 86.1917C138.409 89.7511 139.192 93.054 139.751 96.3615C140.273 99.4451 140.963 102.501 141.68 105.542C141.984 106.67 142.399 107.764 142.92 108.808C143.283 109.525 143.421 110.335 143.317 111.132C143.214 111.93 142.872 112.677 142.337 113.277C142.055 113.594 141.707 113.846 141.318 114.015C140.928 114.183 140.507 114.265 140.083 114.254C139.659 114.243 139.242 114.139 138.862 113.95C138.482 113.761 138.148 113.492 137.883 113.16C137.433 112.549 137.101 111.86 136.904 111.126C134.537 103.261 132.711 95.3025 131.919 87.092C131.325 80.6998 131.311 74.2668 131.877 67.872C131.977 66.778 132.172 65.6948 132.459 64.6344C132.631 63.8914 133 63.2084 133.526 62.6568C134.052 62.1053 134.717 61.7056 135.451 61.4995C137.203 60.9117 138.843 59.9973 140.543 59.2603C141.311 58.9071 142.105 58.6169 142.92 58.3926C143.613 58.1809 144.359 58.2272 145.021 58.523C145.683 58.8187 146.216 59.344 146.521 60.002C146.842 60.7052 146.872 61.5067 146.605 62.232C146.338 62.9573 145.795 63.5475 145.096 63.874C143.757 64.5838 142.352 65.1619 140.902 65.6001C138.954 66.1599 138.204 67.4241 138.204 69.3321L138.209 79.8192Z" fill="#9188FD"/>
        <path d="M225.485 69.5095C226.138 65.9501 226.683 62.3673 227.498 58.8452C227.905 57.3814 228.556 55.9967 229.423 54.7493C229.95 53.8723 230.706 53.155 231.608 52.6736C232.511 52.1922 233.527 51.9648 234.548 52.0155C235.214 52.0468 235.881 51.9632 236.519 51.7683C238.485 51.0732 239.953 51.7683 241.258 53.2098C243.271 55.4304 244.212 58.1501 244.622 61.0098C245.512 67.2097 244.622 73.1389 241.43 78.6251C240.681 79.9409 239.712 81.118 238.564 82.1052C235.466 84.6896 231.496 84.2091 228.905 81.0975C227.107 78.933 226.445 76.3112 226.063 73.6334C225.872 72.2992 225.886 70.937 225.807 69.5888L225.485 69.5095ZM233.872 77.1882C238.69 73.8434 240.023 62.428 236.412 57.8002C234.776 57.5763 233.924 58.388 233.537 59.9182C232.367 64.5366 231.906 69.211 232.67 73.9367C232.852 75.019 233.439 76.0406 233.877 77.1789L233.872 77.1882Z" fill="#9188FD"/>
        <path d="M281.986 40.852C282.063 43.9194 281.371 46.9573 279.973 49.6876C278.407 52.8739 276.637 55.9622 274.847 59.0178C273.636 61.0891 272.467 63.123 272.611 65.6375C272.608 66.0605 272.522 66.4787 272.359 66.8691C271.819 68.4319 270.528 69.4022 269.172 69.3042C267.816 69.2063 266.791 68.2779 266.377 66.7291C265.78 64.5039 266.241 62.3206 267.02 60.2633C267.639 58.6166 268.613 57.1004 269.447 55.533C271.12 52.398 272.942 49.3378 274.428 46.1189C275.61 43.7411 275.918 41.0228 275.299 38.4402C274.368 34.8014 272.779 33.7751 269.242 34.8388C268.349 35.1 267.498 35.4897 266.717 35.9957C266.261 36.3247 265.948 36.8151 265.841 37.3672C265.435 40.0216 264.443 41.1413 262.607 40.8334C260.771 40.5255 259.131 38.2069 259.639 36.1683C259.939 34.853 260.564 33.634 261.456 32.6228C262.978 30.955 264.881 29.6823 267.003 28.9143C269.125 28.1464 271.401 27.9061 273.636 28.2144C276.39 28.5502 278.431 30.239 279.866 32.5995C281.38 35.0764 282.119 37.9509 281.986 40.852V40.852Z" fill="#9188FD"/>
        <path d="M8.14928 65.8471C7.41308 64.247 6.63495 62.9221 6.19696 61.4946C5.73602 60.0589 5.49564 58.5614 5.48407 57.0535C5.48368 56.3633 5.75131 55.7001 6.2304 55.2038C6.70949 54.7076 7.3625 54.4174 8.05143 54.3944C8.73669 54.3047 9.42974 54.4875 9.98197 54.9035C10.5342 55.3195 10.9017 55.9356 11.0055 56.6196C11.4715 59.5772 13.1629 61.9051 14.5467 64.4056C14.9568 65.1473 15.4786 65.8378 15.8141 66.6028C16.746 68.6321 15.9352 70.5355 13.8711 71.3425C13.4061 71.5464 12.9097 71.6695 12.4034 71.7064C9.19766 71.7671 7.80914 73.8477 7.01237 76.5394C5.5027 81.6337 7.50161 86.336 12.3242 88.5706C14.4139 89.4678 16.5862 90.1583 18.8101 90.6326C19.4737 90.7471 20.1083 90.9915 20.6775 91.3517C21.2468 91.7119 21.7395 92.1809 22.1277 92.7318C22.5252 93.2867 22.739 93.9524 22.739 94.6352C22.739 95.318 22.5252 95.9837 22.1277 96.5385C21.7532 97.1144 21.1966 97.5478 20.547 97.7694C19.8974 97.991 19.1922 97.988 18.5445 97.7608C15.3668 96.6505 12.1052 95.6615 9.10447 94.1687C0.889837 90.0821 -2.22734 80.6773 1.64933 72.3549C2.96827 69.4767 5.27456 67.1676 8.14928 65.8471V65.8471Z" fill="#9188FD"/>
        <path d="M176.193 8.36434C178.741 5.85454 181.155 4.36638 184.007 3.62464C188.293 2.50036 191.718 3.82524 193.936 7.66925C194.9 9.34401 195.707 11.1167 196.513 12.8755C197.16 14.275 196.513 17.2839 195.39 18.3476C195.011 18.7223 194.543 18.994 194.031 19.137C193.518 19.28 192.977 19.2896 192.46 19.1649C191.942 19.0402 191.465 18.7852 191.074 18.4242C190.682 18.0632 190.389 17.6081 190.222 17.102C189.872 15.9736 189.595 14.8236 189.393 13.6592C188.335 9.32068 186.308 8.52762 182.725 11.2753C181.706 12.1452 180.894 13.2322 180.349 14.4569C179.762 15.6512 179.585 17.0414 179.203 18.3429C178.99 19.1608 178.727 19.9648 178.415 20.7501C178.163 21.409 177.714 21.9742 177.13 22.3689C176.546 22.7637 175.854 22.9689 175.149 22.9566C174.445 22.9444 173.761 22.7154 173.191 22.3006C172.62 21.8858 172.191 21.3054 171.962 20.6381C171.545 19.6209 171.259 18.555 171.109 17.4659C170.643 13.3466 170.243 9.21805 169.87 5.08947C169.794 4.24525 169.834 3.39468 169.986 2.561C170.079 1.83772 170.437 1.17475 170.99 0.701285C171.544 0.227819 172.254 -0.0222227 172.982 -0.000114599C174.464 0.0605312 175.517 1.1335 175.689 2.82225C175.862 4.511 175.997 6.16243 176.193 8.36434Z" fill="#9188FD"/>
        <path d="M64.2539 34.6335C64.3331 31.7551 65.4747 27.9951 67.6693 24.5709C68.1695 23.786 68.7711 23.0708 69.4585 22.4437C71.5879 20.5403 73.8477 20.8016 76.0051 22.6862C80.3989 26.5303 81.6849 31.27 80.6645 36.8587C80.1147 39.8817 79.3552 42.8113 77.58 45.3678C74.6771 49.5663 70.437 49.6223 67.3291 45.5637C65.3815 43.0026 64.2352 39.3965 64.2539 34.6335ZM72.394 28.4103C70.5768 32.8747 69.7055 36.9567 72.2542 41.2439C75.0732 37.1433 75.2129 31.5032 72.394 28.4103Z" fill="#9188FD"/>
        <path d="M97.6157 53.2328C96.5813 52.4491 95.5143 51.908 94.82 51.0542C93.9813 50.0093 93.8136 48.4745 94.7734 47.5181C97.7368 44.5511 97.4014 40.8844 97.0379 37.3203C96.5953 32.9631 95.7472 28.6433 95.0623 24.3094C94.5404 21.0439 94.3587 17.7457 95.4397 14.5128C96.1806 12.3156 97.2709 10.3143 99.1347 8.86808C100.998 7.42191 103.23 7.43591 104.922 8.94739C105.877 9.80109 106.348 10.8134 106.012 12.1196C105.7 13.3139 104.829 14.1209 103.682 14.0976C102.065 14.0696 101.544 15.0306 101.427 16.2575C101.179 18.1663 101.136 20.0961 101.297 22.0142C101.949 27.2018 102.955 32.3473 103.557 37.5396C104.013 40.9233 103.654 44.3674 102.508 47.5834C102.032 48.9327 101.351 50.2008 100.491 51.3435C99.8755 52.1132 98.7806 52.5051 97.6157 53.2328Z" fill="#9188FD"/>
        <path d="M51.5802 45.7177C51.487 50.4528 50.0658 54.5814 46.711 57.9355C46.3079 58.3679 45.8595 58.7558 45.3738 59.0925C44.7871 59.5212 44.0698 59.7323 43.3447 59.6897C42.6196 59.6472 41.9319 59.3536 41.3992 58.8592C40.8467 58.3904 40.4658 57.7508 40.3165 57.0413C40.1672 56.3318 40.2579 55.5927 40.5745 54.9406C40.7578 54.4674 41.0537 54.0463 41.4365 53.7137C45.1268 51.0219 45.3831 47.1826 44.6981 43.2266C44.3114 40.9221 43.3888 38.7201 42.6154 36.4809C41.8931 34.4096 40.924 32.4223 40.2856 30.3277C39.5205 27.704 39.645 24.9004 40.6398 22.3551C41.8931 18.9729 44.7494 16.9436 48.1555 16.939C50.1357 16.939 51.4916 17.9186 51.6734 19.5001C51.8411 20.9836 50.9185 22.0752 49.0128 22.6443C46.6831 23.3394 45.9096 24.1931 46.1519 26.6143C46.4131 28.2765 46.8747 29.901 47.5264 31.452C48.5003 34.1484 49.763 36.7515 50.5877 39.4899C51.1701 41.4819 51.254 43.6325 51.5802 45.7177Z" fill="#9188FD"/>
        <path d="M159.852 87.8339C160.481 85.562 161.119 83.2948 161.716 81.0182C162.303 78.8117 162.848 76.5958 163.444 74.3892C163.593 73.7299 163.831 73.0941 164.153 72.4998C164.435 71.9721 164.867 71.5398 165.395 71.2576C165.922 70.9753 166.521 70.8556 167.116 70.9137C167.754 70.9648 168.358 71.2188 168.841 71.6385C169.324 72.0582 169.66 72.6216 169.8 73.2462C169.97 73.9814 169.97 74.7457 169.8 75.4808C168.71 79.8286 167.596 84.1718 166.375 88.4823C165.98 89.8649 165.4 91.1878 164.651 92.415C162.601 95.7598 159.013 96.2963 155.971 93.8145C154.465 92.5605 153.347 90.9037 152.746 89.0375C151.256 84.5228 150.714 79.7487 151.153 75.0143C151.254 74.0924 151.574 73.208 152.085 72.4345C152.449 71.8606 153.007 71.4375 153.658 71.243C154.308 71.0484 155.007 71.0955 155.626 71.3756C156.227 71.6077 156.723 72.0511 157.022 72.6229C157.32 73.1947 157.4 73.8558 157.247 74.4825C156.567 77.9206 157.355 81.2188 158.007 84.531C158.31 85.6451 158.692 86.7363 159.148 87.7966L159.852 87.8339Z" fill="#9188FD"/>
        <path d="M149.131 23.325C149.876 22.9235 150.51 22.3436 150.976 21.637C151.443 20.9304 151.728 20.1192 151.805 19.2757C152.22 16.1781 152.476 13.0618 152.821 9.94556C152.865 9.19004 153.001 8.44274 153.226 7.72033C153.443 7.07036 153.875 6.51376 154.45 6.14231C155.025 5.77087 155.709 5.60675 156.39 5.67703C157.026 5.71805 157.634 5.95734 158.128 6.36139C158.622 6.76544 158.977 7.314 159.144 7.93025C159.311 8.49733 159.372 9.0903 159.326 9.67965C159.046 12.9452 158.79 16.2574 158.394 19.5229C158.109 21.9851 157.151 24.3209 155.626 26.2733C151.945 30.9383 146.116 30.7937 142.882 25.8068C140.403 21.9861 139.583 17.6849 140.087 13.1691C140.334 10.8832 141.643 9.67032 143.451 9.8196C145.259 9.96889 146.67 11.7556 146.279 13.9109C145.813 16.3973 146.391 18.6272 147.365 20.8012C147.733 21.6782 148.464 22.3919 149.131 23.325Z" fill="#9188FD"/>
        <path d="M214.214 77.4681C214.214 80.0059 214.261 82.5437 214.214 85.0815C214.192 86.2653 214.05 87.4438 213.79 88.5989C213.324 90.6329 211.716 91.6732 209.862 91.2953C208.978 91.1124 208.199 90.5916 207.692 89.8434C207.185 89.0952 206.989 88.1785 207.146 87.288C208.32 81.9932 207.5 76.675 207.57 71.3662C207.519 70.1879 207.604 69.0078 207.821 67.8487C208.017 67.1442 208.473 66.5406 209.097 66.1596C209.72 65.7786 210.465 65.6487 211.181 65.7961C211.896 65.9187 212.543 66.2968 213.001 66.8603C213.46 67.4239 213.698 68.1347 213.673 68.861C213.673 70.2932 213.673 71.7254 213.748 73.1529C213.823 74.5804 213.897 76.0312 213.972 77.4681H214.214Z" fill="#9188FD"/>
        <path d="M206.414 55.2807C206.405 54.5132 206.684 53.7705 207.197 53.2C207.71 52.6295 208.419 52.2732 209.182 52.2017C211.013 52.0431 213.054 54.0398 213.138 56.0737C213.135 56.8383 212.839 57.5725 212.311 58.1247C211.783 58.6769 211.063 59.0048 210.3 59.0407C208.637 59.0314 206.479 56.9414 206.414 55.2807Z" fill="#9188FD"/>
        <path d="M273.096 88.5102C273.138 90.2083 271.488 92.0837 269.834 92.2003C269.025 92.2103 268.243 91.9092 267.649 91.3589C267.055 90.8086 266.695 90.0511 266.642 89.2426C266.61 87.6472 268.366 85.8278 270.062 85.7019C270.834 85.6801 271.584 85.9619 272.151 86.4868C272.718 87.0117 273.057 87.738 273.096 88.5102Z" fill="#9188FD"/>
        <path d="M4.71058 46.1092C3.82545 46.0532 2.99363 45.6663 2.38002 45.0252C1.76641 44.3841 1.41581 43.5355 1.39771 42.6477C1.448 41.8843 1.79137 41.1699 2.35593 40.6543C2.92048 40.1386 3.66242 39.8616 4.42636 39.8814C6.25287 39.9233 7.78583 41.3555 7.75787 43.0023C7.74293 43.812 7.41877 44.5853 6.85201 45.1631C6.28525 45.741 5.51895 46.0795 4.71058 46.1092V46.1092Z" fill="#9188FD"/>
    </g>
    <defs>
        <clipPath id="clip0_813_1245">
            <rect width="282" height="128" fill="white"/>
        </clipPath>
    </defs>
</svg>
