<svg width="46" height="26" viewBox="0 0 46 26" fill="none" xmlns="http://www.w3.org/2000/svg">
    <g clip-path="url(#clip0_1036_1930)">
        <path d="M21.7733 11.1256L21.5082 11.3119L21.7557 11.5211C23.4422 12.9468 24.6515 14.8652 25.2172 17.0133L25.2172 17.0133L25.2188 17.0191C25.6245 18.4204 25.6175 19.9107 25.1986 21.3079C24.7797 22.7051 23.9672 23.9484 22.8609 24.886L22.8593 24.8874C22.487 25.2081 22.0533 25.4475 21.5854 25.5908C21.1175 25.734 20.6254 25.778 20.14 25.7201C19.6546 25.6621 19.1861 25.5035 18.764 25.2539C18.3418 25.0043 17.975 24.6692 17.6868 24.2694L17.6869 24.2693L17.6815 24.2623C16.9147 23.2746 16.3975 22.1128 16.1746 20.8773C15.9518 19.6418 16.0302 18.37 16.4029 17.1721L16.4031 17.1721L16.4053 17.164C16.8815 15.4292 17.7471 13.829 18.9346 12.4875L18.9347 12.4877L18.9408 12.4802L19.4822 11.8191L19.6843 11.5724L19.3965 11.4351C17.8233 10.6844 16.0727 10.396 14.3448 10.6027C11.8398 10.8237 9.42143 11.6365 7.28469 12.9754C5.14685 14.315 3.35096 16.1437 2.04188 18.3137L2.04166 18.3136L2.03625 18.3235C1.69603 18.95 1.41484 19.6073 1.19635 20.2869C1.12529 20.4747 1.03763 20.6049 0.949828 20.6717C0.881577 20.7236 0.804544 20.7463 0.687134 20.703C0.580536 20.6359 0.487845 20.548 0.414517 20.4442C0.341391 20.3408 0.289059 20.2237 0.260537 20.0998C0.25529 19.8135 0.323099 19.5306 0.457439 19.2785L0.462655 19.2687L0.466984 19.2585C2.02212 15.5902 4.9002 12.6583 8.51606 11.0572L8.52447 11.0535L8.53258 11.0492C11.595 9.41432 15.1568 9.01429 18.4994 9.9295C18.7312 9.99604 18.9563 10.1038 19.1989 10.22C19.2847 10.2611 19.3727 10.3032 19.464 10.345C19.791 10.4945 20.1664 10.641 20.5462 10.5983C20.9278 10.5555 21.2588 10.3275 21.5453 10.0996C21.6408 10.0237 21.7316 9.94771 21.8204 9.87337C22.0146 9.71092 22.1997 9.55614 22.4039 9.4262C24.5988 8.25551 27.0139 7.56766 29.4905 7.40781C32.584 7.21672 35.6083 6.40172 38.3851 5.01094L38.3852 5.0112L38.3956 5.00534C40.0059 4.10009 41.5577 3.09269 43.0922 2.07792L43.0999 2.07285L43.1072 2.06722C43.6164 1.67377 44.079 1.22242 44.4859 0.722114C44.7526 0.432331 44.9746 0.294396 45.1453 0.259113C45.2893 0.22936 45.4293 0.265512 45.5812 0.432678C45.6465 0.520544 45.6939 0.620951 45.7203 0.727996C45.7475 0.838117 45.7519 0.952766 45.7331 1.0647C45.7144 1.17663 45.673 1.28331 45.6116 1.37806C45.5503 1.4728 45.4704 1.55352 45.377 1.61528L45.3606 1.62611L45.3461 1.63935C41.0132 5.60346 35.5209 8.03342 29.7002 8.56211L29.7002 8.56187L29.6892 8.56336C27.7564 8.82581 25.8525 9.27216 24.0029 9.89644L23.9944 9.89931L23.9861 9.90277C23.2074 10.2294 22.4656 10.6393 21.7733 11.1256ZM20.8674 12.3355L20.7017 12.2162L20.5517 12.3548C18.5706 14.1859 17.3731 16.7236 17.2119 19.4305C17.1186 20.8924 17.5699 22.3369 18.4774 23.4801C18.6825 23.7873 18.9521 24.0454 19.2673 24.2361C19.5857 24.4286 19.9426 24.5475 20.3122 24.5839C20.6818 24.6202 21.0548 24.5732 21.4041 24.4463C21.7504 24.3205 22.0648 24.1193 22.3251 23.8572C22.9117 23.3454 23.3902 22.7197 23.7323 22.0175L23.7371 22.0075L23.7411 21.9971C24.3914 20.293 24.462 18.4188 23.9419 16.6698C23.4218 14.9207 22.3404 13.3957 20.8674 12.3355Z" fill="#00B6FF" stroke="#00B6FF" stroke-width="0.5"/>
    </g>
    <defs>
        <clipPath id="clip0_1036_1930">
            <rect width="46" height="26" fill="white"/>
        </clipPath>
    </defs>
</svg>
