<svg width="238" height="95" viewBox="0 0 238 95" fill="none" xmlns="http://www.w3.org/2000/svg">
    <g clip-path="url(#clip0_813_1273)">
        <mask id="path-1-inside-1_813_1273" fill="white">
            <path d="M5.54119 71.183C5.12983 72.4469 5.06143 73.7977 5.34299 75.0968C5.62456 76.3959 6.24596 77.5966 7.14344 78.5756C10.1033 81.9206 13.9811 84.3173 18.2924 85.4664C26.4548 87.8854 34.8881 89.2677 43.3942 89.5809C59.3696 90.8477 75.4362 90.3203 91.2946 88.0087C92.8969 87.7745 94.6326 87.7411 94.6326 89.8485C94.6326 91.9559 93.431 92.1566 91.9956 92.3238C84.9858 93.1936 77.976 94.4647 70.9328 94.7323C55.9258 95.5969 40.8693 94.8005 26.0366 92.3573C19.143 91.4797 12.5606 88.9558 6.84302 84.9981C4.04476 83.2666 1.97231 80.5722 1.01378 77.4196C0.055246 74.267 0.276364 70.8724 1.63572 67.8714C1.85415 67.3007 1.85415 66.6692 1.63572 66.0985C0.465112 63.9327 -0.0302276 61.4647 0.213754 59.0138C0.457735 56.5629 1.42982 54.2416 3.00431 52.3502C6.835 47.3759 11.4592 43.0698 16.6901 39.6055C31.8199 29.104 48.5175 21.0763 66.1594 15.8221C91.3976 7.5875 117.554 2.50913 144.035 0.702354C172.749 -1.48565 201.628 0.988106 229.555 8.02806C231.679 8.63393 233.764 9.37126 235.797 10.2358C237.166 10.8045 238.367 11.8749 237.9 13.5809C237.725 14.0202 237.459 14.4173 237.119 14.7459C236.78 15.0746 236.375 15.3274 235.931 15.4876C235.233 15.7857 234.45 15.8177 233.731 15.5773C233.011 15.337 232.405 14.841 232.025 14.183C231.453 13.4957 230.664 13.0239 229.789 12.845C215.214 9.23602 200.364 6.85274 185.393 5.71996C155.828 3.48726 126.096 5.74275 97.2029 12.4101C75.8224 16.6527 55.1006 23.7283 35.5833 33.4506C26.3494 38.0529 17.8273 43.9679 10.2812 51.0122C8.45219 52.8633 6.90058 54.9703 5.67472 57.2675C5.1036 58.7896 4.77687 60.3929 4.70669 62.0175H5.30753C8.07808 59.6759 10.7151 57.1671 13.6192 55.0263C30.4283 42.6905 49.3915 33.6142 69.5308 28.2657C88.1061 22.7095 107.238 19.2317 126.577 17.896C141.86 17.2375 157.171 17.752 172.375 19.4347C185.323 20.5625 198.07 23.3736 210.295 27.7974C217.388 30.1324 223.689 34.4076 228.487 40.1407C230.68 42.6934 231.97 45.9006 232.157 49.2638C232.345 52.6271 231.418 55.9581 229.522 58.7393C226.317 63.8005 221.664 67.7758 216.17 70.146C206.158 74.5658 195.643 77.734 184.859 79.5791C171.576 82.0459 158.11 83.3998 144.603 83.6267C131.251 84.0281 118.132 84.4629 104.914 84.2622C82.1485 83.8608 59.3165 83.5598 36.6181 80.9171C27.8931 80.407 19.3427 78.2507 11.4161 74.5615C9.48004 73.5914 7.64414 72.4541 5.54119 71.183ZM8.01132 66.3326V67.2358C11.0823 68.8749 14.0197 70.5809 17.1908 72.0527C23.803 74.6309 30.7969 76.0892 37.8865 76.3678C59.45 77.5721 81.0136 78.7763 102.577 79.345C116.73 79.7464 130.883 79.345 145.037 78.8097C160.257 78.5146 175.41 76.6879 190.267 73.3573C199.388 71.5575 208.225 68.5307 216.537 64.359C220.507 62.3082 223.765 59.1014 225.883 55.1601C227.05 53.2713 227.559 51.0479 227.329 48.8383C227.1 46.6288 226.145 44.558 224.615 42.9506C222.354 40.459 219.785 38.2669 216.971 36.4277C211.37 33.0317 205.262 30.5583 198.879 29.102C185.86 25.7245 172.524 23.7178 159.09 23.1143C146.035 22.1108 132.923 22.1108 119.868 23.1143C102.443 24.9619 85.2312 28.4563 68.4627 33.5509C49.6111 38.7901 31.8888 47.4772 16.1894 59.1742C13.3521 61.3485 10.7151 63.9242 8.01132 66.3326V66.3326Z"/>
        </mask>
        <path d="M5.54119 71.183C5.12983 72.4469 5.06143 73.7977 5.34299 75.0968C5.62456 76.3959 6.24596 77.5966 7.14344 78.5756C10.1033 81.9206 13.9811 84.3173 18.2924 85.4664C26.4548 87.8854 34.8881 89.2677 43.3942 89.5809C59.3696 90.8477 75.4362 90.3203 91.2946 88.0087C92.8969 87.7745 94.6326 87.7411 94.6326 89.8485C94.6326 91.9559 93.431 92.1566 91.9956 92.3238C84.9858 93.1936 77.976 94.4647 70.9328 94.7323C55.9258 95.5969 40.8693 94.8005 26.0366 92.3573C19.143 91.4797 12.5606 88.9558 6.84302 84.9981C4.04476 83.2666 1.97231 80.5722 1.01378 77.4196C0.055246 74.267 0.276364 70.8724 1.63572 67.8714C1.85415 67.3007 1.85415 66.6692 1.63572 66.0985C0.465112 63.9327 -0.0302276 61.4647 0.213754 59.0138C0.457735 56.5629 1.42982 54.2416 3.00431 52.3502C6.835 47.3759 11.4592 43.0698 16.6901 39.6055C31.8199 29.104 48.5175 21.0763 66.1594 15.8221C91.3976 7.5875 117.554 2.50913 144.035 0.702354C172.749 -1.48565 201.628 0.988106 229.555 8.02806C231.679 8.63393 233.764 9.37126 235.797 10.2358C237.166 10.8045 238.367 11.8749 237.9 13.5809C237.725 14.0202 237.459 14.4173 237.119 14.7459C236.78 15.0746 236.375 15.3274 235.931 15.4876C235.233 15.7857 234.45 15.8177 233.731 15.5773C233.011 15.337 232.405 14.841 232.025 14.183C231.453 13.4957 230.664 13.0239 229.789 12.845C215.214 9.23602 200.364 6.85274 185.393 5.71996C155.828 3.48726 126.096 5.74275 97.2029 12.4101C75.8224 16.6527 55.1006 23.7283 35.5833 33.4506C26.3494 38.0529 17.8273 43.9679 10.2812 51.0122C8.45219 52.8633 6.90058 54.9703 5.67472 57.2675C5.1036 58.7896 4.77687 60.3929 4.70669 62.0175H5.30753C8.07808 59.6759 10.7151 57.1671 13.6192 55.0263C30.4283 42.6905 49.3915 33.6142 69.5308 28.2657C88.1061 22.7095 107.238 19.2317 126.577 17.896C141.86 17.2375 157.171 17.752 172.375 19.4347C185.323 20.5625 198.07 23.3736 210.295 27.7974C217.388 30.1324 223.689 34.4076 228.487 40.1407C230.68 42.6934 231.97 45.9006 232.157 49.2638C232.345 52.6271 231.418 55.9581 229.522 58.7393C226.317 63.8005 221.664 67.7758 216.17 70.146C206.158 74.5658 195.643 77.734 184.859 79.5791C171.576 82.0459 158.11 83.3998 144.603 83.6267C131.251 84.0281 118.132 84.4629 104.914 84.2622C82.1485 83.8608 59.3165 83.5598 36.6181 80.9171C27.8931 80.407 19.3427 78.2507 11.4161 74.5615C9.48004 73.5914 7.64414 72.4541 5.54119 71.183ZM8.01132 66.3326V67.2358C11.0823 68.8749 14.0197 70.5809 17.1908 72.0527C23.803 74.6309 30.7969 76.0892 37.8865 76.3678C59.45 77.5721 81.0136 78.7763 102.577 79.345C116.73 79.7464 130.883 79.345 145.037 78.8097C160.257 78.5146 175.41 76.6879 190.267 73.3573C199.388 71.5575 208.225 68.5307 216.537 64.359C220.507 62.3082 223.765 59.1014 225.883 55.1601C227.05 53.2713 227.559 51.0479 227.329 48.8383C227.1 46.6288 226.145 44.558 224.615 42.9506C222.354 40.459 219.785 38.2669 216.971 36.4277C211.37 33.0317 205.262 30.5583 198.879 29.102C185.86 25.7245 172.524 23.7178 159.09 23.1143C146.035 22.1108 132.923 22.1108 119.868 23.1143C102.443 24.9619 85.2312 28.4563 68.4627 33.5509C49.6111 38.7901 31.8888 47.4772 16.1894 59.1742C13.3521 61.3485 10.7151 63.9242 8.01132 66.3326V66.3326Z" fill="#FED849"/>
        <path d="M5.54119 71.183L5.79984 70.7551L5.26071 70.4292L5.06574 71.0282L5.54119 71.183ZM7.14344 78.5756L7.51795 78.2442L7.51201 78.2377L7.14344 78.5756ZM18.2924 85.4664L18.4345 84.9869L18.4212 84.9833L18.2924 85.4664ZM43.3942 89.5809L43.4337 89.0824L43.4232 89.0816L43.4126 89.0812L43.3942 89.5809ZM91.2946 88.0087L91.3668 88.5035L91.3669 88.5034L91.2946 88.0087ZM91.9956 92.3238L91.9377 91.8272L91.934 91.8276L91.9956 92.3238ZM70.9328 94.7323L70.9138 94.2325L70.904 94.2331L70.9328 94.7323ZM26.0366 92.3573L26.1178 91.8639L26.1088 91.8624L26.0997 91.8613L26.0366 92.3573ZM6.84302 84.9981L7.12759 84.587L7.11704 84.5797L7.10612 84.5729L6.84302 84.9981ZM1.63572 67.8714L2.09118 68.0777L2.09735 68.0641L2.10269 68.0501L1.63572 67.8714ZM1.63572 66.0985L2.10269 65.9198L2.09106 65.8894L2.07559 65.8607L1.63572 66.0985ZM3.00431 52.3502L3.38859 52.6701L3.39466 52.6628L3.40045 52.6553L3.00431 52.3502ZM16.6901 39.6055L16.9663 40.0225L16.9752 40.0163L16.6901 39.6055ZM66.1594 15.8221L66.3022 16.3014L66.3145 16.2974L66.1594 15.8221ZM144.035 0.702354L144.069 1.20121L144.073 1.20091L144.035 0.702354ZM229.555 8.02806L229.692 7.54723L229.685 7.54511L229.677 7.54323L229.555 8.02806ZM235.797 10.2358L235.601 10.6959L235.605 10.6975L235.797 10.2358ZM237.9 13.5809L238.364 13.766L238.375 13.74L238.382 13.713L237.9 13.5809ZM235.931 15.4876L235.761 15.0172L235.747 15.0221L235.734 15.0278L235.931 15.4876ZM232.025 14.183L232.458 13.9331L232.437 13.896L232.409 13.863L232.025 14.183ZM229.789 12.845L229.668 13.3303L229.678 13.3328L229.688 13.3348L229.789 12.845ZM185.393 5.71996L185.431 5.22138L185.431 5.22138L185.393 5.71996ZM97.2029 12.4101L97.3002 12.9005L97.3078 12.899L97.3153 12.8973L97.2029 12.4101ZM35.5833 33.4506L35.3603 33.003L35.3602 33.0031L35.5833 33.4506ZM10.2812 51.0122L9.93998 50.6467L9.93259 50.6536L9.92549 50.6608L10.2812 51.0122ZM5.67472 57.2675L5.2336 57.0321L5.21813 57.0611L5.20658 57.0919L5.67472 57.2675ZM4.70669 62.0175L4.20716 61.9959L4.18463 62.5175H4.70669V62.0175ZM5.30753 62.0175V62.5175H5.49052L5.63028 62.3994L5.30753 62.0175ZM13.6192 55.0263L13.3233 54.6232L13.3225 54.6238L13.6192 55.0263ZM69.5308 28.2657L69.6592 28.749L69.6667 28.747L69.6741 28.7448L69.5308 28.2657ZM126.577 17.896L126.556 17.3963L126.543 17.3972L126.577 17.896ZM172.375 19.4347L172.32 19.9318L172.331 19.9329L172.375 19.4347ZM210.295 27.7974L210.124 28.2676L210.131 28.2701L210.138 28.2724L210.295 27.7974ZM228.487 40.1407L228.103 40.4616L228.108 40.4666L228.487 40.1407ZM229.522 58.7393L229.108 58.4576L229.104 58.4647L229.099 58.4718L229.522 58.7393ZM216.17 70.146L215.971 69.6869L215.968 69.6886L216.17 70.146ZM184.859 79.5791L184.775 79.0862L184.768 79.0875L184.859 79.5791ZM144.603 83.6267L144.594 83.1267L144.588 83.1269L144.603 83.6267ZM104.914 84.2622L104.905 84.7621L104.906 84.7622L104.914 84.2622ZM36.6181 80.9171L36.6759 80.4205L36.6616 80.4188L36.6472 80.418L36.6181 80.9171ZM11.4161 74.5615L11.1921 75.0085L11.1986 75.0118L11.2051 75.0148L11.4161 74.5615ZM8.01132 67.2358H7.51132V67.5357L7.77589 67.6769L8.01132 67.2358ZM17.1908 72.0527L16.9803 72.5062L16.9946 72.5128L17.0092 72.5185L17.1908 72.0527ZM37.8865 76.3678L37.9144 75.8686L37.9061 75.8682L37.8865 76.3678ZM102.577 79.345L102.591 78.8452L102.59 78.8451L102.577 79.345ZM145.037 78.8097L145.027 78.3098L145.018 78.3101L145.037 78.8097ZM190.267 73.3573L190.17 72.8666L190.157 72.8694L190.267 73.3573ZM216.537 64.359L216.761 64.806L216.766 64.8033L216.537 64.359ZM225.883 55.1601L225.458 54.8973L225.45 54.9101L225.443 54.9234L225.883 55.1601ZM224.615 42.9506L224.244 43.2866L224.253 43.2953L224.615 42.9506ZM216.971 36.4277L217.244 36.0091L217.237 36.0045L217.23 36.0002L216.971 36.4277ZM198.879 29.102L198.753 29.586L198.76 29.5878L198.767 29.5895L198.879 29.102ZM159.09 23.1143L159.051 23.6129L159.059 23.6135L159.067 23.6138L159.09 23.1143ZM119.868 23.1143L119.83 22.6158L119.822 22.6164L119.815 22.6171L119.868 23.1143ZM68.4627 33.5509L68.5966 34.0328L68.608 34.0294L68.4627 33.5509ZM16.1894 59.1742L15.8907 58.7732L15.8853 58.7773L16.1894 59.1742ZM5.06574 71.0282C4.62698 72.3763 4.55402 73.8171 4.85434 75.2027L5.83165 74.9909C5.56883 73.7783 5.63269 72.5174 6.01665 71.3377L5.06574 71.0282ZM4.85434 75.2027C5.15466 76.5883 5.81746 77.8691 6.77487 78.9135L7.51201 78.2377C6.67446 77.3241 6.09446 76.2035 5.83165 74.9909L4.85434 75.2027ZM6.76899 78.9069C9.79392 82.3255 13.7572 84.7751 18.1636 85.9496L18.4212 84.9833C14.205 83.8596 10.4126 81.5156 7.51789 78.2443L6.76899 78.9069ZM18.1503 85.9458C26.353 88.3767 34.8277 89.7659 43.3758 90.0805L43.4126 89.0812C34.9484 88.7696 26.5567 87.3941 18.4345 84.987L18.1503 85.9458ZM43.3547 90.0793C59.3673 91.349 75.4714 90.8205 91.3668 88.5035L91.2225 87.5139C75.4011 89.8202 59.3719 90.3463 43.4337 89.0824L43.3547 90.0793ZM91.3669 88.5034C92.1751 88.3853 92.8935 88.3424 93.3968 88.5215C93.6298 88.6045 93.7992 88.7296 93.9169 88.9111C94.0379 89.0977 94.1326 89.3883 94.1326 89.8485H95.1326C95.1326 89.255 95.0104 88.7594 94.7559 88.367C94.498 87.9693 94.1334 87.7223 93.7322 87.5795C92.967 87.3071 92.0164 87.3979 91.2223 87.5139L91.3669 88.5034ZM94.1326 89.8485C94.1326 90.8026 93.8671 91.1939 93.5664 91.4035C93.2078 91.6535 92.6823 91.7404 91.9377 91.8272L92.0535 92.8205C92.7443 92.74 93.5373 92.6429 94.1383 92.2239C94.7973 91.7645 95.1326 91.0018 95.1326 89.8485H94.1326ZM91.934 91.8276C84.8865 92.702 77.9289 93.9661 70.9138 94.2326L70.9518 95.2319C78.0231 94.9632 85.0851 93.6851 92.0572 92.82L91.934 91.8276ZM70.904 94.2331C55.9338 95.0957 40.9143 94.3011 26.1178 91.8639L25.9553 92.8506C40.8244 95.2998 55.9177 96.0982 70.9615 95.2315L70.904 94.2331ZM26.0997 91.8613C19.2858 90.9938 12.7793 88.4991 7.12759 84.587L6.55844 85.4092C12.3419 89.4126 19.0003 91.9655 25.9734 92.8533L26.0997 91.8613ZM7.10612 84.5729C4.41139 82.9055 2.41538 80.3106 1.49216 77.2742L0.535402 77.5651C1.52925 80.8338 3.67812 83.6277 6.57992 85.4233L7.10612 84.5729ZM1.49216 77.2742C0.56893 74.2377 0.781917 70.9681 2.09118 68.0777L1.18027 67.6651C-0.229189 70.7767 -0.458438 74.2963 0.535402 77.5651L1.49216 77.2742ZM2.10269 68.0501C2.36516 67.3643 2.36516 66.6055 2.10269 65.9198L1.16876 66.2772C1.34314 66.7328 1.34314 67.237 1.16876 67.6926L2.10269 68.0501ZM2.07559 65.8607C0.952479 63.7828 0.4772 61.4149 0.711295 59.0633L-0.283787 58.9643C-0.537655 61.5145 -0.0222547 64.0825 1.19586 66.3362L2.07559 65.8607ZM0.711295 59.0633C0.945389 56.7117 1.87807 54.4847 3.38859 52.6701L2.62003 52.0303C0.981564 53.9986 -0.0299185 56.414 -0.283787 58.9643L0.711295 59.0633ZM3.40045 52.6553C7.19758 47.7246 11.7812 43.4562 16.9662 40.0224L16.4141 39.1886C11.1371 42.6833 6.47243 47.0273 2.60816 52.0452L3.40045 52.6553ZM16.9752 40.0163C32.0615 29.545 48.7111 21.5403 66.3021 16.3013L66.0167 15.3429C48.324 20.6122 31.5783 28.6631 16.405 39.1948L16.9752 40.0163ZM66.3145 16.2974C91.5135 8.07564 117.63 3.00516 144.069 1.20119L144.001 0.203513C117.479 2.0131 91.2817 7.09937 66.0043 15.3467L66.3145 16.2974ZM144.073 1.20091C172.734 -0.982993 201.558 1.48612 229.433 8.51289L229.677 7.54323C201.698 0.490088 172.765 -1.9883 143.997 0.203799L144.073 1.20091ZM229.418 8.50888C231.522 9.10907 233.587 9.83949 235.601 10.6959L235.993 9.77568C233.94 8.90303 231.836 8.15878 229.692 7.54723L229.418 8.50888ZM235.605 10.6975C236.244 10.9631 236.797 11.328 237.137 11.7814C237.46 12.2132 237.609 12.7487 237.418 13.4488L238.382 13.713C238.658 12.7071 238.44 11.8543 237.937 11.1822C237.45 10.5318 236.718 10.0772 235.989 9.77408L235.605 10.6975ZM237.435 13.3958C237.287 13.7695 237.06 14.1072 236.772 14.3867L237.467 15.1051C237.857 14.7273 238.163 14.2709 238.364 13.766L237.435 13.3958ZM236.772 14.3867C236.483 14.6662 236.138 14.8811 235.761 15.0172L236.1 15.9579C236.611 15.7737 237.077 15.483 237.467 15.1051L236.772 14.3867ZM235.734 15.0278C235.149 15.2779 234.493 15.3046 233.889 15.1031L233.573 16.0516C234.408 16.3307 235.317 16.2936 236.127 15.9473L235.734 15.0278ZM233.889 15.1031C233.286 14.9015 232.777 14.4855 232.458 13.9331L231.592 14.4328C232.033 15.1965 232.737 15.7724 233.573 16.0516L233.889 15.1031ZM232.409 13.863C231.764 13.0886 230.875 12.5568 229.889 12.3551L229.688 13.3348C230.452 13.491 231.141 13.9029 231.641 14.503L232.409 13.863ZM229.909 12.3596C215.307 8.74398 200.429 6.35627 185.431 5.22138L185.355 6.21853C200.298 7.34921 215.121 9.72806 229.668 13.3303L229.909 12.3596ZM185.431 5.22138C155.815 2.98488 126.033 5.24421 97.0905 11.9229L97.3153 12.8973C126.159 6.24129 155.841 3.98964 185.355 6.21854L185.431 5.22138ZM97.1056 11.9197C75.6815 16.1709 54.9174 23.2609 35.3603 33.003L35.8062 33.8981C55.2837 24.1957 75.9633 17.1345 97.3002 12.9005L97.1056 11.9197ZM35.3602 33.0031C26.0832 37.627 17.5213 43.5695 9.93998 50.6467L10.6224 51.3777C18.1333 44.3663 26.6156 38.4789 35.8063 33.8981L35.3602 33.0031ZM9.92549 50.6608C8.06256 52.5463 6.48218 54.6924 5.2336 57.0321L6.11583 57.5029C7.31898 55.2483 8.84182 53.1804 10.6368 51.3636L9.92549 50.6608ZM5.20658 57.0919C4.61694 58.6634 4.27962 60.3186 4.20716 61.9959L5.20623 62.0391C5.27413 60.4671 5.59027 58.9159 6.14285 57.4431L5.20658 57.0919ZM4.70669 62.5175H5.30753V61.5175H4.70669V62.5175ZM5.63028 62.3994C8.43227 60.0313 11.0283 57.5575 13.9159 55.4288L13.3225 54.6238C10.402 56.7768 7.72389 59.3206 4.98478 61.6356L5.63028 62.3994ZM13.915 55.4294C30.6738 43.1305 49.5803 34.0814 69.6592 28.749L69.4025 27.7825C49.2028 33.147 30.1827 42.2505 13.3234 54.6232L13.915 55.4294ZM69.6741 28.7448C88.2139 23.1991 107.31 19.728 126.612 18.3948L126.543 17.3972C107.167 18.7354 87.9982 22.2198 69.3875 27.7867L69.6741 28.7448ZM126.599 18.3956C141.856 17.7382 157.141 18.2517 172.32 19.9317L172.43 18.9378C157.2 17.2522 141.864 16.7369 126.556 17.3965L126.599 18.3956ZM172.331 19.9329C185.237 21.0568 197.941 23.8586 210.124 28.2676L210.465 27.3273C198.199 22.8887 185.41 20.0681 172.418 18.9366L172.331 19.9329ZM210.138 28.2724C217.143 30.5781 223.366 34.8 228.103 40.4616L228.87 39.8199C224.013 34.0153 217.633 29.6866 210.451 27.3225L210.138 28.2724ZM228.108 40.4666C230.229 42.9358 231.477 46.0381 231.658 49.2916L232.657 49.2361C232.463 45.7631 231.131 42.4511 228.866 39.8149L228.108 40.4666ZM231.658 49.2916C231.839 52.5451 230.943 55.7674 229.108 58.4576L229.935 59.021C231.893 56.1489 232.85 52.7091 232.657 49.2361L231.658 49.2916ZM229.099 58.4718C225.948 63.4482 221.373 67.3566 215.971 69.6869L216.368 70.6051C221.954 68.195 226.685 64.1529 229.944 59.0068L229.099 58.4718ZM215.968 69.6886C205.994 74.0918 195.518 77.2481 184.775 79.0863L184.943 80.072C195.767 78.2199 206.323 75.0398 216.371 70.6034L215.968 69.6886ZM184.768 79.0875C171.512 81.5493 158.074 82.9003 144.594 83.1267L144.611 84.1266C158.146 83.8992 171.64 82.5426 184.95 80.0707L184.768 79.0875ZM144.588 83.1269C131.232 83.5284 118.126 83.9628 104.921 83.7623L104.906 84.7622C118.138 84.9631 131.269 84.5277 144.618 84.1264L144.588 83.1269ZM104.923 83.7623C82.151 83.3608 59.3451 83.0597 36.6759 80.4205L36.5602 81.4138C59.2879 84.0598 82.146 84.3608 104.905 84.7621L104.923 83.7623ZM36.6472 80.418C27.9853 79.9116 19.4965 77.7708 11.6271 74.1082L11.2051 75.0148C19.1889 78.7306 27.8009 80.9025 36.5889 81.4163L36.6472 80.418ZM11.6401 74.1145C9.72619 73.1555 7.91093 72.0311 5.79984 70.7551L5.28255 71.6109C7.37735 72.8771 9.2339 74.0274 11.1921 75.0085L11.6401 74.1145ZM7.51132 66.3326V67.2358H8.51132V66.3326H7.51132ZM7.77589 67.6769C10.8261 69.3049 13.7925 71.0267 16.9803 72.5062L17.4013 71.5992C14.247 70.1351 11.3384 68.4448 8.24675 66.7947L7.77589 67.6769ZM17.0092 72.5185C23.6731 75.1169 30.7218 76.5866 37.8669 76.8675L37.9061 75.8682C30.8721 75.5918 23.9329 74.1449 17.3725 71.5869L17.0092 72.5185ZM37.8586 76.8671C59.4209 78.0712 80.9918 79.2759 102.564 79.8448L102.59 78.8451C81.0353 78.2767 59.4791 77.0729 37.9144 75.8686L37.8586 76.8671ZM102.563 79.8448C116.734 80.2467 130.901 79.8447 145.055 79.3094L145.018 78.3101C130.866 78.8452 116.727 79.2461 102.591 78.8452L102.563 79.8448ZM145.046 79.3097C160.301 79.0138 175.487 77.1832 190.376 73.8452L190.157 72.8694C175.333 76.1927 160.214 78.0153 145.027 78.3098L145.046 79.3097ZM190.363 73.8478C199.529 72.0394 208.408 68.9979 216.761 64.8059L216.312 63.9122C208.041 68.0636 199.247 71.0757 190.17 72.8667L190.363 73.8478ZM216.766 64.8033C220.826 62.7061 224.158 59.4268 226.324 55.3968L225.443 54.9234C223.373 58.7759 220.188 61.9104 216.307 63.9148L216.766 64.8033ZM226.308 55.4229C227.534 53.4401 228.067 51.106 227.826 48.7867L226.832 48.89C227.05 50.9897 226.567 53.1026 225.458 54.8973L226.308 55.4229ZM227.826 48.7867C227.585 46.4673 226.583 44.2934 224.977 42.6058L224.253 43.2953C225.706 44.8226 226.614 46.7903 226.832 48.89L227.826 48.7867ZM224.985 42.6146C222.696 40.0915 220.095 37.8717 217.244 36.0091L216.697 36.8463C219.476 38.6622 222.013 40.8265 224.244 43.2865L224.985 42.6146ZM217.23 36.0002C211.583 32.5763 205.425 30.0828 198.99 28.6145L198.767 29.5895C205.098 31.0339 211.156 33.487 216.711 36.8552L217.23 36.0002ZM199.004 28.618C185.951 25.2318 172.582 23.2199 159.112 22.6148L159.067 23.6138C172.467 24.2157 185.768 26.2173 198.753 29.586L199.004 28.618ZM159.128 22.6158C146.048 21.6103 132.91 21.6103 119.83 22.6158L119.906 23.6129C132.935 22.6112 146.022 22.6112 159.051 23.6129L159.128 22.6158ZM119.815 22.6171C102.359 24.468 85.1161 27.9687 68.3173 33.0725L68.608 34.0294C85.3464 28.9439 102.527 25.4558 119.921 23.6115L119.815 22.6171ZM68.3288 33.0692C49.4178 38.3249 31.6395 47.0394 15.8907 58.7732L16.4882 59.5751C32.1381 47.915 49.8045 39.2553 68.5965 34.0327L68.3288 33.0692ZM15.8853 58.7773C13.0287 60.9664 10.3588 63.5719 7.67875 65.9593L8.3439 66.706C11.0714 64.2764 13.6756 61.7305 16.4936 59.5711L15.8853 58.7773Z" fill="#FED849" mask="url(#path-1-inside-1_813_1273)"/>
    </g>
    <defs>
        <clipPath id="clip0_813_1273">
            <rect width="238" height="95" fill="white"/>
        </clipPath>
    </defs>
</svg>
