<svg width="64" height="76" viewBox="0 0 64 76" fill="none" xmlns="http://www.w3.org/2000/svg">
    <g clip-path="url(#clip0_807_1184)">
        <path d="M39.7072 11.1899C38.9703 11.6279 38.2735 12.13 37.6248 12.6905C33.9674 16.4435 30.4426 20.3376 26.7018 24.013C21.8982 28.7555 16.9257 33.2875 12.0298 37.9164C11.006 38.8865 9.97721 39.8525 8.98978 40.8551C7.84187 42.0204 6.60713 42.3182 5.42187 41.6534C4.79607 41.3015 4.3253 40.7274 4.1029 40.0448C3.8805 39.3622 3.92269 38.6209 4.22112 37.9679C4.65802 36.9808 5.29272 36.0937 6.086 35.3615C15.0946 27.3031 23.2306 18.3756 31.6228 9.69431C33.7578 7.48484 36.0946 5.4542 38.377 3.39321C38.9806 2.82441 39.6635 2.3461 40.4044 1.9732C40.8964 1.74309 41.4368 1.63541 41.9794 1.65936C42.5221 1.6833 43.0509 1.83816 43.5207 2.11072C43.9906 2.38328 44.3875 2.76545 44.6777 3.22463C44.9678 3.68381 45.1426 4.20636 45.1871 4.74771C45.4024 6.78737 43.6453 10.1294 41.7954 11.0704C41.1983 11.3133 40.5814 11.5042 39.9514 11.6409L39.7072 11.1899Z" fill="#00B6FF"/>
        <path d="M58.2904 25.3908C58.5923 27.8774 55.9269 30.9323 53.4543 30.6271C52.3937 30.5035 51.3231 30.7511 50.4245 31.3277C42.0259 35.9984 33.0105 39.205 23.9788 42.3535C23.3452 42.5598 22.6872 42.6817 22.0217 42.7159C21.4362 42.7898 20.8432 42.6576 20.3445 42.3421C19.8458 42.0266 19.4724 41.5473 19.2884 40.9865C19.0445 40.4001 19.0232 39.7447 19.2285 39.1436C19.4339 38.5426 19.8516 38.0372 20.4034 37.7224C21.1822 37.2611 22.001 36.8709 22.8498 36.5566C28.9038 34.0053 35.0041 31.5686 41.0051 28.8851C44.3376 27.4037 47.503 25.5359 50.757 23.8653C51.7596 23.277 52.8238 22.8006 53.9305 22.4448C54.4128 22.3039 54.9202 22.271 55.4166 22.3486C55.913 22.4262 56.3862 22.6122 56.8025 22.8935C57.2188 23.1748 57.568 23.5445 57.8251 23.9761C58.0823 24.4077 58.2411 24.8908 58.2904 25.3908Z" fill="#00B6FF"/>
        <path d="M55.1765 69.6681C54.5695 69.5462 53.9736 69.3743 53.3949 69.1542C48.089 66.7898 42.8088 64.3715 37.5068 62.002C34.9314 60.8497 32.2974 59.8246 29.7438 58.6235C28.8597 58.1807 28.0688 57.5723 27.4142 56.8313C26.5837 55.9292 26.7088 54.828 27.3406 53.827C27.6005 53.3967 27.9797 53.051 28.4322 52.832C28.8847 52.613 29.391 52.53 29.8897 52.5932C30.2154 52.6154 30.5358 52.6872 30.8399 52.806C38.6167 55.9564 46.3854 59.1155 54.1459 62.2833C55.2228 62.7207 56.246 63.2803 57.1952 63.9512C58.3214 64.7387 58.5451 66.0102 58.2361 67.3094C57.9788 68.4637 56.7661 69.4381 55.1765 69.6681Z" fill="#00B6FF"/>
    </g>
    <defs>
        <clipPath id="clip0_807_1184">
            <rect width="55.6131" height="69.1563" fill="white" transform="translate(0 6.70312) rotate(-6.92252)"/>
        </clipPath>
    </defs>
</svg>
