<svg width="262" height="89" viewBox="0 0 262 89" fill="none" xmlns="http://www.w3.org/2000/svg">
    <path d="M9.92609 60.5059C10.9041 59.105 11.7491 58.1897 12.2509 57.1155C14.0396 53.3082 15.9698 49.5397 17.3639 45.5864C20.7954 35.8879 23.9481 26.0948 27.2294 16.3404C27.4219 15.6664 27.6554 15.0049 27.9286 14.3595C28.7221 12.7051 30.1505 12.0047 31.7419 12.4215C32.5414 12.6385 33.2303 13.1486 33.672 13.8506C34.1138 14.5526 34.2761 15.3953 34.1268 16.2115C33.8951 17.8272 33.5391 19.43 33.2217 21.0328C32.0232 27.2338 31.4755 33.5433 31.5874 39.8584C31.6518 44.916 32.0807 49.9866 33.775 54.8294C34.4442 56.733 35.1133 58.6581 36.8162 59.9429C38.369 59.7066 39.2311 58.6065 39.8445 57.485C41.3629 54.6876 42.9157 51.873 44.0438 48.8908C46.2357 43.1156 47.3123 37.0266 48.2603 30.9419C49.6114 22.3477 50.8339 13.6848 52.1207 5.05627C52.1986 4.43748 52.3498 3.83019 52.5711 3.2472C53.5705 0.806458 56.5216 0.191975 58.3017 2.12137C60.0174 3.96481 60.4035 6.25516 60.0174 8.66583C59.9614 8.96907 59.8443 9.2577 59.6732 9.51407C59.5021 9.77044 59.2806 9.98917 59.0223 10.1569C57.8384 10.7499 57.7355 11.7296 57.5725 12.834C55.9039 23.5509 54.6171 34.3151 52.0006 44.8301C50.9597 49.3165 49.3616 53.6546 47.2437 57.7428C45.9912 60.089 44.5628 62.3149 42.5254 64.1025C38.7121 67.4757 33.8437 67.3382 30.6095 62.8134C28.2374 59.5046 27.0493 55.7232 26.3201 51.7871C25.844 49.2088 25.5737 46.6091 25.1405 43.5281C24.6472 44.6969 24.3341 45.4532 24.0081 46.2095C22.1337 50.5753 20.3621 54.9884 18.329 59.2769C17.4107 61.1714 16.2215 62.9215 14.7988 64.4721C11.4445 68.1633 7.12942 67.725 4.41424 63.5654C2.74279 60.9125 1.7471 57.8891 1.51462 54.7607C1.15144 51.285 0.9796 47.7919 0.9999 44.2973C1.13716 35.9566 1.70336 27.6418 3.39337 19.4429C3.82231 17.4577 4.30272 15.4939 4.79171 13.5301C4.95878 12.8483 5.17379 12.1791 5.43512 11.5277C6.29299 9.43071 7.89293 8.5627 9.61297 9.23734C11.1786 9.84752 11.9249 11.6222 11.1915 13.5946C9.51002 18.1065 9.10253 22.8591 8.59639 27.5644C7.95298 33.5245 7.43397 39.5189 7.30957 45.5047C7.22808 49.3721 7.37391 53.3125 8.55349 57.0811C8.86662 58.0909 9.33845 59.0491 9.92609 60.5059Z" fill="#FFA7FE"/>
    <path d="M116.968 43.8635C116.187 44.2029 115.556 44.4822 114.917 44.753C110.323 46.6737 105.013 43.3521 105.519 37.6069C106.025 31.7929 108.891 27.1435 113.982 24.0496C115.765 22.9044 117.878 22.3872 119.987 22.58C123.166 22.8937 125.276 24.6082 126.456 27.5646C126.837 28.5186 126.885 29.4682 126.237 30.2202C125.195 31.4578 125.16 32.9188 124.984 34.3755C123.921 43.1974 122.6 51.9935 119.837 60.4631C118.186 65.5852 115.98 70.5104 113.257 75.1505C110.799 79.3144 107.647 82.8079 103.469 85.3131C103.267 85.4335 103.066 85.5452 102.868 85.6698C101.303 86.6538 99.6985 87.0105 98.0814 85.8288C96.8633 84.9393 96.5759 83.633 96.9019 82.2665C97.3523 80.3973 98.5147 78.8632 100.445 78.6656C101.176 78.6026 101.885 78.3846 102.526 78.026C103.166 77.6674 103.723 77.1765 104.159 76.5858C105.616 74.8625 106.943 73.0342 108.131 71.1156C112.85 63.0714 115.355 54.2581 116.942 45.1397C116.981 44.7155 116.99 44.2889 116.968 43.8635ZM112.318 38.9906C116.178 36.4983 117.688 32.7039 119.344 28.7764C115.265 29.6143 111.563 34.9083 112.318 38.9906Z" fill="#FFA7FE"/>
    <path d="M148.902 45.565C147.83 46.0807 147.156 46.4545 146.444 46.7424C145.111 47.3302 143.608 47.404 142.225 46.9495C140.841 46.4951 139.673 45.5444 138.946 44.2802C137.967 42.7493 137.527 40.9339 137.698 39.1237C138.303 32.88 140.971 27.8095 146.423 24.4491C148.023 23.4651 149.751 22.7303 151.699 22.8248C154.534 22.9323 156.516 24.7027 156.417 27.5216C156.215 33.2453 155.868 38.9647 155.417 44.6755C154.946 50.3414 153.909 55.9457 152.321 61.4041C150.273 68.7133 146.579 75.4549 141.524 81.1105C139.448 83.4309 137.359 85.7556 135.09 87.8956C133.027 89.8551 130.2 89.0429 129.295 86.4174C128.72 84.7544 129.295 83.3622 130.805 82.4383C131.659 81.9324 132.46 81.3406 133.194 80.6722C142.262 72.078 146.809 61.3353 148.387 49.1273C148.554 48.0788 148.7 47.0131 148.902 45.565ZM150.699 29.5326C146.311 31.6811 143.429 37.0568 144.66 40.5546C147.529 37.3834 149.803 34.1176 150.699 29.5326Z" fill="#FFA7FE"/>
    <path d="M79.7786 54.7994L71.4786 55.3538C74.0523 57.932 73.4003 60.5103 72.3837 63.1143C71.6802 64.9148 70.3677 65.8086 68.8836 65.6668C67.3994 65.525 66.1212 64.498 65.9882 62.5127C65.6617 58.3258 65.5601 54.1244 65.6837 49.9266C65.8935 45.3267 66.8167 40.7877 68.4203 36.4724C69.15 34.5056 70.0769 32.6181 71.187 30.8389C71.9161 29.7345 72.8529 28.7829 73.945 28.0372C76.287 26.3785 79.0665 26.7825 80.7823 29.0599C81.7366 30.2869 82.43 31.6966 82.8198 33.2023C83.7548 37.2115 84.5784 41.2593 85.1489 45.3373C85.951 51.0352 86.4657 56.7718 87.1392 62.4912C87.2678 63.5698 87.5681 64.6398 87.7697 65.6926C88.1514 67.8153 87.0791 69.6373 85.239 70.0541C83.5232 70.4408 82.0176 69.2634 81.3785 67.1965C80.3834 64.0382 80.6365 60.7294 80.1174 57.5152C79.9716 56.6859 79.9244 55.8393 79.7786 54.7994ZM76.8961 34.8911L76.2699 34.8524C73.6319 39.1495 72.9113 44.0438 72.1735 49.2562C74.7043 49.1359 76.8918 49.1187 79.2596 48.3968C78.4489 43.7473 77.6725 39.3213 76.8961 34.8911Z" fill="#FFA7FE"/>
    <path d="M170.43 49.8063C170.838 47.5976 171.074 45.3416 171.691 43.1931C173.36 37.3662 175.882 31.9347 180.004 27.4185C181.399 25.9559 182.956 24.6584 184.645 23.5511C185.682 22.8768 186.853 22.4369 188.077 22.262C191.217 21.7979 193.537 23.7875 193.765 26.9888C194.043 30.8562 192.778 34.2122 190.389 37.1643C187.389 40.984 183.56 44.0698 179.194 46.1882C177.366 47.0476 176.749 48.2336 176.976 49.9997C177.116 51.3808 177.447 52.7358 177.958 54.026C178.542 55.371 179.335 55.5429 180.596 54.7523C181.745 53.9648 182.849 53.1141 183.903 52.2041C184.144 52.015 184.311 51.7314 184.547 51.5294C185.17 50.988 185.969 50.6934 186.794 50.7014C187.619 50.7093 188.412 51.0191 189.025 51.5724C190.264 52.7111 190.59 54.7394 189.398 56.007C186.919 58.6325 184.075 60.8498 180.455 61.6577C178.177 62.1647 176.144 61.3139 174.428 59.8056C172.146 57.8075 171.022 55.2077 170.739 52.2256C170.666 51.4521 170.739 50.67 170.739 49.8879L170.43 49.8063ZM186.73 30.1815C184.298 31.9001 182.433 34.3078 181.377 37.0955C183.552 35.0759 185.924 33.2282 186.73 30.1815Z" fill="#FFA7FE"/>
    <path d="M257.505 22.8379C255.086 26.1509 254.228 29.7777 254.168 33.5591C254.103 37.68 254.459 41.8095 254.421 45.9347C254.352 53.2612 251.139 59.1139 245.636 63.7891C244.978 64.336 244.246 64.786 243.462 65.1255C242.82 65.4243 242.095 65.4899 241.411 65.3111C240.727 65.1323 240.126 64.7202 239.713 64.1458C239.284 63.5818 239.059 62.8891 239.074 62.1806C239.089 61.4721 239.343 60.7895 239.794 60.244C240.203 59.7749 240.667 59.3566 241.175 58.9978C245.718 55.5602 248.038 51.001 248.038 45.3417C248.038 42.3853 247.738 39.4289 247.669 36.4725C247.515 30.0914 248.527 24.011 252.817 18.9705C253.782 17.8539 254.908 16.8878 256.158 16.1043C256.848 15.6422 257.674 15.428 258.502 15.4967C259.329 15.5654 260.109 15.9129 260.713 16.4825C262.034 17.7587 262.223 19.3358 261.794 21.0159C261.655 21.5934 261.325 22.1067 260.858 22.4725C260.391 22.8384 259.814 23.0353 259.221 23.0312C258.645 23.0098 258.071 22.9452 257.505 22.8379Z" fill="#FFA7FE"/>
    <path d="M220.796 34.5172C222.139 33.6148 223.443 32.6437 224.837 31.8358C227.059 30.5467 229.316 29.322 231.61 28.1618C232.313 27.8053 233.122 27.7197 233.884 27.9211C234.645 28.1225 235.307 28.597 235.743 29.2545C236.179 29.9121 236.358 30.707 236.248 31.4885C236.138 32.27 235.745 32.9838 235.144 33.4945C234.454 33.9917 233.719 34.4233 232.948 34.7836C230.803 36.0083 228.539 37.1169 226.458 38.4705C222.933 40.7032 220.224 44.02 218.737 47.9241C218.499 48.5841 218.199 49.22 217.841 49.8234C217.488 50.4394 216.941 50.9207 216.286 51.1921C215.631 51.4635 214.905 51.5095 214.221 51.3231C213.494 51.1343 212.861 50.6849 212.443 50.06C212.025 49.435 211.85 48.6781 211.952 47.9327C212.166 45.8443 212.578 43.7731 212.921 41.6976C213.667 37.1642 214.397 32.6222 215.194 28.0931C215.343 27.1747 215.663 26.2927 216.138 25.4933C216.996 24.1526 218.93 23.7745 220.307 24.5222C221.684 25.2699 221.95 26.6063 221.461 28.3552C220.925 30.276 220.659 32.2741 220.273 34.2422L220.796 34.5172Z" fill="#FFA7FE"/>
</svg>
