<svg width="20" height="16" viewBox="0 0 20 16" fill="none" xmlns="http://www.w3.org/2000/svg">
    <path d="M12.3715 10.4542H7.36914V1.69135H12.3715V10.4542Z" fill="#6C6BBD"/>
    <path d="M7.68645 6.07301C7.68645 4.29542 8.54029 2.712 9.86996 1.69158C8.89761 0.945396 7.67045 0.500026 6.33679 0.500026C3.17948 0.500026 0.620117 2.9951 0.620117 6.07301C0.620117 9.15093 3.17948 11.646 6.33679 11.646C7.67045 11.646 8.89761 11.2006 9.86996 10.4544C8.54029 9.43402 7.68645 7.8506 7.68645 6.07301Z" fill="#D32011"/>
    <path d="M19.1203 6.07301C19.1203 9.15093 16.561 11.646 13.4036 11.646C12.07 11.646 10.8428 11.2006 9.87012 10.4544C11.2001 9.43402 12.054 7.8506 12.054 6.07301C12.054 4.29542 11.2001 2.712 9.87012 1.69158C10.8428 0.945396 12.07 0.500026 13.4036 0.500026C16.561 0.500026 19.1203 2.9951 19.1203 6.07301Z" fill="#0099DF"/>
    <path d="M14.6078 13.5376C14.683 13.5376 14.791 13.5508 14.8736 13.5806L14.7586 13.903C14.6797 13.8732 14.6009 13.8634 14.5253 13.8634C14.2814 13.8634 14.1594 14.008 14.1594 14.2679V15.1499H13.7861V13.5772H14.1557V13.7681C14.2526 13.6299 14.3926 13.5376 14.6078 13.5376ZM13.2288 13.8898H12.6189V14.6004C12.6189 14.7582 12.6797 14.8637 12.8666 14.8637C12.9635 14.8637 13.0855 14.8339 13.1963 14.7748L13.3039 15.0674C13.1857 15.1431 12.9992 15.1895 12.8378 15.1895C12.3963 15.1895 12.2423 14.9722 12.2423 14.6068V13.8898H11.8941V13.5772H12.2423V13.1L12.6189 13.1V13.5772H13.2288V13.8898ZM8.453 14.2253C8.49284 13.9982 8.64315 13.8434 8.90885 13.8434C9.1491 13.8434 9.30352 13.9817 9.34294 14.2253H8.453ZM9.73062 14.3636C9.72693 13.8732 9.39674 13.5376 8.91584 13.5376C8.41358 13.5376 8.06204 13.8732 8.06204 14.3636C8.06204 14.8633 8.42795 15.1891 8.9413 15.1891C9.19962 15.1891 9.43617 15.13 9.64438 14.9688L9.46122 14.7153C9.31789 14.8208 9.13473 14.8799 8.96265 14.8799C8.72241 14.8799 8.50351 14.7778 8.44972 14.495H9.72323C9.72693 14.4521 9.73062 14.4095 9.73062 14.3636ZM11.3701 13.9787C11.2662 13.9191 11.0547 13.8434 10.8358 13.8434C10.6312 13.8434 10.5093 13.9127 10.5093 14.028C10.5093 14.1331 10.6382 14.1628 10.7996 14.1824L10.9754 14.2054C11.3487 14.2551 11.5746 14.3997 11.5746 14.6761C11.5746 14.9755 11.2875 15.1895 10.7926 15.1895C10.5126 15.1895 10.2542 15.1236 10.0497 14.9853L10.2255 14.7187C10.3512 14.8076 10.538 14.8833 10.7963 14.8833C11.051 14.8833 11.1873 14.8144 11.1873 14.6923C11.1873 14.6038 11.0904 14.5541 10.8859 14.5281L10.7101 14.5052C10.3261 14.4554 10.1179 14.2976 10.1179 14.0412C10.1179 13.7286 10.398 13.5376 10.8321 13.5376C11.1048 13.5376 11.3524 13.5938 11.5314 13.7022L11.3701 13.9787ZM15.9717 13.8627C15.8949 13.8627 15.8239 13.8751 15.7577 13.8996C15.692 13.9244 15.635 13.9591 15.5869 14.0035C15.5389 14.0479 15.5011 14.1014 15.4736 14.1636C15.446 14.2257 15.4325 14.2943 15.4325 14.3688C15.4325 14.4438 15.446 14.5119 15.4736 14.5741C15.5011 14.6362 15.5389 14.6897 15.5869 14.7341C15.635 14.7786 15.692 14.8132 15.7577 14.8381C15.8239 14.8629 15.8949 14.875 15.9717 14.875C16.0485 14.875 16.12 14.8629 16.1857 14.8381C16.2518 14.8132 16.3093 14.7786 16.3573 14.7341C16.4062 14.6897 16.444 14.6362 16.4719 14.5741C16.4994 14.5119 16.513 14.4438 16.513 14.3688C16.513 14.2943 16.4994 14.2257 16.4719 14.1636C16.444 14.1014 16.4062 14.0479 16.3573 14.0035C16.3093 13.9591 16.2518 13.9244 16.1857 13.8996C16.12 13.8751 16.0485 13.8627 15.9717 13.8627ZM15.9717 13.5376C16.1048 13.5376 16.228 13.5587 16.3413 13.6013C16.4547 13.6435 16.5528 13.7018 16.6354 13.776C16.7183 13.8502 16.7828 13.938 16.8296 14.0389C16.8764 14.1402 16.8998 14.2502 16.8998 14.3688C16.8998 14.4875 16.8764 14.5974 16.8296 14.6987C16.7828 14.7997 16.7183 14.8878 16.6354 14.962C16.5528 15.0362 16.4547 15.0942 16.3413 15.1367C16.228 15.1789 16.1048 15.2 15.9717 15.2C15.8386 15.2 15.7154 15.1789 15.6021 15.1367C15.4888 15.0942 15.3914 15.0362 15.3093 14.962C15.2271 14.8878 15.1627 14.7997 15.1159 14.6987C15.069 14.5974 15.0456 14.4875 15.0456 14.3688C15.0456 14.2502 15.069 14.1402 15.1159 14.0389C15.1627 13.938 15.2271 13.8502 15.3093 13.776C15.3914 13.7018 15.4888 13.6435 15.6021 13.6013C15.7154 13.5587 15.8386 13.5376 15.9717 13.5376ZM6.27312 14.3636C6.27312 14.0871 6.47065 13.86 6.79345 13.86C7.10187 13.86 7.31008 14.0773 7.31008 14.3636C7.31008 14.6498 7.10187 14.8667 6.79345 14.8667C6.47065 14.8667 6.27312 14.64 6.27312 14.3636ZM7.66162 14.3636V13.5772H7.28873V13.7681C7.17004 13.6265 6.99098 13.5376 6.74704 13.5376C6.26614 13.5376 5.88954 13.883 5.88954 14.3636C5.88954 14.8437 6.26614 15.1895 6.74704 15.1895C6.99098 15.1895 7.17004 15.1006 7.28873 14.959V15.1499H7.66162V14.3636ZM5.55936 15.1499V14.1628C5.55936 13.7911 5.30104 13.541 4.88502 13.5376C4.66613 13.5342 4.43985 13.5968 4.28215 13.8175C4.16387 13.6431 3.97701 13.5376 3.715 13.5376C3.53225 13.5376 3.35278 13.587 3.21274 13.7711V13.5772H2.83984V15.1499H3.21644V14.2781C3.21644 14.005 3.38153 13.86 3.63615 13.86C3.88379 13.86 4.00946 14.008 4.00946 14.2747V15.1499H4.38605V14.2781C4.38605 14.005 4.55853 13.86 4.80576 13.86C5.06079 13.86 5.18277 14.008 5.18277 14.2747V15.1499H5.55936Z" fill="white"/>
</svg>
