<svg width="19" height="16" viewBox="0 0 19 16" fill="none" xmlns="http://www.w3.org/2000/svg">
    <path d="M11.7821 1.68921H6.91992V10.4305H11.7821V1.68921Z" fill="#FF5F00"/>
    <path d="M7.22908 6.05982C7.22908 4.28377 8.06258 2.70849 9.34372 1.68918C8.40216 0.947875 7.21364 0.5 5.91707 0.5C2.84544 0.5 0.360352 2.98648 0.360352 6.05982C0.360352 9.13317 2.84544 11.6196 5.91707 11.6196C7.21364 11.6196 8.40216 11.1718 9.34372 10.4305C8.06258 9.42661 7.22908 7.83588 7.22908 6.05982Z" fill="#EB001B"/>
    <path d="M18.3427 6.05982C18.3427 9.13317 15.8577 11.6196 12.786 11.6196C11.4895 11.6196 10.3009 11.1718 9.35938 10.4305C10.6559 9.41116 11.474 7.83588 11.474 6.05982C11.474 4.28377 10.6405 2.70849 9.35938 1.68918C10.3009 0.947875 11.4895 0.5 12.786 0.5C15.8577 0.5 18.3427 3.00192 18.3427 6.05982Z" fill="#F79E1B"/>
    <path d="M2.98321 15.1691V14.2426C2.98321 13.8875 2.74321 13.6559 2.33178 13.6559C2.12607 13.6559 1.90321 13.7176 1.74892 13.9184C1.62892 13.7485 1.45749 13.6559 1.20035 13.6559C1.02892 13.6559 0.857494 13.7022 0.720352 13.872V13.6867H0.360352V15.1691H0.720352V14.3507C0.720352 14.0882 0.874637 13.9647 1.11464 13.9647C1.35464 13.9647 1.47464 14.1037 1.47464 14.3507V15.1691H1.83464V14.3507C1.83464 14.0882 2.00607 13.9647 2.22892 13.9647C2.46892 13.9647 2.58892 14.1037 2.58892 14.3507V15.1691H2.98321ZM8.31464 13.6867H7.73178V13.2389H7.37178V13.6867H7.04607V13.9801H7.37178V14.6595C7.37178 14.9992 7.52607 15.2 7.93749 15.2C8.09178 15.2 8.26321 15.1537 8.38321 15.0919L8.28035 14.8139C8.17749 14.8757 8.05749 14.8912 7.97178 14.8912C7.80035 14.8912 7.73178 14.7985 7.73178 14.6441V13.9801H8.31464V13.6867ZM11.3661 13.6559C11.1604 13.6559 11.0232 13.7485 10.9375 13.872V13.6867H10.5775V15.1691H10.9375V14.3353C10.9375 14.0882 11.0575 13.9492 11.2804 13.9492C11.3489 13.9492 11.4346 13.9647 11.5032 13.9801L11.6061 13.6713C11.5375 13.6559 11.4346 13.6559 11.3661 13.6559ZM6.75464 13.8103C6.58321 13.7022 6.34321 13.6559 6.08607 13.6559C5.67464 13.6559 5.40035 13.8412 5.40035 14.1345C5.40035 14.3816 5.60607 14.5206 5.96607 14.5669L6.13749 14.5823C6.32607 14.6132 6.42892 14.6595 6.42892 14.7367C6.42892 14.8448 6.29178 14.922 6.05178 14.922C5.81178 14.922 5.62321 14.8448 5.50321 14.7676L5.33178 15.0147C5.52035 15.1382 5.77749 15.2 6.03464 15.2C6.51464 15.2 6.78892 14.9992 6.78892 14.7213C6.78892 14.4588 6.56607 14.3198 6.22321 14.2735L6.05178 14.2581C5.89749 14.2426 5.77749 14.2117 5.77749 14.1191C5.77749 14.011 5.89749 13.9492 6.08607 13.9492C6.29178 13.9492 6.49749 14.0264 6.60035 14.0728L6.75464 13.8103ZM16.3204 13.6559C16.1146 13.6559 15.9775 13.7485 15.8918 13.872V13.6867H15.5318V15.1691H15.8918V14.3353C15.8918 14.0882 16.0118 13.9492 16.2346 13.9492C16.3032 13.9492 16.3889 13.9647 16.4575 13.9801L16.5604 13.6713C16.4918 13.6559 16.3889 13.6559 16.3204 13.6559ZM11.7261 14.4279C11.7261 14.8757 12.0689 15.2 12.6004 15.2C12.8404 15.2 13.0118 15.1537 13.1832 15.0301L13.0118 14.7676C12.8746 14.8603 12.7375 14.9066 12.5832 14.9066C12.2918 14.9066 12.0861 14.7213 12.0861 14.4279C12.0861 14.15 12.2918 13.9647 12.5832 13.9492C12.7375 13.9492 12.8746 13.9956 13.0118 14.0882L13.1832 13.8257C13.0118 13.7022 12.8404 13.6559 12.6004 13.6559C12.0689 13.6559 11.7261 13.9801 11.7261 14.4279ZM15.0518 14.4279V13.6867H14.6918V13.872C14.5718 13.7331 14.4004 13.6559 14.1775 13.6559C13.7146 13.6559 13.3546 13.9801 13.3546 14.4279C13.3546 14.8757 13.7146 15.2 14.1775 15.2C14.4175 15.2 14.5889 15.1228 14.6918 14.9838V15.1691H15.0518V14.4279ZM13.7318 14.4279C13.7318 14.1654 13.9204 13.9492 14.2289 13.9492C14.5204 13.9492 14.7261 14.15 14.7261 14.4279C14.7261 14.6904 14.5204 14.9066 14.2289 14.9066C13.9204 14.8912 13.7318 14.6904 13.7318 14.4279ZM9.42892 13.6559C8.94892 13.6559 8.60607 13.9647 8.60607 14.4279C8.60607 14.8912 8.94892 15.2 9.44607 15.2C9.68607 15.2 9.92607 15.1382 10.1146 14.9992L9.94321 14.7676C9.80607 14.8603 9.63464 14.922 9.46321 14.922C9.24035 14.922 9.0175 14.8294 8.96607 14.5669H10.1832V14.4434C10.2004 13.9647 9.89178 13.6559 9.42892 13.6559ZM9.42892 13.9338C9.65178 13.9338 9.80607 14.0573 9.84035 14.2889H8.98321C9.0175 14.0882 9.17178 13.9338 9.42892 13.9338ZM18.3604 14.4279V13.1H18.0004V13.872C17.8804 13.7331 17.7089 13.6559 17.4861 13.6559C17.0232 13.6559 16.6632 13.9801 16.6632 14.4279C16.6632 14.8757 17.0232 15.2 17.4861 15.2C17.7261 15.2 17.8975 15.1228 18.0004 14.9838V15.1691H18.3604V14.4279ZM17.0404 14.4279C17.0404 14.1654 17.2289 13.9492 17.5375 13.9492C17.8289 13.9492 18.0346 14.15 18.0346 14.4279C18.0346 14.6904 17.8289 14.9066 17.5375 14.9066C17.2289 14.8912 17.0404 14.6904 17.0404 14.4279ZM5.00607 14.4279V13.6867H4.64607V13.872C4.52607 13.7331 4.35464 13.6559 4.13178 13.6559C3.66892 13.6559 3.30892 13.9801 3.30892 14.4279C3.30892 14.8757 3.66892 15.2 4.13178 15.2C4.37178 15.2 4.54321 15.1228 4.64607 14.9838V15.1691H5.00607V14.4279ZM3.66892 14.4279C3.66892 14.1654 3.85749 13.9492 4.16607 13.9492C4.45749 13.9492 4.66321 14.15 4.66321 14.4279C4.66321 14.6904 4.45749 14.9066 4.16607 14.9066C3.85749 14.8912 3.66892 14.6904 3.66892 14.4279Z" fill="white"/>
</svg>
