<svg width="25" height="7" viewBox="0 0 25 7" fill="none" xmlns="http://www.w3.org/2000/svg">
    <path d="M13.0479 2.23787C13.0343 3.21294 14.0004 3.75711 14.7281 4.08062C15.4758 4.41259 15.727 4.62544 15.7241 4.92226C15.7184 5.3766 15.1276 5.57709 14.5747 5.5849C13.6101 5.59857 13.0493 5.34731 12.6034 5.15724L12.2559 6.64069C12.7033 6.82881 13.5316 6.99284 14.3906 7C16.4069 7 17.7261 6.09197 17.7332 4.68402C17.7411 2.89725 15.0242 2.79831 15.0427 1.99963C15.0492 1.75749 15.3024 1.49907 15.8575 1.43333C16.1322 1.40013 16.8906 1.37474 17.7504 1.73601L18.0878 0.300725C17.6255 0.147108 17.0312 1.19209e-07 16.2913 1.19209e-07C14.3935 1.19209e-07 13.0586 0.920402 13.0479 2.23787ZM21.3306 0.123675C20.9624 0.123675 20.652 0.319602 20.5136 0.620327L17.6333 6.89455L19.6482 6.89455L20.0492 5.88367L22.5113 5.88367L22.7439 6.89455H24.5198L22.9701 0.123675H21.3306ZM21.6124 1.95276L22.1939 4.49526L20.6014 4.49526L21.6124 1.95276ZM10.6049 0.123675L9.01676 6.89455H10.9367L12.5242 0.123675L10.6049 0.123675ZM7.76462 0.123675L5.76619 4.73219L4.95783 0.813651C4.86294 0.376232 4.48836 0.123675 4.07241 0.123675H0.805428L0.759766 0.320253C1.43043 0.453041 2.19241 0.667194 2.65403 0.896318C2.93656 1.03627 3.01719 1.15864 3.10994 1.49126L4.64105 6.89455H6.67016L9.78089 0.123675H7.76462Z" fill="white"/>
</svg>


