<svg width="211" height="45" viewBox="0 0 211 45" fill="none" xmlns="http://www.w3.org/2000/svg">
    <g clip-path="url(#clip0_819_11103)">
        <path d="M199.793 18.7481L199.788 18.7759L199.791 18.8039C199.848 19.3093 199.894 19.7732 199.937 20.208C200.024 21.0982 200.099 21.8663 200.237 22.6195C200.511 24.1418 201.049 25.5777 202.182 26.7241L202.182 26.7242C202.979 27.5297 203.88 27.94 204.788 27.9187C205.696 27.8975 206.574 27.4451 207.326 26.5961L207.326 26.5959C207.757 26.1078 208.127 25.5701 208.43 24.9942L208.43 24.9939C210.09 21.8255 211.032 18.3315 211.188 14.7595C211.279 13.2236 210.994 11.6887 210.359 10.2869L210.359 10.2859C209.804 9.07975 208.904 8.04912 207.467 7.95995L207.466 7.95994C207.434 7.95796 207.402 7.95599 207.37 7.95404C206.013 7.87062 205.069 7.8126 204.288 8.0878C203.469 8.37623 202.855 9.01652 202.098 10.2398C201.495 11.1687 201.043 12.1876 200.761 13.2583L200.761 13.2583L200.76 13.2625C200.425 14.6546 200.208 16.0775 200.015 17.3448C199.939 17.84 199.867 18.3115 199.793 18.7481ZM202.674 20.2456C202.485 17.6616 202.839 15.0673 203.712 12.6288C204.093 12.7337 204.415 12.7475 204.694 12.6836C205.02 12.6087 205.265 12.4325 205.46 12.2149C205.652 12.0011 205.801 11.7423 205.935 11.4969C205.957 11.4574 205.978 11.4183 205.999 11.3797C206.1 11.1941 206.194 11.0194 206.3 10.8623C206.921 10.6894 207.276 10.678 207.514 10.8112C207.758 10.9476 207.948 11.2758 208.116 11.9987C208.348 13.0387 208.444 14.1042 208.402 15.1688L208.402 15.1688C208.28 18.2717 207.426 21.302 205.91 24.0136L205.91 24.0136L205.909 24.0152C205.879 24.0688 205.851 24.1223 205.822 24.1753C205.691 24.4211 205.566 24.6561 205.399 24.8408C205.21 25.0511 204.983 25.1789 204.643 25.1423C204.006 25.0735 203.64 24.5081 203.458 23.8965L203.458 23.8965L203.457 23.8921C203.073 22.7061 202.811 21.4844 202.674 20.2456Z" fill="#FFA7FE" stroke="#FFA7FE" stroke-width="0.4"/>
        <path d="M189.092 23.5591L189.093 23.5579C189.464 22.3588 189.746 21.1214 190.038 19.8426C190.157 19.3196 190.278 18.7896 190.407 18.2525C191.066 18.0333 191.53 17.7371 191.73 17.2803C191.941 16.7998 191.827 16.2143 191.505 15.5132L191.505 15.5132L191.504 15.5108C191.446 15.3885 191.368 15.2745 191.301 15.1759C191.292 15.1627 191.283 15.1497 191.274 15.1371C191.197 15.0234 191.136 14.9276 191.101 14.8288L191.098 14.8201L191.094 14.8117C190.961 14.5296 190.893 14.2219 190.895 13.9105C191.108 12.2903 191.33 10.6692 191.552 9.04762C191.852 6.86303 192.152 4.67763 192.429 2.49252L192.429 2.49254L192.429 2.48512C192.488 1.82775 192.398 1.16564 192.167 0.547388L192.162 0.533689L192.155 0.520881C192.047 0.325333 191.894 0.158168 191.709 0.0331128C191.524 -0.0919388 191.312 -0.171315 191.09 -0.198514L191.067 -0.201308L191.044 -0.198864C190.828 -0.175702 190.618 -0.109981 190.427 -0.00548257C190.237 0.0987915 190.069 0.239621 189.933 0.408922C189.801 0.569694 189.73 0.771552 189.686 0.963939C189.643 1.15206 189.622 1.35063 189.603 1.52085L189.602 1.53622L189.602 1.53653C189.519 2.3211 189.447 3.10271 189.374 3.8829C189.258 5.1285 189.142 6.37046 188.989 7.61502L188.988 7.61659C188.832 8.97085 188.642 10.32 188.451 11.6757C188.372 12.2402 188.292 12.8059 188.215 13.3736C185.708 13.7677 183.893 15.0507 182.909 17.3272L182.909 17.3282C181.941 19.6006 181.798 22.1388 182.503 24.5055C182.662 25.0458 182.903 25.5588 183.217 26.0268C183.805 26.9201 184.586 27.4256 185.408 27.4716C186.233 27.5177 187.048 27.0988 187.695 26.2498L187.696 26.2497C188.312 25.4395 188.785 24.5293 189.092 23.5591ZM187.177 20.5288C186.886 21.9741 186.455 23.3599 185.623 24.653C184.688 23.2738 184.523 21.4238 184.975 19.762C185.421 18.1252 186.452 16.714 187.876 16.1278C187.761 16.7793 187.667 17.4295 187.575 18.072C187.57 18.1099 187.565 18.1477 187.559 18.1855C187.445 18.9793 187.331 19.7611 187.177 20.5288Z" fill="#FFA7FE" stroke="#FFA7FE" stroke-width="0.4"/>
        <path d="M20.8714 27.9917C20.9094 27.9292 20.9468 27.8672 20.9838 27.8059C21.2069 27.4364 21.4159 27.0903 21.6542 26.7754L21.6544 26.7751C22.1767 26.087 22.8003 25.6901 23.4527 25.6687C24.1095 25.6472 24.7341 26.0078 25.2503 26.7017L25.2537 26.7062L25.2536 26.7063C25.8357 27.5366 26.2977 28.4447 26.6258 29.4038C27.5974 32.0236 27.9394 34.7794 28.2772 37.5017L28.2839 37.5558L28.2839 37.556C28.3215 37.8612 28.3633 38.1642 28.4054 38.4696L28.4088 38.494C28.4519 38.8071 28.4953 39.1227 28.5343 39.4429C28.5979 39.9319 28.5664 40.3463 28.4091 40.6674C28.2463 40.9995 27.9619 41.2058 27.5827 41.295M20.8714 27.9917L27.5369 41.1003M20.8714 27.9917C20.842 27.8878 20.8148 27.7832 20.7898 27.678C20.3398 25.1401 19.8924 22.6003 19.4624 20.0582C19.4365 19.7685 19.4455 19.4767 19.4892 19.1891L19.4903 19.1817L19.4909 19.1744C19.5216 18.7762 19.4645 18.433 19.2837 18.1689C19.1006 17.9015 18.8132 17.7475 18.4523 17.683C18.2838 17.6445 18.1093 17.6392 17.9388 17.6675C17.7664 17.6961 17.6013 17.7584 17.4531 17.8508C17.3048 17.9432 17.1763 18.064 17.0749 18.2062C16.9735 18.3484 16.9013 18.5092 16.8623 18.6794L16.8623 18.6794L16.8616 18.6828C16.7823 19.0592 16.7821 19.448 16.8609 19.8245C17.9616 26.0295 18.7563 32.2676 18.9187 38.5631L18.9188 38.5649C18.9336 38.9881 19.0133 39.4065 19.1549 39.8057C19.2292 40.0985 19.4086 40.3539 19.6592 40.5234C19.9117 40.6942 20.2186 40.7655 20.5205 40.7239C20.8196 40.692 21.0981 40.5566 21.3076 40.341C21.517 40.1255 21.6443 39.8436 21.6672 39.5442L20.8714 27.9917ZM27.5827 41.295L27.5369 41.1003M27.5827 41.295C27.5828 41.2949 27.5829 41.2949 27.5831 41.2949L27.5369 41.1003M27.5827 41.295C27.1777 41.3909 26.7888 41.3208 26.4761 41.0725C26.1682 40.828 25.9573 40.4293 25.8601 39.91M27.5369 41.1003C26.8306 41.2678 26.2395 40.8503 26.0566 39.8728M25.8601 39.91C25.8601 39.9101 25.8602 39.9103 25.8602 39.9104L26.0566 39.8728M25.8601 39.91C25.8601 39.9099 25.8601 39.9097 25.86 39.9096L26.0566 39.8728M25.8601 39.91L26.0566 39.8728M23.4664 28.7355L23.6221 28.6635L23.6251 28.8634L23.496 28.8654C23.4843 28.8408 23.4725 28.816 23.4608 28.791M23.4664 28.7355L23.294 28.6685L23.297 28.8684L23.4312 28.8664C23.4411 28.8413 23.451 28.8162 23.4608 28.791M23.4664 28.7355L23.4406 28.7475C23.4473 28.7621 23.4541 28.7766 23.4608 28.791M23.4664 28.7355L23.4804 28.7409C23.4739 28.7576 23.4674 28.7743 23.4608 28.791M23.9362 29.8198C23.9363 29.82 23.9364 29.8202 23.9364 29.8204L24.123 29.7484L23.936 29.8192C23.9361 29.8194 23.9361 29.8196 23.9362 29.8198ZM21.7103 37.7489C21.7103 37.7484 21.7102 37.7479 21.7102 37.7474L21.5106 37.7605L21.7104 37.7504C21.7103 37.7499 21.7103 37.7494 21.7103 37.7489Z" fill="#FFA7FE" stroke="#FFA7FE" stroke-width="0.4"/>
        <path d="M123.575 22.6229C123.176 19.8312 122.586 17.064 121.427 14.4506C121.128 13.7243 120.739 13.0385 120.268 12.4095L120.268 12.4094L120.265 12.4046C119.815 11.841 119.279 11.5186 118.701 11.4773C118.124 11.4362 117.546 11.6777 117.017 12.1599C116.486 12.6211 116.041 13.1735 115.705 13.791L115.705 13.791L115.703 13.7947C115.197 14.7699 114.787 15.7915 114.479 16.8453L114.479 16.8453L114.478 16.847C113.468 20.4126 113.331 24.0864 113.194 27.725C113.185 27.9766 113.175 28.2281 113.166 28.4794C113.134 29.0988 113.223 29.7186 113.427 30.3043L113.431 30.3143L123.377 22.6512M123.575 22.6229L123.377 22.6512M123.575 22.6229C123.575 22.6229 123.575 22.6229 123.575 22.6229L123.377 22.6512M123.575 22.6229C123.752 23.8624 123.883 25.1093 124.013 26.3514C124.034 26.5516 124.055 26.7516 124.077 26.9515M123.377 22.6512C123.554 23.8866 123.684 25.1295 123.814 26.3717C123.835 26.5723 123.856 26.7729 123.878 26.9735M124.077 26.9515C124.076 26.9513 124.076 26.9511 124.076 26.9508L123.878 26.9735M124.077 26.9515C124.139 27.5033 124.156 28.0593 124.128 28.6138L124.127 28.6162H124.127C124.096 29.1052 123.914 29.5147 123.621 29.7865C123.326 30.0603 122.93 30.1819 122.507 30.1105C122.082 30.0388 121.69 29.7571 121.43 29.4045C121.17 29.0525 121.019 28.5963 121.129 28.1598M124.077 26.9515C124.077 26.9518 124.077 26.9521 124.077 26.9524L123.878 26.9735M123.878 26.9735L121.129 28.1598M121.129 28.1598C121.129 28.1597 121.129 28.1595 121.129 28.1593L121.323 28.2084L121.129 28.1603C121.129 28.1601 121.129 28.16 121.129 28.1598ZM120.977 21.8963L120.778 21.9192C120.782 21.9859 120.787 22.0525 120.792 22.119L120.99 22.0961C120.986 22.0297 120.981 21.9631 120.977 21.8963ZM116.156 22.6533C116.16 22.5979 116.164 22.5425 116.167 22.4871L115.968 22.4737L115.991 22.6724L116.156 22.6533ZM115.759 28.8422C115.759 28.842 115.759 28.8418 115.759 28.8416L115.56 28.8334L115.759 28.8429C115.759 28.8426 115.759 28.8424 115.759 28.8422ZM116.116 29.8608C116.116 29.8604 116.116 29.8601 116.116 29.8598L115.935 29.9458L116.117 29.8618C116.117 29.8615 116.117 29.8611 116.116 29.8608ZM114.402 31.4904C114.403 31.4912 114.404 31.4919 114.405 31.4926L114.523 31.3307L114.399 31.4881C114.4 31.4889 114.401 31.4897 114.402 31.4904ZM116.661 20.069C116.71 18.0313 117.445 15.8741 118.517 14.5631C119.367 16.0815 119.816 17.6998 120.256 19.5332L116.661 20.069Z" fill="#FFA7FE" stroke="#FFA7FE" stroke-width="0.4"/>
        <path d="M12.0524 42.271L12.0525 42.2714C12.3887 42.1682 12.7077 42.1521 12.9922 42.2568C13.2775 42.362 13.5001 42.5784 13.6625 42.8858C13.7483 43.0252 13.8047 43.1808 13.8281 43.3429C13.8518 43.5076 13.841 43.6753 13.7964 43.8356C13.7517 43.9959 13.6741 44.1451 13.5687 44.2738C13.4632 44.4025 13.3321 44.5079 13.1836 44.5833L13.1807 44.5848L13.1807 44.5848C12.5041 44.9149 11.6805 45.2315 10.9028 45.2074M12.0524 42.271L3.6688 37.7975C2.91768 35.8702 2.51453 33.8253 2.47798 31.7577C2.52381 31.3493 2.56248 30.9439 2.60092 30.541C2.69126 29.594 2.78027 28.661 2.95762 27.7361L2.95763 27.7361L2.95799 27.7341C3.36302 25.4996 4.08456 23.3985 5.62 21.6875C6.419 20.7995 7.24411 20.0694 8.1722 19.6917C9.09015 19.3181 10.1259 19.2825 11.3683 19.8176L11.3683 19.8176L11.372 19.8191C11.5238 19.881 11.6867 19.9111 11.8506 19.9078C12.0145 19.9045 12.176 19.8677 12.3251 19.7997C12.4743 19.7317 12.6079 19.634 12.7179 19.5125C12.8262 19.3927 12.9093 19.2524 12.9621 19.0998C13.0277 18.9406 13.0608 18.7698 13.0591 18.5975C13.0575 18.423 13.0203 18.2506 12.9498 18.0908C12.8794 17.9311 12.7771 17.7873 12.6493 17.6683C12.5215 17.5492 12.3708 17.4574 12.2064 17.3983L12.2064 17.3982L12.1993 17.3959C10.515 16.8608 8.78483 16.5886 7.02142 17.4045C4.62375 18.4792 2.73116 20.4321 1.73477 22.8598C1.0524 24.4997 0.536005 26.2036 0.193282 27.946C-0.598568 31.6967 -0.200243 35.6005 1.33291 39.115C2.23562 41.204 3.53599 42.6989 5.16408 43.6858C6.79016 44.6715 8.73034 45.1429 10.9028 45.2074M12.0524 42.271L12.0402 42.2757M12.0524 42.271L12.0402 42.2757M10.9028 45.2074L10.9089 45.0075M10.9028 45.2074C10.9028 45.2074 10.9029 45.2074 10.903 45.2074L10.9089 45.0075M10.9089 45.0075C11.6353 45.03 12.4218 44.7325 13.093 44.405L10.9089 45.0075ZM12.0402 42.2757C11.6016 42.4423 11.1381 42.5342 10.669 42.5475M12.0402 42.2757L10.669 42.5475M10.669 42.5475C9.0151 42.4518 7.57765 42.0554 6.40057 41.2932C5.22367 40.5312 4.29396 39.3952 3.66889 37.7978L10.669 42.5475Z" fill="#FFA7FE" stroke="#FFA7FE" stroke-width="0.4"/>
        <path d="M169.59 27.4608L169.59 27.4609C169.644 27.8893 169.59 28.3243 169.434 28.7269C169.336 29.0122 169.165 29.2749 168.927 29.4428C168.682 29.616 168.375 29.6814 168.04 29.5736L168.039 29.5734C167.809 29.4984 167.617 29.339 167.456 29.1748C167.349 29.0648 167.242 28.9381 167.144 28.8221C167.099 28.7682 167.055 28.7166 167.014 28.6701L167.012 28.6678L167.012 28.6678C166.92 28.5592 166.898 28.4167 166.889 28.3154C166.884 28.2466 166.883 28.1643 166.883 28.0968C166.883 28.066 166.883 28.0383 166.882 28.0164L166.882 28.0157C166.873 27.639 166.863 27.2616 166.853 26.8837C166.747 23.0106 166.641 19.0834 167.739 15.2514M169.59 27.4608L174.328 28.2108M169.59 27.4608L169.588 27.4479C169.409 26.5232 169.394 25.5967 169.414 24.6409C169.42 24.3905 169.427 24.1374 169.435 23.8818C169.456 23.2341 169.476 22.5704 169.458 21.8937H173.139M169.59 27.4608L173.139 21.8937M167.739 15.2514L167.931 15.3065L167.739 15.2514ZM167.739 15.2514C167.974 14.4293 168.273 13.6219 168.569 12.8238C168.666 12.5604 168.763 12.2979 168.858 12.0363L168.86 12.0287L168.86 12.0288C168.952 11.8047 169.066 11.5907 169.201 11.3901C169.666 10.6495 170.256 9.81548 171.387 9.89734C172.508 9.97842 173.053 10.8106 173.419 11.6302L173.419 11.6319L173.419 11.6319C174.296 13.6455 174.891 15.7697 175.187 17.945C175.646 20.9017 176.049 23.8654 176.42 26.8336L176.421 26.8408L176.421 26.8408C176.467 27.3666 176.339 27.893 176.055 28.3383L176.052 28.3429L176.052 28.3428C175.839 28.6577 175.493 28.7995 175.146 28.792C174.801 28.7846 174.445 28.631 174.182 28.3472M174.182 28.3472C174.182 28.347 174.181 28.3468 174.181 28.3466L174.328 28.2108M174.182 28.3472C174.182 28.3473 174.182 28.3475 174.182 28.3476L174.328 28.2108M174.182 28.3472C173.68 27.812 173.403 27.1053 173.407 26.3723M174.328 28.2108C173.861 27.7123 173.602 27.0538 173.607 26.3709M173.407 26.3723C173.407 26.3732 173.407 26.374 173.407 26.3749L173.607 26.3709M173.407 26.3723C173.385 25.2613 173.303 24.1494 173.217 22.9817C173.191 22.6248 173.165 22.2626 173.139 21.8937M173.407 26.3723C173.407 26.3714 173.407 26.3705 173.407 26.3696L173.607 26.3709M173.607 26.3709L173.139 21.8937M171.202 13.6186C171.984 15.3605 172.389 17.186 172.636 19.1438L169.743 19.3436C169.879 17.3624 170.373 15.4228 171.202 13.6186Z" fill="#FFA7FE" stroke="#FFA7FE" stroke-width="0.4"/>
        <path d="M35.3398 37.8719L35.3398 37.8718C34.8673 35.6318 35.0948 33.4115 35.3302 31.1136C35.345 30.9688 35.3599 30.8237 35.3746 30.6783L39.8743 30.1494C39.9506 30.6146 40.0268 31.0758 40.1026 31.534C40.3456 33.0028 40.5835 34.4414 40.7997 35.8874C40.9216 36.7242 41.5763 37.4894 42.401 37.4655C42.8285 37.4536 43.1885 37.2499 43.4191 36.9203C43.6481 36.5931 43.7426 36.1536 43.6726 35.6719L43.6726 35.6714C43.5972 35.1611 43.4824 34.656 43.3696 34.1598C43.3417 34.0367 43.3138 33.9143 43.2867 33.7924C43.1119 33.0054 42.9441 32.2146 42.7761 31.4226C42.3418 29.376 41.906 27.322 41.343 25.3074L41.343 25.3074L41.3422 25.3047C40.938 23.9338 40.297 22.6439 39.4482 21.4932C38.8181 20.6294 38.0564 20.1774 37.2641 20.1981C36.4742 20.2188 35.719 20.7079 35.0964 21.583L35.0964 21.583L35.0944 21.5858C34.5192 22.4247 34.0763 23.3466 33.7809 24.3194C32.3846 28.7056 32.4421 33.2371 32.5948 37.7348L32.5946 37.7348L32.5954 37.7443C32.6318 38.1898 32.8011 38.6141 33.0815 38.9625C33.3017 39.2424 33.5837 39.4038 33.8934 39.4487C34.2003 39.4932 34.5185 39.4214 34.8144 39.2647C35.0904 39.1188 35.2596 38.9088 35.337 38.6544C35.4119 38.4082 35.3958 38.1379 35.3398 37.8719ZM39.2344 27.5498L35.6829 28.1439C35.945 26.2905 36.26 24.6345 37.3174 23.0424C38.3823 24.4272 38.8088 25.8965 39.2344 27.5498Z" fill="#FFA7FE" stroke="#FFA7FE" stroke-width="0.4"/>
        <path d="M98.8701 28.7581L98.8702 28.7581C98.8383 28.5236 98.826 28.2868 98.8333 28.0502C98.8467 24.1114 98.8625 20.171 98.8809 16.2289C98.8809 16.146 98.8793 16.0593 98.8777 15.9706C98.8743 15.7848 98.8708 15.5903 98.8812 15.4033L98.8816 15.3957L98.8818 15.3957C98.9106 15.0889 99.0037 14.8081 99.1902 14.5938C99.3784 14.3774 99.6446 14.2486 99.9794 14.216C100.131 14.1917 100.286 14.1999 100.434 14.2402C100.584 14.2811 100.724 14.3542 100.843 14.4544C100.962 14.5545 101.059 14.6794 101.125 14.8203C101.19 14.9581 101.225 15.1081 101.227 15.2603C101.303 15.99 101.348 16.7136 101.393 17.433C101.41 17.7008 101.426 17.9679 101.444 18.2346C101.453 18.3488 101.46 18.4646 101.469 18.6102C101.615 18.4212 101.742 18.2593 101.884 18.1118C102.098 17.8813 102.302 17.6429 102.51 17.4001C102.639 17.2495 102.769 17.0973 102.904 16.9441C103.252 16.5501 103.621 16.1636 104.044 15.8405L104.045 15.8396L104.045 15.8396C104.64 15.3915 105.268 15.216 105.863 15.3325C106.456 15.4488 106.978 15.8486 107.377 16.477L107.379 16.4797L107.379 16.4797C107.886 17.305 108.271 18.1991 108.521 19.1343C109.365 22.2019 109.455 25.3554 109.475 28.4824L109.475 28.4837C109.475 28.9638 109.339 29.3708 109.097 29.6583C108.853 29.9484 108.509 30.1059 108.125 30.0909C107.748 30.0762 107.428 29.9165 107.199 29.6226C106.975 29.3347 106.85 28.9329 106.821 28.4457M98.8701 28.7581L107.021 28.4337M98.8701 28.7581L98.8711 28.7638C98.9262 29.0965 99.0555 29.3869 99.276 29.5971C99.4972 29.808 99.7923 29.921 100.146 29.9308M98.8701 28.7581L100.146 29.9308M106.821 28.4457C106.821 28.4457 106.821 28.4456 106.821 28.4456L107.021 28.4337M106.821 28.4457C106.821 28.4458 106.821 28.4459 106.821 28.4459L107.021 28.4337M106.821 28.4457C106.77 27.6088 106.725 26.772 106.681 25.9361L106.681 25.9357C106.636 25.0993 106.592 24.2639 106.541 23.4287L106.541 23.4279C106.426 21.4317 105.998 19.6339 105.238 18.1347M107.021 28.4337C106.969 27.5975 106.925 26.7613 106.88 25.9251C106.836 25.0889 106.792 24.2526 106.74 23.4164C106.622 21.3613 106.175 19.5039 105.372 17.957C105.327 18.0174 105.282 18.0766 105.238 18.1347M105.238 18.1347C105.099 18.318 104.965 18.4909 104.835 18.6574C104.456 19.1446 104.121 19.5765 103.842 20.0502M105.238 18.1347C105.205 18.0687 105.17 18.0032 105.136 17.9384C104.982 18.1422 104.832 18.3352 104.687 18.5216C104.303 19.0157 103.955 19.4643 103.669 19.9491C102.224 22.4265 101.641 25.1613 101.36 27.9787C101.351 28.0808 101.346 28.1835 101.342 28.2862C101.334 28.4552 101.327 28.6238 101.298 28.7886C101.285 28.9254 101.246 29.0585 101.182 29.18C101.118 29.3016 101.03 29.4093 100.925 29.4969C100.819 29.5845 100.696 29.6503 100.565 29.6905C100.433 29.7307 100.295 29.7445 100.158 29.7311M103.842 20.0502L99.0333 28.0537C99.0261 28.2801 99.0378 28.5067 99.0684 28.7311C99.1686 29.3361 99.5267 29.7161 100.158 29.7311M103.842 20.0502C102.418 22.4919 101.838 25.1939 101.559 27.9978C101.55 28.0943 101.546 28.19 101.542 28.2912C101.54 28.3252 101.539 28.3598 101.537 28.3952C101.531 28.5299 101.521 28.6725 101.496 28.8154C101.48 28.9754 101.434 29.1309 101.359 29.2732C101.283 29.4182 101.178 29.5466 101.052 29.651C100.926 29.7555 100.78 29.8339 100.623 29.8818C100.469 29.929 100.307 29.9456 100.146 29.9308M103.842 20.0502L100.146 29.9308M100.158 29.7311L100.138 29.9301C100.141 29.9304 100.143 29.9306 100.146 29.9308M100.158 29.7311L100.153 29.931C100.151 29.931 100.148 29.9309 100.146 29.9308" fill="#FFA7FE" stroke="#FFA7FE" stroke-width="0.4"/>
        <path d="M46.5469 18.9113L46.5581 18.9116L46.5692 18.9107C46.8013 18.8909 47.0313 18.8514 47.2566 18.7925L49.5984 18.4365C49.6043 18.5046 49.61 18.5656 49.6153 18.6215C49.631 18.7879 49.6424 18.9091 49.641 19.0391L49.6406 19.0391L49.6412 19.0514C49.6793 19.8084 49.7096 20.5682 49.7399 21.329C49.8088 23.0584 49.8779 24.7936 50.04 26.5158C50.2273 28.8562 50.8894 31.1342 51.9859 33.2115L51.987 33.2134C52.7247 34.5743 53.6997 35.7679 55.0826 36.542C55.5393 36.8017 56.0499 36.9525 56.5747 36.9825L56.5834 36.9831L56.5922 36.9828C56.9865 36.9707 57.3621 36.812 57.6454 36.5378C57.9286 36.2635 58.0991 35.8935 58.1232 35.5002L58.1233 35.5002L58.1235 35.4938C58.1337 35.1457 58.0299 34.8696 57.7908 34.6539C57.5659 34.451 57.2363 34.316 56.8295 34.1984L56.8295 34.1983L56.8239 34.1969C56.3452 34.0732 55.901 33.8423 55.5251 33.5218C54.1628 32.2324 53.5879 30.5093 53.1538 28.6943C52.3458 25.3071 52.2602 21.8449 52.174 18.3593C52.1728 18.3124 52.1717 18.2654 52.1705 18.2185C52.1937 18.119 52.2284 18.0226 52.2738 17.9312L54.8142 17.5322C55.136 17.4966 55.4548 17.4373 55.7679 17.3549L55.7679 17.3551L55.7762 17.3525C56.0998 17.2522 56.374 17.0823 56.5554 16.8338C56.7389 16.5824 56.8138 16.2692 56.7695 15.912C56.7254 15.5548 56.5759 15.2682 56.3344 15.071C56.0953 14.8759 55.7848 14.7835 55.443 14.7766L55.4421 14.7766C54.9763 14.7692 54.5107 14.8018 54.0504 14.874L54.0503 14.874C53.182 15.0108 52.3199 15.221 51.4672 15.4289C51.0652 15.527 50.6653 15.6245 50.2678 15.7136C49.0176 15.9937 47.771 16.1961 46.4792 16.102L46.4785 16.102C46.1055 16.0761 45.7641 16.3458 45.5375 16.6342C45.3057 16.9291 45.1324 17.3197 45.1401 17.6536C45.1556 18.3247 45.8178 18.8916 46.5469 18.9113Z" fill="#FFA7FE" stroke="#FFA7FE" stroke-width="0.4"/>
        <path d="M79.5959 26.2398C79.5429 25.8519 79.508 25.4617 79.4913 25.0704C79.5011 24.7822 79.5091 24.4945 79.517 24.2074C79.5479 23.0918 79.5785 21.9851 79.7126 20.8908L79.7126 20.8908L79.7128 20.8892C79.8339 19.8292 80.0824 18.7876 80.4528 17.7868C80.6397 17.295 80.8749 17.0641 81.1355 16.9873C81.4058 16.9076 81.7685 16.9732 82.2537 17.2287L82.2538 17.2287C82.3618 17.2855 82.4648 17.351 82.5758 17.4216C82.5996 17.4367 82.6237 17.4521 82.6484 17.4677C82.784 17.5533 82.9317 17.6428 83.0933 17.711L83.0943 17.7114C83.4285 17.85 83.7632 17.8888 84.0608 17.804C84.3631 17.7178 84.6055 17.5097 84.7561 17.1989C84.9009 16.8998 84.9377 16.6052 84.8546 16.3299C84.7723 16.0572 84.5806 15.8304 84.3202 15.648L84.3199 15.6477C83.9868 15.4153 83.6427 15.1786 83.2816 14.969C82.3931 14.4497 81.4865 14.2668 80.6501 14.4459C79.8127 14.6253 79.0719 15.1618 78.5062 16.0307C77.9287 16.8753 77.5368 17.8322 77.3561 18.8387L77.356 18.8387L77.355 18.8454C77.1216 20.4555 77.0133 22.0866 76.9056 23.7079C76.8694 24.253 76.8332 24.797 76.7925 25.3387L76.7924 25.339C76.7839 25.4543 76.7812 25.5705 76.7786 25.6796C76.7779 25.7121 76.7771 25.7441 76.7762 25.7751C76.7723 25.9142 76.7656 26.0418 76.7457 26.1639C76.7071 26.3999 76.6188 26.6164 76.3916 26.8231C76.107 27.0803 75.9965 27.4139 76.0394 27.7371C76.0817 28.0556 76.2704 28.3494 76.5553 28.5457C76.9638 28.8274 77.0244 29.1599 77.0944 29.6585C77.4148 31.9901 77.7678 34.3162 78.1331 36.6391C78.1685 37.0735 78.3096 37.4928 78.544 37.8605L78.551 37.8715L78.5593 37.8815C78.6915 38.0392 78.888 38.2004 79.0918 38.3153C79.2851 38.4244 79.5316 38.5184 79.7518 38.4745C79.9892 38.4318 80.2058 38.2865 80.3832 38.1239C80.5643 37.9578 80.723 37.7565 80.8435 37.5727L80.8441 37.5719C80.9496 37.4092 80.9673 37.204 80.9626 37.0296C80.9581 36.8582 80.93 36.6788 80.9072 36.5332L80.904 36.5123L80.9038 36.5114C80.8126 35.9424 80.7123 35.3831 80.6125 34.8258C80.4895 34.14 80.3672 33.4574 80.2629 32.7637C80.1213 31.8192 80.005 30.8717 79.8895 29.9304C79.8443 29.5627 79.7993 29.1958 79.7529 28.8305C79.8171 28.8076 79.8761 28.7864 79.931 28.7666C80.1035 28.7047 80.2367 28.6568 80.3709 28.6126C81.0734 28.4196 81.765 28.1891 82.4427 27.9222L82.4428 27.9224L82.4525 27.918C83.2384 27.5595 83.5542 26.8006 83.2543 26.1091L83.2541 26.1086C83.0989 25.7533 82.8725 25.5035 82.5373 25.4109C82.2163 25.3223 81.8386 25.3911 81.4074 25.5599C80.9829 25.726 80.5571 25.8837 80.0791 26.0606C79.9241 26.118 79.7636 26.1774 79.5959 26.2398Z" fill="#FFA7FE" stroke="#FFA7FE" stroke-width="0.4"/>
        <path d="M151.091 12.87L151.091 12.87L151.092 12.8726C151.265 13.528 151.954 13.9284 152.701 13.8453C152.838 13.8314 152.966 13.7891 153.073 13.7526C153.081 13.7497 153.09 13.7468 153.098 13.744C153.2 13.7091 153.283 13.6807 153.366 13.6664C154.744 13.4538 156.142 13.3936 157.533 13.4866C157.509 13.5548 157.485 13.6214 157.462 13.6868C157.288 14.1771 157.14 14.5944 156.97 15.017L156.97 15.017L156.97 15.0187C156.766 15.5405 156.548 16.063 156.328 16.5881C155.864 17.6985 155.396 18.8203 155.054 19.9706C154.569 21.5371 154.251 23.1501 154.104 24.7829L154.104 24.7829L154.104 24.7846C154.027 25.729 154.227 26.5372 154.695 27.1771C155.161 27.8158 155.879 28.2668 156.801 28.5257L156.801 28.5258L156.807 28.5271C157.958 28.8163 159.136 28.9858 160.323 29.0328C160.846 29.0727 161.286 28.937 161.594 28.6792C161.903 28.4198 162.065 28.0455 162.037 27.6441C161.98 26.8378 161.171 26.2408 160.287 26.2408V26.2406L160.28 26.2409C159.656 26.2615 159.031 26.2476 158.408 26.1992C157.65 26.1094 157.26 25.957 157.054 25.7023C156.846 25.4462 156.779 25.0326 156.834 24.283L156.834 24.2829C157 22.022 157.833 19.9482 158.689 17.8441L158.689 17.8438C158.815 17.5336 158.945 17.2225 159.076 16.9099C159.437 16.0503 159.802 15.18 160.082 14.2888L160.082 14.2887C160.377 13.3466 160.355 12.5098 159.972 11.8904C159.585 11.2648 158.864 10.9146 157.88 10.8768C156.244 10.8138 154.592 11.025 152.969 11.2325C152.703 11.2664 152.438 11.3003 152.175 11.3328C151.998 11.3504 151.826 11.4058 151.673 11.4951C151.518 11.5849 151.385 11.7068 151.282 11.8527C151.178 11.9986 151.108 12.165 151.075 12.3406C151.042 12.5162 151.048 12.6967 151.091 12.87Z" fill="#FFA7FE" stroke="#FFA7FE" stroke-width="0.4"/>
        <path d="M132.842 13.9021L132.842 13.902C132.19 16.8488 132.254 19.8294 132.319 22.8339C132.329 23.2637 132.338 23.6941 132.345 24.1249L132.345 24.1256C132.36 25.2132 132.634 26.3257 132.91 27.4113L132.91 27.4121C133.069 28.0456 133.341 28.5653 133.733 28.9625C134.125 29.3592 134.645 29.6437 135.315 29.7927L135.319 29.7937L135.319 29.7937C135.909 29.9381 136.475 30.1644 137.002 30.466C137.42 30.6954 137.71 30.9964 137.842 31.3429C137.977 31.6944 137.94 32.0685 137.748 32.4149C137.558 32.7575 137.283 32.98 136.923 33.0489C136.573 33.1158 136.174 33.0321 135.737 32.8323C135.256 32.6133 134.762 32.4228 134.259 32.2617C133.396 32.013 132.607 31.5588 131.959 30.9382C131.311 30.3175 130.823 29.5489 130.539 28.6985C129.56 25.9663 129.415 23.1346 129.574 20.3149L132.842 13.9021ZM132.842 13.9021L132.843 13.8949M132.842 13.9021L132.843 13.8949M132.843 13.8949C132.886 13.6606 132.877 13.4198 132.817 13.1893C132.756 12.9589 132.646 12.7444 132.494 12.5609C132.342 12.3774 132.152 12.2294 131.937 12.1271C131.721 12.0249 131.486 11.9709 131.248 11.969L131.246 12.1689M132.843 13.8949L131.246 12.1689M131.246 12.1689L131.144 11.997C130.849 12.1722 130.587 12.3972 130.37 12.662L130.357 12.6787L130.347 12.6978C130.169 13.0447 130.076 13.4283 130.074 13.8178C130.038 14.2523 130.001 14.6869 129.964 15.1216C129.817 16.85 129.67 18.5803 129.574 20.3148L131.246 12.1689Z" fill="#FFA7FE" stroke="#FFA7FE" stroke-width="0.4"/>
        <path d="M92.6071 23.8413V23.6452L92.4818 23.6427V23.6341V23.6248V23.6155V23.6062V23.5969V23.5876V23.5783V23.569V23.5597V23.5504V23.5411V23.5318V23.5225V23.5132V23.5039V23.4946V23.4853V23.476V23.4667V23.4574V23.4481V23.4387V23.4294V23.4201V23.4108V23.4015V23.3922V23.3829V23.3736V23.3643V23.355V23.3457V23.3364V23.3271V23.3178V23.3085V23.2992V23.2899V23.2806V23.2713V23.262V23.2527V23.2434V23.2341V23.2248V23.2155V23.2061V23.1968V23.1875V23.1782V23.1689V23.1596V23.1503V23.141V23.1317V23.1224V23.1131V23.1038V23.0945V23.0852V23.0759V23.0666V23.0573V23.048V23.0387V23.0294V23.02V23.0107V23.0014V22.9921V22.9828V22.9735V22.9642V22.9549V22.9456V22.9363V22.927V22.9177V22.9084V22.8991V22.8898V22.8805V22.8712V22.8618V22.8525V22.8432V22.8339V22.8246V22.8153V22.806V22.7967V22.7874V22.7781V22.7688V22.7595V22.7502V22.7409V22.7316V22.7223V22.7129V22.7036V22.6943V22.685V22.6757V22.6664V22.6571V22.6478V22.6385V22.6292V22.6199V22.6106V22.6013V22.592V22.5827V22.5733V22.564V22.5547V22.5454V22.5361V22.5268V22.5175V22.5082V22.4989V22.4896V22.4803V22.471V22.4617V22.4524V22.443V22.4337V22.4244V22.4151V22.4058V22.3965V22.3872V22.3779V22.3686V22.3593V22.35V22.3407V22.3314V22.322V22.3127V22.3034V22.2941V22.2848V22.2755V22.2662V22.2569V22.2476V22.2383V22.229V22.2197V22.2104V22.201V22.1917V22.1824V22.1731V22.1638V22.1545V22.1452V22.1359V22.1266V22.1173V22.108V22.0987V22.0894V22.08V22.0707V22.0614V22.0521V22.0428V22.0335V22.0242V22.0149V22.0056V21.9963V21.987V21.9777V21.9683V21.959V21.9497V21.9404V21.9311V21.9218V21.9125V21.9032V21.8939V21.8846V21.8753V21.866V21.8566V21.8473V21.838V21.8287V21.8194V21.8101V21.8008V21.7915V21.7822V21.7729V21.7636V21.7543V21.7449V21.7356V21.7263V21.717V21.7077V21.6984V21.6891V21.6798V21.6705V21.6612V21.6519V21.6426V21.6332V21.6239V21.6146V21.6053V21.596V21.5867V21.5774V21.5681V21.5588V21.5495V21.5402V21.5309V21.5215V21.5122V21.5029V21.4936V21.4843V21.475V21.4657V21.4564V21.4471V21.4378V21.4285V21.4191V21.4098V21.4005V21.3912V21.3819V21.3726V21.3633V21.354V21.3447V21.3354V21.3261V21.3168V21.3074V21.2981V21.2888V21.2795V21.2702V21.2609V21.2516V21.2423V21.233V21.2237V21.2144V21.2051V21.1957V21.1864V21.1771V21.1678V21.1585V21.1492V21.1399V21.1306V21.1213V21.112V21.1027V21.0934V21.084V21.0747V21.0654V21.0561V21.0468V21.0375V21.0282V21.0189V21.0096V21.0003V20.991V20.9817V20.9723V20.963V20.9537V20.9444V20.9351V20.9258V20.9165V20.9072V20.8979V20.8886V20.8793V20.87V20.8606V20.8513V20.842V20.8327V20.8234V20.8141V20.8048V20.7955V20.7862V20.7769V20.7676V20.7583V20.7489V20.7396V20.7303V20.721V20.7117V20.7024V20.6931V20.6838V20.6745V20.6652V20.6559V20.6466V20.6373V20.6279V20.6186V20.6093V20.6V20.5907V20.5814V20.5721V20.5628V20.5535V20.5442V20.5349V20.5256V20.5163V20.5069V20.4976V20.4883V20.479V20.4697V20.4604V20.4511V20.4418V20.4325V20.4232V20.4139V20.4046V20.3953V20.386V20.3766V20.3673V20.358V20.3487V20.3394V20.3301V20.3208V20.3115V20.3022V20.2929V20.2836V20.2743V20.265V20.2557V20.2464V20.237V20.2277V20.2184V20.2091V20.1998V20.1905V20.1812V20.1719V20.1626V20.1533V20.144V20.1347V20.1254V20.1161V20.1068V20.0974V20.0881V20.0788V20.0695V20.0602V20.0509V20.0416V20.0323V20.023V20.0137V20.0044V19.9951V19.9858V19.9765V19.9672V19.9579V19.9486V19.9392V19.9299V19.9206V19.9113V19.902V19.8927V19.8834V19.8741V19.8648V19.8555V19.8462V19.8369V19.8276V19.8183V19.809V19.7997V19.7904V19.7811V19.7718V19.7624V19.7531V19.7438V19.7345V19.7252V19.7159V19.7066V19.6973V19.688V19.6787V19.6694V19.6601V19.6508V19.6415V19.6322V19.6229V19.6136V19.6043V19.595V19.5857V19.5764V19.5671V19.5578V19.5484V19.5391V19.5298V19.5205V19.5112V19.5019V19.4926V19.4833V19.474V19.4647V19.4554V19.4461V19.4368V19.4275V19.4182V19.4089V19.3996V19.3903V19.381V19.3717V19.3624V19.3531V19.3438V19.3345V19.3252V19.3159V19.3066V19.2973V19.288V19.2787V19.2694V19.2601V19.2507V19.2414V19.2321V19.2228V19.2135V19.2042V19.1949V19.1856V19.1763V19.167V19.1577V19.1484V19.1391V19.1298V19.1205V19.1112V19.1019V19.0926V19.0833V19.0778C92.496 18.6984 92.4597 18.3188 92.374 17.9489L92.3741 17.9488L92.3718 17.9404C92.2842 17.6263 92.1325 17.3484 91.8944 17.1568C91.6528 16.9622 91.3421 16.8726 90.971 16.9023L90.9869 17.1016L90.9713 16.9022C90.6392 16.9282 90.3616 17.0558 90.1718 17.3011C89.9865 17.5407 89.9052 17.8666 89.9052 18.2516C89.9052 18.7412 89.9125 19.2281 89.9198 19.7134C89.9343 20.6779 89.9486 21.6363 89.9054 22.5973L89.9054 22.5974C89.8785 23.1992 89.9005 23.8124 89.9223 24.4163C89.934 24.7424 89.9457 25.0658 89.9494 25.3832C89.9603 26.3007 89.9075 27.1976 89.622 28.0767L89.6173 28.091L89.6149 28.1058C89.5805 28.3134 89.5955 28.5261 89.6585 28.7268C89.7654 29.2397 89.9623 29.6696 90.2419 29.97C90.5273 30.2766 90.8964 30.4442 91.3187 30.4206C91.7342 30.3973 92.0667 30.2179 92.288 29.8706C92.5009 29.5364 92.5993 29.0651 92.607 28.4736L92.607 28.4729C92.6171 27.4436 92.6137 26.4132 92.6104 25.3836C92.6087 24.8692 92.6071 24.355 92.6071 23.8413Z" fill="#FFA7FE" stroke="#FFA7FE" stroke-width="0.4"/>
        <path d="M144.972 23.2266V23.0626L144.913 23.0508C144.885 22.5462 144.857 22.0412 144.83 21.536C144.756 20.1569 144.681 18.7762 144.594 17.3971C144.599 17.0073 144.504 16.6225 144.319 16.2794L144.314 16.2701L144.308 16.2615C144.195 16.0963 144.048 15.957 143.877 15.8526C143.706 15.7483 143.515 15.6813 143.317 15.6561L143.288 15.6524L143.259 15.6571C143.061 15.6893 142.873 15.7649 142.707 15.8783C142.542 15.9918 142.403 16.1404 142.302 16.3135L142.296 16.3236L142.292 16.3343C142.118 16.7314 142.044 17.1648 142.077 17.5968C142.119 19.5138 142.181 21.431 142.242 23.3457C142.257 23.8194 142.273 24.293 142.287 24.7664C142.289 24.8638 142.296 24.961 142.309 25.0575L142.309 25.0575L142.31 25.0637C142.443 25.8784 142.942 26.5174 143.697 26.4989C144.06 26.4899 144.375 26.3355 144.6 26.0634C144.823 25.7947 144.95 25.4229 144.971 24.9864H144.971L144.971 24.9843C144.987 24.5962 144.982 24.197 144.977 23.8033C144.974 23.6091 144.972 23.4162 144.972 23.2266Z" fill="#FFA7FE" stroke="#FFA7FE" stroke-width="0.4"/>
        <path d="M141.79 10.9547C140.966 10.9384 140.258 11.4555 140.227 12.1734C140.211 12.5367 140.393 12.8619 140.667 13.0918C140.941 13.322 141.318 13.4672 141.727 13.477L141.727 13.477C142.136 13.4866 142.523 13.3724 142.818 13.1732C143.112 12.9745 143.33 12.6806 143.363 12.3311L143.363 12.3309C143.4 11.9388 143.229 11.5917 142.938 11.3477C142.65 11.1056 142.244 10.9629 141.79 10.9547ZM141.79 10.9547C141.79 10.9547 141.791 10.9547 141.791 10.9547L141.787 11.1546L141.79 10.9547C141.79 10.9547 141.79 10.9547 141.79 10.9547Z" fill="#FFA7FE" stroke="#FFA7FE" stroke-width="0.4"/>
        <path d="M90.4211 15.9716L90.4237 15.9716C91.2605 15.9607 91.9427 15.4434 91.9083 14.6727L91.9083 14.6727L91.908 14.668C91.861 13.9828 91.1761 13.4992 90.4311 13.4992C90.0224 13.4992 89.645 13.6557 89.3732 13.8968C89.1026 14.1368 88.9229 14.4749 88.9466 14.8396C88.9694 15.1896 89.138 15.4792 89.4069 15.6768C89.6721 15.8718 90.0259 15.9716 90.4211 15.9716Z" fill="#FFA7FE" stroke="#FFA7FE" stroke-width="0.4"/>
    </g>
    <defs>
        <clipPath id="clip0_819_11103">
            <rect width="211" height="45" fill="white"/>
        </clipPath>
    </defs>
</svg>
