<svg width="48" height="48" viewBox="0 0 48 48" fill="none" xmlns="http://www.w3.org/2000/svg">
    <mask id="mask0_394_1557" style="mask-type:alpha" maskUnits="userSpaceOnUse" x="0" y="0" width="48" height="48">
        <rect width="48" height="48" rx="24" fill="#D9D9D9"/>
    </mask>
    <g mask="url(#mask0_394_1557)">
        <rect y="-0.827759" width="50.4828" height="50.4828" fill="#E7EBF8"/>
        <path d="M19.8574 13.8158C19.8574 13.8158 18.5475 10.7358 17.4868 10.7585C16.9564 10.7585 16.6724 11.1374 16.3275 11.6295C14.3973 14.438 13.4004 17.747 12.4324 20.9938C9.14588 32.0238 3.70315 42.1771 2.47724 53.5918C1.94977 58.4959 -4.44355 62.9249 -7.4895 57.1044C-8.87192 54.4572 -8.2778 51.2812 -7.6489 48.3737C-7.02 45.4663 -6.5592 43.0821 -6.80554 40.0729C-6.96494 38.1412 -7.19679 36.1898 -7.92712 34.3882C-8.65746 32.5866 -9.95583 30.9321 -11.7411 30.1091C-13.5263 29.2861 -15.5637 29.3738 -17.4852 29.699C-18.6445 29.8942 -19.8211 30.1883 -20.7804 30.8558C-21.7397 31.5232 -22.4469 32.6291 -22.3338 33.7745C-22.2208 34.9199 -21.105 35.9607 -19.9458 35.7712C-18.7082 35.5704 -18.0301 34.2468 -16.9259 33.6642C-15.329 32.8157 -13.2249 33.831 -12.3381 35.3781C-11.4513 36.9251 -11.4861 38.8059 -11.6599 40.5707C-12.1265 45.2627 -13.4162 49.8586 -13.6886 54.5647C-13.7959 56.5586 -13.6886 58.6798 -12.5584 60.3484C-11.7788 61.5052 -10.576 62.3282 -9.31534 62.9645C-6.94465 64.1524 -4.60005 64.2259 -1.93665 64.2259H40.956C42.5297 64.2259 43.66 63.5188 44.0831 62.2461C44.5062 60.9734 44.2338 59.582 43.9556 58.2669C41.981 48.9846 39.7938 39.7458 37.3941 30.5503C36.4696 27.015 35.5104 23.4798 34.2699 20.0407C33.641 18.3013 32.9397 16.5818 32.1398 14.9103C31.6384 13.8723 31.195 12.7806 30.485 11.8558C29.5373 10.617 28.8968 10.5577 28.0128 11.9152L26.755 13.844C24.2858 13.7705 19.843 13.8101 19.843 13.8101" fill="#9188FD"/>
        <path d="M15.9258 21.6187C15.9258 22.2899 16.1297 22.9461 16.5119 23.5042C16.894 24.0623 17.4372 24.4973 18.0727 24.7542C18.7082 25.0111 19.4074 25.0783 20.082 24.9473C20.7567 24.8164 21.3763 24.4931 21.8627 24.0185C22.3491 23.5439 22.6803 22.9391 22.8145 22.2808C22.9487 21.6225 22.8798 20.9401 22.6166 20.3199C22.3534 19.6998 21.9076 19.1697 21.3357 18.7968C20.7638 18.4239 20.0914 18.2248 19.4036 18.2248C18.4812 18.2248 17.5966 18.5824 16.9444 19.2189C16.2922 19.8553 15.9258 20.7186 15.9258 21.6187" fill="white"/>
        <path d="M19.0898 21.3045C19.0898 22.5659 19.6695 23.584 20.3795 23.584C21.0896 23.584 21.6663 22.5659 21.6663 21.3045C21.6663 20.0431 21.0867 19.0419 20.3795 19.0419C19.6724 19.0419 19.0898 20.0629 19.0898 21.3045Z" fill="#463677"/>
        <path d="M24.4863 21.6187C24.4863 22.2899 24.6903 22.9461 25.0724 23.5042C25.4546 24.0623 25.9977 24.4973 26.6332 24.7542C27.2687 25.0111 27.968 25.0783 28.6426 24.9473C29.3172 24.8164 29.9369 24.4931 30.4233 24.0185C30.9096 23.5439 31.2409 22.9391 31.3751 22.2808C31.5093 21.6225 31.4404 20.9401 31.1772 20.3199C30.9139 19.6998 30.4682 19.1697 29.8963 18.7968C29.3243 18.4239 28.6519 18.2248 27.9641 18.2248C27.0417 18.2248 26.1572 18.5824 25.5049 19.2189C24.8527 19.8553 24.4863 20.7186 24.4863 21.6187Z" fill="white"/>
        <path d="M27.6543 21.3045C27.6543 22.5659 28.2339 23.584 28.9411 23.584C29.6482 23.584 30.2308 22.5659 30.2308 21.3045C30.2308 20.0431 29.6511 19.0419 28.9411 19.0419C28.231 19.0419 27.6543 20.0629 27.6543 21.3045Z" fill="#463677"/>
        <path d="M38.743 33.6757C38.6264 32.8851 38.3052 32.1366 37.8098 31.5008C37.7561 31.4297 37.6855 31.3724 37.604 31.334C37.4946 31.2981 37.377 31.2932 37.2649 31.3198C33.3698 31.8855 29.3095 32.4228 25.3216 32.6746C23.8461 32.7679 22.3659 32.7679 20.8904 32.6746C16.9025 32.4228 12.8393 31.8827 8.94709 31.3198C8.83397 31.2933 8.71551 31.2982 8.6051 31.334C8.52517 31.3735 8.45573 31.4307 8.40224 31.5008C7.90705 32.1371 7.58501 32.8853 7.46613 33.6757C7.43608 33.7916 7.44627 33.914 7.49511 34.0236C7.54471 34.0965 7.61253 34.1559 7.69219 34.1961C8.44281 34.6571 15.749 36.2324 17.5111 36.4926C19.3577 36.7608 21.2184 36.926 23.0843 36.9876H23.1277C24.9936 36.9259 26.8543 36.7606 28.7009 36.4926C30.4601 36.2324 37.7663 34.6571 38.5198 34.1961C38.5995 34.1559 38.6673 34.0965 38.7169 34.0236C38.7648 33.9137 38.7739 33.7913 38.743 33.6757" fill="#FFA7FE"/>
        <path d="M24.812 25.9767C24.7829 25.8744 24.7265 25.7815 24.6486 25.7075C24.5707 25.6335 24.4741 25.5809 24.3686 25.5553L24.2121 25.5242C24.1168 25.5018 24.0175 25.5018 23.9223 25.5242C23.8108 25.5005 23.6972 25.4881 23.5832 25.4874C23.3716 25.3983 23.1394 25.3665 22.9109 25.3953C22.6824 25.4242 22.4661 25.5127 22.2848 25.6514C21.7052 26.0615 21.3052 27.0655 22.1254 27.4869C22.3051 27.5774 22.503 27.6286 22.705 27.6368C23.012 27.7271 23.3353 27.7512 23.6527 27.7075C23.7561 27.6927 23.8579 27.669 23.957 27.6368C24.0193 27.6337 24.0813 27.6261 24.1425 27.6142C24.3772 27.5695 24.5848 27.4373 24.7212 27.2456C24.8576 27.0538 24.912 26.8178 24.8728 26.5876C24.8875 26.3821 24.8669 26.1756 24.812 25.9767V25.9767Z" fill="#FFA7FE"/>
        <path d="M27.3527 27.6032C26.2485 28.0246 25.324 28.5845 24.0981 28.6043C23.049 28.6185 21.2 28.5647 20.4348 27.6823C19.9219 27.0799 19.0235 27.9312 19.5393 28.5308C20.119 29.2237 21.739 29.6847 22.594 29.7526C23.4489 29.8205 24.414 29.9393 25.2197 29.73C26.0891 29.5037 26.8629 29.0823 27.6889 28.7656C28.4395 28.4827 28.1063 27.3147 27.3527 27.6032Z" fill="#FFA7FE"/>
        <path d="M23.3439 26.6644C22.9034 26.769 22.7643 27.1933 22.7034 27.5525C22.6426 27.9116 22.4629 28.2227 22.4774 28.5791C22.5122 29.3597 23.7787 29.3625 23.7439 28.5791C23.7634 28.3983 23.8063 28.2206 23.8714 28.0502C23.9053 27.9354 23.9295 27.8181 23.9439 27.6995C24.0397 27.6035 24.101 27.4798 24.1187 27.3469C24.1363 27.214 24.1093 27.0791 24.0417 26.9624C23.9741 26.8458 23.8695 26.7537 23.7437 26.6999C23.6179 26.6462 23.4776 26.6337 23.3439 26.6644V26.6644Z" fill="#FFA7FE"/>
        <path d="M16.5315 25.0466C13.7782 24.481 11.0511 23.8041 8.35001 23.0159C7.57717 22.7953 6.8111 22.5663 6.05178 22.3287C5.68661 22.2127 5.52721 22.7756 5.89238 22.8943C8.57607 23.7277 11.2878 24.4621 14.0275 25.0975C14.8071 25.2785 15.5896 25.4482 16.3721 25.6123C16.7489 25.6943 16.9082 25.1286 16.5315 25.0466Z" fill="#463677"/>
        <path d="M14.7915 26.5232C11.6967 26.3428 8.61942 25.9429 5.58406 25.3269C4.72814 25.1553 3.87705 24.9667 3.03079 24.7612C2.95392 24.741 2.87196 24.7513 2.80294 24.7901C2.73391 24.8288 2.68348 24.8927 2.66272 24.9677C2.64197 25.0427 2.6526 25.1227 2.69228 25.19C2.73195 25.2574 2.79742 25.3066 2.87429 25.3269C5.92297 26.0688 9.02229 26.5962 12.1484 26.905C13.0178 26.9927 13.9104 27.0606 14.7915 27.1143C15.1769 27.1313 15.1769 26.543 14.7915 26.5232Z" fill="#463677"/>
        <path d="M13.0617 27.8776C10.3742 28.376 7.65366 28.686 4.92082 28.8053C4.53826 28.8222 4.53536 29.4077 4.92082 29.3907C7.70721 29.2668 10.481 28.9493 13.2211 28.4404C13.6008 28.3697 13.4414 27.8069 13.0617 27.8776Z" fill="#463677"/>
        <path d="M38.9978 20.8864L31.2017 25.0834C30.8627 25.2645 31.1641 25.7707 31.4915 25.5869L39.2876 21.3898C39.6382 21.2031 39.3368 20.6997 38.9978 20.8864Z" fill="#463677"/>
        <path d="M41.6277 23.505C39.1295 24.2403 36.6091 24.9002 34.0664 25.4847C33.3448 25.6516 32.6174 25.8071 31.8986 25.9599C31.5248 26.0391 31.6842 26.6019 32.058 26.5255C34.6123 25.9919 37.1443 25.3782 39.6541 24.6843C40.367 24.4958 41.078 24.2931 41.7871 24.0763C42.1523 23.9603 41.9958 23.3947 41.6277 23.505Z" fill="#463677"/>
        <path d="M42.31 27.405L34.8559 27.1901L32.7403 27.1279C32.3548 27.1279 32.3548 27.6935 32.7403 27.7133L40.1972 27.9283L42.3129 27.9876C42.392 27.9873 42.4678 27.9562 42.5235 27.9013C42.5792 27.8464 42.6103 27.7722 42.6099 27.6949C42.6095 27.6177 42.5777 27.5437 42.5215 27.4894C42.4652 27.435 42.3891 27.4047 42.31 27.405V27.405Z" fill="#463677"/>
    </g>
</svg>
