<svg width="48" height="48" viewBox="0 0 48 48" fill="none" xmlns="http://www.w3.org/2000/svg">
    <mask id="mask0_394_1580" style="mask-type:alpha" maskUnits="userSpaceOnUse" x="0" y="0" width="48" height="48">
        <rect width="48" height="48" rx="24" fill="#D9D9D9"/>
    </mask>
    <g mask="url(#mask0_394_1580)">
        <rect y="-0.827759" width="50.4828" height="50.4828" fill="#E7EBF8"/>
        <path d="M14.0583 18.5626C13.3187 18.7364 12.6124 19.025 11.9666 19.4175C11.9147 19.447 11.8704 19.4877 11.8372 19.5365C11.8039 19.5854 11.7826 19.641 11.7748 19.6991C11.767 19.7572 11.773 19.8163 11.7923 19.8718C11.8116 19.9273 11.8437 19.9778 11.8861 20.0193C12.0145 20.1653 12.186 20.269 12.3771 20.3164L13.4671 21.6772C13.5221 21.7305 13.5919 21.7668 13.6679 21.7814C13.7439 21.7961 13.8226 21.7885 13.8942 21.7596C13.9658 21.7307 14.027 21.6819 14.0702 21.6191C14.1133 21.5564 14.1366 21.4826 14.1369 21.407C14.1182 20.5983 14.2554 19.7934 14.5415 19.0341C14.6475 18.7466 14.3195 18.4994 14.0583 18.5626ZM13.5143 19.7548C13.5004 19.6833 13.4664 19.6169 13.4161 19.5631L13.5752 19.5056C13.5437 19.5861 13.5221 19.6705 13.5045 19.7548H13.5143Z" fill="#463677"/>
        <path d="M33.8294 19.0341C34.1155 19.7934 34.2527 20.5983 34.234 21.407C34.2346 21.4821 34.2579 21.5554 34.3008 21.6178C34.3438 21.6802 34.4045 21.7288 34.4756 21.7577C34.5474 21.7875 34.6266 21.7958 34.7032 21.7814C34.7798 21.7671 34.8503 21.7308 34.9057 21.6772L35.9958 20.3164C36.1865 20.2694 36.3574 20.1655 36.4848 20.0193C36.5273 19.9779 36.5595 19.9276 36.579 19.8722C36.5984 19.8167 36.6046 19.7577 36.597 19.6996C36.5894 19.6415 36.5683 19.5858 36.5352 19.5369C36.5022 19.488 36.458 19.4472 36.4063 19.4175C35.7598 19.025 35.0529 18.7364 34.3126 18.5626C34.0435 18.4994 33.7234 18.7466 33.8294 19.0341ZM34.7977 19.5037L34.9548 19.5612C34.9053 19.6155 34.8714 19.6816 34.8566 19.7529C34.8389 19.6705 34.8193 19.5861 34.7977 19.5037V19.5037Z" fill="#463677"/>
        <path d="M36.5539 54.9508C34.9512 51.9397 33.3662 48.8731 32.3468 45.6147C31.8292 44.0229 31.4997 42.3786 31.3648 40.7138C31.2479 39.0136 31.3936 37.3059 31.7969 35.648C32.2015 33.9575 32.8006 32.3225 33.3407 30.6646C33.9134 28.9778 34.3385 27.2466 34.6114 25.4896C34.8747 23.704 34.9589 21.8976 34.8628 20.0961C34.7843 18.7007 34.5682 17.2038 33.7413 16.025C32.7966 14.6738 31.2509 14.1965 29.6895 13.8554C27.8772 13.4608 26.04 13.1848 24.1901 13.0293C22.5481 12.8913 20.8511 12.7782 19.2249 13.0638C17.6792 13.3359 16.32 14.0777 15.4401 15.3638C14.5602 16.6499 14.1438 18.2388 13.9062 19.7319C13.6742 21.2835 13.6274 22.8561 13.7667 24.4182C14.026 27.6286 14.8214 30.7681 15.391 33.9326C15.9606 37.097 16.2768 40.3285 15.6012 43.5044C14.9 46.8011 13.3759 49.8544 11.7339 52.7888C11.3254 53.5191 10.9071 54.2455 10.4887 54.97C10.4634 55.0113 10.4467 55.057 10.4395 55.1046C10.4324 55.1522 10.4349 55.2007 10.4469 55.2473C10.4589 55.2939 10.4803 55.3378 10.5097 55.3764C10.5391 55.415 10.576 55.4475 10.6183 55.4722C10.6172 55.5191 10.6263 55.5658 10.6452 55.6089C10.6641 55.6521 10.6923 55.6908 10.7279 55.7225C10.7635 55.7541 10.8056 55.7779 10.8514 55.7922C10.8972 55.8066 10.9457 55.8112 10.9935 55.8057L17.0821 55.3955C19.0972 55.2594 21.1242 55.131 23.1393 55.338C26.8867 55.7213 30.4829 57.1493 34.2854 57.1071C35.1162 57.1071 36.33 57.1397 36.8564 56.373C37.0005 56.1428 37.0495 55.8677 36.9933 55.6036C36.9371 55.3394 36.78 55.106 36.5539 54.9508Z" fill="#FFA7FE"/>
        <path d="M32.2283 28.798C31.916 26.9484 30.2229 25.8942 28.7263 24.9646C28.0251 24.5295 27.3083 24.0945 26.7289 23.506C26.4159 23.2016 26.1723 22.8361 26.0139 22.4335C25.8555 22.0309 25.7859 21.6002 25.8097 21.1696C25.8941 19.7034 27.0824 18.5495 27.1452 17.1446C27.1852 16.7496 27.1438 16.3507 27.0235 15.9716C26.7367 15.2375 25.9393 14.8216 25.1753 14.5839C23.8633 14.1603 22.4138 14.0223 21.0979 14.4402C20.656 14.582 20.2062 14.8082 19.9823 15.2068C19.5109 16.0502 20.1394 17.0028 20.4713 17.7694C20.8534 18.6009 21.0688 19.4962 21.1057 20.4068C21.1312 21.6024 20.8215 22.7821 20.2101 23.8185C19.5914 24.8592 18.739 25.7351 17.9632 26.6647C16.5098 28.407 15.1644 30.8258 16.445 33.0262C17.4526 34.7608 19.6189 35.537 21.5516 35.7364C24.1194 36.0044 26.7103 35.5101 28.9856 34.318C31.0125 33.2178 32.6309 31.1708 32.2283 28.798Z" fill="white"/>
        <path d="M19.0247 23.2373C19.5378 23.2373 19.9537 22.7189 19.9537 22.0796C19.9537 21.4402 19.5378 20.9219 19.0247 20.9219C18.5116 20.9219 18.0957 21.4402 18.0957 22.0796C18.0957 22.7189 18.5116 23.2373 19.0247 23.2373Z" fill="#463677"/>
        <path d="M28.6341 23.2373C29.1472 23.2373 29.5631 22.7189 29.5631 22.0796C29.5631 21.4402 29.1472 20.9219 28.6341 20.9219C28.121 20.9219 27.7051 21.4402 27.7051 22.0796C27.7051 22.7189 28.121 23.2373 28.6341 23.2373Z" fill="#463677"/>
        <path d="M31.9442 37.9229C31.9322 37.7606 31.8759 37.6045 31.7812 37.4706C31.5258 37.1256 31.0427 37.0451 30.6027 36.9933C28.7057 36.7838 26.7984 36.6757 24.8892 36.6694C23.2303 36.6502 21.5713 36.6822 19.9123 36.7652C19.0167 36.8093 15.9252 36.5467 15.4637 37.4341C15.3792 37.6233 15.3312 37.826 15.3223 38.0321C15.2732 38.496 15.228 38.9905 15.4165 39.4122C15.8427 40.3839 17.4886 40.1175 18.3489 40.1347C19.2897 40.1539 20.2324 40.1558 21.1752 40.1501L21.1065 40.1922C22.4165 40.2018 23.7246 40.2325 25.0346 40.2267C24.8601 40.1684 24.6816 40.1223 24.5004 40.0887C25.5479 40.0581 26.5993 40.021 27.6547 39.9776C29.2593 39.9124 31.3412 40.451 31.8715 38.542C31.9327 38.3414 31.9573 38.1318 31.9442 37.9229Z" fill="#463677"/>
        <path d="M19.1649 11.1014C18.5109 9.78847 16.7393 9.99164 15.5039 10.0472C12.7856 10.1699 9.2346 10.099 8.16221 13.0238C7.90323 13.7305 7.681 14.4496 7.4964 15.1782C7.1235 16.6398 6.89916 18.1337 6.82665 19.6383C6.79719 20.2478 6.76576 20.8994 7.00538 21.4783C7.11567 21.7678 7.30851 22.0206 7.56116 22.2067C7.8138 22.3928 8.11572 22.5045 8.43129 22.5286C9.09515 22.5785 9.76097 22.2641 10.305 21.9268C10.9178 21.5434 11.5031 21.1141 12.0727 20.6829C13.2631 19.7992 14.4026 18.8522 15.4862 17.8462C16.5193 16.8878 17.5681 15.8835 18.4107 14.7565C19.1865 13.7407 19.7817 12.3242 19.1649 11.1014Z" fill="#463677"/>
        <path d="M29.3933 14.7562C30.2378 15.8832 31.2866 16.8856 32.3197 17.8459C33.4029 18.8524 34.5425 19.7994 35.7333 20.6826C36.3107 21.1138 36.896 21.5451 37.501 21.9265C38.045 22.2638 38.7108 22.5782 39.3747 22.5283C39.6903 22.5042 39.9922 22.3925 40.2448 22.2064C40.4975 22.0203 40.6903 21.7675 40.8006 21.478C41.0383 20.903 41.0088 20.2475 40.9793 19.638C40.9058 18.1335 40.6815 16.6397 40.3096 15.1779C40.1348 14.4879 40.0012 13.6752 39.5927 13.0964C39.1842 12.5175 38.4418 12.023 37.8898 11.563C37.5981 11.2966 37.2671 11.0744 36.9078 10.9037C35.4603 10.2961 33.8615 10.1159 32.2962 10.045C31.0608 9.98944 29.2872 9.78627 28.6352 11.0992C28.04 12.3239 28.6352 13.7404 29.3933 14.7562Z" fill="#463677"/>
        <path d="M25.4206 30.0896C25.4054 29.9216 25.3554 29.7584 25.2737 29.6099C25.192 29.4613 25.0803 29.3304 24.9453 29.2252C24.7939 29.1453 24.6379 29.0743 24.4779 29.0124C24.4268 28.9837 24.4013 28.9377 24.417 28.907C24.459 28.8331 24.4757 28.7481 24.4647 28.6644C24.4538 28.5806 24.4157 28.5024 24.3561 28.4412C24.2947 28.3815 24.2148 28.3434 24.1288 28.3326C24.0429 28.3219 23.9557 28.3392 23.8808 28.3818C23.4254 28.7101 23.0714 29.1544 22.8575 29.666C22.7575 29.6395 22.6508 29.6526 22.5607 29.7025C22.4706 29.7524 22.4043 29.835 22.3763 29.9324C22.2447 30.6397 22.123 31.4006 22.4745 32.0676C22.779 32.6426 23.4428 33.0547 24.1145 32.9052C24.7038 32.7729 25.0455 32.2535 25.2242 31.7322C25.4144 31.2058 25.4815 30.6445 25.4206 30.0896V30.0896ZM24.635 30.8064C24.635 30.8639 24.6173 30.9252 24.6075 30.9866C24.6229 30.718 24.6137 30.4486 24.58 30.1816V30.1662C24.58 30.1317 24.58 30.0972 24.5663 30.0627C24.557 29.9885 24.5199 29.9202 24.4622 29.8711L24.4386 29.8174C24.7332 29.9727 24.6645 30.5189 24.633 30.8122L24.635 30.8064Z" fill="#FFA7FE"/>
        <path d="M29.7358 29.2154C29.6455 29.4857 29.3135 29.5872 29.0582 29.6505C28.7357 29.7224 28.4068 29.7635 28.0762 29.7732C27.386 29.8341 26.6906 29.7457 26.0394 29.5144C25.7288 29.3959 25.4502 29.2096 25.2248 28.9697C24.9994 28.7299 24.8333 28.4428 24.7392 28.1306C24.5428 27.4616 24.5762 26.7448 24.641 26.0548C24.8086 26.0163 24.9723 25.963 25.1301 25.8957C25.2028 25.8651 25.2735 25.8325 25.3422 25.7961C25.4219 25.7523 25.4986 25.7036 25.572 25.6504L25.5936 25.6351C25.6237 25.6137 25.6526 25.5907 25.68 25.5661C25.8908 25.408 26.0733 25.2169 26.2201 25.0006C26.5049 24.5675 26.6679 23.9695 26.3694 23.5037C26.1062 23.0916 25.5445 22.8559 25.079 22.7543C24.5425 22.6395 23.9843 22.6673 23.4626 22.8348C23.2349 22.8435 23.0103 22.8902 22.7987 22.9728C22.5786 23.0518 22.3802 23.1794 22.2191 23.3456C22.0579 23.5119 21.9383 23.7123 21.8697 23.9311C21.841 24.0375 21.8259 24.147 21.8245 24.257C21.7673 24.4985 21.7843 24.7511 21.8734 24.9832C21.9625 25.2154 22.1197 25.4168 22.3254 25.5622C22.4946 25.6909 22.6801 25.7978 22.8773 25.8804C23.134 26.0118 23.4139 26.0944 23.7022 26.1238C24.0557 27.5057 23.0776 28.8532 21.8069 29.3937C21.0694 29.6874 20.2714 29.8076 19.4775 29.7444C19.0749 29.7195 18.0201 29.6409 18.0751 29.0467C18.0751 28.9451 18.0338 28.8476 17.9601 28.7757C17.8864 28.7038 17.7865 28.6634 17.6823 28.6634C17.5781 28.6634 17.4782 28.7038 17.4046 28.7757C17.3309 28.8476 17.2895 28.9451 17.2895 29.0467C17.2267 29.7272 17.8552 30.1642 18.4444 30.3539C19.1632 30.5465 19.9159 30.587 20.652 30.4727C22.0269 30.3022 23.331 29.6447 24.0381 28.4775C24.1998 28.9728 24.5055 29.4116 24.918 29.7406C25.9668 30.5686 27.4241 30.6395 28.7086 30.4785C29.4353 30.3865 30.2406 30.168 30.494 29.4128C30.6511 28.949 29.893 28.7477 29.7358 29.2154Z" fill="#463677"/>
        <path d="M23.2715 41.9384C24.2434 41.9384 25.0313 41.1696 25.0313 40.2211C25.0313 39.2726 24.2434 38.5038 23.2715 38.5038C22.2996 38.5038 21.5117 39.2726 21.5117 40.2211C21.5117 41.1696 22.2996 41.9384 23.2715 41.9384Z" fill="white"/>
    </g>
</svg>