<svg width="48" height="48" viewBox="0 0 48 48" fill="none" xmlns="http://www.w3.org/2000/svg">
    <mask id="mask0_0_1" style="mask-type:alpha" maskUnits="userSpaceOnUse" x="0" y="0" width="48" height="48">
        <rect width="48" height="48" rx="24" fill="#D9D9D9"/>
    </mask>
    <g mask="url(#mask0_0_1)">
        <rect y="-0.827759" width="50.4828" height="50.4828" fill="#E7EBF8"/>
    </g>
    <path fill-rule="evenodd" clip-rule="evenodd" d="M24 16C24.5523 16 25 16.4477 25 17V23H31C31.5523 23 32 23.4477 32 24C32 24.5523 31.5523 25 31 25H25V31C25 31.5523 24.5523 32 24 32C23.4477 32 23 31.5523 23 31V25H17C16.4477 25 16 24.5523 16 24C16 23.4477 16.4477 23 17 23H23V17C23 16.4477 23.4477 16 24 16Z" fill="#463677"/>
</svg>
