<svg width="30" height="30" viewBox="0 0 30 30" fill="none" xmlns="http://www.w3.org/2000/svg">
    <circle cx="15" cy="15" r="15" fill="#9188FD"/>
    <path d="M15.308 15.0002H11.8705M11.8176 15.1824L10.3583 19.5416C10.2436 19.8841 10.1863 20.0553 10.2274 20.1607C10.2632 20.2523 10.3399 20.3217 10.4346 20.3482C10.5436 20.3786 10.7083 20.3045 11.0376 20.1563L21.4823 15.4562C21.8037 15.3115 21.9644 15.2392 22.0141 15.1387C22.0573 15.0514 22.0573 14.949 22.0141 14.8617C21.9644 14.7613 21.8037 14.6889 21.4823 14.5443L11.0339 9.84256C10.7056 9.69481 10.5414 9.62093 10.4325 9.65124C10.3379 9.67756 10.2612 9.7468 10.2254 9.8382C10.1841 9.94345 10.2408 10.1143 10.3542 10.456L11.818 14.8662C11.8375 14.9249 11.8472 14.9542 11.8511 14.9842C11.8545 15.0109 11.8544 15.0378 11.851 15.0645C11.847 15.0945 11.8372 15.1238 11.8176 15.1824Z" stroke="white" stroke-width="1.5" stroke-linecap="round" stroke-linejoin="round"/>
</svg>
